<?xml version="1.0" encoding="UTF-8" standalone="no"?>
<!DOCTYPE svg PUBLIC "-//W3C//DTD SVG 1.1//EN"
 "http://www.w3.org/Graphics/SVG/1.1/DTD/svg11.dtd">
<!-- Generated by graphviz version 9.0.0 (20230911.1827)
 -->
<!-- Title: TextureDict Pages: 1 -->
<svg width="312pt" height="261pt"
 viewBox="0.00 0.00 311.75 260.50" xmlns="http://www.w3.org/2000/svg" xmlns:xlink="http://www.w3.org/1999/xlink">

<svg id="main" version="1.1" xmlns="http://www.w3.org/2000/svg" xmlns:xlink="http://www.w3.org/1999/xlink" xml:space="preserve" onload="init(evt)">
<style type="text/css"><![CDATA[
.node, .edge {opacity: 0.7;}
.node.selected, .edge.selected {opacity: 1;}
.edge:hover path { stroke: red; }
.edge:hover polygon { stroke: red; fill: red; }
]]></style>
<script type="application/ecmascript" xlink:href="svg.min.js"/>
<svg id="graph" class="graph">
<g id="graph0" class="graph" transform="scale(1 1) rotate(0) translate(4 256.5)">
<title>TextureDict</title>
<!-- Node1 -->
<g id="Node000001" class="node">
<title>Node1</title>
<g id="a_Node000001"><a xlink:title=" ">
<polygon fill="#999999" stroke="#666666" points="151,-19.25 85.5,-19.25 85.5,0 151,0 151,-19.25"/>
<text text-anchor="middle" x="118.25" y="-5.75" font-family="Helvetica,sans-Serif" font-size="10.00">TextureDict</text>
</a>
</g>
</g>
<!-- Node2 -->
<g id="Node000002" class="node">
<title>Node2</title>
<g id="a_Node000002"><a xlink:title=" ">
<polygon fill="white" stroke="#666666" points="101.38,-97 11.12,-97 11.12,-66.5 101.38,-66.5 101.38,-97"/>
<text text-anchor="start" x="19.12" y="-83.5" font-family="Helvetica,sans-Serif" font-size="10.00">std::map&lt; int, std</text>
<text text-anchor="middle" x="56.25" y="-72.25" font-family="Helvetica,sans-Serif" font-size="10.00">::string &gt;</text>
</a>
</g>
</g>
<!-- Node2&#45;&gt;Node1 -->
<g id="edge1_Node000001_Node000002" class="edge">
<title>Node2&#45;&gt;Node1</title>
<g id="a_edge1_Node000001_Node000002"><a xlink:title=" ">
<path fill="none" stroke="#9a32cd" stroke-dasharray="5,2" d="M73.56,-57.54C78.81,-50.84 84.73,-43.61 90.5,-37.25 96.06,-31.12 102.75,-24.68 108.16,-19.67"/>
<polygon fill="#9a32cd" stroke="#9a32cd" points="71.12,-54.98 67.8,-65.04 76.67,-59.24 71.12,-54.98"/>
</a>
</g>
<text text-anchor="middle" x="119.12" y="-39" font-family="Helvetica,sans-Serif" font-size="10.00" fill="grey"> tileDictionary</text>
</g>
<!-- Node3 -->
<g id="Node000003" class="node">
<title>Node3</title>
<g id="a_Node000003"><a xlink:title=" ">
<polygon fill="white" stroke="#666666" points="75.25,-174.75 17.25,-174.75 17.25,-155.5 75.25,-155.5 75.25,-174.75"/>
<text text-anchor="middle" x="46.25" y="-161.25" font-family="Helvetica,sans-Serif" font-size="10.00">std::string</text>
</a>
</g>
</g>
<!-- Node3&#45;&gt;Node2 -->
<g id="edge2_Node000002_Node000003" class="edge">
<title>Node3&#45;&gt;Node2</title>
<g id="a_edge2_Node000002_Node000003"><a xlink:title=" ">
<path fill="none" stroke="#9a32cd" stroke-dasharray="5,2" d="M14.7,-148.64C10.92,-145.48 7.57,-141.78 5.25,-137.5 0.48,-128.71 0.43,-123.76 5.25,-115 9.19,-107.84 15.47,-102.05 22.29,-97.46"/>
<polygon fill="#9a32cd" stroke="#9a32cd" points="12.6,-151.44 22.83,-154.22 16.56,-145.67 12.6,-151.44"/>
</a>
</g>
<text text-anchor="middle" x="26.25" y="-122.38" font-family="Helvetica,sans-Serif" font-size="10.00" fill="grey"> elements</text>
</g>
<!-- Node8 -->
<g id="Node000008" class="node">
<title>Node8</title>
<g id="a_Node000008"><a xlink:title=" ">
<polygon fill="white" stroke="#666666" points="242.88,-97 119.62,-97 119.62,-66.5 242.88,-66.5 242.88,-97"/>
<text text-anchor="start" x="127.62" y="-83.5" font-family="Helvetica,sans-Serif" font-size="10.00">std::map&lt; PowerupType,</text>
<text text-anchor="middle" x="181.25" y="-72.25" font-family="Helvetica,sans-Serif" font-size="10.00"> std::string &gt;</text>
</a>
</g>
</g>
<!-- Node3&#45;&gt;Node8 -->
<g id="edge8_Node000008_Node000003" class="edge">
<title>Node3&#45;&gt;Node8</title>
<g id="a_edge8_Node000008_Node000003"><a xlink:title=" ">
<path fill="none" stroke="#9a32cd" stroke-dasharray="5,2" d="M50.04,-144.06C52.91,-134.04 57.85,-122.5 66.25,-115 74.68,-107.47 96.78,-100.51 119.38,-94.99"/>
<polygon fill="#9a32cd" stroke="#9a32cd" points="46.67,-143.13 47.82,-153.66 53.49,-144.71 46.67,-143.13"/>
</a>
</g>
<text text-anchor="middle" x="87.25" y="-122.38" font-family="Helvetica,sans-Serif" font-size="10.00" fill="grey"> elements</text>
</g>
<!-- Node4 -->
<g id="Node000004" class="node">
<title>Node4</title>
<g id="a_Node000004"><a xlink:title=" ">
<polygon fill="white" stroke="#666666" points="92.5,-252.5 0,-252.5 0,-222 92.5,-222 92.5,-252.5"/>
<text text-anchor="start" x="8" y="-239" font-family="Helvetica,sans-Serif" font-size="10.00">std::basic_string&lt;</text>
<text text-anchor="middle" x="46.25" y="-227.75" font-family="Helvetica,sans-Serif" font-size="10.00"> Char &gt;</text>
</a>
</g>
</g>
<!-- Node4&#45;&gt;Node3 -->
<g id="edge3_Node000003_Node000004" class="edge">
<title>Node4&#45;&gt;Node3</title>
<g id="a_edge3_Node000003_Node000004"><a xlink:title=" ">
<path fill="none" stroke="#63b8ff" d="M46.25,-210.48C46.25,-197.98 46.25,-183.77 46.25,-174.88"/>
<polygon fill="#63b8ff" stroke="#63b8ff" points="42.75,-210.21 46.25,-220.21 49.75,-210.21 42.75,-210.21"/>
</a>
</g>
</g>
<!-- Node5 -->
<g id="Node000005" class="node">
<title>Node5</title>
<g id="a_Node000005"><a xlink:title=" ">
<polygon fill="white" stroke="#666666" points="199.88,-174.75 112.62,-174.75 112.62,-155.5 199.88,-155.5 199.88,-174.75"/>
<text text-anchor="middle" x="156.25" y="-161.25" font-family="Helvetica,sans-Serif" font-size="10.00">std::map&lt; K, T &gt;</text>
</a>
</g>
</g>
<!-- Node5&#45;&gt;Node2 -->
<g id="edge4_Node000002_Node000005" class="edge">
<title>Node5&#45;&gt;Node2</title>
<g id="a_edge4_Node000002_Node000005"><a xlink:title=" ">
<path fill="none" stroke="orange" stroke-dasharray="5,2" d="M140.36,-147.01C137.48,-143.86 134.51,-140.59 131.75,-137.5 122.94,-127.63 122.46,-123.42 112.25,-115 104.29,-108.43 94.81,-102.42 85.95,-97.41"/>
<polygon fill="orange" stroke="orange" points="137.64,-149.22 146.99,-154.2 142.78,-144.47 137.64,-149.22"/>
</a>
</g>
<text text-anchor="middle" x="169.5" y="-122.38" font-family="Helvetica,sans-Serif" font-size="10.00" fill="grey"> &lt; int, std::string &gt;</text>
</g>
<!-- Node5&#45;&gt;Node8 -->
<g id="edge9_Node000008_Node000005" class="edge">
<title>Node5&#45;&gt;Node8</title>
<g id="a_edge9_Node000008_Node000005"><a xlink:title=" ">
<path fill="none" stroke="orange" stroke-dasharray="5,2" d="M200.13,-149.66C204.92,-146.38 209.17,-142.38 212.25,-137.5 217.59,-129.05 215.99,-124.28 212.25,-115 209.58,-108.37 204.83,-102.34 199.83,-97.34"/>
<polygon fill="orange" stroke="orange" points="198.73,-146.43 191.73,-154.38 202.16,-152.54 198.73,-146.43"/>
</a>
</g>
<text text-anchor="start" x="215.25" y="-128" font-family="Helvetica,sans-Serif" font-size="10.00" fill="grey"> &lt; PowerupType, std</text>
<text text-anchor="middle" x="259.5" y="-116.75" font-family="Helvetica,sans-Serif" font-size="10.00" fill="grey">::string &gt;</text>
</g>
<!-- Node6 -->
<g id="Node000006" class="node">
<title>Node6</title>
<g id="a_Node000006"><a xlink:title=" ">
<polygon fill="white" stroke="#bfbfbf" points="210.65,-246.88 181.85,-246.88 181.85,-227.62 210.65,-227.62 210.65,-246.88"/>
<text text-anchor="middle" x="196.25" y="-233.38" font-family="Helvetica,sans-Serif" font-size="10.00">K</text>
</a>
</g>
</g>
<!-- Node6&#45;&gt;Node5 -->
<g id="edge5_Node000005_Node000006" class="edge">
<title>Node6&#45;&gt;Node5</title>
<g id="a_edge5_Node000005_Node000006"><a xlink:title=" ">
<path fill="none" stroke="#9a32cd" stroke-dasharray="5,2" d="M187.28,-217.24C183.48,-209.52 178.86,-200.59 174.25,-192.75 170.63,-186.59 166.13,-179.94 162.54,-174.82"/>
<polygon fill="#9a32cd" stroke="#9a32cd" points="184.03,-218.56 191.53,-226.05 190.34,-215.52 184.03,-218.56"/>
</a>
</g>
<text text-anchor="middle" x="190.5" y="-194.5" font-family="Helvetica,sans-Serif" font-size="10.00" fill="grey"> keys</text>
</g>
<!-- Node7 -->
<g id="Node000007" class="node">
<title>Node7</title>
<g id="a_Node000007"><a xlink:title=" ">
<polygon fill="white" stroke="#bfbfbf" points="145.65,-246.88 116.85,-246.88 116.85,-227.62 145.65,-227.62 145.65,-246.88"/>
<text text-anchor="middle" x="131.25" y="-233.38" font-family="Helvetica,sans-Serif" font-size="10.00">T</text>
</a>
</g>
</g>
<!-- Node7&#45;&gt;Node5 -->
<g id="edge6_Node000005_Node000007" class="edge">
<title>Node7&#45;&gt;Node5</title>
<g id="a_edge6_Node000005_Node000007"><a xlink:title=" ">
<path fill="none" stroke="#9a32cd" stroke-dasharray="5,2" d="M128.81,-215.85C128.66,-208.35 129.39,-199.95 132.25,-192.75 134.96,-185.93 140.27,-179.74 145.21,-175.05"/>
<polygon fill="#9a32cd" stroke="#9a32cd" points="125.32,-216.01 129.57,-225.72 132.29,-215.48 125.32,-216.01"/>
</a>
</g>
<text text-anchor="middle" x="153.25" y="-194.5" font-family="Helvetica,sans-Serif" font-size="10.00" fill="grey"> elements</text>
</g>
<!-- Node8&#45;&gt;Node1 -->
<g id="edge7_Node000001_Node000008" class="edge">
<title>Node8&#45;&gt;Node1</title>
<g id="a_edge7_Node000001_Node000008"><a xlink:title=" ">
<path fill="none" stroke="#9a32cd" stroke-dasharray="5,2" d="M164.48,-56.9C159.5,-50.32 153.88,-43.33 148.25,-37.25 142.48,-31.02 135.39,-24.68 129.56,-19.75"/>
<polygon fill="#9a32cd" stroke="#9a32cd" points="161.59,-58.87 170.33,-64.86 167.23,-54.73 161.59,-58.87"/>
</a>
</g>
<text text-anchor="middle" x="197.12" y="-39" font-family="Helvetica,sans-Serif" font-size="10.00" fill="grey"> powerupDictionary</text>
</g>
</g>
</svg>
</svg>

<style type='text/css'>
<![CDATA[
[data-mouse-over-selected='false'] { opacity: 0.7; }
[data-mouse-over-selected='true']  { opacity: 1.0; }
]]>
</style>
<script type="application/ecmascript"><![CDATA[
document.addEventListener('DOMContentLoaded', (event) => {
  highlightEdges();
  highlightAdjacentNodes();
});
]]></script>
</svg>
