<?xml version="1.0" encoding="UTF-8" standalone="no"?>
<!DOCTYPE svg PUBLIC "-//W3C//DTD SVG 1.1//EN"
 "http://www.w3.org/Graphics/SVG/1.1/DTD/svg11.dtd">
<!-- Generated by graphviz version 12.2.1 (20241206.2353)
 -->
<!-- Title: TileComponent Pages: 1 -->
<svg width="694pt" height="397pt"
 viewBox="0.00 0.00 693.62 396.75" xmlns="http://www.w3.org/2000/svg" xmlns:xlink="http://www.w3.org/1999/xlink">
<g id="graph0" class="graph" transform="scale(1 1) rotate(0) translate(4 392.75)">
<title>TileComponent</title>
<!-- Node1 -->
<g id="Node000001" class="node">
<title>Node1</title>
<g id="a_Node000001"><a xlink:title=" ">
<polygon fill="#999999" stroke="#666666" points="178.5,-19.25 97.25,-19.25 97.25,0 178.5,0 178.5,-19.25"/>
<text text-anchor="middle" x="137.88" y="-5.75" font-family="Helvetica,sans-Serif" font-size="10.00">TileComponent</text>
</a>
</g>
</g>
<!-- Node2 -->
<g id="Node000002" class="node">
<title>Node2</title>
<g id="a_Node000002"><a xlink:href="classComponent.html" target="_top" xlink:title=" ">
<polygon fill="white" stroke="#bfbfbf" points="161.62,-169.12 96.12,-169.12 96.12,-149.88 161.62,-149.88 161.62,-169.12"/>
<text text-anchor="middle" x="128.88" y="-155.62" font-family="Helvetica,sans-Serif" font-size="10.00">Component</text>
</a>
</g>
</g>
<!-- Node2&#45;&gt;Node1 -->
<g id="edge1_Node000001_Node000002" class="edge">
<title>Node2&#45;&gt;Node1</title>
<g id="a_edge1_Node000001_Node000002"><a xlink:title=" ">
<path fill="none" stroke="#63b8ff" d="M130.09,-138.52C132.07,-106 135.91,-42.9 137.33,-19.57"/>
<polygon fill="#63b8ff" stroke="#63b8ff" points="126.62,-137.99 129.5,-148.18 133.6,-138.41 126.62,-137.99"/>
</a>
</g>
</g>
<!-- Node4 -->
<g id="Node000004" class="node">
<title>Node4</title>
<g id="a_Node000004"><a xlink:href="classTransformComponent.html" target="_top" xlink:title=" ">
<polygon fill="white" stroke="#bfbfbf" points="109.75,-85.75 0,-85.75 0,-66.5 109.75,-66.5 109.75,-85.75"/>
<text text-anchor="middle" x="54.88" y="-72.25" font-family="Helvetica,sans-Serif" font-size="10.00">TransformComponent</text>
</a>
</g>
</g>
<!-- Node2&#45;&gt;Node4 -->
<g id="edge4_Node000004_Node000002" class="edge">
<title>Node2&#45;&gt;Node4</title>
<g id="a_edge4_Node000004_Node000002"><a xlink:title=" ">
<path fill="none" stroke="#63b8ff" d="M119.7,-139.49C113.67,-128.26 105.04,-114.24 94.88,-103.75 88.14,-96.8 79.3,-90.68 71.64,-86.07"/>
<polygon fill="#63b8ff" stroke="#63b8ff" points="116.48,-140.87 124.13,-148.2 122.72,-137.7 116.48,-140.87"/>
</a>
</g>
</g>
<!-- Node6 -->
<g id="Node000006" class="node">
<title>Node6</title>
<g id="a_Node000006"><a xlink:href="classSpriteComponent.html" target="_top" xlink:title=" ">
<polygon fill="white" stroke="#bfbfbf" points="259.38,-85.75 168.38,-85.75 168.38,-66.5 259.38,-66.5 259.38,-85.75"/>
<text text-anchor="middle" x="213.88" y="-72.25" font-family="Helvetica,sans-Serif" font-size="10.00">SpriteComponent</text>
</a>
</g>
</g>
<!-- Node2&#45;&gt;Node6 -->
<g id="edge7_Node000006_Node000002" class="edge">
<title>Node2&#45;&gt;Node6</title>
<g id="a_edge7_Node000006_Node000002"><a xlink:title=" ">
<path fill="none" stroke="#63b8ff" d="M146.59,-141.54C164.18,-124.7 190.47,-99.53 204.41,-86.18"/>
<polygon fill="#63b8ff" stroke="#63b8ff" points="144.19,-138.99 139.39,-148.43 149.03,-144.05 144.19,-138.99"/>
</a>
</g>
</g>
<!-- Node3 -->
<g id="Node000003" class="node">
<title>Node3</title>
<g id="a_Node000003"><a xlink:href="classEntity.html" target="_top" xlink:title="Main class for any object in game, stores associations, labeling and components.">
<polygon fill="white" stroke="#666666" points="148.88,-242.88 108.88,-242.88 108.88,-223.62 148.88,-223.62 148.88,-242.88"/>
<text text-anchor="middle" x="128.88" y="-229.38" font-family="Helvetica,sans-Serif" font-size="10.00">Entity</text>
</a>
</g>
</g>
<!-- Node3&#45;&gt;Node2 -->
<g id="edge2_Node000002_Node000003" class="edge">
<title>Node3&#45;&gt;Node2</title>
<g id="a_edge2_Node000002_Node000003"><a xlink:title=" ">
<path fill="none" stroke="#9a32cd" stroke-dasharray="5,2" d="M128.88,-211.68C128.88,-197.65 128.88,-179.78 128.88,-169.29"/>
<polygon fill="#9a32cd" stroke="#9a32cd" points="125.38,-211.65 128.88,-221.65 132.38,-211.65 125.38,-211.65"/>
</a>
</g>
<text text-anchor="middle" x="141.62" y="-194.5" font-family="Helvetica,sans-Serif" font-size="10.00" fill="grey"> entity</text>
</g>
<!-- Node4&#45;&gt;Node1 -->
<g id="edge3_Node000001_Node000004" class="edge">
<title>Node4&#45;&gt;Node1</title>
<g id="a_edge3_Node000001_Node000004"><a xlink:title=" ">
<path fill="none" stroke="#9a32cd" stroke-dasharray="5,2" d="M64.57,-56.52C68.75,-49.81 74.12,-42.58 80.38,-37.25 89.17,-29.76 100.42,-23.93 110.63,-19.67"/>
<polygon fill="#9a32cd" stroke="#9a32cd" points="61.66,-54.55 59.78,-64.98 67.75,-58 61.66,-54.55"/>
</a>
</g>
<text text-anchor="middle" x="102.12" y="-39" font-family="Helvetica,sans-Serif" font-size="10.00" fill="grey"> transform</text>
</g>
<!-- Node5 -->
<g id="Node000005" class="node">
<title>Node5</title>
<g id="a_Node000005"><a xlink:href="classVector2D.html" target="_top" xlink:title=" ">
<polygon fill="white" stroke="#bfbfbf" points="78.12,-169.12 21.62,-169.12 21.62,-149.88 78.12,-149.88 78.12,-169.12"/>
<text text-anchor="middle" x="49.88" y="-155.62" font-family="Helvetica,sans-Serif" font-size="10.00">Vector2D</text>
</a>
</g>
</g>
<!-- Node5&#45;&gt;Node4 -->
<g id="edge5_Node000004_Node000005" class="edge">
<title>Node5&#45;&gt;Node4</title>
<g id="a_edge5_Node000004_Node000005"><a xlink:title=" ">
<path fill="none" stroke="#9a32cd" stroke-dasharray="5,2" d="M51.13,-138.13C52.16,-121.35 53.57,-98.35 54.33,-85.94"/>
<polygon fill="#9a32cd" stroke="#9a32cd" points="47.64,-137.77 50.52,-147.97 54.63,-138.2 47.64,-137.77"/>
</a>
</g>
<text text-anchor="middle" x="72.62" y="-116.75" font-family="Helvetica,sans-Serif" font-size="10.00" fill="grey"> direction</text>
<text text-anchor="middle" x="72.62" y="-105.5" font-family="Helvetica,sans-Serif" font-size="10.00" fill="grey">position</text>
</g>
<!-- Node6&#45;&gt;Node1 -->
<g id="edge6_Node000001_Node000006" class="edge">
<title>Node6&#45;&gt;Node1</title>
<g id="a_edge6_Node000001_Node000006"><a xlink:title=" ">
<path fill="none" stroke="#9a32cd" stroke-dasharray="5,2" d="M194.92,-59.04C180.2,-46.55 160.34,-29.69 148.35,-19.52"/>
<polygon fill="#9a32cd" stroke="#9a32cd" points="192.26,-61.38 202.15,-65.18 196.79,-56.04 192.26,-61.38"/>
</a>
</g>
<text text-anchor="middle" x="193.55" y="-39" font-family="Helvetica,sans-Serif" font-size="10.00" fill="grey"> sprite</text>
</g>
<!-- Node7 -->
<g id="Node000007" class="node">
<title>Node7</title>
<g id="a_Node000007"><a xlink:href="classRenderObject.html" target="_top" xlink:title=" ">
<polygon fill="white" stroke="#bfbfbf" points="254.5,-169.12 179.25,-169.12 179.25,-149.88 254.5,-149.88 254.5,-169.12"/>
<text text-anchor="middle" x="216.88" y="-155.62" font-family="Helvetica,sans-Serif" font-size="10.00">RenderObject</text>
</a>
</g>
</g>
<!-- Node7&#45;&gt;Node6 -->
<g id="edge8_Node000006_Node000007" class="edge">
<title>Node7&#45;&gt;Node6</title>
<g id="a_edge8_Node000006_Node000007"><a xlink:title=" ">
<path fill="none" stroke="#63b8ff" d="M216.12,-138.13C215.51,-121.35 214.66,-98.35 214.2,-85.94"/>
<polygon fill="#63b8ff" stroke="#63b8ff" points="212.62,-138.1 216.49,-147.97 219.62,-137.85 212.62,-138.1"/>
</a>
</g>
</g>
<!-- Node8 -->
<g id="Node000008" class="node">
<title>Node8</title>
<g id="a_Node000008"><a xlink:href="classRenderManager.html" target="_top" xlink:title=" ">
<polygon fill="white" stroke="#bfbfbf" points="255,-242.88 170.75,-242.88 170.75,-223.62 255,-223.62 255,-242.88"/>
<text text-anchor="middle" x="212.88" y="-229.38" font-family="Helvetica,sans-Serif" font-size="10.00">RenderManager</text>
</a>
</g>
</g>
<!-- Node8&#45;&gt;Node7 -->
<g id="edge9_Node000007_Node000008" class="edge">
<title>Node8&#45;&gt;Node7</title>
<g id="a_edge9_Node000007_Node000008"><a xlink:title=" ">
<path fill="none" stroke="#9a32cd" stroke-dasharray="5,2" d="M213.31,-211.79C213.5,-205.66 213.76,-198.93 214.12,-192.75 214.58,-184.9 215.36,-175.99 215.98,-169.53"/>
<polygon fill="#9a32cd" stroke="#9a32cd" points="209.82,-211.55 213.06,-221.63 216.82,-211.72 209.82,-211.55"/>
</a>
</g>
<text text-anchor="middle" x="247.5" y="-194.5" font-family="Helvetica,sans-Serif" font-size="10.00" fill="grey"> renderManager</text>
</g>
<!-- Node9 -->
<g id="Node000009" class="node">
<title>Node9</title>
<g id="a_Node000009"><a xlink:title=" ">
<polygon fill="white" stroke="#666666" points="467.62,-174.75 318.12,-174.75 318.12,-144.25 467.62,-144.25 467.62,-174.75"/>
<text text-anchor="start" x="326.12" y="-161.25" font-family="Helvetica,sans-Serif" font-size="10.00">std::map&lt; std::string,</text>
<text text-anchor="middle" x="392.88" y="-150" font-family="Helvetica,sans-Serif" font-size="10.00"> std::unique_ptr&lt; Animation &gt; &gt;</text>
</a>
</g>
</g>
<!-- Node9&#45;&gt;Node6 -->
<g id="edge10_Node000006_Node000009" class="edge">
<title>Node9&#45;&gt;Node6</title>
<g id="a_edge10_Node000006_Node000009"><a xlink:title=" ">
<path fill="none" stroke="#9a32cd" stroke-dasharray="5,2" d="M350.02,-139.02C313.2,-122.28 261.77,-98.9 233.84,-86.2"/>
<polygon fill="#9a32cd" stroke="#9a32cd" points="348.53,-142.18 359.08,-143.14 351.43,-135.81 348.53,-142.18"/>
</a>
</g>
<text text-anchor="middle" x="344.16" y="-111.12" font-family="Helvetica,sans-Serif" font-size="10.00" fill="grey"> animations</text>
</g>
<!-- Node10 -->
<g id="Node000010" class="node">
<title>Node10</title>
<g id="a_Node000010"><a xlink:title=" ">
<polygon fill="white" stroke="#666666" points="488.88,-242.88 430.88,-242.88 430.88,-223.62 488.88,-223.62 488.88,-242.88"/>
<text text-anchor="middle" x="459.88" y="-229.38" font-family="Helvetica,sans-Serif" font-size="10.00">std::string</text>
</a>
</g>
</g>
<!-- Node10&#45;&gt;Node9 -->
<g id="edge11_Node000009_Node000010" class="edge">
<title>Node10&#45;&gt;Node9</title>
<g id="a_edge11_Node000009_Node000010"><a xlink:title=" ">
<path fill="none" stroke="#9a32cd" stroke-dasharray="5,2" d="M443.57,-214.78C432.25,-202.67 417.35,-186.71 406.64,-175.24"/>
<polygon fill="#9a32cd" stroke="#9a32cd" points="440.97,-217.14 450.36,-222.06 446.09,-212.36 440.97,-217.14"/>
</a>
</g>
<text text-anchor="middle" x="443.63" y="-194.5" font-family="Helvetica,sans-Serif" font-size="10.00" fill="grey"> keys</text>
</g>
<!-- Node11 -->
<g id="Node000011" class="node">
<title>Node11</title>
<g id="a_Node000011"><a xlink:title=" ">
<polygon fill="white" stroke="#666666" points="488.12,-322.25 395.62,-322.25 395.62,-291.75 488.12,-291.75 488.12,-322.25"/>
<text text-anchor="start" x="403.62" y="-308.75" font-family="Helvetica,sans-Serif" font-size="10.00">std::basic_string&lt;</text>
<text text-anchor="middle" x="441.88" y="-297.5" font-family="Helvetica,sans-Serif" font-size="10.00"> Char &gt;</text>
</a>
</g>
</g>
<!-- Node11&#45;&gt;Node10 -->
<g id="edge12_Node000010_Node000011" class="edge">
<title>Node11&#45;&gt;Node10</title>
<g id="a_edge12_Node000010_Node000011"><a xlink:title=" ">
<path fill="none" stroke="#63b8ff" d="M448.3,-280.37C451.55,-267.44 455.28,-252.58 457.6,-243.3"/>
<polygon fill="#63b8ff" stroke="#63b8ff" points="444.92,-279.46 445.89,-290.01 451.71,-281.16 444.92,-279.46"/>
</a>
</g>
</g>
<!-- Node12 -->
<g id="Node000012" class="node">
<title>Node12</title>
<g id="a_Node000012"><a xlink:title=" ">
<polygon fill="white" stroke="#666666" points="646.38,-242.88 507.38,-242.88 507.38,-223.62 646.38,-223.62 646.38,-242.88"/>
<text text-anchor="middle" x="576.88" y="-229.38" font-family="Helvetica,sans-Serif" font-size="10.00">std::unique_ptr&lt; Animation &gt;</text>
</a>
</g>
</g>
<!-- Node12&#45;&gt;Node9 -->
<g id="edge13_Node000009_Node000012" class="edge">
<title>Node12&#45;&gt;Node9</title>
<g id="a_edge13_Node000009_Node000012"><a xlink:title=" ">
<path fill="none" stroke="#9a32cd" stroke-dasharray="5,2" d="M543.03,-219.05C511.22,-206.65 463.7,-188.12 430.67,-175.24"/>
<polygon fill="#9a32cd" stroke="#9a32cd" points="541.57,-222.24 552.16,-222.61 544.12,-215.72 541.57,-222.24"/>
</a>
</g>
<text text-anchor="middle" x="522.36" y="-194.5" font-family="Helvetica,sans-Serif" font-size="10.00" fill="grey"> elements</text>
</g>
<!-- Node13 -->
<g id="Node000013" class="node">
<title>Node13</title>
<g id="a_Node000013"><a xlink:href="structAnimation.html" target="_top" xlink:title=" ">
<polygon fill="white" stroke="#bfbfbf" points="565.62,-316.62 506.12,-316.62 506.12,-297.38 565.62,-297.38 565.62,-316.62"/>
<text text-anchor="middle" x="535.88" y="-303.12" font-family="Helvetica,sans-Serif" font-size="10.00">Animation</text>
</a>
</g>
</g>
<!-- Node13&#45;&gt;Node12 -->
<g id="edge14_Node000012_Node000013" class="edge">
<title>Node13&#45;&gt;Node12</title>
<g id="a_edge14_Node000012_Node000013"><a xlink:title=" ">
<path fill="none" stroke="#9a32cd" stroke-dasharray="5,2" d="M545.15,-287.04C549.06,-279.33 553.77,-270.39 558.38,-262.5 562.28,-255.82 567.07,-248.52 570.81,-243.01"/>
<polygon fill="#9a32cd" stroke="#9a32cd" points="542.09,-285.32 540.77,-295.84 548.36,-288.44 542.09,-285.32"/>
</a>
</g>
<text text-anchor="middle" x="565.12" y="-264.25" font-family="Helvetica,sans-Serif" font-size="10.00" fill="grey"> ptr</text>
</g>
<!-- Node14 -->
<g id="Node000014" class="node">
<title>Node14</title>
<g id="a_Node000014"><a xlink:title=" ">
<polygon fill="white" stroke="#666666" points="685.62,-316.62 584.12,-316.62 584.12,-297.38 685.62,-297.38 685.62,-316.62"/>
<text text-anchor="middle" x="634.88" y="-303.12" font-family="Helvetica,sans-Serif" font-size="10.00">std::unique_ptr&lt; T &gt;</text>
</a>
</g>
</g>
<!-- Node14&#45;&gt;Node12 -->
<g id="edge15_Node000012_Node000014" class="edge">
<title>Node14&#45;&gt;Node12</title>
<g id="a_edge15_Node000012_Node000014"><a xlink:title=" ">
<path fill="none" stroke="orange" stroke-dasharray="5,2" d="M620.29,-287.96C608.7,-273.62 592.98,-254.17 583.98,-243.04"/>
<polygon fill="orange" stroke="orange" points="617.57,-290.16 626.58,-295.74 623.01,-285.76 617.57,-290.16"/>
</a>
</g>
<text text-anchor="middle" x="638.74" y="-264.25" font-family="Helvetica,sans-Serif" font-size="10.00" fill="grey"> &lt; Animation &gt;</text>
</g>
<!-- Node15 -->
<g id="Node000015" class="node">
<title>Node15</title>
<g id="a_Node000015"><a xlink:title=" ">
<polygon fill="white" stroke="#bfbfbf" points="416.27,-388.75 387.48,-388.75 387.48,-369.5 416.27,-369.5 416.27,-388.75"/>
<text text-anchor="middle" x="401.88" y="-375.25" font-family="Helvetica,sans-Serif" font-size="10.00">T</text>
</a>
</g>
</g>
<!-- Node15&#45;&gt;Node14 -->
<g id="edge16_Node000014_Node000015" class="edge">
<title>Node15&#45;&gt;Node14</title>
<g id="a_edge16_Node000014_Node000015"><a xlink:title=" ">
<path fill="none" stroke="#9a32cd" stroke-dasharray="5,2" d="M427.43,-370.43C470.77,-357.39 558.5,-330.99 604.76,-317.06"/>
<polygon fill="#9a32cd" stroke="#9a32cd" points="426.47,-367.07 417.9,-373.3 428.48,-373.77 426.47,-367.07"/>
</a>
</g>
<text text-anchor="middle" x="532.11" y="-342" font-family="Helvetica,sans-Serif" font-size="10.00" fill="grey"> ptr</text>
</g>
<!-- Node16 -->
<g id="Node000016" class="node">
<title>Node16</title>
<g id="a_Node000016"><a xlink:title=" ">
<polygon fill="white" stroke="#666666" points="366.5,-316.62 279.25,-316.62 279.25,-297.38 366.5,-297.38 366.5,-316.62"/>
<text text-anchor="middle" x="322.88" y="-303.12" font-family="Helvetica,sans-Serif" font-size="10.00">std::map&lt; K, T &gt;</text>
</a>
</g>
</g>
<!-- Node15&#45;&gt;Node16 -->
<g id="edge19_Node000016_Node000015" class="edge">
<title>Node15&#45;&gt;Node16</title>
<g id="a_edge19_Node000016_Node000015"><a xlink:title=" ">
<path fill="none" stroke="#9a32cd" stroke-dasharray="5,2" d="M383.47,-361.79C367.76,-347.85 345.76,-328.32 333.05,-317.03"/>
<polygon fill="#9a32cd" stroke="#9a32cd" points="380.94,-364.22 390.74,-368.24 385.58,-358.98 380.94,-364.22"/>
</a>
</g>
<text text-anchor="middle" x="392.77" y="-342" font-family="Helvetica,sans-Serif" font-size="10.00" fill="grey"> elements</text>
</g>
<!-- Node16&#45;&gt;Node9 -->
<g id="edge17_Node000009_Node000016" class="edge">
<title>Node16&#45;&gt;Node9</title>
<g id="a_edge17_Node000009_Node000016"><a xlink:title=" ">
<path fill="none" stroke="orange" stroke-dasharray="5,2" d="M311.54,-286.94C302.61,-269.25 293.33,-242.62 304.12,-222 315.34,-200.58 337.79,-185.13 357.3,-175.07"/>
<polygon fill="orange" stroke="orange" points="308.39,-288.48 316.27,-295.56 314.53,-285.11 308.39,-288.48"/>
</a>
</g>
<text text-anchor="start" x="304.12" y="-235" font-family="Helvetica,sans-Serif" font-size="10.00" fill="grey"> &lt; std::string, std</text>
<text text-anchor="middle" x="363" y="-223.75" font-family="Helvetica,sans-Serif" font-size="10.00" fill="grey">::unique_ptr&lt; Animation &gt; &gt;</text>
</g>
<!-- Node17 -->
<g id="Node000017" class="node">
<title>Node17</title>
<g id="a_Node000017"><a xlink:title=" ">
<polygon fill="white" stroke="#bfbfbf" points="337.27,-388.75 308.48,-388.75 308.48,-369.5 337.27,-369.5 337.27,-388.75"/>
<text text-anchor="middle" x="322.88" y="-375.25" font-family="Helvetica,sans-Serif" font-size="10.00">K</text>
</a>
</g>
</g>
<!-- Node17&#45;&gt;Node16 -->
<g id="edge18_Node000016_Node000017" class="edge">
<title>Node17&#45;&gt;Node16</title>
<g id="a_edge18_Node000016_Node000017"><a xlink:title=" ">
<path fill="none" stroke="#9a32cd" stroke-dasharray="5,2" d="M322.88,-357.74C322.88,-344.27 322.88,-327.26 322.88,-317.03"/>
<polygon fill="#9a32cd" stroke="#9a32cd" points="319.38,-357.73 322.88,-367.73 326.38,-357.73 319.38,-357.73"/>
</a>
</g>
<text text-anchor="middle" x="334.12" y="-342" font-family="Helvetica,sans-Serif" font-size="10.00" fill="grey"> keys</text>
</g>
</g>
</svg>
