<?xml version="1.0" encoding="UTF-8" standalone="no"?>
<!DOCTYPE svg PUBLIC "-//W3C//DTD SVG 1.1//EN"
 "http://www.w3.org/Graphics/SVG/1.1/DTD/svg11.dtd">
<!-- Generated by graphviz version 9.0.0 (20230911.1827)
 -->
<!-- Title: SoundManager Pages: 1 -->
<svg width="143pt" height="249pt"
 viewBox="0.00 0.00 142.75 249.25" xmlns="http://www.w3.org/2000/svg" xmlns:xlink="http://www.w3.org/1999/xlink">
<g id="graph0" class="graph" transform="scale(1 1) rotate(0) translate(4 245.25)">
<title>SoundManager</title>
<!-- Node1 -->
<g id="Node000001" class="node">
<title>Node1</title>
<g id="a_Node000001"><a xlink:title=" ">
<polygon fill="#999999" stroke="#666666" points="93.62,-19.25 12.38,-19.25 12.38,0 93.62,0 93.62,-19.25"/>
<text text-anchor="middle" x="53" y="-5.75" font-family="Helvetica,sans-Serif" font-size="10.00">SoundManager</text>
</a>
</g>
</g>
<!-- Node2 -->
<g id="Node000002" class="node">
<title>Node2</title>
<g id="a_Node000002"><a xlink:title=" ">
<polygon fill="white" stroke="#666666" points="106,-97 0,-97 0,-66.5 106,-66.5 106,-97"/>
<text text-anchor="start" x="8" y="-83.5" font-family="Helvetica,sans-Serif" font-size="10.00">std::map&lt; const char</text>
<text text-anchor="middle" x="53" y="-72.25" font-family="Helvetica,sans-Serif" font-size="10.00"> *, Mix_Chunk * &gt;</text>
</a>
</g>
</g>
<!-- Node2&#45;&gt;Node1 -->
<g id="edge1_Node000001_Node000002" class="edge">
<title>Node2&#45;&gt;Node1</title>
<g id="a_edge1_Node000001_Node000002"><a xlink:title=" ">
<path fill="none" stroke="#9a32cd" stroke-dasharray="5,2" d="M53,-54.98C53,-42.48 53,-28.27 53,-19.38"/>
<polygon fill="#9a32cd" stroke="#9a32cd" points="49.5,-54.71 53,-64.71 56.5,-54.71 49.5,-54.71"/>
</a>
</g>
<text text-anchor="middle" x="83" y="-39" font-family="Helvetica,sans-Serif" font-size="10.00" fill="grey"> sound_cache</text>
</g>
<!-- Node3 -->
<g id="Node000003" class="node">
<title>Node3</title>
<g id="a_Node000003"><a xlink:title=" ">
<polygon fill="white" stroke="#666666" points="96.62,-174.75 9.38,-174.75 9.38,-155.5 96.62,-155.5 96.62,-174.75"/>
<text text-anchor="middle" x="53" y="-161.25" font-family="Helvetica,sans-Serif" font-size="10.00">std::map&lt; K, T &gt;</text>
</a>
</g>
</g>
<!-- Node3&#45;&gt;Node2 -->
<g id="edge2_Node000002_Node000003" class="edge">
<title>Node3&#45;&gt;Node2</title>
<g id="a_edge2_Node000002_Node000003"><a xlink:title=" ">
<path fill="none" stroke="orange" stroke-dasharray="5,2" d="M53,-143.86C53,-129.39 53,-110.27 53,-97.29"/>
<polygon fill="orange" stroke="orange" points="49.5,-143.59 53,-153.59 56.5,-143.59 49.5,-143.59"/>
</a>
</g>
<text text-anchor="start" x="53" y="-128" font-family="Helvetica,sans-Serif" font-size="10.00" fill="grey"> &lt; const char *, Mix</text>
<text text-anchor="middle" x="93.88" y="-116.75" font-family="Helvetica,sans-Serif" font-size="10.00" fill="grey">_Chunk * &gt;</text>
</g>
<!-- Node4 -->
<g id="Node000004" class="node">
<title>Node4</title>
<g id="a_Node000004"><a xlink:title=" ">
<polygon fill="white" stroke="#bfbfbf" points="44.4,-241.25 15.6,-241.25 15.6,-222 44.4,-222 44.4,-241.25"/>
<text text-anchor="middle" x="30" y="-227.75" font-family="Helvetica,sans-Serif" font-size="10.00">K</text>
</a>
</g>
</g>
<!-- Node4&#45;&gt;Node3 -->
<g id="edge3_Node000003_Node000004" class="edge">
<title>Node4&#45;&gt;Node3</title>
<g id="a_edge3_Node000003_Node000004"><a xlink:title=" ">
<path fill="none" stroke="#9a32cd" stroke-dasharray="5,2" d="M29.17,-210.08C29.52,-204.33 30.45,-198.17 32.5,-192.75 34.97,-186.2 39.63,-179.94 43.88,-175.14"/>
<polygon fill="#9a32cd" stroke="#9a32cd" points="25.67,-210.07 29.15,-220.08 32.67,-210.08 25.67,-210.07"/>
</a>
</g>
<text text-anchor="middle" x="43.25" y="-194.5" font-family="Helvetica,sans-Serif" font-size="10.00" fill="grey"> keys</text>
</g>
<!-- Node5 -->
<g id="Node000005" class="node">
<title>Node5</title>
<g id="a_Node000005"><a xlink:title=" ">
<polygon fill="white" stroke="#bfbfbf" points="91.4,-241.25 62.6,-241.25 62.6,-222 91.4,-222 91.4,-241.25"/>
<text text-anchor="middle" x="77" y="-227.75" font-family="Helvetica,sans-Serif" font-size="10.00">T</text>
</a>
</g>
</g>
<!-- Node5&#45;&gt;Node3 -->
<g id="edge4_Node000003_Node000005" class="edge">
<title>Node5&#45;&gt;Node3</title>
<g id="a_edge4_Node000003_Node000005"><a xlink:title=" ">
<path fill="none" stroke="#9a32cd" stroke-dasharray="5,2" d="M69.66,-210.9C65.21,-198.93 59.74,-184.23 56.31,-175.02"/>
<polygon fill="#9a32cd" stroke="#9a32cd" points="66.37,-212.09 73.14,-220.24 72.93,-209.65 66.37,-212.09"/>
</a>
</g>
<text text-anchor="middle" x="87" y="-194.5" font-family="Helvetica,sans-Serif" font-size="10.00" fill="grey"> elements</text>
</g>
</g>
</svg>
