<?xml version="1.0" encoding="UTF-8" standalone="no"?>
<!DOCTYPE svg PUBLIC "-//W3C//DTD SVG 1.1//EN"
 "http://www.w3.org/Graphics/SVG/1.1/DTD/svg11.dtd">
<!-- Generated by graphviz version 12.1.2 (20240928.0832)
 -->
<!-- Title: TextureManager Pages: 1 -->
<svg width="212pt" height="261pt"
 viewBox="0.00 0.00 212.20 260.50" xmlns="http://www.w3.org/2000/svg" xmlns:xlink="http://www.w3.org/1999/xlink">

<svg id="main" version="1.1" xmlns="http://www.w3.org/2000/svg" xmlns:xlink="http://www.w3.org/1999/xlink" xml:space="preserve">

<style type="text/css"><![CDATA[
.node, .edge {opacity: 0.7;}
.node.selected, .edge.selected {opacity: 1;}
.edge:hover path { stroke: red; }
.edge:hover polygon { stroke: red; fill: red; }
]]></style>
<script type="application/ecmascript" xlink:href="svg.min.js"/>
<svg id="graph" class="graph">
<g id="graph0" class="graph" transform="scale(1 1) rotate(0) translate(4 256.5)">
<title>TextureManager</title>
<!-- Node1 -->
<g id="Node000001" class="node">
<title>Node1</title>
<g id="a_Node000001"><a xlink:title=" ">
<polygon fill="#999999" stroke="#666666" points="134.12,-19.25 48.38,-19.25 48.38,0 134.12,0 134.12,-19.25"/>
<text text-anchor="middle" x="91.25" y="-5.75" font-family="Helvetica,sans-Serif" font-size="10.00">TextureManager</text>
</a>
</g>
</g>
<!-- Node2 -->
<g id="Node000002" class="node">
<title>Node2</title>
<g id="a_Node000002"><a xlink:title=" ">
<polygon fill="white" stroke="#666666" points="144.25,-97 38.25,-97 38.25,-66.5 144.25,-66.5 144.25,-97"/>
<text text-anchor="start" x="46.25" y="-83.5" font-family="Helvetica,sans-Serif" font-size="10.00">std::map&lt; std::string,</text>
<text text-anchor="middle" x="91.25" y="-72.25" font-family="Helvetica,sans-Serif" font-size="10.00"> SDL_Texture * &gt;</text>
</a>
</g>
</g>
<!-- Node2&#45;&gt;Node1 -->
<g id="edge1_Node000001_Node000002" class="edge">
<title>Node2&#45;&gt;Node1</title>
<g id="a_edge1_Node000001_Node000002"><a xlink:title=" ">
<path fill="none" stroke="#9a32cd" stroke-dasharray="5,2" d="M91.25,-54.98C91.25,-42.48 91.25,-28.27 91.25,-19.38"/>
<polygon fill="#9a32cd" stroke="#9a32cd" points="87.75,-54.71 91.25,-64.71 94.75,-54.71 87.75,-54.71"/>
</a>
</g>
<text text-anchor="middle" x="122.75" y="-39" font-family="Helvetica,sans-Serif" font-size="10.00" fill="grey"> texture_cache</text>
</g>
<!-- Node3 -->
<g id="Node000003" class="node">
<title>Node3</title>
<g id="a_Node000003"><a xlink:title=" ">
<polygon fill="white" stroke="#666666" points="75.25,-174.75 17.25,-174.75 17.25,-155.5 75.25,-155.5 75.25,-174.75"/>
<text text-anchor="middle" x="46.25" y="-161.25" font-family="Helvetica,sans-Serif" font-size="10.00">std::string</text>
</a>
</g>
</g>
<!-- Node3&#45;&gt;Node2 -->
<g id="edge2_Node000002_Node000003" class="edge">
<title>Node3&#45;&gt;Node2</title>
<g id="a_edge2_Node000002_Node000003"><a xlink:title=" ">
<path fill="none" stroke="#9a32cd" stroke-dasharray="5,2" d="M56.74,-145.16C64.82,-130.55 75.82,-110.66 83.21,-97.29"/>
<polygon fill="#9a32cd" stroke="#9a32cd" points="53.75,-143.34 51.97,-153.78 59.87,-146.72 53.75,-143.34"/>
</a>
</g>
<text text-anchor="middle" x="84.03" y="-122.38" font-family="Helvetica,sans-Serif" font-size="10.00" fill="grey"> keys</text>
</g>
<!-- Node4 -->
<g id="Node000004" class="node">
<title>Node4</title>
<g id="a_Node000004"><a xlink:title=" ">
<polygon fill="white" stroke="#666666" points="92.5,-252.5 0,-252.5 0,-222 92.5,-222 92.5,-252.5"/>
<text text-anchor="start" x="8" y="-239" font-family="Helvetica,sans-Serif" font-size="10.00">std::basic_string&lt;</text>
<text text-anchor="middle" x="46.25" y="-227.75" font-family="Helvetica,sans-Serif" font-size="10.00"> Char &gt;</text>
</a>
</g>
</g>
<!-- Node4&#45;&gt;Node3 -->
<g id="edge3_Node000003_Node000004" class="edge">
<title>Node4&#45;&gt;Node3</title>
<g id="a_edge3_Node000003_Node000004"><a xlink:title=" ">
<path fill="none" stroke="#63b8ff" d="M46.25,-210.48C46.25,-197.98 46.25,-183.77 46.25,-174.88"/>
<polygon fill="#63b8ff" stroke="#63b8ff" points="42.75,-210.21 46.25,-220.21 49.75,-210.21 42.75,-210.21"/>
</a>
</g>
</g>
<!-- Node5 -->
<g id="Node000005" class="node">
<title>Node5</title>
<g id="a_Node000005"><a xlink:title=" ">
<polygon fill="white" stroke="#666666" points="180.88,-174.75 93.62,-174.75 93.62,-155.5 180.88,-155.5 180.88,-174.75"/>
<text text-anchor="middle" x="137.25" y="-161.25" font-family="Helvetica,sans-Serif" font-size="10.00">std::map&lt; K, T &gt;</text>
</a>
</g>
</g>
<!-- Node5&#45;&gt;Node2 -->
<g id="edge4_Node000002_Node000005" class="edge">
<title>Node5&#45;&gt;Node2</title>
<g id="a_edge4_Node000002_Node000005"><a xlink:title=" ">
<path fill="none" stroke="orange" stroke-dasharray="5,2" d="M126.53,-145.16C118.27,-130.55 107.03,-110.66 99.47,-97.29"/>
<polygon fill="orange" stroke="orange" points="123.44,-146.8 131.41,-153.79 129.53,-143.36 123.44,-146.8"/>
</a>
</g>
<text text-anchor="start" x="121.06" y="-128" font-family="Helvetica,sans-Serif" font-size="10.00" fill="grey"> &lt; std::string, SDL</text>
<text text-anchor="middle" x="159.68" y="-116.75" font-family="Helvetica,sans-Serif" font-size="10.00" fill="grey">_Texture * &gt;</text>
</g>
<!-- Node6 -->
<g id="Node000006" class="node">
<title>Node6</title>
<g id="a_Node000006"><a xlink:title=" ">
<polygon fill="white" stroke="#bfbfbf" points="145.65,-246.88 116.85,-246.88 116.85,-227.62 145.65,-227.62 145.65,-246.88"/>
<text text-anchor="middle" x="131.25" y="-233.38" font-family="Helvetica,sans-Serif" font-size="10.00">K</text>
</a>
</g>
</g>
<!-- Node6&#45;&gt;Node5 -->
<g id="edge5_Node000005_Node000006" class="edge">
<title>Node6&#45;&gt;Node5</title>
<g id="a_edge5_Node000005_Node000006"><a xlink:title=" ">
<path fill="none" stroke="#9a32cd" stroke-dasharray="5,2" d="M132.11,-215.86C132.5,-208.56 133.04,-200.28 133.75,-192.75 134.31,-186.81 135.19,-180.15 135.92,-174.98"/>
<polygon fill="#9a32cd" stroke="#9a32cd" points="128.62,-215.57 131.65,-225.73 135.61,-215.9 128.62,-215.57"/>
</a>
</g>
<text text-anchor="middle" x="145" y="-194.5" font-family="Helvetica,sans-Serif" font-size="10.00" fill="grey"> keys</text>
</g>
<!-- Node7 -->
<g id="Node000007" class="node">
<title>Node7</title>
<g id="a_Node000007"><a xlink:title=" ">
<polygon fill="white" stroke="#bfbfbf" points="192.65,-246.88 163.85,-246.88 163.85,-227.62 192.65,-227.62 192.65,-246.88"/>
<text text-anchor="middle" x="178.25" y="-233.38" font-family="Helvetica,sans-Serif" font-size="10.00">T</text>
</a>
</g>
</g>
<!-- Node7&#45;&gt;Node5 -->
<g id="edge6_Node000005_Node000007" class="edge">
<title>Node7&#45;&gt;Node5</title>
<g id="a_edge6_Node000005_Node000007"><a xlink:title=" ">
<path fill="none" stroke="#9a32cd" stroke-dasharray="5,2" d="M169.38,-217.18C165.59,-209.45 160.96,-200.53 156.25,-192.75 152.49,-186.53 147.74,-179.87 143.93,-174.77"/>
<polygon fill="#9a32cd" stroke="#9a32cd" points="166.13,-218.49 173.59,-226.01 172.45,-215.48 166.13,-218.49"/>
</a>
</g>
<text text-anchor="middle" x="183.2" y="-194.5" font-family="Helvetica,sans-Serif" font-size="10.00" fill="grey"> elements</text>
</g>
</g>
</svg>
</svg>

<style type='text/css'>
<![CDATA[
[data-mouse-over-selected='false'] { opacity: 0.7; }
[data-mouse-over-selected='true']  { opacity: 1.0; }
]]>
</style>
<script type="application/ecmascript"><![CDATA[
document.addEventListener('DOMContentLoaded', (event) => {
  highlightEdges();
  highlightAdjacentNodes();
});
]]></script>
</svg>
