<?xml version="1.0" encoding="UTF-8" standalone="no"?>
<!DOCTYPE svg PUBLIC "-//W3C//DTD SVG 1.1//EN"
 "http://www.w3.org/Graphics/SVG/1.1/DTD/svg11.dtd">
<!-- Generated by graphviz version 12.2.1 (20241206.2353)
 -->
<!-- Title: PickupComponent Pages: 1 -->
<svg width="104pt" height="150pt"
 viewBox="0.00 0.00 103.50 150.00" xmlns="http://www.w3.org/2000/svg" xmlns:xlink="http://www.w3.org/1999/xlink">
<g id="graph0" class="graph" transform="scale(1 1) rotate(0) translate(4 146)">
<title>PickupComponent</title>
<!-- Node1 -->
<g id="Node000001" class="node">
<title>Node1</title>
<g id="a_Node000001"><a xlink:title=" ">
<polygon fill="#999999" stroke="#666666" points="95.5,-19.25 0,-19.25 0,0 95.5,0 95.5,-19.25"/>
<text text-anchor="middle" x="47.75" y="-5.75" font-family="Helvetica,sans-Serif" font-size="10.00">PickupComponent</text>
</a>
</g>
</g>
<!-- Node2 -->
<g id="Node000002" class="node">
<title>Node2</title>
<g id="a_Node000002"><a xlink:href="classComponent.html" target="_top" xlink:title=" ">
<polygon fill="white" stroke="#bfbfbf" points="80.5,-75.5 15,-75.5 15,-56.25 80.5,-56.25 80.5,-75.5"/>
<text text-anchor="middle" x="47.75" y="-62" font-family="Helvetica,sans-Serif" font-size="10.00">Component</text>
</a>
</g>
</g>
<!-- Node2&#45;&gt;Node1 -->
<g id="edge1_Node000001_Node000002" class="edge">
<title>Node2&#45;&gt;Node1</title>
<g id="a_edge1_Node000001_Node000002"><a xlink:title=" ">
<path fill="none" stroke="#63b8ff" d="M47.75,-44.69C47.75,-35.98 47.75,-26.24 47.75,-19.42"/>
<polygon fill="#63b8ff" stroke="#63b8ff" points="44.25,-44.4 47.75,-54.4 51.25,-44.4 44.25,-44.4"/>
</a>
</g>
</g>
<!-- Node3 -->
<g id="Node000003" class="node">
<title>Node3</title>
<g id="a_Node000003"><a xlink:href="classEntity.html" target="_top" xlink:title="Main class for any object in game, stores associations, labeling and components.">
<polygon fill="white" stroke="#666666" points="67.75,-142 27.75,-142 27.75,-122.75 67.75,-122.75 67.75,-142"/>
<text text-anchor="middle" x="47.75" y="-128.5" font-family="Helvetica,sans-Serif" font-size="10.00">Entity</text>
</a>
</g>
</g>
<!-- Node3&#45;&gt;Node2 -->
<g id="edge2_Node000002_Node000003" class="edge">
<title>Node3&#45;&gt;Node2</title>
<g id="a_edge2_Node000002_Node000003"><a xlink:title=" ">
<path fill="none" stroke="#9a32cd" stroke-dasharray="5,2" d="M47.75,-110.9C47.75,-99.07 47.75,-84.79 47.75,-75.77"/>
<polygon fill="#9a32cd" stroke="#9a32cd" points="44.25,-110.89 47.75,-120.89 51.25,-110.89 44.25,-110.89"/>
</a>
</g>
<text text-anchor="middle" x="60.5" y="-95.25" font-family="Helvetica,sans-Serif" font-size="10.00" fill="grey"> entity</text>
</g>
</g>
</svg>
