<?xml version="1.0" encoding="UTF-8" standalone="no"?>
<!DOCTYPE svg PUBLIC "-//W3C//DTD SVG 1.1//EN"
 "http://www.w3.org/Graphics/SVG/1.1/DTD/svg11.dtd">
<!-- Generated by graphviz version 11.0.0 (20240428.1522)
 -->
<!-- Title: ColliderComponent Pages: 1 -->
<svg width="181pt" height="238pt"
 viewBox="0.00 0.00 180.62 238.00" xmlns="http://www.w3.org/2000/svg" xmlns:xlink="http://www.w3.org/1999/xlink">

<svg id="main" version="1.1" xmlns="http://www.w3.org/2000/svg" xmlns:xlink="http://www.w3.org/1999/xlink" xml:space="preserve" onload="init(evt)">
<style type="text/css"><![CDATA[
.node, .edge {opacity: 0.7;}
.node.selected, .edge.selected {opacity: 1;}
.edge:hover path { stroke: red; }
.edge:hover polygon { stroke: red; fill: red; }
]]></style>
<script type="application/ecmascript" xlink:href="svg.min.js"/>
<svg id="graph" class="graph">
<g id="graph0" class="graph" transform="scale(1 1) rotate(0) translate(4 234)">
<title>ColliderComponent</title>
<!-- Node1 -->
<g id="Node000001" class="node">
<title>Node1</title>
<g id="a_Node000001"><a xlink:title=" ">
<polygon fill="#999999" stroke="#666666" points="148.75,-19.25 51,-19.25 51,0 148.75,0 148.75,-19.25"/>
<text text-anchor="middle" x="99.88" y="-5.75" font-family="Helvetica,sans-Serif" font-size="10.00">ColliderComponent</text>
</a>
</g>
</g>
<!-- Node2 -->
<g id="Node000002" class="node">
<title>Node2</title>
<g id="a_Node000002"><a xlink:href="classComponent.html" target="_top" xlink:title=" ">
<polygon fill="white" stroke="#bfbfbf" points="172.62,-163.5 107.12,-163.5 107.12,-144.25 172.62,-144.25 172.62,-163.5"/>
<text text-anchor="middle" x="139.88" y="-150" font-family="Helvetica,sans-Serif" font-size="10.00">Component</text>
</a>
</g>
</g>
<!-- Node2&#45;&gt;Node1 -->
<g id="edge1_Node000001_Node000002" class="edge">
<title>Node2&#45;&gt;Node1</title>
<g id="a_edge1_Node000001_Node000002"><a xlink:title=" ">
<path fill="none" stroke="#63b8ff" d="M141.86,-132.72C143.34,-108.7 142.97,-67.95 127.88,-37.25 124.44,-30.27 118.37,-24.15 112.76,-19.54"/>
<polygon fill="#63b8ff" stroke="#63b8ff" points="138.4,-132.14 141.08,-142.39 145.37,-132.7 138.4,-132.14"/>
</a>
</g>
</g>
<!-- Node4 -->
<g id="Node000004" class="node">
<title>Node4</title>
<g id="a_Node000004"><a xlink:href="classTransformComponent.html" target="_top" xlink:title=" ">
<polygon fill="white" stroke="#bfbfbf" points="109.75,-85.75 0,-85.75 0,-66.5 109.75,-66.5 109.75,-85.75"/>
<text text-anchor="middle" x="54.88" y="-72.25" font-family="Helvetica,sans-Serif" font-size="10.00">TransformComponent</text>
</a>
</g>
</g>
<!-- Node2&#45;&gt;Node4 -->
<g id="edge4_Node000004_Node000002" class="edge">
<title>Node2&#45;&gt;Node4</title>
<g id="a_edge4_Node000004_Node000002"><a xlink:title=" ">
<path fill="none" stroke="#63b8ff" d="M126.69,-134.86C118.95,-125 108.61,-112.95 97.88,-103.75 90.01,-97 80.26,-90.82 72.03,-86.11"/>
<polygon fill="#63b8ff" stroke="#63b8ff" points="123.72,-136.74 132.56,-142.6 129.3,-132.51 123.72,-136.74"/>
</a>
</g>
</g>
<!-- Node3 -->
<g id="Node000003" class="node">
<title>Node3</title>
<g id="a_Node000003"><a xlink:href="classEntity.html" target="_top" xlink:title="Main class for any object in game, stores associations, labeling and components.">
<polygon fill="white" stroke="#666666" points="159.88,-230 119.88,-230 119.88,-210.75 159.88,-210.75 159.88,-230"/>
<text text-anchor="middle" x="139.88" y="-216.5" font-family="Helvetica,sans-Serif" font-size="10.00">Entity</text>
</a>
</g>
</g>
<!-- Node3&#45;&gt;Node2 -->
<g id="edge2_Node000002_Node000003" class="edge">
<title>Node3&#45;&gt;Node2</title>
<g id="a_edge2_Node000002_Node000003"><a xlink:title=" ">
<path fill="none" stroke="#9a32cd" stroke-dasharray="5,2" d="M139.88,-198.9C139.88,-187.07 139.88,-172.79 139.88,-163.77"/>
<polygon fill="#9a32cd" stroke="#9a32cd" points="136.38,-198.89 139.88,-208.89 143.38,-198.89 136.38,-198.89"/>
</a>
</g>
<text text-anchor="middle" x="152.62" y="-183.25" font-family="Helvetica,sans-Serif" font-size="10.00" fill="grey"> entity</text>
</g>
<!-- Node4&#45;&gt;Node1 -->
<g id="edge3_Node000001_Node000004" class="edge">
<title>Node4&#45;&gt;Node1</title>
<g id="a_edge3_Node000001_Node000004"><a xlink:title=" ">
<path fill="none" stroke="#9a32cd" stroke-dasharray="5,2" d="M67.6,-56.88C76.13,-44.66 86.98,-29.11 93.67,-19.52"/>
<polygon fill="#9a32cd" stroke="#9a32cd" points="64.85,-54.71 62,-64.92 70.59,-58.72 64.85,-54.71"/>
</a>
</g>
<text text-anchor="middle" x="101.62" y="-39" font-family="Helvetica,sans-Serif" font-size="10.00" fill="grey"> transform</text>
</g>
<!-- Node5 -->
<g id="Node000005" class="node">
<title>Node5</title>
<g id="a_Node000005"><a xlink:href="classVector2D.html" target="_top" xlink:title=" ">
<polygon fill="white" stroke="#bfbfbf" points="83.12,-163.5 26.62,-163.5 26.62,-144.25 83.12,-144.25 83.12,-163.5"/>
<text text-anchor="middle" x="54.88" y="-150" font-family="Helvetica,sans-Serif" font-size="10.00">Vector2D</text>
</a>
</g>
</g>
<!-- Node5&#45;&gt;Node4 -->
<g id="edge5_Node000004_Node000005" class="edge">
<title>Node5&#45;&gt;Node4</title>
<g id="a_edge5_Node000004_Node000005"><a xlink:title=" ">
<path fill="none" stroke="#9a32cd" stroke-dasharray="5,2" d="M54.88,-132.6C54.88,-117.45 54.88,-97.48 54.88,-86.1"/>
<polygon fill="#9a32cd" stroke="#9a32cd" points="51.38,-132.37 54.88,-142.37 58.38,-132.37 51.38,-132.37"/>
</a>
</g>
<text text-anchor="middle" x="74.38" y="-116.75" font-family="Helvetica,sans-Serif" font-size="10.00" fill="grey"> direction</text>
<text text-anchor="middle" x="74.38" y="-105.5" font-family="Helvetica,sans-Serif" font-size="10.00" fill="grey">position</text>
</g>
</g>
</svg>
</svg>

<style type='text/css'>
<![CDATA[
[data-mouse-over-selected='false'] { opacity: 0.7; }
[data-mouse-over-selected='true']  { opacity: 1.0; }
]]>
</style>
<script type="application/ecmascript"><![CDATA[
document.addEventListener('DOMContentLoaded', (event) => {
  highlightEdges();
  highlightAdjacentNodes();
});
]]></script>
</svg>
