<?xml version="1.0" encoding="UTF-8" standalone="no"?>
<!DOCTYPE svg PUBLIC "-//W3C//DTD SVG 1.1//EN"
 "http://www.w3.org/Graphics/SVG/1.1/DTD/svg11.dtd">
<!-- Generated by graphviz version 11.0.0 (20240428.1522)
 -->
<!-- Title: StatEffectsComponent Pages: 1 -->
<svg width="122pt" height="149pt"
 viewBox="0.00 0.00 121.50 149.00" xmlns="http://www.w3.org/2000/svg" xmlns:xlink="http://www.w3.org/1999/xlink">
<g id="graph0" class="graph" transform="scale(1 1) rotate(0) translate(4 145)">
<title>StatEffectsComponent</title>
<!-- Node1 -->
<g id="Node000001" class="node">
<title>Node1</title>
<g id="a_Node000001"><a xlink:title=" ">
<polygon fill="#999999" stroke="#666666" points="113.5,-19.25 0,-19.25 0,0 113.5,0 113.5,-19.25"/>
<text text-anchor="middle" x="56.75" y="-5.75" font-family="Helvetica,sans-Serif" font-size="10.00">StatEffectsComponent</text>
</a>
</g>
</g>
<!-- Node2 -->
<g id="Node000002" class="node">
<title>Node2</title>
<g id="a_Node000002"><a xlink:href="classComponent.html" target="_top" xlink:title=" ">
<polygon fill="white" stroke="#bfbfbf" points="89.5,-74.5 24,-74.5 24,-55.25 89.5,-55.25 89.5,-74.5"/>
<text text-anchor="middle" x="56.75" y="-61" font-family="Helvetica,sans-Serif" font-size="10.00">Component</text>
</a>
</g>
</g>
<!-- Node2&#45;&gt;Node1 -->
<g id="edge1_Node000001_Node000002" class="edge">
<title>Node2&#45;&gt;Node1</title>
<g id="a_edge1_Node000001_Node000002"><a xlink:title=" ">
<path fill="none" stroke="#63b8ff" d="M56.75,-43.63C56.75,-35.34 56.75,-26.17 56.75,-19.61"/>
<polygon fill="#63b8ff" stroke="#63b8ff" points="53.25,-43.57 56.75,-53.57 60.25,-43.57 53.25,-43.57"/>
</a>
</g>
</g>
<!-- Node3 -->
<g id="Node000003" class="node">
<title>Node3</title>
<g id="a_Node000003"><a xlink:href="classEntity.html" target="_top" xlink:title="Main class for any object in game, stores associations, labeling and components.">
<polygon fill="white" stroke="#666666" points="76.75,-141 36.75,-141 36.75,-121.75 76.75,-121.75 76.75,-141"/>
<text text-anchor="middle" x="56.75" y="-127.5" font-family="Helvetica,sans-Serif" font-size="10.00">Entity</text>
</a>
</g>
</g>
<!-- Node3&#45;&gt;Node2 -->
<g id="edge2_Node000002_Node000003" class="edge">
<title>Node3&#45;&gt;Node2</title>
<g id="a_edge2_Node000002_Node000003"><a xlink:title=" ">
<path fill="none" stroke="#9a32cd" stroke-dasharray="5,2" d="M56.75,-109.9C56.75,-98.07 56.75,-83.79 56.75,-74.77"/>
<polygon fill="#9a32cd" stroke="#9a32cd" points="53.25,-109.89 56.75,-119.89 60.25,-109.89 53.25,-109.89"/>
</a>
</g>
<text text-anchor="middle" x="69.5" y="-94.25" font-family="Helvetica,sans-Serif" font-size="10.00" fill="grey"> entity</text>
</g>
</g>
</svg>
