<?xml version="1.0" encoding="UTF-8" standalone="no"?>
<!DOCTYPE svg PUBLIC "-//W3C//DTD SVG 1.1//EN"
 "http://www.w3.org/Graphics/SVG/1.1/DTD/svg11.dtd">
<!-- Generated by graphviz version 12.1.2 (20240928.0832)
 -->
<!-- Title: src/CollisionHandler.cpp Pages: 1 -->
<svg width="1234pt" height="359pt"
 viewBox="0.00 0.00 1234.12 358.75" xmlns="http://www.w3.org/2000/svg" xmlns:xlink="http://www.w3.org/1999/xlink">
<g id="graph0" class="graph" transform="scale(1 1) rotate(0) translate(4 354.75)">
<title>src/CollisionHandler.cpp</title>
<!-- Node1 -->
<g id="Node000001" class="node">
<title>Node1</title>
<g id="a_Node000001"><a xlink:title=" ">
<polygon fill="#999999" stroke="#666666" points="852.5,-350.75 731.5,-350.75 731.5,-331.5 852.5,-331.5 852.5,-350.75"/>
<text text-anchor="middle" x="792" y="-337.25" font-family="Helvetica,sans-Serif" font-size="10.00">src/CollisionHandler.cpp</text>
</a>
</g>
</g>
<!-- Node2 -->
<g id="Node000002" class="node">
<title>Node2</title>
<g id="a_Node000002"><a xlink:href="CollisionHandler_8h.html" target="_top" xlink:title=" ">
<polygon fill="white" stroke="#666666" points="697,-295.5 603,-295.5 603,-276.25 697,-276.25 697,-295.5"/>
<text text-anchor="middle" x="650" y="-282" font-family="Helvetica,sans-Serif" font-size="10.00">CollisionHandler.h</text>
</a>
</g>
</g>
<!-- Node1&#45;&gt;Node2 -->
<g id="edge1_Node000001_Node000002" class="edge">
<title>Node1&#45;&gt;Node2</title>
<g id="a_edge1_Node000001_Node000002"><a xlink:title=" ">
<path fill="none" stroke="#63b8ff" d="M767.91,-331.09C745.06,-322.52 710.48,-309.56 684.67,-299.88"/>
<polygon fill="#63b8ff" stroke="#63b8ff" points="686.22,-296.72 675.62,-296.48 683.76,-303.27 686.22,-296.72"/>
</a>
</g>
</g>
<!-- Node3 -->
<g id="Node000003" class="node">
<title>Node3</title>
<g id="a_Node000003"><a xlink:href="ColliderComponent_8h_source.html" target="_top" xlink:title=" ">
<polygon fill="white" stroke="#666666" points="297.62,-129.75 192.38,-129.75 192.38,-110.5 297.62,-110.5 297.62,-129.75"/>
<text text-anchor="middle" x="245" y="-116.25" font-family="Helvetica,sans-Serif" font-size="10.00">ColliderComponent.h</text>
</a>
</g>
</g>
<!-- Node1&#45;&gt;Node3 -->
<g id="edge53_Node000001_Node000003" class="edge">
<title>Node1&#45;&gt;Node3</title>
<g id="a_edge53_Node000001_Node000003"><a xlink:title=" ">
<path fill="none" stroke="#63b8ff" d="M731.16,-335.55C674.8,-330.07 589.18,-318.57 518,-295.5 465.96,-278.63 456.6,-265.36 408,-240.25 361.5,-216.22 345.45,-216.95 304,-185 286.49,-171.5 269.7,-152.54 258.55,-138.79"/>
<polygon fill="#63b8ff" stroke="#63b8ff" points="261.37,-136.71 252.42,-131.03 255.87,-141.05 261.37,-136.71"/>
</a>
</g>
</g>
<!-- Node6 -->
<g id="Node000006" class="node">
<title>Node6</title>
<g id="a_Node000006"><a xlink:href="Vector2D_8h_source.html" target="_top" xlink:title=" ">
<polygon fill="white" stroke="#666666" points="130,-74.5 66,-74.5 66,-55.25 130,-55.25 130,-74.5"/>
<text text-anchor="middle" x="98" y="-61" font-family="Helvetica,sans-Serif" font-size="10.00">Vector2D.h</text>
</a>
</g>
</g>
<!-- Node1&#45;&gt;Node6 -->
<g id="edge57_Node000001_Node000006" class="edge">
<title>Node1&#45;&gt;Node6</title>
<g id="a_edge57_Node000001_Node000006"><a xlink:title=" ">
<path fill="none" stroke="#63b8ff" d="M731.26,-337.28C558.38,-328.39 76,-297.67 76,-231.62 76,-231.62 76,-231.62 76,-174.38 76,-142.88 85.01,-107.26 91.5,-85.69"/>
<polygon fill="#63b8ff" stroke="#63b8ff" points="94.82,-86.79 94.49,-76.2 88.15,-84.69 94.82,-86.79"/>
</a>
</g>
</g>
<!-- Node7 -->
<g id="Node000007" class="node">
<title>Node7</title>
<g id="a_Node000007"><a xlink:title=" ">
<polygon fill="#e0e0e0" stroke="#999999" points="70.38,-19.25 5.62,-19.25 5.62,0 70.38,0 70.38,-19.25"/>
<text text-anchor="middle" x="38" y="-5.75" font-family="Helvetica,sans-Serif" font-size="10.00">SDL_rect.h</text>
</a>
</g>
</g>
<!-- Node1&#45;&gt;Node7 -->
<g id="edge58_Node000001_Node000007" class="edge">
<title>Node1&#45;&gt;Node7</title>
<g id="a_edge58_Node000001_Node000007"><a xlink:title=" ">
<path fill="none" stroke="#63b8ff" d="M731.02,-338.19C594.6,-333.48 268.34,-319.97 161,-295.5 85.94,-278.39 0,-308.61 0,-231.62 0,-231.62 0,-231.62 0,-119.12 0,-86.13 15.84,-50.51 27.07,-29.41"/>
<polygon fill="#63b8ff" stroke="#63b8ff" points="30.02,-31.3 31.82,-20.86 23.9,-27.9 30.02,-31.3"/>
</a>
</g>
</g>
<!-- Node8 -->
<g id="Node000008" class="node">
<title>Node8</title>
<g id="a_Node000008"><a xlink:href="Constants_8h_source.html" target="_top" xlink:title=" ">
<polygon fill="white" stroke="#666666" points="933.88,-74.5 866.12,-74.5 866.12,-55.25 933.88,-55.25 933.88,-74.5"/>
<text text-anchor="middle" x="900" y="-61" font-family="Helvetica,sans-Serif" font-size="10.00">Constants.h</text>
</a>
</g>
</g>
<!-- Node1&#45;&gt;Node8 -->
<g id="edge54_Node000001_Node000008" class="edge">
<title>Node1&#45;&gt;Node8</title>
<g id="a_edge54_Node000001_Node000008"><a xlink:title=" ">
<path fill="none" stroke="#63b8ff" d="M846.51,-331.06C930,-315.61 1080,-280.98 1080,-231.62 1080,-231.62 1080,-231.62 1080,-174.38 1080,-144.76 1082.14,-131.25 1061,-110.5 1030.37,-80.43 981.35,-70.22 945.44,-66.95"/>
<polygon fill="#63b8ff" stroke="#63b8ff" points="946.02,-63.48 935.79,-66.23 945.5,-70.46 946.02,-63.48"/>
</a>
</g>
</g>
<!-- Node10 -->
<g id="Node000010" class="node">
<title>Node10</title>
<g id="a_Node000010"><a xlink:href="Entity_8h_source.html" target="_top" xlink:title=" ">
<polygon fill="white" stroke="#666666" points="776.75,-185 729.25,-185 729.25,-165.75 776.75,-165.75 776.75,-185"/>
<text text-anchor="middle" x="753" y="-171.5" font-family="Helvetica,sans-Serif" font-size="10.00">Entity.h</text>
</a>
</g>
</g>
<!-- Node1&#45;&gt;Node10 -->
<g id="edge55_Node000001_Node000010" class="edge">
<title>Node1&#45;&gt;Node10</title>
<g id="a_edge55_Node000001_Node000010"><a xlink:title=" ">
<path fill="none" stroke="#63b8ff" d="M789.9,-331.32C783.85,-305.89 766.21,-231.85 757.7,-196.12"/>
<polygon fill="#63b8ff" stroke="#63b8ff" points="761.18,-195.61 755.46,-186.69 754.37,-197.23 761.18,-195.61"/>
</a>
</g>
</g>
<!-- Node12 -->
<g id="Node000012" class="node">
<title>Node12</title>
<g id="a_Node000012"><a xlink:title=" ">
<polygon fill="#e0e0e0" stroke="#999999" points="1072.25,-74.5 1021.75,-74.5 1021.75,-55.25 1072.25,-55.25 1072.25,-74.5"/>
<text text-anchor="middle" x="1047" y="-61" font-family="Helvetica,sans-Serif" font-size="10.00">memory</text>
</a>
</g>
</g>
<!-- Node1&#45;&gt;Node12 -->
<g id="edge61_Node000001_Node000012" class="edge">
<title>Node1&#45;&gt;Node12</title>
<g id="a_edge61_Node000001_Node000012"><a xlink:title=" ">
<path fill="none" stroke="#63b8ff" d="M852.93,-334.61C956.55,-323.54 1156,-294.11 1156,-231.62 1156,-231.62 1156,-231.62 1156,-174.38 1156,-129.8 1109.65,-97.22 1077.4,-79.95"/>
<polygon fill="#63b8ff" stroke="#63b8ff" points="1079.35,-77.01 1068.85,-75.57 1076.16,-83.25 1079.35,-77.01"/>
</a>
</g>
</g>
<!-- Node13 -->
<g id="Node000013" class="node">
<title>Node13</title>
<g id="a_Node000013"><a xlink:title=" ">
<polygon fill="#e0e0e0" stroke="#999999" points="356,-129.75 316,-129.75 316,-110.5 356,-110.5 356,-129.75"/>
<text text-anchor="middle" x="336" y="-116.25" font-family="Helvetica,sans-Serif" font-size="10.00">bitset</text>
</a>
</g>
</g>
<!-- Node1&#45;&gt;Node13 -->
<g id="edge59_Node000001_Node000013" class="edge">
<title>Node1&#45;&gt;Node13</title>
<g id="a_edge59_Node000001_Node000013"><a xlink:title=" ">
<path fill="none" stroke="#63b8ff" d="M731.3,-331.87C658.64,-320.02 535.13,-293.46 442,-240.25 408.49,-221.1 400.3,-214.15 375,-185 363.03,-171.2 352.44,-153.29 345.33,-139.94"/>
<polygon fill="#63b8ff" stroke="#63b8ff" points="348.59,-138.64 340.91,-131.35 342.37,-141.84 348.59,-138.64"/>
</a>
</g>
</g>
<!-- Node26 -->
<g id="Node000026" class="node">
<title>Node26</title>
<g id="a_Node000026"><a xlink:href="Manager_8h_source.html" target="_top" xlink:title=" ">
<polygon fill="white" stroke="#666666" points="970.5,-240.25 909.5,-240.25 909.5,-221 970.5,-221 970.5,-240.25"/>
<text text-anchor="middle" x="940" y="-226.75" font-family="Helvetica,sans-Serif" font-size="10.00">Manager.h</text>
</a>
</g>
</g>
<!-- Node1&#45;&gt;Node26 -->
<g id="edge56_Node000001_Node000026" class="edge">
<title>Node1&#45;&gt;Node26</title>
<g id="a_edge56_Node000001_Node000026"><a xlink:title=" ">
<path fill="none" stroke="#63b8ff" d="M824.65,-331.08C846.25,-323.94 874.29,-312.35 895,-295.5 910.11,-283.21 922.43,-264.6 930.33,-250.64"/>
<polygon fill="#63b8ff" stroke="#63b8ff" points="933.34,-252.45 934.98,-241.98 927.17,-249.14 933.34,-252.45"/>
</a>
</g>
</g>
<!-- Node31 -->
<g id="Node000031" class="node">
<title>Node31</title>
<g id="a_Node000031"><a xlink:title=" ">
<polygon fill="#e0e0e0" stroke="#999999" points="1226.12,-295.5 1183.88,-295.5 1183.88,-276.25 1226.12,-276.25 1226.12,-295.5"/>
<text text-anchor="middle" x="1205" y="-282" font-family="Helvetica,sans-Serif" font-size="10.00">cstdio</text>
</a>
</g>
</g>
<!-- Node1&#45;&gt;Node31 -->
<g id="edge60_Node000001_Node000031" class="edge">
<title>Node1&#45;&gt;Node31</title>
<g id="a_edge60_Node000001_Node000031"><a xlink:title=" ">
<path fill="none" stroke="#63b8ff" d="M852.9,-335.28C927.9,-328.77 1058.98,-315.65 1170,-295.5 1170.83,-295.35 1171.67,-295.19 1172.52,-295.02"/>
<polygon fill="#63b8ff" stroke="#63b8ff" points="1173.12,-298.48 1182.14,-292.91 1171.62,-291.64 1173.12,-298.48"/>
</a>
</g>
</g>
<!-- Node2&#45;&gt;Node3 -->
<g id="edge2_Node000002_Node000003" class="edge">
<title>Node2&#45;&gt;Node3</title>
<g id="a_edge2_Node000002_Node000003"><a xlink:title=" ">
<path fill="none" stroke="#63b8ff" d="M602.85,-279.31C559.82,-273.19 495.04,-261.29 442,-240.25 373.02,-212.89 300.47,-162.55 265.82,-136.96"/>
<polygon fill="#63b8ff" stroke="#63b8ff" points="268.02,-134.24 257.91,-131.06 263.83,-139.85 268.02,-134.24"/>
</a>
</g>
</g>
<!-- Node2&#45;&gt;Node6 -->
<g id="edge40_Node000002_Node000006" class="edge">
<title>Node2&#45;&gt;Node6</title>
<g id="a_edge40_Node000002_Node000006"><a xlink:title=" ">
<path fill="none" stroke="#63b8ff" d="M602.78,-280.84C551.16,-275.45 466.51,-263.72 397,-240.25 295.58,-206.01 273.66,-186.66 183,-129.75 159.61,-115.07 134.52,-95.72 117.71,-82.19"/>
<polygon fill="#63b8ff" stroke="#63b8ff" points="119.99,-79.53 110.02,-75.92 115.56,-84.95 119.99,-79.53"/>
</a>
</g>
</g>
<!-- Node2&#45;&gt;Node7 -->
<g id="edge38_Node000002_Node000007" class="edge">
<title>Node2&#45;&gt;Node7</title>
<g id="a_edge38_Node000002_Node000007"><a xlink:title=" ">
<path fill="none" stroke="#63b8ff" d="M602.51,-283.13C540.82,-279.72 430.46,-269.69 341,-240.25 279.49,-220.01 59.59,-77.87 57,-74.5 47.17,-61.72 42.41,-43.93 40.12,-30.37"/>
<polygon fill="#63b8ff" stroke="#63b8ff" points="43.64,-30.31 38.83,-20.87 36.7,-31.25 43.64,-30.31"/>
</a>
</g>
</g>
<!-- Node2&#45;&gt;Node8 -->
<g id="edge8_Node000002_Node000008" class="edge">
<title>Node2&#45;&gt;Node8</title>
<g id="a_edge8_Node000002_Node000008"><a xlink:title=" ">
<path fill="none" stroke="#63b8ff" d="M694.13,-275.77C759.84,-259.52 880.82,-218.52 929,-129.75 937.32,-114.42 927.25,-96.25 916.77,-83.21"/>
<polygon fill="#63b8ff" stroke="#63b8ff" points="919.55,-81.08 910.32,-75.88 914.29,-85.7 919.55,-81.08"/>
</a>
</g>
</g>
<!-- Node2&#45;&gt;Node10 -->
<g id="edge10_Node000002_Node000010" class="edge">
<title>Node2&#45;&gt;Node10</title>
<g id="a_edge10_Node000002_Node000010"><a xlink:title=" ">
<path fill="none" stroke="#63b8ff" d="M665.48,-275.76C678.57,-267.55 697.34,-254.61 711,-240.25 723.86,-226.73 735.27,-208.79 742.94,-195.36"/>
<polygon fill="#63b8ff" stroke="#63b8ff" points="745.96,-197.12 747.72,-186.67 739.83,-193.75 745.96,-197.12"/>
</a>
</g>
</g>
<!-- Node2&#45;&gt;Node13 -->
<g id="edge48_Node000002_Node000013" class="edge">
<title>Node2&#45;&gt;Node13</title>
<g id="a_edge48_Node000002_Node000013"><a xlink:title=" ">
<path fill="none" stroke="#63b8ff" d="M602.79,-278.56C566.8,-272.39 516.82,-260.83 477,-240.25 425.27,-213.52 375.95,-164.73 351.67,-138.65"/>
<polygon fill="#63b8ff" stroke="#63b8ff" points="354.25,-136.29 344.92,-131.28 349.09,-141.02 354.25,-136.29"/>
</a>
</g>
</g>
<!-- Node14 -->
<g id="Node000014" class="node">
<title>Node14</title>
<g id="a_Node000014"><a xlink:title=" ">
<polygon fill="#e0e0e0" stroke="#999999" points="919.5,-129.75 876.5,-129.75 876.5,-110.5 919.5,-110.5 919.5,-129.75"/>
<text text-anchor="middle" x="898" y="-116.25" font-family="Helvetica,sans-Serif" font-size="10.00">vector</text>
</a>
</g>
</g>
<!-- Node2&#45;&gt;Node14 -->
<g id="edge52_Node000002_Node000014" class="edge">
<title>Node2&#45;&gt;Node14</title>
<g id="a_edge52_Node000002_Node000014"><a xlink:title=" ">
<path fill="none" stroke="#63b8ff" d="M668.28,-275.75C685.15,-267.15 710.72,-253.6 732,-240.25 786.5,-206.05 847.1,-160.52 877.8,-136.87"/>
<polygon fill="#63b8ff" stroke="#63b8ff" points="879.7,-139.82 885.47,-130.94 875.42,-134.29 879.7,-139.82"/>
</a>
</g>
</g>
<!-- Node19 -->
<g id="Node000019" class="node">
<title>Node19</title>
<g id="a_Node000019"><a xlink:href="SpriteComponent_8h_source.html" target="_top" xlink:title=" ">
<polygon fill="white" stroke="#666666" points="472.25,-129.75 373.75,-129.75 373.75,-110.5 472.25,-110.5 472.25,-129.75"/>
<text text-anchor="middle" x="423" y="-116.25" font-family="Helvetica,sans-Serif" font-size="10.00">SpriteComponent.h</text>
</a>
</g>
</g>
<!-- Node2&#45;&gt;Node19 -->
<g id="edge39_Node000002_Node000019" class="edge">
<title>Node2&#45;&gt;Node19</title>
<g id="a_edge39_Node000002_Node000019"><a xlink:title=" ">
<path fill="none" stroke="#63b8ff" d="M659.19,-276.09C671.45,-263.27 690.28,-239 678,-221 653.97,-185.78 538.42,-150.88 471.4,-133.15"/>
<polygon fill="#63b8ff" stroke="#63b8ff" points="472.31,-129.77 461.75,-130.63 470.54,-136.54 472.31,-129.77"/>
</a>
</g>
</g>
<!-- Node2&#45;&gt;Node26 -->
<g id="edge41_Node000002_Node000026" class="edge">
<title>Node2&#45;&gt;Node26</title>
<g id="a_edge41_Node000002_Node000026"><a xlink:title=" ">
<path fill="none" stroke="#63b8ff" d="M697.24,-276.2C753.01,-265.96 844.91,-249.09 898.2,-239.3"/>
<polygon fill="#63b8ff" stroke="#63b8ff" points="898.58,-242.79 907.79,-237.54 897.32,-235.9 898.58,-242.79"/>
</a>
</g>
</g>
<!-- Node28 -->
<g id="Node000028" class="node">
<title>Node28</title>
<g id="a_Node000028"><a xlink:title=" ">
<polygon fill="#e0e0e0" stroke="#999999" points="557.75,-240.25 486.25,-240.25 486.25,-221 557.75,-221 557.75,-240.25"/>
<text text-anchor="middle" x="522" y="-226.75" font-family="Helvetica,sans-Serif" font-size="10.00">initializer_list</text>
</a>
</g>
</g>
<!-- Node2&#45;&gt;Node28 -->
<g id="edge49_Node000002_Node000028" class="edge">
<title>Node2&#45;&gt;Node28</title>
<g id="a_edge49_Node000002_Node000028"><a xlink:title=" ">
<path fill="none" stroke="#63b8ff" d="M628.29,-275.84C607.97,-267.39 577.35,-254.65 554.19,-245.02"/>
<polygon fill="#63b8ff" stroke="#63b8ff" points="555.79,-241.89 545.22,-241.28 553.11,-248.36 555.79,-241.89"/>
</a>
</g>
</g>
<!-- Node29 -->
<g id="Node000029" class="node">
<title>Node29</title>
<g id="a_Node000029"><a xlink:title=" ">
<polygon fill="#e0e0e0" stroke="#999999" points="612.5,-240.25 575.5,-240.25 575.5,-221 612.5,-221 612.5,-240.25"/>
<text text-anchor="middle" x="594" y="-226.75" font-family="Helvetica,sans-Serif" font-size="10.00">tuple</text>
</a>
</g>
</g>
<!-- Node2&#45;&gt;Node29 -->
<g id="edge50_Node000002_Node000029" class="edge">
<title>Node2&#45;&gt;Node29</title>
<g id="a_edge50_Node000002_Node000029"><a xlink:title=" ">
<path fill="none" stroke="#63b8ff" d="M640.5,-275.84C632.57,-268.3 621.05,-257.35 611.46,-248.23"/>
<polygon fill="#63b8ff" stroke="#63b8ff" points="614.11,-245.92 604.46,-241.57 609.29,-250.99 614.11,-245.92"/>
</a>
</g>
</g>
<!-- Node30 -->
<g id="Node000030" class="node">
<title>Node30</title>
<g id="a_Node000030"><a xlink:title=" ">
<polygon fill="#e0e0e0" stroke="#999999" points="669.25,-240.25 630.75,-240.25 630.75,-221 669.25,-221 669.25,-240.25"/>
<text text-anchor="middle" x="650" y="-226.75" font-family="Helvetica,sans-Serif" font-size="10.00">utility</text>
</a>
</g>
</g>
<!-- Node2&#45;&gt;Node30 -->
<g id="edge51_Node000002_Node000030" class="edge">
<title>Node2&#45;&gt;Node30</title>
<g id="a_edge51_Node000002_Node000030"><a xlink:title=" ">
<path fill="none" stroke="#63b8ff" d="M650,-276.08C650,-269.57 650,-260.42 650,-252.12"/>
<polygon fill="#63b8ff" stroke="#63b8ff" points="653.5,-252.12 650,-242.12 646.5,-252.12 653.5,-252.12"/>
</a>
</g>
</g>
<!-- Node4 -->
<g id="Node000004" class="node">
<title>Node4</title>
<g id="a_Node000004"><a xlink:title=" ">
<polygon fill="#e0e0e0" stroke="#999999" points="179.5,-19.25 136.5,-19.25 136.5,0 179.5,0 179.5,-19.25"/>
<text text-anchor="middle" x="158" y="-5.75" font-family="Helvetica,sans-Serif" font-size="10.00">SDL.h</text>
</a>
</g>
</g>
<!-- Node3&#45;&gt;Node4 -->
<g id="edge3_Node000003_Node000004" class="edge">
<title>Node3&#45;&gt;Node4</title>
<g id="a_edge3_Node000003_Node000004"><a xlink:title=" ">
<path fill="none" stroke="#63b8ff" d="M223.68,-110.03C208.58,-102.56 188.97,-90.59 177,-74.5 167.48,-61.7 162.7,-44.15 160.32,-30.69"/>
<polygon fill="#63b8ff" stroke="#63b8ff" points="163.79,-30.22 158.91,-20.81 156.86,-31.21 163.79,-30.22"/>
</a>
</g>
</g>
<!-- Node5 -->
<g id="Node000005" class="node">
<title>Node5</title>
<g id="a_Node000005"><a xlink:href="Component_8h_source.html" target="_top" xlink:title=" ">
<polygon fill="white" stroke="#666666" points="800.5,-74.5 727.5,-74.5 727.5,-55.25 800.5,-55.25 800.5,-74.5"/>
<text text-anchor="middle" x="764" y="-61" font-family="Helvetica,sans-Serif" font-size="10.00">Component.h</text>
</a>
</g>
</g>
<!-- Node3&#45;&gt;Node5 -->
<g id="edge4_Node000003_Node000005" class="edge">
<title>Node3&#45;&gt;Node5</title>
<g id="a_edge4_Node000003_Node000005"><a xlink:title=" ">
<path fill="none" stroke="#63b8ff" d="M298.08,-111.59C301.1,-111.21 304.09,-110.84 307,-110.5 472.41,-91.02 514.27,-91.01 680,-74.5 691.6,-73.34 704.09,-72.08 715.81,-70.87"/>
<polygon fill="#63b8ff" stroke="#63b8ff" points="716.11,-74.36 725.7,-69.86 715.39,-67.4 716.11,-74.36"/>
</a>
</g>
</g>
<!-- Node3&#45;&gt;Node6 -->
<g id="edge5_Node000003_Node000006" class="edge">
<title>Node3&#45;&gt;Node6</title>
<g id="a_edge5_Node000003_Node000006"><a xlink:title=" ">
<path fill="none" stroke="#63b8ff" d="M220.06,-110.09C196.31,-101.49 160.29,-88.44 133.54,-78.75"/>
<polygon fill="#63b8ff" stroke="#63b8ff" points="135.08,-75.58 124.48,-75.47 132.69,-82.16 135.08,-75.58"/>
</a>
</g>
</g>
<!-- Node6&#45;&gt;Node4 -->
<g id="edge6_Node000006_Node000004" class="edge">
<title>Node6&#45;&gt;Node4</title>
<g id="a_edge6_Node000006_Node000004"><a xlink:title=" ">
<path fill="none" stroke="#63b8ff" d="M108.18,-54.84C116.76,-47.22 129.27,-36.12 139.6,-26.95"/>
<polygon fill="#63b8ff" stroke="#63b8ff" points="141.68,-29.79 146.84,-20.53 137.04,-24.55 141.68,-29.79"/>
</a>
</g>
</g>
<!-- Node6&#45;&gt;Node7 -->
<g id="edge7_Node000006_Node000007" class="edge">
<title>Node6&#45;&gt;Node7</title>
<g id="a_edge7_Node000006_Node000007"><a xlink:title=" ">
<path fill="none" stroke="#63b8ff" d="M87.82,-54.84C79.24,-47.22 66.73,-36.12 56.4,-26.95"/>
<polygon fill="#63b8ff" stroke="#63b8ff" points="58.96,-24.55 49.16,-20.53 54.32,-29.79 58.96,-24.55"/>
</a>
</g>
</g>
<!-- Node9 -->
<g id="Node000009" class="node">
<title>Node9</title>
<g id="a_Node000009"><a xlink:title=" ">
<polygon fill="#e0e0e0" stroke="#999999" points="924.12,-19.25 875.88,-19.25 875.88,0 924.12,0 924.12,-19.25"/>
<text text-anchor="middle" x="900" y="-5.75" font-family="Helvetica,sans-Serif" font-size="10.00">cstddef</text>
</a>
</g>
</g>
<!-- Node8&#45;&gt;Node9 -->
<g id="edge9_Node000008_Node000009" class="edge">
<title>Node8&#45;&gt;Node9</title>
<g id="a_edge9_Node000008_Node000009"><a xlink:title=" ">
<path fill="none" stroke="#63b8ff" d="M900,-55.08C900,-48.57 900,-39.42 900,-31.12"/>
<polygon fill="#63b8ff" stroke="#63b8ff" points="903.5,-31.12 900,-21.12 896.5,-31.12 903.5,-31.12"/>
</a>
</g>
</g>
<!-- Node10&#45;&gt;Node3 -->
<g id="edge15_Node000010_Node000003" class="edge">
<title>Node10&#45;&gt;Node3</title>
<g id="a_edge15_Node000010_Node000003"><a xlink:title=" ">
<path fill="none" stroke="#63b8ff" d="M728.79,-172.28C663.14,-166.54 475.99,-149.71 309.05,-129.95"/>
<polygon fill="#63b8ff" stroke="#63b8ff" points="309.93,-126.53 299.59,-128.83 309.1,-133.48 309.93,-126.53"/>
</a>
</g>
</g>
<!-- Node10&#45;&gt;Node8 -->
<g id="edge19_Node000010_Node000008" class="edge">
<title>Node10&#45;&gt;Node8</title>
<g id="a_edge19_Node000010_Node000008"><a xlink:title=" ">
<path fill="none" stroke="#63b8ff" d="M763.81,-165.44C779.16,-152.84 808.26,-129.31 834,-110.5 847.83,-100.39 863.73,-89.61 876.46,-81.18"/>
<polygon fill="#63b8ff" stroke="#63b8ff" points="878.19,-84.24 884.62,-75.82 874.35,-78.39 878.19,-84.24"/>
</a>
</g>
</g>
<!-- Node11 -->
<g id="Node000011" class="node">
<title>Node11</title>
<g id="a_Node000011"><a xlink:title=" ">
<polygon fill="#e0e0e0" stroke="#999999" points="1051.5,-129.75 1014.5,-129.75 1014.5,-110.5 1051.5,-110.5 1051.5,-129.75"/>
<text text-anchor="middle" x="1033" y="-116.25" font-family="Helvetica,sans-Serif" font-size="10.00">array</text>
</a>
</g>
</g>
<!-- Node10&#45;&gt;Node11 -->
<g id="edge11_Node000010_Node000011" class="edge">
<title>Node10&#45;&gt;Node11</title>
<g id="a_edge11_Node000010_Node000011"><a xlink:title=" ">
<path fill="none" stroke="#63b8ff" d="M776.87,-169.83C827.76,-160.16 946.81,-137.52 1002.84,-126.86"/>
<polygon fill="#63b8ff" stroke="#63b8ff" points="1003.44,-130.31 1012.61,-125 1002.14,-123.43 1003.44,-130.31"/>
</a>
</g>
</g>
<!-- Node10&#45;&gt;Node12 -->
<g id="edge12_Node000010_Node000012" class="edge">
<title>Node10&#45;&gt;Node12</title>
<g id="a_edge12_Node000010_Node000012"><a xlink:title=" ">
<path fill="none" stroke="#63b8ff" d="M769.48,-165.37C785.86,-156.4 811.71,-142.2 834,-129.75 849.16,-121.28 851.87,-116.94 868,-110.5 915.51,-91.54 973.41,-78.87 1010.24,-72.02"/>
<polygon fill="#63b8ff" stroke="#63b8ff" points="1010.72,-75.49 1019.93,-70.27 1009.47,-68.6 1010.72,-75.49"/>
</a>
</g>
</g>
<!-- Node10&#45;&gt;Node13 -->
<g id="edge13_Node000010_Node000013" class="edge">
<title>Node10&#45;&gt;Node13</title>
<g id="a_edge13_Node000010_Node000013"><a xlink:title=" ">
<path fill="none" stroke="#63b8ff" d="M729.15,-173.08C669.62,-169.56 509.59,-158.21 367.55,-129.94"/>
<polygon fill="#63b8ff" stroke="#63b8ff" points="368.46,-126.56 357.97,-128 367.07,-133.42 368.46,-126.56"/>
</a>
</g>
</g>
<!-- Node10&#45;&gt;Node14 -->
<g id="edge14_Node000010_Node000014" class="edge">
<title>Node10&#45;&gt;Node14</title>
<g id="a_edge14_Node000010_Node000014"><a xlink:title=" ">
<path fill="none" stroke="#63b8ff" d="M776.94,-165.58C801.16,-156.69 838.74,-142.89 865.6,-133.02"/>
<polygon fill="#63b8ff" stroke="#63b8ff" points="866.79,-136.32 874.97,-129.58 864.38,-129.74 866.79,-136.32"/>
</a>
</g>
</g>
<!-- Node15 -->
<g id="Node000015" class="node">
<title>Node15</title>
<g id="a_Node000015"><a xlink:href="ECS_8h_source.html" target="_top" xlink:title=" ">
<polygon fill="white" stroke="#666666" points="781.5,-129.75 738.5,-129.75 738.5,-110.5 781.5,-110.5 781.5,-129.75"/>
<text text-anchor="middle" x="760" y="-116.25" font-family="Helvetica,sans-Serif" font-size="10.00">ECS.h</text>
</a>
</g>
</g>
<!-- Node10&#45;&gt;Node15 -->
<g id="edge16_Node000010_Node000015" class="edge">
<title>Node10&#45;&gt;Node15</title>
<g id="a_edge16_Node000010_Node000015"><a xlink:title=" ">
<path fill="none" stroke="#63b8ff" d="M754.16,-165.58C755.02,-158.99 756.24,-149.71 757.34,-141.32"/>
<polygon fill="#63b8ff" stroke="#63b8ff" points="760.79,-141.98 758.62,-131.61 753.85,-141.07 760.79,-141.98"/>
</a>
</g>
</g>
<!-- Node16 -->
<g id="Node000016" class="node">
<title>Node16</title>
<g id="a_Node000016"><a xlink:href="InputComponent_8h_source.html" target="_top" xlink:title=" ">
<polygon fill="white" stroke="#666666" points="585.38,-129.75 490.62,-129.75 490.62,-110.5 585.38,-110.5 585.38,-129.75"/>
<text text-anchor="middle" x="538" y="-116.25" font-family="Helvetica,sans-Serif" font-size="10.00">InputComponent.h</text>
</a>
</g>
</g>
<!-- Node10&#45;&gt;Node16 -->
<g id="edge20_Node000010_Node000016" class="edge">
<title>Node10&#45;&gt;Node16</title>
<g id="a_edge20_Node000010_Node000016"><a xlink:title=" ">
<path fill="none" stroke="#63b8ff" d="M728.75,-168.37C694.2,-159.81 630.09,-143.93 585.79,-132.96"/>
<polygon fill="#63b8ff" stroke="#63b8ff" points="586.72,-129.59 576.17,-130.58 585.04,-136.38 586.72,-129.59"/>
</a>
</g>
</g>
<!-- Node18 -->
<g id="Node000018" class="node">
<title>Node18</title>
<g id="a_Node000018"><a xlink:href="TransformComponent_8h_source.html" target="_top" xlink:title=" ">
<polygon fill="white" stroke="#666666" points="720.62,-129.75 603.38,-129.75 603.38,-110.5 720.62,-110.5 720.62,-129.75"/>
<text text-anchor="middle" x="662" y="-116.25" font-family="Helvetica,sans-Serif" font-size="10.00">TransformComponent.h</text>
</a>
</g>
</g>
<!-- Node10&#45;&gt;Node18 -->
<g id="edge24_Node000010_Node000018" class="edge">
<title>Node10&#45;&gt;Node18</title>
<g id="a_edge24_Node000010_Node000018"><a xlink:title=" ">
<path fill="none" stroke="#63b8ff" d="M737.56,-165.34C723.84,-157.31 703.5,-145.41 687.38,-135.98"/>
<polygon fill="#63b8ff" stroke="#63b8ff" points="689.22,-133 678.82,-130.97 685.68,-139.04 689.22,-133"/>
</a>
</g>
</g>
<!-- Node10&#45;&gt;Node19 -->
<g id="edge28_Node000010_Node000019" class="edge">
<title>Node10&#45;&gt;Node19</title>
<g id="a_edge28_Node000010_Node000019"><a xlink:title=" ">
<path fill="none" stroke="#63b8ff" d="M729.05,-169.25C723.16,-168.04 716.86,-166.81 711,-165.75 668.52,-158.1 554.73,-140.83 483.56,-130.15"/>
<polygon fill="#63b8ff" stroke="#63b8ff" points="484.42,-126.74 474.02,-128.72 483.39,-133.67 484.42,-126.74"/>
</a>
</g>
</g>
<!-- Node15&#45;&gt;Node5 -->
<g id="edge17_Node000015_Node000005" class="edge">
<title>Node15&#45;&gt;Node5</title>
<g id="a_edge17_Node000015_Node000005"><a xlink:title=" ">
<path fill="none" stroke="#63b8ff" d="M760.66,-110.33C761.16,-103.74 761.85,-94.46 762.48,-86.07"/>
<polygon fill="#63b8ff" stroke="#63b8ff" points="765.95,-86.6 763.21,-76.37 758.97,-86.08 765.95,-86.6"/>
</a>
</g>
</g>
<!-- Node15&#45;&gt;Node8 -->
<g id="edge18_Node000015_Node000008" class="edge">
<title>Node15&#45;&gt;Node8</title>
<g id="a_edge18_Node000015_Node000008"><a xlink:title=" ">
<path fill="none" stroke="#63b8ff" d="M781.88,-110.8C804.35,-102.26 839.65,-88.83 865.82,-78.88"/>
<polygon fill="#63b8ff" stroke="#63b8ff" points="866.89,-82.21 874.99,-75.39 864.4,-75.67 866.89,-82.21"/>
</a>
</g>
</g>
<!-- Node16&#45;&gt;Node4 -->
<g id="edge21_Node000016_Node000004" class="edge">
<title>Node16&#45;&gt;Node4</title>
<g id="a_edge21_Node000016_Node000004"><a xlink:title=" ">
<path fill="none" stroke="#63b8ff" d="M585.71,-110.39C622.37,-102.59 668.61,-90.02 680,-74.5 685.06,-67.6 685.79,-61.55 680,-55.25 646.91,-19.21 300.63,-12.23 191.05,-10.92"/>
<polygon fill="#63b8ff" stroke="#63b8ff" points="191.31,-7.42 181.27,-10.81 191.23,-14.42 191.31,-7.42"/>
</a>
</g>
</g>
<!-- Node16&#45;&gt;Node5 -->
<g id="edge23_Node000016_Node000005" class="edge">
<title>Node16&#45;&gt;Node5</title>
<g id="a_edge23_Node000016_Node000005"><a xlink:title=" ">
<path fill="none" stroke="#63b8ff" d="M576.59,-110.03C615.17,-100.94 674.56,-86.95 716.11,-77.16"/>
<polygon fill="#63b8ff" stroke="#63b8ff" points="716.66,-80.62 725.59,-74.92 715.06,-73.81 716.66,-80.62"/>
</a>
</g>
</g>
<!-- Node17 -->
<g id="Node000017" class="node">
<title>Node17</title>
<g id="a_Node000017"><a xlink:title=" ">
<polygon fill="#e0e0e0" stroke="#999999" points="671.38,-74.5 636.62,-74.5 636.62,-55.25 671.38,-55.25 671.38,-74.5"/>
<text text-anchor="middle" x="654" y="-61" font-family="Helvetica,sans-Serif" font-size="10.00">map</text>
</a>
</g>
</g>
<!-- Node16&#45;&gt;Node17 -->
<g id="edge22_Node000016_Node000017" class="edge">
<title>Node16&#45;&gt;Node17</title>
<g id="a_edge22_Node000016_Node000017"><a xlink:title=" ">
<path fill="none" stroke="#63b8ff" d="M557.68,-110.09C576.39,-101.5 604.74,-88.49 625.85,-78.8"/>
<polygon fill="#63b8ff" stroke="#63b8ff" points="627.13,-82.06 634.76,-74.71 624.21,-75.7 627.13,-82.06"/>
</a>
</g>
</g>
<!-- Node18&#45;&gt;Node5 -->
<g id="edge25_Node000018_Node000005" class="edge">
<title>Node18&#45;&gt;Node5</title>
<g id="a_edge25_Node000018_Node000005"><a xlink:title=" ">
<path fill="none" stroke="#63b8ff" d="M679.3,-110.09C694.98,-101.91 718.35,-89.71 736.58,-80.19"/>
<polygon fill="#63b8ff" stroke="#63b8ff" points="738.03,-83.38 745.27,-75.65 734.79,-77.18 738.03,-83.38"/>
</a>
</g>
</g>
<!-- Node18&#45;&gt;Node6 -->
<g id="edge26_Node000018_Node000006" class="edge">
<title>Node18&#45;&gt;Node6</title>
<g id="a_edge26_Node000018_Node000006"><a xlink:title=" ">
<path fill="none" stroke="#63b8ff" d="M603.04,-111.5C599.99,-111.15 596.96,-110.82 594,-110.5 409.02,-90.79 362.14,-92.6 177,-74.5 165.47,-73.37 153,-72.06 141.44,-70.8"/>
<polygon fill="#63b8ff" stroke="#63b8ff" points="142.1,-67.35 131.77,-69.73 141.33,-74.31 142.1,-67.35"/>
</a>
</g>
</g>
<!-- Node18&#45;&gt;Node8 -->
<g id="edge27_Node000018_Node000008" class="edge">
<title>Node18&#45;&gt;Node8</title>
<g id="a_edge27_Node000018_Node000008"><a xlink:title=" ">
<path fill="none" stroke="#63b8ff" d="M702.64,-110.03C744.81,-100.6 810.61,-85.87 854.49,-76.06"/>
<polygon fill="#63b8ff" stroke="#63b8ff" points="855.23,-79.48 864.22,-73.88 853.7,-72.65 855.23,-79.48"/>
</a>
</g>
</g>
<!-- Node19&#45;&gt;Node5 -->
<g id="edge35_Node000019_Node000005" class="edge">
<title>Node19&#45;&gt;Node5</title>
<g id="a_edge35_Node000019_Node000005"><a xlink:title=" ">
<path fill="none" stroke="#63b8ff" d="M472.58,-111.38C537.93,-101.18 652.1,-83.35 716.42,-73.3"/>
<polygon fill="#63b8ff" stroke="#63b8ff" points="716.61,-76.82 725.95,-71.82 715.53,-69.9 716.61,-76.82"/>
</a>
</g>
</g>
<!-- Node19&#45;&gt;Node12 -->
<g id="edge31_Node000019_Node000012" class="edge">
<title>Node19&#45;&gt;Node12</title>
<g id="a_edge31_Node000019_Node000012"><a xlink:title=" ">
<path fill="none" stroke="#63b8ff" d="M472.54,-111.64C475.74,-111.23 478.91,-110.85 482,-110.5 686.24,-87.62 738.15,-90.99 943,-74.5 965.24,-72.71 990.15,-70.65 1010.01,-68.99"/>
<polygon fill="#63b8ff" stroke="#63b8ff" points="1010.18,-72.48 1019.85,-68.16 1009.59,-65.51 1010.18,-72.48"/>
</a>
</g>
</g>
<!-- Node19&#45;&gt;Node17 -->
<g id="edge29_Node000019_Node000017" class="edge">
<title>Node19&#45;&gt;Node17</title>
<g id="a_edge29_Node000019_Node000017"><a xlink:title=" ">
<path fill="none" stroke="#63b8ff" d="M470.71,-110.01C509.81,-102.24 566.79,-90.25 625.39,-74.72"/>
<polygon fill="#63b8ff" stroke="#63b8ff" points="626.14,-78.14 634.89,-72.17 624.32,-71.38 626.14,-78.14"/>
</a>
</g>
</g>
<!-- Node20 -->
<g id="Node000020" class="node">
<title>Node20</title>
<g id="a_Node000020"><a xlink:title=" ">
<polygon fill="#e0e0e0" stroke="#999999" points="361.62,-74.5 286.38,-74.5 286.38,-55.25 361.62,-55.25 361.62,-74.5"/>
<text text-anchor="middle" x="324" y="-61" font-family="Helvetica,sans-Serif" font-size="10.00">SDL_render.h</text>
</a>
</g>
</g>
<!-- Node19&#45;&gt;Node20 -->
<g id="edge30_Node000019_Node000020" class="edge">
<title>Node19&#45;&gt;Node20</title>
<g id="a_edge30_Node000019_Node000020"><a xlink:title=" ">
<path fill="none" stroke="#63b8ff" d="M406.21,-110.09C390.99,-101.91 368.3,-89.71 350.62,-80.19"/>
<polygon fill="#63b8ff" stroke="#63b8ff" points="352.67,-77.32 342.21,-75.67 349.36,-83.49 352.67,-77.32"/>
</a>
</g>
</g>
<!-- Node21 -->
<g id="Node000021" class="node">
<title>Node21</title>
<g id="a_Node000021"><a xlink:title=" ">
<polygon fill="#e0e0e0" stroke="#999999" points="420,-74.5 380,-74.5 380,-55.25 420,-55.25 420,-74.5"/>
<text text-anchor="middle" x="400" y="-61" font-family="Helvetica,sans-Serif" font-size="10.00">string</text>
</a>
</g>
</g>
<!-- Node19&#45;&gt;Node21 -->
<g id="edge32_Node000019_Node000021" class="edge">
<title>Node19&#45;&gt;Node21</title>
<g id="a_edge32_Node000019_Node000021"><a xlink:title=" ">
<path fill="none" stroke="#63b8ff" d="M419.2,-110.33C416.26,-103.51 412.06,-93.81 408.35,-85.2"/>
<polygon fill="#63b8ff" stroke="#63b8ff" points="411.66,-84.04 404.48,-76.25 405.23,-86.82 411.66,-84.04"/>
</a>
</g>
</g>
<!-- Node22 -->
<g id="Node000022" class="node">
<title>Node22</title>
<g id="a_Node000022"><a xlink:href="AnimationHandler_8h_source.html" target="_top" xlink:title=" ">
<polygon fill="white" stroke="#666666" points="618.38,-74.5 517.62,-74.5 517.62,-55.25 618.38,-55.25 618.38,-74.5"/>
<text text-anchor="middle" x="568" y="-61" font-family="Helvetica,sans-Serif" font-size="10.00">AnimationHandler.h</text>
</a>
</g>
</g>
<!-- Node19&#45;&gt;Node22 -->
<g id="edge33_Node000019_Node000022" class="edge">
<title>Node19&#45;&gt;Node22</title>
<g id="a_edge33_Node000019_Node000022"><a xlink:title=" ">
<path fill="none" stroke="#63b8ff" d="M447.6,-110.09C470.93,-101.52 506.24,-88.56 532.6,-78.88"/>
<polygon fill="#63b8ff" stroke="#63b8ff" points="533.68,-82.21 541.86,-75.47 531.27,-75.64 533.68,-82.21"/>
</a>
</g>
</g>
<!-- Node24 -->
<g id="Node000024" class="node">
<title>Node24</title>
<g id="a_Node000024"><a xlink:href="Direction_8h_source.html" target="_top" xlink:title=" ">
<polygon fill="white" stroke="#666666" points="499.88,-74.5 438.12,-74.5 438.12,-55.25 499.88,-55.25 499.88,-74.5"/>
<text text-anchor="middle" x="469" y="-61" font-family="Helvetica,sans-Serif" font-size="10.00">Direction.h</text>
</a>
</g>
</g>
<!-- Node19&#45;&gt;Node24 -->
<g id="edge36_Node000019_Node000024" class="edge">
<title>Node19&#45;&gt;Node24</title>
<g id="a_edge36_Node000019_Node000024"><a xlink:title=" ">
<path fill="none" stroke="#63b8ff" d="M430.6,-110.33C436.88,-103.05 446.01,-92.48 453.8,-83.48"/>
<polygon fill="#63b8ff" stroke="#63b8ff" points="456.36,-85.86 460.25,-76 451.06,-81.28 456.36,-85.86"/>
</a>
</g>
</g>
<!-- Node25 -->
<g id="Node000025" class="node">
<title>Node25</title>
<g id="a_Node000025"><a xlink:href="RenderObject_8h_source.html" target="_top" xlink:title=" ">
<polygon fill="white" stroke="#666666" points="268.38,-74.5 185.62,-74.5 185.62,-55.25 268.38,-55.25 268.38,-74.5"/>
<text text-anchor="middle" x="227" y="-61" font-family="Helvetica,sans-Serif" font-size="10.00">RenderObject.h</text>
</a>
</g>
</g>
<!-- Node19&#45;&gt;Node25 -->
<g id="edge37_Node000019_Node000025" class="edge">
<title>Node19&#45;&gt;Node25</title>
<g id="a_edge37_Node000019_Node000025"><a xlink:title=" ">
<path fill="none" stroke="#63b8ff" d="M389.75,-110.09C357.09,-101.22 307.06,-87.62 271.09,-77.85"/>
<polygon fill="#63b8ff" stroke="#63b8ff" points="272.44,-74.59 261.87,-75.35 270.6,-81.35 272.44,-74.59"/>
</a>
</g>
</g>
<!-- Node23 -->
<g id="Node000023" class="node">
<title>Node23</title>
<g id="a_Node000023"><a xlink:title=" ">
<polygon fill="#e0e0e0" stroke="#999999" points="590.62,-19.25 545.38,-19.25 545.38,0 590.62,0 590.62,-19.25"/>
<text text-anchor="middle" x="568" y="-5.75" font-family="Helvetica,sans-Serif" font-size="10.00">cstdint</text>
</a>
</g>
</g>
<!-- Node22&#45;&gt;Node23 -->
<g id="edge34_Node000022_Node000023" class="edge">
<title>Node22&#45;&gt;Node23</title>
<g id="a_edge34_Node000022_Node000023"><a xlink:title=" ">
<path fill="none" stroke="#63b8ff" d="M568,-55.08C568,-48.57 568,-39.42 568,-31.12"/>
<polygon fill="#63b8ff" stroke="#63b8ff" points="571.5,-31.12 568,-21.12 564.5,-31.12 571.5,-31.12"/>
</a>
</g>
</g>
<!-- Node26&#45;&gt;Node8 -->
<g id="edge46_Node000026_Node000008" class="edge">
<title>Node26&#45;&gt;Node8</title>
<g id="a_edge46_Node000026_Node000008"><a xlink:title=" ">
<path fill="none" stroke="#63b8ff" d="M941.15,-220.88C942.86,-208.51 946.36,-185.24 951,-165.75 954.87,-149.47 959.53,-146.3 962,-129.75 963.26,-121.29 965.9,-118.11 962,-110.5 955.39,-97.59 943.11,-87.57 931.21,-80.32"/>
<polygon fill="#63b8ff" stroke="#63b8ff" points="933.2,-77.42 922.76,-75.62 929.8,-83.54 933.2,-77.42"/>
</a>
</g>
</g>
<!-- Node26&#45;&gt;Node10 -->
<g id="edge47_Node000026_Node000010" class="edge">
<title>Node26&#45;&gt;Node10</title>
<g id="a_edge47_Node000026_Node000010"><a xlink:title=" ">
<path fill="none" stroke="#63b8ff" d="M909.12,-220.83C875.85,-211.36 822.99,-196.31 788.15,-186.38"/>
<polygon fill="#63b8ff" stroke="#63b8ff" points="789.11,-183.02 778.53,-183.65 787.19,-189.75 789.11,-183.02"/>
</a>
</g>
</g>
<!-- Node26&#45;&gt;Node11 -->
<g id="edge43_Node000026_Node000011" class="edge">
<title>Node26&#45;&gt;Node11</title>
<g id="a_edge43_Node000026_Node000011"><a xlink:title=" ">
<path fill="none" stroke="#63b8ff" d="M970.77,-220.76C988.84,-213.94 1010.52,-202.62 1023,-185 1031.95,-172.37 1034.16,-154.81 1034.29,-141.29"/>
<polygon fill="#63b8ff" stroke="#63b8ff" points="1037.79,-141.27 1033.98,-131.39 1030.8,-141.49 1037.79,-141.27"/>
</a>
</g>
</g>
<!-- Node26&#45;&gt;Node12 -->
<g id="edge44_Node000026_Node000012" class="edge">
<title>Node26&#45;&gt;Node12</title>
<g id="a_edge44_Node000026_Node000012"><a xlink:title=" ">
<path fill="none" stroke="#63b8ff" d="M970.73,-222.93C992.97,-216.61 1022.29,-205.04 1041,-185 1064.39,-159.94 1066.19,-144.39 1061,-110.5 1059.73,-102.18 1057.19,-93.28 1054.62,-85.63"/>
<polygon fill="#63b8ff" stroke="#63b8ff" points="1057.95,-84.54 1051.25,-76.33 1051.36,-86.93 1057.95,-84.54"/>
</a>
</g>
</g>
<!-- Node26&#45;&gt;Node14 -->
<g id="edge45_Node000026_Node000014" class="edge">
<title>Node26&#45;&gt;Node14</title>
<g id="a_edge45_Node000026_Node000014"><a xlink:title=" ">
<path fill="none" stroke="#63b8ff" d="M935.03,-220.58C930.26,-211.7 923.07,-197.67 918,-185 912.18,-170.45 906.94,-153.5 903.28,-140.72"/>
<polygon fill="#63b8ff" stroke="#63b8ff" points="906.75,-140.11 900.7,-131.41 900,-141.98 906.75,-140.11"/>
</a>
</g>
</g>
<!-- Node27 -->
<g id="Node000027" class="node">
<title>Node27</title>
<g id="a_Node000027"><a xlink:title=" ">
<polygon fill="#e0e0e0" stroke="#999999" points="1013.75,-185 960.25,-185 960.25,-165.75 1013.75,-165.75 1013.75,-185"/>
<text text-anchor="middle" x="987" y="-171.5" font-family="Helvetica,sans-Serif" font-size="10.00">iostream</text>
</a>
</g>
</g>
<!-- Node26&#45;&gt;Node27 -->
<g id="edge42_Node000026_Node000027" class="edge">
<title>Node26&#45;&gt;Node27</title>
<g id="a_edge42_Node000026_Node000027"><a xlink:title=" ">
<path fill="none" stroke="#63b8ff" d="M947.76,-220.83C954.19,-213.55 963.51,-202.98 971.46,-193.98"/>
<polygon fill="#63b8ff" stroke="#63b8ff" points="974.08,-196.31 978.07,-186.49 968.83,-191.68 974.08,-196.31"/>
</a>
</g>
</g>
</g>
</svg>
