<?xml version="1.0" encoding="UTF-8" standalone="no"?>
<!DOCTYPE svg PUBLIC "-//W3C//DTD SVG 1.1//EN"
 "http://www.w3.org/Graphics/SVG/1.1/DTD/svg11.dtd">
<!-- Generated by graphviz version 12.2.1 (20241206.2353)
 -->
<!-- Title: include/CollisionHandler.h Pages: 1 -->
<svg width="1077pt" height="304pt"
 viewBox="0.00 0.00 1077.25 303.50" xmlns="http://www.w3.org/2000/svg" xmlns:xlink="http://www.w3.org/1999/xlink">
<g id="graph0" class="graph" transform="scale(1 1) rotate(0) translate(4 299.5)">
<title>include/CollisionHandler.h</title>
<!-- Node1 -->
<g id="Node000001" class="node">
<title>Node1</title>
<g id="a_Node000001"><a xlink:title=" ">
<polygon fill="#999999" stroke="#666666" points="616.88,-295.5 489.12,-295.5 489.12,-276.25 616.88,-276.25 616.88,-295.5"/>
<text text-anchor="middle" x="553" y="-282" font-family="Helvetica,sans-Serif" font-size="10.00">include/CollisionHandler.h</text>
</a>
</g>
</g>
<!-- Node2 -->
<g id="Node000002" class="node">
<title>Node2</title>
<g id="a_Node000002"><a xlink:href="ColliderComponent_8h_source.html" target="_top" xlink:title=" ">
<polygon fill="white" stroke="#666666" points="171.62,-129.75 66.38,-129.75 66.38,-110.5 171.62,-110.5 171.62,-129.75"/>
<text text-anchor="middle" x="119" y="-116.25" font-family="Helvetica,sans-Serif" font-size="10.00">ColliderComponent.h</text>
</a>
</g>
</g>
<!-- Node1&#45;&gt;Node2 -->
<g id="edge1_Node000001_Node000002" class="edge">
<title>Node1&#45;&gt;Node2</title>
<g id="a_edge1_Node000001_Node000002"><a xlink:title=" ">
<path fill="none" stroke="#63b8ff" d="M488.63,-283.93C396.85,-281.44 234.14,-272.47 186,-240.25 150.94,-216.79 132.27,-168.47 124.12,-141.13"/>
<polygon fill="#63b8ff" stroke="#63b8ff" points="127.55,-140.37 121.51,-131.66 120.8,-142.23 127.55,-140.37"/>
</a>
</g>
</g>
<!-- Node5 -->
<g id="Node000005" class="node">
<title>Node5</title>
<g id="a_Node000005"><a xlink:href="Vector2D_8h_source.html" target="_top" xlink:title=" ">
<polygon fill="white" stroke="#666666" points="121,-74.5 57,-74.5 57,-55.25 121,-55.25 121,-74.5"/>
<text text-anchor="middle" x="89" y="-61" font-family="Helvetica,sans-Serif" font-size="10.00">Vector2D.h</text>
</a>
</g>
</g>
<!-- Node1&#45;&gt;Node5 -->
<g id="edge39_Node000001_Node000005" class="edge">
<title>Node1&#45;&gt;Node5</title>
<g id="a_edge39_Node000001_Node000005"><a xlink:title=" ">
<path fill="none" stroke="#63b8ff" d="M488.83,-282.89C392.79,-279.04 216.96,-268.29 161,-240.25 100.7,-210.04 81.86,-192.44 57,-129.75 50.52,-113.42 61.01,-95.61 71.67,-82.95"/>
<polygon fill="#63b8ff" stroke="#63b8ff" points="74,-85.59 78.2,-75.86 68.85,-80.85 74,-85.59"/>
</a>
</g>
</g>
<!-- Node6 -->
<g id="Node000006" class="node">
<title>Node6</title>
<g id="a_Node000006"><a xlink:title=" ">
<polygon fill="#e0e0e0" stroke="#999999" points="85.38,-19.25 20.62,-19.25 20.62,0 85.38,0 85.38,-19.25"/>
<text text-anchor="middle" x="53" y="-5.75" font-family="Helvetica,sans-Serif" font-size="10.00">SDL_rect.h</text>
</a>
</g>
</g>
<!-- Node1&#45;&gt;Node6 -->
<g id="edge37_Node000001_Node000006" class="edge">
<title>Node1&#45;&gt;Node6</title>
<g id="a_edge37_Node000001_Node000006"><a xlink:title=" ">
<path fill="none" stroke="#63b8ff" d="M488.75,-285.62C343.03,-285.58 0,-275.01 0,-176.38 0,-176.38 0,-176.38 0,-119.12 0,-84.17 22.48,-48.73 38.16,-28.26"/>
<polygon fill="#63b8ff" stroke="#63b8ff" points="40.72,-30.66 44.23,-20.66 35.25,-26.28 40.72,-30.66"/>
</a>
</g>
</g>
<!-- Node7 -->
<g id="Node000007" class="node">
<title>Node7</title>
<g id="a_Node000007"><a xlink:href="Constants_8h_source.html" target="_top" xlink:title=" ">
<polygon fill="white" stroke="#666666" points="368.88,-74.5 301.12,-74.5 301.12,-55.25 368.88,-55.25 368.88,-74.5"/>
<text text-anchor="middle" x="335" y="-61" font-family="Helvetica,sans-Serif" font-size="10.00">Constants.h</text>
</a>
</g>
</g>
<!-- Node1&#45;&gt;Node7 -->
<g id="edge7_Node000001_Node000007" class="edge">
<title>Node1&#45;&gt;Node7</title>
<g id="a_edge7_Node000001_Node000007"><a xlink:title=" ">
<path fill="none" stroke="#63b8ff" d="M490.11,-275.8C413.95,-260.86 290.59,-222.79 248,-129.75 237.12,-105.99 263.92,-89.15 290.58,-78.76"/>
<polygon fill="#63b8ff" stroke="#63b8ff" points="291.46,-82.16 299.67,-75.47 289.08,-75.58 291.46,-82.16"/>
</a>
</g>
</g>
<!-- Node9 -->
<g id="Node000009" class="node">
<title>Node9</title>
<g id="a_Node000009"><a xlink:href="Entity_8h_source.html" target="_top" xlink:title=" ">
<polygon fill="white" stroke="#666666" points="543.75,-185 496.25,-185 496.25,-165.75 543.75,-165.75 543.75,-185"/>
<text text-anchor="middle" x="520" y="-171.5" font-family="Helvetica,sans-Serif" font-size="10.00">Entity.h</text>
</a>
</g>
</g>
<!-- Node1&#45;&gt;Node9 -->
<g id="edge9_Node000001_Node000009" class="edge">
<title>Node1&#45;&gt;Node9</title>
<g id="a_edge9_Node000001_Node000009"><a xlink:title=" ">
<path fill="none" stroke="#63b8ff" d="M550.3,-276C545.03,-258.67 533.26,-219.98 526.04,-196.24"/>
<polygon fill="#63b8ff" stroke="#63b8ff" points="529.44,-195.37 523.18,-186.82 522.74,-197.41 529.44,-195.37"/>
</a>
</g>
</g>
<!-- Node12 -->
<g id="Node000012" class="node">
<title>Node12</title>
<g id="a_Node000012"><a xlink:title=" ">
<polygon fill="#e0e0e0" stroke="#999999" points="306,-129.75 266,-129.75 266,-110.5 306,-110.5 306,-129.75"/>
<text text-anchor="middle" x="286" y="-116.25" font-family="Helvetica,sans-Serif" font-size="10.00">bitset</text>
</a>
</g>
</g>
<!-- Node1&#45;&gt;Node12 -->
<g id="edge47_Node000001_Node000012" class="edge">
<title>Node1&#45;&gt;Node12</title>
<g id="a_edge47_Node000001_Node000012"><a xlink:title=" ">
<path fill="none" stroke="#63b8ff" d="M538.26,-275.84C494.41,-248.94 364.42,-169.22 310.19,-135.96"/>
<polygon fill="#63b8ff" stroke="#63b8ff" points="312.33,-133.17 301.98,-130.93 308.67,-139.14 312.33,-133.17"/>
</a>
</g>
</g>
<!-- Node13 -->
<g id="Node000013" class="node">
<title>Node13</title>
<g id="a_Node000013"><a xlink:title=" ">
<polygon fill="#e0e0e0" stroke="#999999" points="870.5,-129.75 827.5,-129.75 827.5,-110.5 870.5,-110.5 870.5,-129.75"/>
<text text-anchor="middle" x="849" y="-116.25" font-family="Helvetica,sans-Serif" font-size="10.00">vector</text>
</a>
</g>
</g>
<!-- Node1&#45;&gt;Node13 -->
<g id="edge51_Node000001_Node000013" class="edge">
<title>Node1&#45;&gt;Node13</title>
<g id="a_edge51_Node000001_Node000013"><a xlink:title=" ">
<path fill="none" stroke="#63b8ff" d="M557.91,-275.76C571.72,-250.45 611.34,-180.19 633,-165.75 701.25,-120.26 733.94,-147.57 814,-129.75 814.67,-129.6 815.34,-129.45 816.02,-129.3"/>
<polygon fill="#63b8ff" stroke="#63b8ff" points="816.79,-132.71 825.72,-127.01 815.18,-125.9 816.79,-132.71"/>
</a>
</g>
</g>
<!-- Node18 -->
<g id="Node000018" class="node">
<title>Node18</title>
<g id="a_Node000018"><a xlink:href="SpriteComponent_8h_source.html" target="_top" xlink:title=" ">
<polygon fill="white" stroke="#666666" points="771.25,-129.75 672.75,-129.75 672.75,-110.5 771.25,-110.5 771.25,-129.75"/>
<text text-anchor="middle" x="722" y="-116.25" font-family="Helvetica,sans-Serif" font-size="10.00">SpriteComponent.h</text>
</a>
</g>
</g>
<!-- Node1&#45;&gt;Node18 -->
<g id="edge38_Node000001_Node000018" class="edge">
<title>Node1&#45;&gt;Node18</title>
<g id="a_edge38_Node000001_Node000018"><a xlink:title=" ">
<path fill="none" stroke="#63b8ff" d="M553.66,-276.04C555.77,-254.24 564.19,-197.37 596,-165.75 613.54,-148.32 638.31,-137.66 661.25,-131.17"/>
<polygon fill="#63b8ff" stroke="#63b8ff" points="662.06,-134.58 670.86,-128.68 660.3,-127.8 662.06,-134.58"/>
</a>
</g>
</g>
<!-- Node25 -->
<g id="Node000025" class="node">
<title>Node25</title>
<g id="a_Node000025"><a xlink:href="Manager_8h_source.html" target="_top" xlink:title=" ">
<polygon fill="white" stroke="#666666" points="699.5,-240.25 638.5,-240.25 638.5,-221 699.5,-221 699.5,-240.25"/>
<text text-anchor="middle" x="669" y="-226.75" font-family="Helvetica,sans-Serif" font-size="10.00">Manager.h</text>
</a>
</g>
</g>
<!-- Node1&#45;&gt;Node25 -->
<g id="edge40_Node000001_Node000025" class="edge">
<title>Node1&#45;&gt;Node25</title>
<g id="a_edge40_Node000001_Node000025"><a xlink:title=" ">
<path fill="none" stroke="#63b8ff" d="M572.68,-275.84C590.84,-267.5 618.08,-255 638.97,-245.41"/>
<polygon fill="#63b8ff" stroke="#63b8ff" points="640.22,-248.69 647.85,-241.33 637.3,-242.33 640.22,-248.69"/>
</a>
</g>
</g>
<!-- Node27 -->
<g id="Node000027" class="node">
<title>Node27</title>
<g id="a_Node000027"><a xlink:title=" ">
<polygon fill="#e0e0e0" stroke="#999999" points="788.75,-240.25 717.25,-240.25 717.25,-221 788.75,-221 788.75,-240.25"/>
<text text-anchor="middle" x="753" y="-226.75" font-family="Helvetica,sans-Serif" font-size="10.00">initializer_list</text>
</a>
</g>
</g>
<!-- Node1&#45;&gt;Node27 -->
<g id="edge48_Node000001_Node000027" class="edge">
<title>Node1&#45;&gt;Node27</title>
<g id="a_edge48_Node000001_Node000027"><a xlink:title=" ">
<path fill="none" stroke="#63b8ff" d="M586.93,-275.84C620.26,-266.97 671.31,-253.37 708.01,-243.6"/>
<polygon fill="#63b8ff" stroke="#63b8ff" points="708.68,-247.05 717.44,-241.09 706.88,-240.28 708.68,-247.05"/>
</a>
</g>
</g>
<!-- Node28 -->
<g id="Node000028" class="node">
<title>Node28</title>
<g id="a_Node000028"><a xlink:title=" ">
<polygon fill="#e0e0e0" stroke="#999999" points="843.5,-240.25 806.5,-240.25 806.5,-221 843.5,-221 843.5,-240.25"/>
<text text-anchor="middle" x="825" y="-226.75" font-family="Helvetica,sans-Serif" font-size="10.00">tuple</text>
</a>
</g>
</g>
<!-- Node1&#45;&gt;Node28 -->
<g id="edge49_Node000001_Node000028" class="edge">
<title>Node1&#45;&gt;Node28</title>
<g id="a_edge49_Node000001_Node000028"><a xlink:title=" ">
<path fill="none" stroke="#63b8ff" d="M615.4,-275.79C662.57,-268.4 729.08,-256.89 795.18,-240.71"/>
<polygon fill="#63b8ff" stroke="#63b8ff" points="795.88,-244.15 804.74,-238.34 794.19,-237.35 795.88,-244.15"/>
</a>
</g>
</g>
<!-- Node29 -->
<g id="Node000029" class="node">
<title>Node29</title>
<g id="a_Node000029"><a xlink:title=" ">
<polygon fill="#e0e0e0" stroke="#999999" points="900.25,-240.25 861.75,-240.25 861.75,-221 900.25,-221 900.25,-240.25"/>
<text text-anchor="middle" x="881" y="-226.75" font-family="Helvetica,sans-Serif" font-size="10.00">utility</text>
</a>
</g>
</g>
<!-- Node1&#45;&gt;Node29 -->
<g id="edge50_Node000001_Node000029" class="edge">
<title>Node1&#45;&gt;Node29</title>
<g id="a_edge50_Node000001_Node000029"><a xlink:title=" ">
<path fill="none" stroke="#63b8ff" d="M617.31,-278.16C675.85,-271.41 764.78,-259.54 850.3,-240.57"/>
<polygon fill="#63b8ff" stroke="#63b8ff" points="851.06,-243.99 860.04,-238.37 849.52,-237.16 851.06,-243.99"/>
</a>
</g>
</g>
<!-- Node3 -->
<g id="Node000003" class="node">
<title>Node3</title>
<g id="a_Node000003"><a xlink:title=" ">
<polygon fill="#e0e0e0" stroke="#999999" points="170.5,-19.25 127.5,-19.25 127.5,0 170.5,0 170.5,-19.25"/>
<text text-anchor="middle" x="149" y="-5.75" font-family="Helvetica,sans-Serif" font-size="10.00">SDL.h</text>
</a>
</g>
</g>
<!-- Node2&#45;&gt;Node3 -->
<g id="edge2_Node000002_Node000003" class="edge">
<title>Node2&#45;&gt;Node3</title>
<g id="a_edge2_Node000002_Node000003"><a xlink:title=" ">
<path fill="none" stroke="#63b8ff" d="M121.46,-110.25C126.25,-92.92 136.94,-54.23 143.51,-30.49"/>
<polygon fill="#63b8ff" stroke="#63b8ff" points="146.82,-31.66 146.11,-21.09 140.07,-29.79 146.82,-31.66"/>
</a>
</g>
</g>
<!-- Node4 -->
<g id="Node000004" class="node">
<title>Node4</title>
<g id="a_Node000004"><a xlink:href="Component_8h_source.html" target="_top" xlink:title=" ">
<polygon fill="white" stroke="#666666" points="459.5,-74.5 386.5,-74.5 386.5,-55.25 459.5,-55.25 459.5,-74.5"/>
<text text-anchor="middle" x="423" y="-61" font-family="Helvetica,sans-Serif" font-size="10.00">Component.h</text>
</a>
</g>
</g>
<!-- Node2&#45;&gt;Node4 -->
<g id="edge3_Node000002_Node000004" class="edge">
<title>Node2&#45;&gt;Node4</title>
<g id="a_edge3_Node000002_Node000004"><a xlink:title=" ">
<path fill="none" stroke="#63b8ff" d="M171.63,-110.35C221.54,-101.97 298.94,-88.8 374.97,-75.03"/>
<polygon fill="#63b8ff" stroke="#63b8ff" points="375.47,-78.49 384.68,-73.26 374.22,-71.61 375.47,-78.49"/>
</a>
</g>
</g>
<!-- Node2&#45;&gt;Node5 -->
<g id="edge4_Node000002_Node000005" class="edge">
<title>Node2&#45;&gt;Node5</title>
<g id="a_edge4_Node000002_Node000005"><a xlink:title=" ">
<path fill="none" stroke="#63b8ff" d="M114.05,-110.33C110.12,-103.36 104.49,-93.37 99.56,-84.62"/>
<polygon fill="#63b8ff" stroke="#63b8ff" points="102.76,-83.17 94.8,-76.18 96.66,-86.61 102.76,-83.17"/>
</a>
</g>
</g>
<!-- Node5&#45;&gt;Node3 -->
<g id="edge5_Node000005_Node000003" class="edge">
<title>Node5&#45;&gt;Node3</title>
<g id="a_edge5_Node000005_Node000003"><a xlink:title=" ">
<path fill="none" stroke="#63b8ff" d="M99.18,-54.84C107.76,-47.22 120.27,-36.12 130.6,-26.95"/>
<polygon fill="#63b8ff" stroke="#63b8ff" points="132.68,-29.79 137.84,-20.53 128.04,-24.55 132.68,-29.79"/>
</a>
</g>
</g>
<!-- Node5&#45;&gt;Node6 -->
<g id="edge6_Node000005_Node000006" class="edge">
<title>Node5&#45;&gt;Node6</title>
<g id="a_edge6_Node000005_Node000006"><a xlink:title=" ">
<path fill="none" stroke="#63b8ff" d="M83.06,-55.08C78.29,-48.03 71.44,-37.9 65.48,-29.08"/>
<polygon fill="#63b8ff" stroke="#63b8ff" points="68.42,-27.19 59.92,-20.86 62.62,-31.11 68.42,-27.19"/>
</a>
</g>
</g>
<!-- Node8 -->
<g id="Node000008" class="node">
<title>Node8</title>
<g id="a_Node000008"><a xlink:title=" ">
<polygon fill="#e0e0e0" stroke="#999999" points="359.12,-19.25 310.88,-19.25 310.88,0 359.12,0 359.12,-19.25"/>
<text text-anchor="middle" x="335" y="-5.75" font-family="Helvetica,sans-Serif" font-size="10.00">cstddef</text>
</a>
</g>
</g>
<!-- Node7&#45;&gt;Node8 -->
<g id="edge8_Node000007_Node000008" class="edge">
<title>Node7&#45;&gt;Node8</title>
<g id="a_edge8_Node000007_Node000008"><a xlink:title=" ">
<path fill="none" stroke="#63b8ff" d="M335,-55.08C335,-48.57 335,-39.42 335,-31.12"/>
<polygon fill="#63b8ff" stroke="#63b8ff" points="338.5,-31.12 335,-21.12 331.5,-31.12 338.5,-31.12"/>
</a>
</g>
</g>
<!-- Node9&#45;&gt;Node2 -->
<g id="edge14_Node000009_Node000002" class="edge">
<title>Node9&#45;&gt;Node2</title>
<g id="a_edge14_Node000009_Node000002"><a xlink:title=" ">
<path fill="none" stroke="#63b8ff" d="M495.82,-171.16C434.92,-163.08 273.67,-141.66 183.08,-129.63"/>
<polygon fill="#63b8ff" stroke="#63b8ff" points="183.74,-126.19 173.36,-128.34 182.81,-133.13 183.74,-126.19"/>
</a>
</g>
</g>
<!-- Node9&#45;&gt;Node7 -->
<g id="edge18_Node000009_Node000007" class="edge">
<title>Node9&#45;&gt;Node7</title>
<g id="a_edge18_Node000009_Node000007"><a xlink:title=" ">
<path fill="none" stroke="#63b8ff" d="M512.36,-165.39C500.45,-151.87 476.22,-126.21 451,-110.5 428.83,-96.69 401.69,-85.96 379.24,-78.49"/>
<polygon fill="#63b8ff" stroke="#63b8ff" points="380.34,-75.17 369.75,-75.45 378.2,-81.83 380.34,-75.17"/>
</a>
</g>
</g>
<!-- Node10 -->
<g id="Node000010" class="node">
<title>Node10</title>
<g id="a_Node000010"><a xlink:title=" ">
<polygon fill="#e0e0e0" stroke="#999999" points="925.5,-129.75 888.5,-129.75 888.5,-110.5 925.5,-110.5 925.5,-129.75"/>
<text text-anchor="middle" x="907" y="-116.25" font-family="Helvetica,sans-Serif" font-size="10.00">array</text>
</a>
</g>
</g>
<!-- Node9&#45;&gt;Node10 -->
<g id="edge10_Node000009_Node000010" class="edge">
<title>Node9&#45;&gt;Node10</title>
<g id="a_edge10_Node000009_Node000010"><a xlink:title=" ">
<path fill="none" stroke="#63b8ff" d="M543.94,-171.99C610.32,-165.31 796.64,-145.91 877.15,-129.94"/>
<polygon fill="#63b8ff" stroke="#63b8ff" points="877.69,-133.4 886.76,-127.92 876.25,-126.55 877.69,-133.4"/>
</a>
</g>
</g>
<!-- Node11 -->
<g id="Node000011" class="node">
<title>Node11</title>
<g id="a_Node000011"><a xlink:title=" ">
<polygon fill="#e0e0e0" stroke="#999999" points="1069.25,-74.5 1018.75,-74.5 1018.75,-55.25 1069.25,-55.25 1069.25,-74.5"/>
<text text-anchor="middle" x="1044" y="-61" font-family="Helvetica,sans-Serif" font-size="10.00">memory</text>
</a>
</g>
</g>
<!-- Node9&#45;&gt;Node11 -->
<g id="edge11_Node000009_Node000011" class="edge">
<title>Node9&#45;&gt;Node11</title>
<g id="a_edge11_Node000009_Node000011"><a xlink:title=" ">
<path fill="none" stroke="#63b8ff" d="M543.95,-171.16C599.56,-163.57 736.01,-144.05 780,-129.75 798.38,-123.78 800.67,-116.63 819,-110.5 897.16,-84.35 922.91,-92.07 1007.27,-74.72"/>
<polygon fill="#63b8ff" stroke="#63b8ff" points="1007.89,-78.16 1016.94,-72.66 1006.43,-71.32 1007.89,-78.16"/>
</a>
</g>
</g>
<!-- Node9&#45;&gt;Node12 -->
<g id="edge12_Node000009_Node000012" class="edge">
<title>Node9&#45;&gt;Node12</title>
<g id="a_edge12_Node000009_Node000012"><a xlink:title=" ">
<path fill="none" stroke="#63b8ff" d="M495.88,-169.73C459.29,-162.56 387.38,-147.96 317.04,-130.12"/>
<polygon fill="#63b8ff" stroke="#63b8ff" points="318.25,-126.82 307.69,-127.73 316.51,-133.6 318.25,-126.82"/>
</a>
</g>
</g>
<!-- Node9&#45;&gt;Node13 -->
<g id="edge13_Node000009_Node000013" class="edge">
<title>Node9&#45;&gt;Node13</title>
<g id="a_edge13_Node000009_Node000013"><a xlink:title=" ">
<path fill="none" stroke="#63b8ff" d="M544.05,-171.41C594.25,-165.06 713.77,-149.16 813,-129.75 814.17,-129.52 815.35,-129.28 816.55,-129.03"/>
<polygon fill="#63b8ff" stroke="#63b8ff" points="816.89,-132.54 825.89,-126.95 815.36,-125.71 816.89,-132.54"/>
</a>
</g>
</g>
<!-- Node14 -->
<g id="Node000014" class="node">
<title>Node14</title>
<g id="a_Node000014"><a xlink:href="ECS_8h_source.html" target="_top" xlink:title=" ">
<polygon fill="white" stroke="#666666" points="541.5,-129.75 498.5,-129.75 498.5,-110.5 541.5,-110.5 541.5,-129.75"/>
<text text-anchor="middle" x="520" y="-116.25" font-family="Helvetica,sans-Serif" font-size="10.00">ECS.h</text>
</a>
</g>
</g>
<!-- Node9&#45;&gt;Node14 -->
<g id="edge15_Node000009_Node000014" class="edge">
<title>Node9&#45;&gt;Node14</title>
<g id="a_edge15_Node000009_Node000014"><a xlink:title=" ">
<path fill="none" stroke="#63b8ff" d="M520,-165.58C520,-159.07 520,-149.92 520,-141.62"/>
<polygon fill="#63b8ff" stroke="#63b8ff" points="523.5,-141.62 520,-131.62 516.5,-141.62 523.5,-141.62"/>
</a>
</g>
</g>
<!-- Node15 -->
<g id="Node000015" class="node">
<title>Node15</title>
<g id="a_Node000015"><a xlink:href="InputComponent_8h_source.html" target="_top" xlink:title=" ">
<polygon fill="white" stroke="#666666" points="654.38,-129.75 559.62,-129.75 559.62,-110.5 654.38,-110.5 654.38,-129.75"/>
<text text-anchor="middle" x="607" y="-116.25" font-family="Helvetica,sans-Serif" font-size="10.00">InputComponent.h</text>
</a>
</g>
</g>
<!-- Node9&#45;&gt;Node15 -->
<g id="edge19_Node000009_Node000015" class="edge">
<title>Node9&#45;&gt;Node15</title>
<g id="a_edge19_Node000009_Node000015"><a xlink:title=" ">
<path fill="none" stroke="#63b8ff" d="M534.76,-165.34C547.88,-157.31 567.32,-145.41 582.73,-135.98"/>
<polygon fill="#63b8ff" stroke="#63b8ff" points="584.18,-139.2 590.88,-130.99 580.52,-133.23 584.18,-139.2"/>
</a>
</g>
</g>
<!-- Node17 -->
<g id="Node000017" class="node">
<title>Node17</title>
<g id="a_Node000017"><a xlink:href="TransformComponent_8h_source.html" target="_top" xlink:title=" ">
<polygon fill="white" stroke="#666666" points="441.62,-129.75 324.38,-129.75 324.38,-110.5 441.62,-110.5 441.62,-129.75"/>
<text text-anchor="middle" x="383" y="-116.25" font-family="Helvetica,sans-Serif" font-size="10.00">TransformComponent.h</text>
</a>
</g>
</g>
<!-- Node9&#45;&gt;Node17 -->
<g id="edge23_Node000009_Node000017" class="edge">
<title>Node9&#45;&gt;Node17</title>
<g id="a_edge23_Node000009_Node000017"><a xlink:title=" ">
<path fill="none" stroke="#63b8ff" d="M496.76,-165.34C474.81,-156.81 441.65,-143.92 416.79,-134.26"/>
<polygon fill="#63b8ff" stroke="#63b8ff" points="418.35,-131.11 407.76,-130.75 415.82,-137.64 418.35,-131.11"/>
</a>
</g>
</g>
<!-- Node9&#45;&gt;Node18 -->
<g id="edge27_Node000009_Node000018" class="edge">
<title>Node9&#45;&gt;Node18</title>
<g id="a_edge27_Node000009_Node000018"><a xlink:title=" ">
<path fill="none" stroke="#63b8ff" d="M543.97,-168.06C576.54,-159.47 635.43,-143.94 676.53,-133.11"/>
<polygon fill="#63b8ff" stroke="#63b8ff" points="677.37,-136.51 686.15,-130.58 675.59,-129.74 677.37,-136.51"/>
</a>
</g>
</g>
<!-- Node14&#45;&gt;Node4 -->
<g id="edge16_Node000014_Node000004" class="edge">
<title>Node14&#45;&gt;Node4</title>
<g id="a_edge16_Node000014_Node000004"><a xlink:title=" ">
<path fill="none" stroke="#63b8ff" d="M503.55,-110.09C488.77,-101.98 466.82,-89.93 449.57,-80.46"/>
<polygon fill="#63b8ff" stroke="#63b8ff" points="451.31,-77.43 440.86,-75.68 447.94,-83.56 451.31,-77.43"/>
</a>
</g>
</g>
<!-- Node14&#45;&gt;Node7 -->
<g id="edge17_Node000014_Node000007" class="edge">
<title>Node14&#45;&gt;Node7</title>
<g id="a_edge17_Node000014_Node000007"><a xlink:title=" ">
<path fill="none" stroke="#63b8ff" d="M498.05,-112.81C468.35,-104.26 414.74,-88.83 377.13,-78"/>
<polygon fill="#63b8ff" stroke="#63b8ff" points="378.52,-74.76 367.95,-75.36 376.59,-81.49 378.52,-74.76"/>
</a>
</g>
</g>
<!-- Node15&#45;&gt;Node3 -->
<g id="edge20_Node000015_Node000003" class="edge">
<title>Node15&#45;&gt;Node3</title>
<g id="a_edge20_Node000015_Node000003"><a xlink:title=" ">
<path fill="none" stroke="#63b8ff" d="M585.79,-110.02C565.46,-101.21 533.95,-87.33 507,-74.5 489.91,-66.36 487.07,-60.91 469,-55.25 367.6,-23.47 241.03,-14.29 182.08,-11.66"/>
<polygon fill="#63b8ff" stroke="#63b8ff" points="182.53,-8.18 172.4,-11.27 182.25,-15.17 182.53,-8.18"/>
</a>
</g>
</g>
<!-- Node15&#45;&gt;Node4 -->
<g id="edge22_Node000015_Node000004" class="edge">
<title>Node15&#45;&gt;Node4</title>
<g id="a_edge22_Node000015_Node000004"><a xlink:title=" ">
<path fill="none" stroke="#63b8ff" d="M575.79,-110.09C545.39,-101.29 498.96,-87.86 465.26,-78.11"/>
<polygon fill="#63b8ff" stroke="#63b8ff" points="466.4,-74.79 455.82,-75.37 464.45,-81.52 466.4,-74.79"/>
</a>
</g>
</g>
<!-- Node16 -->
<g id="Node000016" class="node">
<title>Node16</title>
<g id="a_Node000016"><a xlink:title=" ">
<polygon fill="#e0e0e0" stroke="#999999" points="550.38,-74.5 515.62,-74.5 515.62,-55.25 550.38,-55.25 550.38,-74.5"/>
<text text-anchor="middle" x="533" y="-61" font-family="Helvetica,sans-Serif" font-size="10.00">map</text>
</a>
</g>
</g>
<!-- Node15&#45;&gt;Node16 -->
<g id="edge21_Node000015_Node000016" class="edge">
<title>Node15&#45;&gt;Node16</title>
<g id="a_edge21_Node000015_Node000016"><a xlink:title=" ">
<path fill="none" stroke="#63b8ff" d="M594.45,-110.09C583.54,-102.24 567.5,-90.7 554.54,-81.37"/>
<polygon fill="#63b8ff" stroke="#63b8ff" points="556.76,-78.66 546.6,-75.66 552.67,-84.34 556.76,-78.66"/>
</a>
</g>
</g>
<!-- Node17&#45;&gt;Node4 -->
<g id="edge24_Node000017_Node000004" class="edge">
<title>Node17&#45;&gt;Node4</title>
<g id="a_edge24_Node000017_Node000004"><a xlink:title=" ">
<path fill="none" stroke="#63b8ff" d="M389.61,-110.33C394.96,-103.21 402.68,-92.93 409.35,-84.05"/>
<polygon fill="#63b8ff" stroke="#63b8ff" points="412.13,-86.17 415.34,-76.07 406.54,-81.96 412.13,-86.17"/>
</a>
</g>
</g>
<!-- Node17&#45;&gt;Node5 -->
<g id="edge25_Node000017_Node000005" class="edge">
<title>Node17&#45;&gt;Node5</title>
<g id="a_edge25_Node000017_Node000005"><a xlink:title=" ">
<path fill="none" stroke="#63b8ff" d="M332.79,-110.03C276.41,-99.82 185.84,-83.41 132.4,-73.74"/>
<polygon fill="#63b8ff" stroke="#63b8ff" points="133.22,-70.33 122.76,-71.99 131.97,-77.22 133.22,-70.33"/>
</a>
</g>
</g>
<!-- Node17&#45;&gt;Node7 -->
<g id="edge26_Node000017_Node000007" class="edge">
<title>Node17&#45;&gt;Node7</title>
<g id="a_edge26_Node000017_Node000007"><a xlink:title=" ">
<path fill="none" stroke="#63b8ff" d="M375.07,-110.33C368.44,-102.98 358.78,-92.26 350.61,-83.19"/>
<polygon fill="#63b8ff" stroke="#63b8ff" points="353.41,-81.07 344.11,-75.98 348.21,-85.75 353.41,-81.07"/>
</a>
</g>
</g>
<!-- Node18&#45;&gt;Node4 -->
<g id="edge34_Node000018_Node000004" class="edge">
<title>Node18&#45;&gt;Node4</title>
<g id="a_edge34_Node000018_Node000004"><a xlink:title=" ">
<path fill="none" stroke="#63b8ff" d="M672.29,-110.27C616.32,-100.3 526.02,-84.22 470.84,-74.39"/>
<polygon fill="#63b8ff" stroke="#63b8ff" points="471.57,-70.97 461.11,-72.66 470.34,-77.86 471.57,-70.97"/>
</a>
</g>
</g>
<!-- Node18&#45;&gt;Node11 -->
<g id="edge30_Node000018_Node000011" class="edge">
<title>Node18&#45;&gt;Node11</title>
<g id="a_edge30_Node000018_Node000011"><a xlink:title=" ">
<path fill="none" stroke="#63b8ff" d="M771.68,-111.94C836.89,-102.41 948.96,-85.73 1007.21,-74.65"/>
<polygon fill="#63b8ff" stroke="#63b8ff" points="1007.82,-78.1 1016.96,-72.74 1006.47,-71.23 1007.82,-78.1"/>
</a>
</g>
</g>
<!-- Node18&#45;&gt;Node16 -->
<g id="edge28_Node000018_Node000016" class="edge">
<title>Node18&#45;&gt;Node16</title>
<g id="a_edge28_Node000018_Node000016"><a xlink:title=" ">
<path fill="none" stroke="#63b8ff" d="M686.55,-110C655.76,-101.95 609.72,-89.6 561.77,-75.23"/>
<polygon fill="#63b8ff" stroke="#63b8ff" points="562.9,-71.92 552.31,-72.38 560.87,-78.62 562.9,-71.92"/>
</a>
</g>
</g>
<!-- Node19 -->
<g id="Node000019" class="node">
<title>Node19</title>
<g id="a_Node000019"><a xlink:title=" ">
<polygon fill="#e0e0e0" stroke="#999999" points="643.62,-74.5 568.38,-74.5 568.38,-55.25 643.62,-55.25 643.62,-74.5"/>
<text text-anchor="middle" x="606" y="-61" font-family="Helvetica,sans-Serif" font-size="10.00">SDL_render.h</text>
</a>
</g>
</g>
<!-- Node18&#45;&gt;Node19 -->
<g id="edge29_Node000018_Node000019" class="edge">
<title>Node18&#45;&gt;Node19</title>
<g id="a_edge29_Node000018_Node000019"><a xlink:title=" ">
<path fill="none" stroke="#63b8ff" d="M702.32,-110.09C684.16,-101.75 656.92,-89.25 636.03,-79.66"/>
<polygon fill="#63b8ff" stroke="#63b8ff" points="637.7,-76.58 627.15,-75.58 634.78,-82.94 637.7,-76.58"/>
</a>
</g>
</g>
<!-- Node20 -->
<g id="Node000020" class="node">
<title>Node20</title>
<g id="a_Node000020"><a xlink:title=" ">
<polygon fill="#e0e0e0" stroke="#999999" points="702,-74.5 662,-74.5 662,-55.25 702,-55.25 702,-74.5"/>
<text text-anchor="middle" x="682" y="-61" font-family="Helvetica,sans-Serif" font-size="10.00">string</text>
</a>
</g>
</g>
<!-- Node18&#45;&gt;Node20 -->
<g id="edge31_Node000018_Node000020" class="edge">
<title>Node18&#45;&gt;Node20</title>
<g id="a_edge31_Node000018_Node000020"><a xlink:title=" ">
<path fill="none" stroke="#63b8ff" d="M715.39,-110.33C710.04,-103.21 702.32,-92.93 695.65,-84.05"/>
<polygon fill="#63b8ff" stroke="#63b8ff" points="698.46,-81.96 689.66,-76.07 692.87,-86.17 698.46,-81.96"/>
</a>
</g>
</g>
<!-- Node21 -->
<g id="Node000021" class="node">
<title>Node21</title>
<g id="a_Node000021"><a xlink:href="AnimationHandler_8h_source.html" target="_top" xlink:title=" ">
<polygon fill="white" stroke="#666666" points="820.38,-74.5 719.62,-74.5 719.62,-55.25 820.38,-55.25 820.38,-74.5"/>
<text text-anchor="middle" x="770" y="-61" font-family="Helvetica,sans-Serif" font-size="10.00">AnimationHandler.h</text>
</a>
</g>
</g>
<!-- Node18&#45;&gt;Node21 -->
<g id="edge32_Node000018_Node000021" class="edge">
<title>Node18&#45;&gt;Node21</title>
<g id="a_edge32_Node000018_Node000021"><a xlink:title=" ">
<path fill="none" stroke="#63b8ff" d="M729.93,-110.33C736.56,-102.98 746.22,-92.26 754.39,-83.19"/>
<polygon fill="#63b8ff" stroke="#63b8ff" points="756.79,-85.75 760.89,-75.98 751.59,-81.07 756.79,-85.75"/>
</a>
</g>
</g>
<!-- Node23 -->
<g id="Node000023" class="node">
<title>Node23</title>
<g id="a_Node000023"><a xlink:href="Direction_8h_source.html" target="_top" xlink:title=" ">
<polygon fill="white" stroke="#666666" points="899.88,-74.5 838.12,-74.5 838.12,-55.25 899.88,-55.25 899.88,-74.5"/>
<text text-anchor="middle" x="869" y="-61" font-family="Helvetica,sans-Serif" font-size="10.00">Direction.h</text>
</a>
</g>
</g>
<!-- Node18&#45;&gt;Node23 -->
<g id="edge35_Node000018_Node000023" class="edge">
<title>Node18&#45;&gt;Node23</title>
<g id="a_edge35_Node000018_Node000023"><a xlink:title=" ">
<path fill="none" stroke="#63b8ff" d="M746.94,-110.09C770.69,-101.49 806.71,-88.44 833.46,-78.75"/>
<polygon fill="#63b8ff" stroke="#63b8ff" points="834.31,-82.16 842.52,-75.47 831.92,-75.58 834.31,-82.16"/>
</a>
</g>
</g>
<!-- Node24 -->
<g id="Node000024" class="node">
<title>Node24</title>
<g id="a_Node000024"><a xlink:href="RenderObject_8h_source.html" target="_top" xlink:title=" ">
<polygon fill="white" stroke="#666666" points="1000.38,-74.5 917.62,-74.5 917.62,-55.25 1000.38,-55.25 1000.38,-74.5"/>
<text text-anchor="middle" x="959" y="-61" font-family="Helvetica,sans-Serif" font-size="10.00">RenderObject.h</text>
</a>
</g>
</g>
<!-- Node18&#45;&gt;Node24 -->
<g id="edge36_Node000018_Node000024" class="edge">
<title>Node18&#45;&gt;Node24</title>
<g id="a_edge36_Node000018_Node000024"><a xlink:title=" ">
<path fill="none" stroke="#63b8ff" d="M762.47,-110.03C802.52,-101.03 863.98,-87.23 907.49,-77.45"/>
<polygon fill="#63b8ff" stroke="#63b8ff" points="908.23,-80.87 917.22,-75.26 906.69,-74.04 908.23,-80.87"/>
</a>
</g>
</g>
<!-- Node22 -->
<g id="Node000022" class="node">
<title>Node22</title>
<g id="a_Node000022"><a xlink:title=" ">
<polygon fill="#e0e0e0" stroke="#999999" points="792.62,-19.25 747.38,-19.25 747.38,0 792.62,0 792.62,-19.25"/>
<text text-anchor="middle" x="770" y="-5.75" font-family="Helvetica,sans-Serif" font-size="10.00">cstdint</text>
</a>
</g>
</g>
<!-- Node21&#45;&gt;Node22 -->
<g id="edge33_Node000021_Node000022" class="edge">
<title>Node21&#45;&gt;Node22</title>
<g id="a_edge33_Node000021_Node000022"><a xlink:title=" ">
<path fill="none" stroke="#63b8ff" d="M770,-55.08C770,-48.57 770,-39.42 770,-31.12"/>
<polygon fill="#63b8ff" stroke="#63b8ff" points="773.5,-31.12 770,-21.12 766.5,-31.12 773.5,-31.12"/>
</a>
</g>
</g>
<!-- Node25&#45;&gt;Node7 -->
<g id="edge45_Node000025_Node000007" class="edge">
<title>Node25&#45;&gt;Node7</title>
<g id="a_edge45_Node000025_Node000007"><a xlink:title=" ">
<path fill="none" stroke="#63b8ff" d="M638.19,-226.96C550.82,-218.72 304.72,-190.42 257,-129.75 240.86,-109.22 270.02,-90.93 297.17,-79.23"/>
<polygon fill="#63b8ff" stroke="#63b8ff" points="298.41,-82.51 306.36,-75.51 295.78,-76.02 298.41,-82.51"/>
</a>
</g>
</g>
<!-- Node25&#45;&gt;Node9 -->
<g id="edge46_Node000025_Node000009" class="edge">
<title>Node25&#45;&gt;Node9</title>
<g id="a_edge46_Node000025_Node000009"><a xlink:title=" ">
<path fill="none" stroke="#63b8ff" d="M643.72,-220.59C619.2,-211.83 581.81,-198.46 554.55,-188.72"/>
<polygon fill="#63b8ff" stroke="#63b8ff" points="555.94,-185.5 545.34,-185.43 553.58,-192.09 555.94,-185.5"/>
</a>
</g>
</g>
<!-- Node25&#45;&gt;Node10 -->
<g id="edge42_Node000025_Node000010" class="edge">
<title>Node25&#45;&gt;Node10</title>
<g id="a_edge42_Node000025_Node000010"><a xlink:title=" ">
<path fill="none" stroke="#63b8ff" d="M690.62,-220.64C711.73,-211.8 744.72,-197.8 773,-185 809.52,-168.47 851.14,-148.44 878.17,-135.27"/>
<polygon fill="#63b8ff" stroke="#63b8ff" points="879.66,-138.44 887.11,-130.91 876.58,-132.15 879.66,-138.44"/>
</a>
</g>
</g>
<!-- Node25&#45;&gt;Node11 -->
<g id="edge43_Node000025_Node000011" class="edge">
<title>Node25&#45;&gt;Node11</title>
<g id="a_edge43_Node000025_Node000011"><a xlink:title=" ">
<path fill="none" stroke="#63b8ff" d="M699.98,-220.53C728.14,-212.04 770.71,-198.66 807,-185 864.99,-163.17 879.72,-157.74 935,-129.75 965.1,-114.51 998.38,-94.52 1020.16,-80.99"/>
<polygon fill="#63b8ff" stroke="#63b8ff" points="1021.95,-84 1028.57,-75.72 1018.24,-78.06 1021.95,-84"/>
</a>
</g>
</g>
<!-- Node25&#45;&gt;Node13 -->
<g id="edge44_Node000025_Node000013" class="edge">
<title>Node25&#45;&gt;Node13</title>
<g id="a_edge44_Node000025_Node000013"><a xlink:title=" ">
<path fill="none" stroke="#63b8ff" d="M684.04,-220.56C715.01,-201.89 786.18,-158.99 824.12,-136.12"/>
<polygon fill="#63b8ff" stroke="#63b8ff" points="825.83,-139.18 832.58,-131.02 822.21,-133.19 825.83,-139.18"/>
</a>
</g>
</g>
<!-- Node26 -->
<g id="Node000026" class="node">
<title>Node26</title>
<g id="a_Node000026"><a xlink:title=" ">
<polygon fill="#e0e0e0" stroke="#999999" points="695.75,-185 642.25,-185 642.25,-165.75 695.75,-165.75 695.75,-185"/>
<text text-anchor="middle" x="669" y="-171.5" font-family="Helvetica,sans-Serif" font-size="10.00">iostream</text>
</a>
</g>
</g>
<!-- Node25&#45;&gt;Node26 -->
<g id="edge41_Node000025_Node000026" class="edge">
<title>Node25&#45;&gt;Node26</title>
<g id="a_edge41_Node000025_Node000026"><a xlink:title=" ">
<path fill="none" stroke="#63b8ff" d="M669,-220.83C669,-214.32 669,-205.17 669,-196.87"/>
<polygon fill="#63b8ff" stroke="#63b8ff" points="672.5,-196.87 669,-186.87 665.5,-196.87 672.5,-196.87"/>
</a>
</g>
</g>
</g>
</svg>
