<?xml version="1.0" encoding="UTF-8" standalone="no"?>
<!DOCTYPE svg PUBLIC "-//W3C//DTD SVG 1.1//EN"
 "http://www.w3.org/Graphics/SVG/1.1/DTD/svg11.dtd">
<!-- Generated by graphviz version 9.0.0 (20230911.1827)
 -->
<!-- Title: include/CollisionHandler.h Pages: 1 -->
<svg width="1002pt" height="304pt"
 viewBox="0.00 0.00 1001.75 303.50" xmlns="http://www.w3.org/2000/svg" xmlns:xlink="http://www.w3.org/1999/xlink">
<g id="graph0" class="graph" transform="scale(1 1) rotate(0) translate(4 299.5)">
<title>include/CollisionHandler.h</title>
<!-- Node1 -->
<g id="Node000001" class="node">
<title>Node1</title>
<g id="a_Node000001"><a xlink:title=" ">
<polygon fill="#999999" stroke="#666666" points="456.25,-295.5 328.5,-295.5 328.5,-276.25 456.25,-276.25 456.25,-295.5"/>
<text text-anchor="middle" x="392.38" y="-282" font-family="Helvetica,sans-Serif" font-size="10.00">include/CollisionHandler.h</text>
</a>
</g>
</g>
<!-- Node2 -->
<g id="Node000002" class="node">
<title>Node2</title>
<g id="a_Node000002"><a xlink:href="ColliderComponent_8h_source.html" target="_top" xlink:title=" ">
<polygon fill="white" stroke="#666666" points="192,-129.75 86.75,-129.75 86.75,-110.5 192,-110.5 192,-129.75"/>
<text text-anchor="middle" x="139.38" y="-116.25" font-family="Helvetica,sans-Serif" font-size="10.00">ColliderComponent.h</text>
</a>
</g>
</g>
<!-- Node1&#45;&gt;Node2 -->
<g id="edge1_Node000001_Node000002" class="edge">
<title>Node1&#45;&gt;Node2</title>
<g id="a_edge1_Node000001_Node000002"><a xlink:title=" ">
<path fill="none" stroke="#63b8ff" d="M371.83,-275.91C353.24,-267.51 325.33,-254.19 302.38,-240.25 248.04,-207.25 188.88,-161.22 159,-137.18"/>
<polygon fill="#63b8ff" stroke="#63b8ff" points="161.52,-134.72 151.55,-131.15 157.12,-140.16 161.52,-134.72"/>
</a>
</g>
</g>
<!-- Node5 -->
<g id="Node000005" class="node">
<title>Node5</title>
<g id="a_Node000005"><a xlink:href="Vector2D_8h_source.html" target="_top" xlink:title=" ">
<polygon fill="white" stroke="#666666" points="112.38,-74.5 48.38,-74.5 48.38,-55.25 112.38,-55.25 112.38,-74.5"/>
<text text-anchor="middle" x="80.38" y="-61" font-family="Helvetica,sans-Serif" font-size="10.00">Vector2D.h</text>
</a>
</g>
</g>
<!-- Node1&#45;&gt;Node5 -->
<g id="edge28_Node000001_Node000005" class="edge">
<title>Node1&#45;&gt;Node5</title>
<g id="a_edge28_Node000001_Node000005"><a xlink:title=" ">
<path fill="none" stroke="#63b8ff" d="M333.44,-275.78C258,-260.57 130.7,-221.97 77.38,-129.75 69.72,-116.51 71.17,-99.01 74.15,-85.68"/>
<polygon fill="#63b8ff" stroke="#63b8ff" points="77.45,-86.88 76.7,-76.31 70.7,-85.04 77.45,-86.88"/>
</a>
</g>
</g>
<!-- Node6 -->
<g id="Node000006" class="node">
<title>Node6</title>
<g id="a_Node000006"><a xlink:title=" ">
<polygon fill="#e0e0e0" stroke="#999999" points="64.75,-19.25 0,-19.25 0,0 64.75,0 64.75,-19.25"/>
<text text-anchor="middle" x="32.38" y="-5.75" font-family="Helvetica,sans-Serif" font-size="10.00">SDL_rect.h</text>
</a>
</g>
</g>
<!-- Node1&#45;&gt;Node6 -->
<g id="edge19_Node000001_Node000006" class="edge">
<title>Node1&#45;&gt;Node6</title>
<g id="a_edge19_Node000001_Node000006"><a xlink:title=" ">
<path fill="none" stroke="#63b8ff" d="M328,-279.4C221.53,-268.56 20.38,-239.7 20.38,-176.38 20.38,-176.38 20.38,-176.38 20.38,-119.12 20.38,-88.22 25.24,-52.66 28.78,-30.92"/>
<polygon fill="#63b8ff" stroke="#63b8ff" points="32.23,-31.53 30.45,-21.08 25.33,-30.35 32.23,-31.53"/>
</a>
</g>
</g>
<!-- Node7 -->
<g id="Node000007" class="node">
<title>Node7</title>
<g id="a_Node000007"><a xlink:href="Constants_8h_source.html" target="_top" xlink:title=" ">
<polygon fill="white" stroke="#666666" points="535.25,-74.5 467.5,-74.5 467.5,-55.25 535.25,-55.25 535.25,-74.5"/>
<text text-anchor="middle" x="501.38" y="-61" font-family="Helvetica,sans-Serif" font-size="10.00">Constants.h</text>
</a>
</g>
</g>
<!-- Node1&#45;&gt;Node7 -->
<g id="edge7_Node000001_Node000007" class="edge">
<title>Node1&#45;&gt;Node7</title>
<g id="a_edge7_Node000001_Node000007"><a xlink:title=" ">
<path fill="none" stroke="#63b8ff" d="M411.89,-275.78C451.37,-255.99 538.69,-204.71 559.38,-129.75 561.65,-121.5 563.15,-118.18 559.38,-110.5 553.21,-97.98 541.66,-87.99 530.48,-80.66"/>
<polygon fill="#63b8ff" stroke="#63b8ff" points="532.57,-77.83 522.19,-75.69 528.97,-83.84 532.57,-77.83"/>
</a>
</g>
</g>
<!-- Node9 -->
<g id="Node000009" class="node">
<title>Node9</title>
<g id="a_Node000009"><a xlink:href="Entity_8h_source.html" target="_top" xlink:title=" ">
<polygon fill="white" stroke="#666666" points="382.12,-185 334.62,-185 334.62,-165.75 382.12,-165.75 382.12,-185"/>
<text text-anchor="middle" x="358.38" y="-171.5" font-family="Helvetica,sans-Serif" font-size="10.00">Entity.h</text>
</a>
</g>
</g>
<!-- Node1&#45;&gt;Node9 -->
<g id="edge9_Node000001_Node000009" class="edge">
<title>Node1&#45;&gt;Node9</title>
<g id="a_edge9_Node000001_Node000009"><a xlink:title=" ">
<path fill="none" stroke="#63b8ff" d="M389.59,-276C384.16,-258.67 372.04,-219.98 364.6,-196.24"/>
<polygon fill="#63b8ff" stroke="#63b8ff" points="367.98,-195.32 361.65,-186.82 361.3,-197.41 367.98,-195.32"/>
</a>
</g>
</g>
<!-- Node12 -->
<g id="Node000012" class="node">
<title>Node12</title>
<g id="a_Node000012"><a xlink:title=" ">
<polygon fill="#e0e0e0" stroke="#999999" points="250.38,-129.75 210.38,-129.75 210.38,-110.5 250.38,-110.5 250.38,-129.75"/>
<text text-anchor="middle" x="230.38" y="-116.25" font-family="Helvetica,sans-Serif" font-size="10.00">bitset</text>
</a>
</g>
</g>
<!-- Node1&#45;&gt;Node12 -->
<g id="edge36_Node000001_Node000012" class="edge">
<title>Node1&#45;&gt;Node12</title>
<g id="a_edge36_Node000001_Node000012"><a xlink:title=" ">
<path fill="none" stroke="#63b8ff" d="M375.94,-275.88C361.71,-267.65 341.03,-254.61 325.38,-240.25 291.08,-208.78 259.05,-164.29 242.37,-139.55"/>
<polygon fill="#63b8ff" stroke="#63b8ff" points="245.3,-137.63 236.85,-131.23 239.46,-141.5 245.3,-137.63"/>
</a>
</g>
</g>
<!-- Node13 -->
<g id="Node000013" class="node">
<title>Node13</title>
<g id="a_Node000013"><a xlink:title=" ">
<polygon fill="#e0e0e0" stroke="#999999" points="311.88,-129.75 268.88,-129.75 268.88,-110.5 311.88,-110.5 311.88,-129.75"/>
<text text-anchor="middle" x="290.38" y="-116.25" font-family="Helvetica,sans-Serif" font-size="10.00">vector</text>
</a>
</g>
</g>
<!-- Node1&#45;&gt;Node13 -->
<g id="edge40_Node000001_Node000013" class="edge">
<title>Node1&#45;&gt;Node13</title>
<g id="a_edge40_Node000001_Node000013"><a xlink:title=" ">
<path fill="none" stroke="#63b8ff" d="M381.69,-275.88C363.17,-259.68 325.2,-223.68 305.38,-185 298.29,-171.17 294.49,-153.95 292.5,-140.87"/>
<polygon fill="#63b8ff" stroke="#63b8ff" points="296.02,-140.82 291.28,-131.35 289.08,-141.71 296.02,-140.82"/>
</a>
</g>
</g>
<!-- Node15 -->
<g id="Node000015" class="node">
<title>Node15</title>
<g id="a_Node000015"><a xlink:href="SpriteComponent_8h_source.html" target="_top" xlink:title=" ">
<polygon fill="white" stroke="#666666" points="747.62,-185 649.12,-185 649.12,-165.75 747.62,-165.75 747.62,-185"/>
<text text-anchor="middle" x="698.38" y="-171.5" font-family="Helvetica,sans-Serif" font-size="10.00">SpriteComponent.h</text>
</a>
</g>
</g>
<!-- Node1&#45;&gt;Node15 -->
<g id="edge20_Node000001_Node000015" class="edge">
<title>Node1&#45;&gt;Node15</title>
<g id="a_edge20_Node000001_Node000015"><a xlink:title=" ">
<path fill="none" stroke="#63b8ff" d="M433.28,-275.76C467.02,-267.77 515.9,-255.14 557.38,-240.25 560.19,-239.24 627.38,-208.7 667.98,-190.22"/>
<polygon fill="#63b8ff" stroke="#63b8ff" points="669.38,-193.43 677.03,-186.1 666.48,-187.06 669.38,-193.43"/>
</a>
</g>
</g>
<!-- Node21 -->
<g id="Node000021" class="node">
<title>Node21</title>
<g id="a_Node000021"><a xlink:href="Manager_8h_source.html" target="_top" xlink:title=" ">
<polygon fill="white" stroke="#666666" points="457.88,-240.25 396.88,-240.25 396.88,-221 457.88,-221 457.88,-240.25"/>
<text text-anchor="middle" x="427.38" y="-226.75" font-family="Helvetica,sans-Serif" font-size="10.00">Manager.h</text>
</a>
</g>
</g>
<!-- Node1&#45;&gt;Node21 -->
<g id="edge29_Node000001_Node000021" class="edge">
<title>Node1&#45;&gt;Node21</title>
<g id="a_edge29_Node000001_Node000021"><a xlink:title=" ">
<path fill="none" stroke="#63b8ff" d="M398.15,-276.08C402.79,-269.03 409.45,-258.9 415.24,-250.08"/>
<polygon fill="#63b8ff" stroke="#63b8ff" points="418.07,-252.15 420.64,-241.87 412.22,-248.31 418.07,-252.15"/>
</a>
</g>
</g>
<!-- Node23 -->
<g id="Node000023" class="node">
<title>Node23</title>
<g id="a_Node000023"><a xlink:title=" ">
<polygon fill="#e0e0e0" stroke="#999999" points="681.12,-240.25 609.62,-240.25 609.62,-221 681.12,-221 681.12,-240.25"/>
<text text-anchor="middle" x="645.38" y="-226.75" font-family="Helvetica,sans-Serif" font-size="10.00">initializer_list</text>
</a>
</g>
</g>
<!-- Node1&#45;&gt;Node23 -->
<g id="edge37_Node000001_Node000023" class="edge">
<title>Node1&#45;&gt;Node23</title>
<g id="a_edge37_Node000001_Node000023"><a xlink:title=" ">
<path fill="none" stroke="#63b8ff" d="M435.58,-275.78C480.82,-266.26 551.65,-251.35 598.3,-241.53"/>
<polygon fill="#63b8ff" stroke="#63b8ff" points="598.77,-245.01 607.83,-239.53 597.32,-238.16 598.77,-245.01"/>
</a>
</g>
</g>
<!-- Node24 -->
<g id="Node000024" class="node">
<title>Node24</title>
<g id="a_Node000024"><a xlink:title=" ">
<polygon fill="#e0e0e0" stroke="#999999" points="735.88,-240.25 698.88,-240.25 698.88,-221 735.88,-221 735.88,-240.25"/>
<text text-anchor="middle" x="717.38" y="-226.75" font-family="Helvetica,sans-Serif" font-size="10.00">tuple</text>
</a>
</g>
</g>
<!-- Node1&#45;&gt;Node24 -->
<g id="edge38_Node000001_Node000024" class="edge">
<title>Node1&#45;&gt;Node24</title>
<g id="a_edge38_Node000001_Node000024"><a xlink:title=" ">
<path fill="none" stroke="#63b8ff" d="M456.59,-278.28C514.77,-271.62 602.98,-259.84 687.51,-240.62"/>
<polygon fill="#63b8ff" stroke="#63b8ff" points="688.17,-244.06 697.13,-238.39 686.59,-237.24 688.17,-244.06"/>
</a>
</g>
</g>
<!-- Node25 -->
<g id="Node000025" class="node">
<title>Node25</title>
<g id="a_Node000025"><a xlink:title=" ">
<polygon fill="#e0e0e0" stroke="#999999" points="792.62,-240.25 754.12,-240.25 754.12,-221 792.62,-221 792.62,-240.25"/>
<text text-anchor="middle" x="773.38" y="-226.75" font-family="Helvetica,sans-Serif" font-size="10.00">utility</text>
</a>
</g>
</g>
<!-- Node1&#45;&gt;Node25 -->
<g id="edge39_Node000001_Node000025" class="edge">
<title>Node1&#45;&gt;Node25</title>
<g id="a_edge39_Node000001_Node000025"><a xlink:title=" ">
<path fill="none" stroke="#63b8ff" d="M456.71,-280.11C525.46,-274.26 637.74,-262.56 742.78,-240.48"/>
<polygon fill="#63b8ff" stroke="#63b8ff" points="743.38,-243.93 752.43,-238.41 741.92,-237.08 743.38,-243.93"/>
</a>
</g>
</g>
<!-- Node3 -->
<g id="Node000003" class="node">
<title>Node3</title>
<g id="a_Node000003"><a xlink:title=" ">
<polygon fill="#e0e0e0" stroke="#999999" points="137.88,-19.25 94.88,-19.25 94.88,0 137.88,0 137.88,-19.25"/>
<text text-anchor="middle" x="116.38" y="-5.75" font-family="Helvetica,sans-Serif" font-size="10.00">SDL.h</text>
</a>
</g>
</g>
<!-- Node2&#45;&gt;Node3 -->
<g id="edge2_Node000002_Node000003" class="edge">
<title>Node2&#45;&gt;Node3</title>
<g id="a_edge2_Node000002_Node000003"><a xlink:title=" ">
<path fill="none" stroke="#63b8ff" d="M137.49,-110.25C133.84,-93 125.69,-54.58 120.65,-30.81"/>
<polygon fill="#63b8ff" stroke="#63b8ff" points="124.09,-30.16 118.6,-21.11 117.25,-31.62 124.09,-30.16"/>
</a>
</g>
</g>
<!-- Node4 -->
<g id="Node000004" class="node">
<title>Node4</title>
<g id="a_Node000004"><a xlink:href="Component_8h_source.html" target="_top" xlink:title=" ">
<polygon fill="white" stroke="#666666" points="387.88,-74.5 314.88,-74.5 314.88,-55.25 387.88,-55.25 387.88,-74.5"/>
<text text-anchor="middle" x="351.38" y="-61" font-family="Helvetica,sans-Serif" font-size="10.00">Component.h</text>
</a>
</g>
</g>
<!-- Node2&#45;&gt;Node4 -->
<g id="edge3_Node000002_Node000004" class="edge">
<title>Node2&#45;&gt;Node4</title>
<g id="a_edge3_Node000002_Node000004"><a xlink:title=" ">
<path fill="none" stroke="#63b8ff" d="M175.34,-110.09C210.82,-101.18 265.25,-87.51 304.19,-77.73"/>
<polygon fill="#63b8ff" stroke="#63b8ff" points="304.92,-81.15 313.77,-75.32 303.22,-74.36 304.92,-81.15"/>
</a>
</g>
</g>
<!-- Node2&#45;&gt;Node5 -->
<g id="edge4_Node000002_Node000005" class="edge">
<title>Node2&#45;&gt;Node5</title>
<g id="a_edge4_Node000002_Node000005"><a xlink:title=" ">
<path fill="none" stroke="#63b8ff" d="M129.37,-110.09C121.01,-102.55 108.88,-91.6 98.77,-82.48"/>
<polygon fill="#63b8ff" stroke="#63b8ff" points="101.13,-79.89 91.36,-75.79 96.44,-85.09 101.13,-79.89"/>
</a>
</g>
</g>
<!-- Node5&#45;&gt;Node3 -->
<g id="edge5_Node000005_Node000003" class="edge">
<title>Node5&#45;&gt;Node3</title>
<g id="a_edge5_Node000005_Node000003"><a xlink:title=" ">
<path fill="none" stroke="#63b8ff" d="M86.32,-55.08C91.09,-48.03 97.94,-37.9 103.9,-29.08"/>
<polygon fill="#63b8ff" stroke="#63b8ff" points="106.75,-31.11 109.45,-20.86 100.95,-27.19 106.75,-31.11"/>
</a>
</g>
</g>
<!-- Node5&#45;&gt;Node6 -->
<g id="edge6_Node000005_Node000006" class="edge">
<title>Node5&#45;&gt;Node6</title>
<g id="a_edge6_Node000005_Node000006"><a xlink:title=" ">
<path fill="none" stroke="#63b8ff" d="M72.45,-55.08C65.82,-47.73 56.16,-37.01 47.99,-27.94"/>
<polygon fill="#63b8ff" stroke="#63b8ff" points="50.78,-25.82 41.49,-20.73 45.58,-30.5 50.78,-25.82"/>
</a>
</g>
</g>
<!-- Node8 -->
<g id="Node000008" class="node">
<title>Node8</title>
<g id="a_Node000008"><a xlink:title=" ">
<polygon fill="#e0e0e0" stroke="#999999" points="525.5,-19.25 477.25,-19.25 477.25,0 525.5,0 525.5,-19.25"/>
<text text-anchor="middle" x="501.38" y="-5.75" font-family="Helvetica,sans-Serif" font-size="10.00">cstddef</text>
</a>
</g>
</g>
<!-- Node7&#45;&gt;Node8 -->
<g id="edge8_Node000007_Node000008" class="edge">
<title>Node7&#45;&gt;Node8</title>
<g id="a_edge8_Node000007_Node000008"><a xlink:title=" ">
<path fill="none" stroke="#63b8ff" d="M501.38,-55.08C501.38,-48.57 501.38,-39.42 501.38,-31.12"/>
<polygon fill="#63b8ff" stroke="#63b8ff" points="504.88,-31.12 501.38,-21.12 497.88,-31.12 504.88,-31.12"/>
</a>
</g>
</g>
<!-- Node9&#45;&gt;Node2 -->
<g id="edge14_Node000009_Node000002" class="edge">
<title>Node9&#45;&gt;Node2</title>
<g id="a_edge14_Node000009_Node000002"><a xlink:title=" ">
<path fill="none" stroke="#63b8ff" d="M334.52,-168.57C299.47,-160.05 233.28,-143.96 187.78,-132.9"/>
<polygon fill="#63b8ff" stroke="#63b8ff" points="188.71,-129.52 178.17,-130.56 187.06,-136.32 188.71,-129.52"/>
</a>
</g>
</g>
<!-- Node9&#45;&gt;Node7 -->
<g id="edge18_Node000009_Node000007" class="edge">
<title>Node9&#45;&gt;Node7</title>
<g id="a_edge18_Node000009_Node000007"><a xlink:title=" ">
<path fill="none" stroke="#63b8ff" d="M365.84,-165.32C376.98,-152.16 399.07,-127.48 421.38,-110.5 436.9,-98.68 455.92,-87.94 471.52,-79.96"/>
<polygon fill="#63b8ff" stroke="#63b8ff" points="472.94,-83.16 480.33,-75.57 469.82,-76.9 472.94,-83.16"/>
</a>
</g>
</g>
<!-- Node10 -->
<g id="Node000010" class="node">
<title>Node10</title>
<g id="a_Node000010"><a xlink:title=" ">
<polygon fill="#e0e0e0" stroke="#999999" points="466.88,-129.75 429.88,-129.75 429.88,-110.5 466.88,-110.5 466.88,-129.75"/>
<text text-anchor="middle" x="448.38" y="-116.25" font-family="Helvetica,sans-Serif" font-size="10.00">array</text>
</a>
</g>
</g>
<!-- Node9&#45;&gt;Node10 -->
<g id="edge10_Node000009_Node000010" class="edge">
<title>Node9&#45;&gt;Node10</title>
<g id="a_edge10_Node000009_Node000010"><a xlink:title=" ">
<path fill="none" stroke="#63b8ff" d="M373.64,-165.34C387.22,-157.31 407.33,-145.41 423.27,-135.98"/>
<polygon fill="#63b8ff" stroke="#63b8ff" points="424.91,-139.08 431.73,-130.97 421.34,-133.05 424.91,-139.08"/>
</a>
</g>
</g>
<!-- Node11 -->
<g id="Node000011" class="node">
<title>Node11</title>
<g id="a_Node000011"><a xlink:title=" ">
<polygon fill="#e0e0e0" stroke="#999999" points="535.62,-129.75 485.12,-129.75 485.12,-110.5 535.62,-110.5 535.62,-129.75"/>
<text text-anchor="middle" x="510.38" y="-116.25" font-family="Helvetica,sans-Serif" font-size="10.00">memory</text>
</a>
</g>
</g>
<!-- Node9&#45;&gt;Node11 -->
<g id="edge11_Node000009_Node000011" class="edge">
<title>Node9&#45;&gt;Node11</title>
<g id="a_edge11_Node000009_Node000011"><a xlink:title=" ">
<path fill="none" stroke="#63b8ff" d="M382.46,-165.94C407.14,-157.29 445.82,-143.74 474.19,-133.8"/>
<polygon fill="#63b8ff" stroke="#63b8ff" points="475.17,-137.17 483.45,-130.56 472.86,-130.56 475.17,-137.17"/>
</a>
</g>
</g>
<!-- Node9&#45;&gt;Node12 -->
<g id="edge12_Node000009_Node000012" class="edge">
<title>Node9&#45;&gt;Node12</title>
<g id="a_edge12_Node000009_Node000012"><a xlink:title=" ">
<path fill="none" stroke="#63b8ff" d="M336.66,-165.34C315.85,-156.68 284.24,-143.53 260.9,-133.82"/>
<polygon fill="#63b8ff" stroke="#63b8ff" points="262.48,-130.69 251.9,-130.08 259.79,-137.15 262.48,-130.69"/>
</a>
</g>
</g>
<!-- Node9&#45;&gt;Node13 -->
<g id="edge13_Node000009_Node000013" class="edge">
<title>Node9&#45;&gt;Node13</title>
<g id="a_edge13_Node000009_Node000013"><a xlink:title=" ">
<path fill="none" stroke="#63b8ff" d="M346.84,-165.34C336.91,-157.57 322.36,-146.17 310.52,-136.9"/>
<polygon fill="#63b8ff" stroke="#63b8ff" points="312.96,-134.37 302.93,-130.96 308.65,-139.88 312.96,-134.37"/>
</a>
</g>
</g>
<!-- Node14 -->
<g id="Node000014" class="node">
<title>Node14</title>
<g id="a_Node000014"><a xlink:href="ECS_8h_source.html" target="_top" xlink:title=" ">
<polygon fill="white" stroke="#666666" points="372.88,-129.75 329.88,-129.75 329.88,-110.5 372.88,-110.5 372.88,-129.75"/>
<text text-anchor="middle" x="351.38" y="-116.25" font-family="Helvetica,sans-Serif" font-size="10.00">ECS.h</text>
</a>
</g>
</g>
<!-- Node9&#45;&gt;Node14 -->
<g id="edge15_Node000009_Node000014" class="edge">
<title>Node9&#45;&gt;Node14</title>
<g id="a_edge15_Node000009_Node000014"><a xlink:title=" ">
<path fill="none" stroke="#63b8ff" d="M357.22,-165.58C356.35,-158.99 355.13,-149.71 354.03,-141.32"/>
<polygon fill="#63b8ff" stroke="#63b8ff" points="357.53,-141.07 352.75,-131.61 350.59,-141.98 357.53,-141.07"/>
</a>
</g>
</g>
<!-- Node14&#45;&gt;Node4 -->
<g id="edge16_Node000014_Node000004" class="edge">
<title>Node14&#45;&gt;Node4</title>
<g id="a_edge16_Node000014_Node000004"><a xlink:title=" ">
<path fill="none" stroke="#63b8ff" d="M351.38,-110.33C351.38,-103.82 351.38,-94.67 351.38,-86.37"/>
<polygon fill="#63b8ff" stroke="#63b8ff" points="354.88,-86.37 351.38,-76.37 347.88,-86.37 354.88,-86.37"/>
</a>
</g>
</g>
<!-- Node14&#45;&gt;Node7 -->
<g id="edge17_Node000014_Node000007" class="edge">
<title>Node14&#45;&gt;Node7</title>
<g id="a_edge17_Node000014_Node000007"><a xlink:title=" ">
<path fill="none" stroke="#63b8ff" d="M373.19,-111.38C397.22,-102.85 436.26,-88.99 464.95,-78.81"/>
<polygon fill="#63b8ff" stroke="#63b8ff" points="466.09,-82.12 474.34,-75.47 463.75,-75.52 466.09,-82.12"/>
</a>
</g>
</g>
<!-- Node15&#45;&gt;Node4 -->
<g id="edge26_Node000015_Node000004" class="edge">
<title>Node15&#45;&gt;Node4</title>
<g id="a_edge26_Node000015_Node000004"><a xlink:title=" ">
<path fill="none" stroke="#63b8ff" d="M679.31,-165.26C650.59,-151.8 594.26,-126.49 544.38,-110.5 495.79,-94.93 438.7,-82.42 399.28,-74.65"/>
<polygon fill="#63b8ff" stroke="#63b8ff" points="400.12,-71.25 389.63,-72.78 398.78,-78.12 400.12,-71.25"/>
</a>
</g>
</g>
<!-- Node15&#45;&gt;Node11 -->
<g id="edge23_Node000015_Node000011" class="edge">
<title>Node15&#45;&gt;Node11</title>
<g id="a_edge23_Node000015_Node000011"><a xlink:title=" ">
<path fill="none" stroke="#63b8ff" d="M666.48,-165.34C633.3,-155.94 581.44,-141.25 546.7,-131.41"/>
<polygon fill="#63b8ff" stroke="#63b8ff" points="548.1,-128.17 537.52,-128.81 546.19,-134.91 548.1,-128.17"/>
</a>
</g>
</g>
<!-- Node16 -->
<g id="Node000016" class="node">
<title>Node16</title>
<g id="a_Node000016"><a xlink:title=" ">
<polygon fill="#e0e0e0" stroke="#999999" points="781.75,-129.75 747,-129.75 747,-110.5 781.75,-110.5 781.75,-129.75"/>
<text text-anchor="middle" x="764.38" y="-116.25" font-family="Helvetica,sans-Serif" font-size="10.00">map</text>
</a>
</g>
</g>
<!-- Node15&#45;&gt;Node16 -->
<g id="edge21_Node000015_Node000016" class="edge">
<title>Node15&#45;&gt;Node16</title>
<g id="a_edge21_Node000015_Node000016"><a xlink:title=" ">
<path fill="none" stroke="#63b8ff" d="M709.57,-165.34C719.11,-157.65 733.05,-146.4 744.48,-137.18"/>
<polygon fill="#63b8ff" stroke="#63b8ff" points="746.58,-139.98 752.17,-130.98 742.19,-134.53 746.58,-139.98"/>
</a>
</g>
</g>
<!-- Node17 -->
<g id="Node000017" class="node">
<title>Node17</title>
<g id="a_Node000017"><a xlink:title=" ">
<polygon fill="#e0e0e0" stroke="#999999" points="875,-129.75 799.75,-129.75 799.75,-110.5 875,-110.5 875,-129.75"/>
<text text-anchor="middle" x="837.38" y="-116.25" font-family="Helvetica,sans-Serif" font-size="10.00">SDL_render.h</text>
</a>
</g>
</g>
<!-- Node15&#45;&gt;Node17 -->
<g id="edge22_Node000015_Node000017" class="edge">
<title>Node15&#45;&gt;Node17</title>
<g id="a_edge22_Node000015_Node000017"><a xlink:title=" ">
<path fill="none" stroke="#63b8ff" d="M721.95,-165.34C744.22,-156.81 777.87,-143.92 803.1,-134.26"/>
<polygon fill="#63b8ff" stroke="#63b8ff" points="804.18,-137.59 812.27,-130.74 801.68,-131.05 804.18,-137.59"/>
</a>
</g>
</g>
<!-- Node18 -->
<g id="Node000018" class="node">
<title>Node18</title>
<g id="a_Node000018"><a xlink:href="AnimationHandler_8h_source.html" target="_top" xlink:title=" ">
<polygon fill="white" stroke="#666666" points="993.75,-129.75 893,-129.75 893,-110.5 993.75,-110.5 993.75,-129.75"/>
<text text-anchor="middle" x="943.38" y="-116.25" font-family="Helvetica,sans-Serif" font-size="10.00">AnimationHandler.h</text>
</a>
</g>
</g>
<!-- Node15&#45;&gt;Node18 -->
<g id="edge24_Node000015_Node000018" class="edge">
<title>Node15&#45;&gt;Node18</title>
<g id="a_edge24_Node000015_Node000018"><a xlink:title=" ">
<path fill="none" stroke="#63b8ff" d="M740.21,-165.28C781.79,-156.24 845.69,-142.36 890.7,-132.57"/>
<polygon fill="#63b8ff" stroke="#63b8ff" points="891.2,-136.05 900.23,-130.5 889.71,-129.21 891.2,-136.05"/>
</a>
</g>
</g>
<!-- Node20 -->
<g id="Node000020" class="node">
<title>Node20</title>
<g id="a_Node000020"><a xlink:href="Direction_8h_source.html" target="_top" xlink:title=" ">
<polygon fill="white" stroke="#666666" points="729.25,-129.75 667.5,-129.75 667.5,-110.5 729.25,-110.5 729.25,-129.75"/>
<text text-anchor="middle" x="698.38" y="-116.25" font-family="Helvetica,sans-Serif" font-size="10.00">Direction.h</text>
</a>
</g>
</g>
<!-- Node15&#45;&gt;Node20 -->
<g id="edge27_Node000015_Node000020" class="edge">
<title>Node15&#45;&gt;Node20</title>
<g id="a_edge27_Node000015_Node000020"><a xlink:title=" ">
<path fill="none" stroke="#63b8ff" d="M698.38,-165.58C698.38,-159.07 698.38,-149.92 698.38,-141.62"/>
<polygon fill="#63b8ff" stroke="#63b8ff" points="701.88,-141.62 698.38,-131.62 694.88,-141.62 701.88,-141.62"/>
</a>
</g>
</g>
<!-- Node19 -->
<g id="Node000019" class="node">
<title>Node19</title>
<g id="a_Node000019"><a xlink:title=" ">
<polygon fill="#e0e0e0" stroke="#999999" points="966,-74.5 920.75,-74.5 920.75,-55.25 966,-55.25 966,-74.5"/>
<text text-anchor="middle" x="943.38" y="-61" font-family="Helvetica,sans-Serif" font-size="10.00">cstdint</text>
</a>
</g>
</g>
<!-- Node18&#45;&gt;Node19 -->
<g id="edge25_Node000018_Node000019" class="edge">
<title>Node18&#45;&gt;Node19</title>
<g id="a_edge25_Node000018_Node000019"><a xlink:title=" ">
<path fill="none" stroke="#63b8ff" d="M943.38,-110.33C943.38,-103.82 943.38,-94.67 943.38,-86.37"/>
<polygon fill="#63b8ff" stroke="#63b8ff" points="946.88,-86.37 943.38,-76.37 939.88,-86.37 946.88,-86.37"/>
</a>
</g>
</g>
<!-- Node21&#45;&gt;Node7 -->
<g id="edge34_Node000021_Node000007" class="edge">
<title>Node21&#45;&gt;Node7</title>
<g id="a_edge34_Node000021_Node000007"><a xlink:title=" ">
<path fill="none" stroke="#63b8ff" d="M447.32,-220.61C476.11,-206.26 527.69,-175.12 544.38,-129.75 547.33,-121.72 547.58,-118.43 544.38,-110.5 539.94,-99.51 531.36,-89.71 523.02,-82.12"/>
<polygon fill="#63b8ff" stroke="#63b8ff" points="525.35,-79.51 515.44,-75.77 520.86,-84.87 525.35,-79.51"/>
</a>
</g>
</g>
<!-- Node21&#45;&gt;Node9 -->
<g id="edge35_Node000021_Node000009" class="edge">
<title>Node21&#45;&gt;Node9</title>
<g id="a_edge35_Node000021_Node000009"><a xlink:title=" ">
<path fill="none" stroke="#63b8ff" d="M415.67,-220.59C405.6,-212.82 390.83,-201.42 378.81,-192.15"/>
<polygon fill="#63b8ff" stroke="#63b8ff" points="381.16,-189.54 371.11,-186.2 376.88,-195.08 381.16,-189.54"/>
</a>
</g>
</g>
<!-- Node21&#45;&gt;Node10 -->
<g id="edge31_Node000021_Node000010" class="edge">
<title>Node21&#45;&gt;Node10</title>
<g id="a_edge31_Node000021_Node000010"><a xlink:title=" ">
<path fill="none" stroke="#63b8ff" d="M437.88,-220.58C446.59,-212.32 458.34,-199.27 463.38,-185 468.54,-170.36 463.96,-153.21 458.54,-140.36"/>
<polygon fill="#63b8ff" stroke="#63b8ff" points="461.7,-138.86 454.24,-131.34 455.38,-141.87 461.7,-138.86"/>
</a>
</g>
</g>
<!-- Node21&#45;&gt;Node11 -->
<g id="edge32_Node000021_Node000011" class="edge">
<title>Node21&#45;&gt;Node11</title>
<g id="a_edge32_Node000021_Node000011"><a xlink:title=" ">
<path fill="none" stroke="#63b8ff" d="M440.37,-220.52C451.51,-212.23 467.44,-199.15 478.38,-185 488.94,-171.34 497.48,-153.65 503.07,-140.35"/>
<polygon fill="#63b8ff" stroke="#63b8ff" points="506.18,-141.99 506.64,-131.41 499.68,-139.4 506.18,-141.99"/>
</a>
</g>
</g>
<!-- Node21&#45;&gt;Node13 -->
<g id="edge33_Node000021_Node000013" class="edge">
<title>Node21&#45;&gt;Node13</title>
<g id="a_edge33_Node000021_Node000013"><a xlink:title=" ">
<path fill="none" stroke="#63b8ff" d="M396.76,-221.98C374.79,-215.23 345.63,-203.53 325.38,-185 312.11,-172.86 302.78,-154.5 297.11,-140.58"/>
<polygon fill="#63b8ff" stroke="#63b8ff" points="300.52,-139.71 293.73,-131.57 293.97,-142.17 300.52,-139.71"/>
</a>
</g>
</g>
<!-- Node22 -->
<g id="Node000022" class="node">
<title>Node22</title>
<g id="a_Node000022"><a xlink:title=" ">
<polygon fill="#e0e0e0" stroke="#999999" points="454.12,-185 400.62,-185 400.62,-165.75 454.12,-165.75 454.12,-185"/>
<text text-anchor="middle" x="427.38" y="-171.5" font-family="Helvetica,sans-Serif" font-size="10.00">iostream</text>
</a>
</g>
</g>
<!-- Node21&#45;&gt;Node22 -->
<g id="edge30_Node000021_Node000022" class="edge">
<title>Node21&#45;&gt;Node22</title>
<g id="a_edge30_Node000021_Node000022"><a xlink:title=" ">
<path fill="none" stroke="#63b8ff" d="M427.38,-220.83C427.38,-214.32 427.38,-205.17 427.38,-196.87"/>
<polygon fill="#63b8ff" stroke="#63b8ff" points="430.88,-196.87 427.38,-186.87 423.88,-196.87 430.88,-196.87"/>
</a>
</g>
</g>
</g>
</svg>
