<?xml version="1.0" encoding="UTF-8" standalone="no"?>
<!DOCTYPE svg PUBLIC "-//W3C//DTD SVG 1.1//EN"
 "http://www.w3.org/Graphics/SVG/1.1/DTD/svg11.dtd">
<!-- Generated by graphviz version 12.2.1 (20241206.2353)
 -->
<!-- Title: include/CollisionHandler.h Pages: 1 -->
<!--zoomable 359 -->

<svg id="main" version="1.1" xmlns="http://www.w3.org/2000/svg" xmlns:xlink="http://www.w3.org/1999/xlink" xml:space="preserve" onload="init(evt)">

<style type="text/css"><![CDATA[
.node, .edge {opacity: 0.7;}
.node.selected, .edge.selected {opacity: 1;}
.edge:hover path { stroke: red; }
.edge:hover polygon { stroke: red; fill: red; }
]]></style>

<defs>
  <circle id="rim" cx="0" cy="0" r="7"/>
  <circle id="rim2" cx="0" cy="0" r="3.5"/>
  <g id="zoomPlus">
    <use xlink:href="#rim" fill="#404040"><set attributeName="fill" to="#808080" begin="zoomplus.mouseover" end="zoomplus.mouseout"/></use>
    <path d="M-4,0h8M0,-4v8" fill="none" stroke="white" stroke-width="1.5" pointer-events="none"/>
  </g>
  <g id="zoomMin">
    <use xlink:href="#rim" fill="#404040"><set attributeName="fill" to="#808080" begin="zoomminus.mouseover" end="zoomminus.mouseout"/></use>
    <path d="M-4,0h8" fill="none" stroke="white" stroke-width="1.5" pointer-events="none"/>
  </g>
  <g id="arrowUp" transform="translate(30 24)">
    <use xlink:href="#rim"/>
    <path pointer-events="none" fill="none" stroke="white" stroke-width="1.5" d="M0,-3.0v7 M-2.5,-0.5L0,-3.0L2.5,-0.5"/>
  </g>
  <g id="arrowRight" transform="rotate(90) translate(36 -43)">
    <use xlink:href="#rim"/>
    <path pointer-events="none" fill="none" stroke="white" stroke-width="1.5" d="M0,-3.0v7 M-2.5,-0.5L0,-3.0L2.5,-0.5"/>
  </g>
  <g id="arrowDown" transform="rotate(180) translate(-30 -48)">
    <use xlink:href="#rim"/>
    <path pointer-events="none" fill="none" stroke="white" stroke-width="1.5" d="M0,-3.0v7 M-2.5,-0.5L0,-3.0L2.5,-0.5"/>
  </g>
  <g id="arrowLeft" transform="rotate(270) translate(-36 17)">
    <use xlink:href="#rim"/>
    <path pointer-events="none" fill="none" stroke="white" stroke-width="1.5" d="M0,-3.0v7 M-2.5,-0.5L0,-3.0L2.5,-0.5"/>
  </g>
  <g id="resetDef">
    <use xlink:href="#rim2" fill="#404040"><set attributeName="fill" to="#808080" begin="reset.mouseover" end="reset.mouseout"/></use>
  </g>
</defs>
<script type="application/ecmascript">
var viewWidth = 1307;
var viewHeight = 359;
var sectionId = 'dynsection-0';
</script>
<script type="application/ecmascript" xlink:href="svg.min.js"/>
<svg id="graph" class="graph">
<g id="viewport">
<title>include/CollisionHandler.h</title>
<!-- Node1 -->
<g id="Node000001" class="node">
<title>Node1</title>
<g id="a_Node000001"><a xlink:title=" ">
<polygon fill="#999999" stroke="#666666" points="639.12,-350.75 511.38,-350.75 511.38,-331.5 639.12,-331.5 639.12,-350.75"/>
<text text-anchor="middle" x="575.25" y="-337.25" font-family="Helvetica,sans-Serif" font-size="10.00">include/CollisionHandler.h</text>
</a>
</g>
</g>
<!-- Node2 -->
<g id="Node000002" class="node">
<title>Node2</title>
<g id="a_Node000002"><a xlink:href="ColliderComponent_8h_source.html" target="_top" xlink:title=" ">
<polygon fill="white" stroke="#666666" points="197.88,-185 92.62,-185 92.62,-165.75 197.88,-165.75 197.88,-185"/>
<text text-anchor="middle" x="145.25" y="-171.5" font-family="Helvetica,sans-Serif" font-size="10.00">ColliderComponent.h</text>
</a>
</g>
</g>
<!-- Node1&#45;&gt;Node2 -->
<g id="edge1_Node000001_Node000002" class="edge">
<title>Node1&#45;&gt;Node2</title>
<g id="a_edge1_Node000001_Node000002"><a xlink:title=" ">
<path fill="none" stroke="#63b8ff" d="M511.2,-339.08C420.34,-336.48 259.79,-327.36 212.25,-295.5 177.21,-272.02 158.52,-223.7 150.38,-196.37"/>
<polygon fill="#63b8ff" stroke="#63b8ff" points="153.8,-195.61 147.76,-186.91 147.06,-197.48 153.8,-195.61"/>
</a>
</g>
</g>
<!-- Node6 -->
<g id="Node000006" class="node">
<title>Node6</title>
<g id="a_Node000006"><a xlink:href="Vector2D_8h_source.html" target="_top" xlink:title=" ">
<polygon fill="white" stroke="#666666" points="157.25,-129.75 93.25,-129.75 93.25,-110.5 157.25,-110.5 157.25,-129.75"/>
<text text-anchor="middle" x="125.25" y="-116.25" font-family="Helvetica,sans-Serif" font-size="10.00">Vector2D.h</text>
</a>
</g>
</g>
<!-- Node1&#45;&gt;Node6 -->
<g id="edge47_Node000001_Node000006" class="edge">
<title>Node1&#45;&gt;Node6</title>
<g id="a_edge47_Node000001_Node000006"><a xlink:title=" ">
<path fill="none" stroke="#63b8ff" d="M510.95,-338.05C415.72,-334.08 242.47,-323.21 187.25,-295.5 126.97,-265.25 108.11,-247.69 83.25,-185 76.31,-167.49 89.97,-149.77 103.52,-137.44"/>
<polygon fill="#63b8ff" stroke="#63b8ff" points="105.62,-140.26 111.04,-131.16 101.12,-134.89 105.62,-140.26"/>
</a>
</g>
</g>
<!-- Node7 -->
<g id="Node000007" class="node">
<title>Node7</title>
<g id="a_Node000007"><a xlink:title=" ">
<polygon fill="#e0e0e0" stroke="#999999" points="92.5,-74.5 0,-74.5 0,-55.25 92.5,-55.25 92.5,-74.5"/>
<text text-anchor="middle" x="46.25" y="-61" font-family="Helvetica,sans-Serif" font-size="10.00">SDL3/SDL_rect.h</text>
</a>
</g>
</g>
<!-- Node1&#45;&gt;Node7 -->
<g id="edge45_Node000001_Node000007" class="edge">
<title>Node1&#45;&gt;Node7</title>
<g id="a_edge45_Node000001_Node000007"><a xlink:title=" ">
<path fill="none" stroke="#63b8ff" d="M510.93,-340.77C365.96,-340.51 26.25,-329.45 26.25,-231.62 26.25,-231.62 26.25,-231.62 26.25,-174.38 26.25,-142.99 34.44,-107.34 40.34,-85.73"/>
<polygon fill="#63b8ff" stroke="#63b8ff" points="43.67,-86.81 43.05,-76.23 36.94,-84.89 43.67,-86.81"/>
</a>
</g>
</g>
<!-- Node8 -->
<g id="Node000008" class="node">
<title>Node8</title>
<g id="a_Node000008"><a xlink:href="Constants_8h_source.html" target="_top" xlink:title=" ">
<polygon fill="white" stroke="#666666" points="394.12,-129.75 326.38,-129.75 326.38,-110.5 394.12,-110.5 394.12,-129.75"/>
<text text-anchor="middle" x="360.25" y="-116.25" font-family="Helvetica,sans-Serif" font-size="10.00">Constants.h</text>
</a>
</g>
</g>
<!-- Node1&#45;&gt;Node8 -->
<g id="edge8_Node000001_Node000008" class="edge">
<title>Node1&#45;&gt;Node8</title>
<g id="a_edge8_Node000001_Node000008"><a xlink:title=" ">
<path fill="none" stroke="#63b8ff" d="M524.58,-331.03C453.89,-315.29 328.39,-275.51 275.25,-185 261.88,-162.23 289.98,-144.97 317.38,-134.17"/>
<polygon fill="#63b8ff" stroke="#63b8ff" points="318.56,-137.46 326.74,-130.73 316.15,-130.89 318.56,-137.46"/>
</a>
</g>
</g>
<!-- Node10 -->
<g id="Node000010" class="node">
<title>Node10</title>
<g id="a_Node000010"><a xlink:href="Entity_8h_source.html" target="_top" xlink:title=" ">
<polygon fill="white" stroke="#666666" points="570,-240.25 522.5,-240.25 522.5,-221 570,-221 570,-240.25"/>
<text text-anchor="middle" x="546.25" y="-226.75" font-family="Helvetica,sans-Serif" font-size="10.00">Entity.h</text>
</a>
</g>
</g>
<!-- Node1&#45;&gt;Node10 -->
<g id="edge10_Node000001_Node000010" class="edge">
<title>Node1&#45;&gt;Node10</title>
<g id="a_edge10_Node000001_Node000010"><a xlink:title=" ">
<path fill="none" stroke="#63b8ff" d="M572.88,-331.25C568.25,-313.92 557.9,-275.23 551.56,-251.49"/>
<polygon fill="#63b8ff" stroke="#63b8ff" points="555.01,-250.85 549.05,-242.09 548.25,-252.65 555.01,-250.85"/>
</a>
</g>
</g>
<!-- Node13 -->
<g id="Node000013" class="node">
<title>Node13</title>
<g id="a_Node000013"><a xlink:title=" ">
<polygon fill="#e0e0e0" stroke="#999999" points="332.25,-185 292.25,-185 292.25,-165.75 332.25,-165.75 332.25,-185"/>
<text text-anchor="middle" x="312.25" y="-171.5" font-family="Helvetica,sans-Serif" font-size="10.00">bitset</text>
</a>
</g>
</g>
<!-- Node1&#45;&gt;Node13 -->
<g id="edge55_Node000001_Node000013" class="edge">
<title>Node1&#45;&gt;Node13</title>
<g id="a_edge55_Node000001_Node000013"><a xlink:title=" ">
<path fill="none" stroke="#63b8ff" d="M560.74,-331.09C517.63,-304.25 390.03,-224.8 336.41,-191.42"/>
<polygon fill="#63b8ff" stroke="#63b8ff" points="338.34,-188.5 328,-186.18 334.64,-194.44 338.34,-188.5"/>
</a>
</g>
</g>
<!-- Node14 -->
<g id="Node000014" class="node">
<title>Node14</title>
<g id="a_Node000014"><a xlink:title=" ">
<polygon fill="#e0e0e0" stroke="#999999" points="759.75,-185 716.75,-185 716.75,-165.75 759.75,-165.75 759.75,-185"/>
<text text-anchor="middle" x="738.25" y="-171.5" font-family="Helvetica,sans-Serif" font-size="10.00">vector</text>
</a>
</g>
</g>
<!-- Node1&#45;&gt;Node14 -->
<g id="edge59_Node000001_Node000014" class="edge">
<title>Node1&#45;&gt;Node14</title>
<g id="a_edge59_Node000001_Node000014"><a xlink:title=" ">
<path fill="none" stroke="#63b8ff" d="M594.05,-331.22C623.43,-316.39 680.17,-283.89 712.25,-240.25 722.02,-226.96 728.81,-209.46 732.99,-196.15"/>
<polygon fill="#63b8ff" stroke="#63b8ff" points="736.28,-197.36 735.69,-186.78 729.56,-195.42 736.28,-197.36"/>
</a>
</g>
</g>
<!-- Node23 -->
<g id="Node000023" class="node">
<title>Node23</title>
<g id="a_Node000023"><a xlink:href="SpriteComponent_8h_source.html" target="_top" xlink:title=" ">
<polygon fill="white" stroke="#666666" points="919.5,-185 821,-185 821,-165.75 919.5,-165.75 919.5,-185"/>
<text text-anchor="middle" x="870.25" y="-171.5" font-family="Helvetica,sans-Serif" font-size="10.00">SpriteComponent.h</text>
</a>
</g>
</g>
<!-- Node1&#45;&gt;Node23 -->
<g id="edge46_Node000001_Node000023" class="edge">
<title>Node1&#45;&gt;Node23</title>
<g id="a_edge46_Node000001_Node000023"><a xlink:title=" ">
<path fill="none" stroke="#63b8ff" d="M599.27,-331.03C620.66,-322.64 652.61,-309.42 679.25,-295.5 742.62,-262.39 812.96,-215.77 847.94,-191.85"/>
<polygon fill="#63b8ff" stroke="#63b8ff" points="849.72,-194.88 855.98,-186.33 845.76,-189.11 849.72,-194.88"/>
</a>
</g>
</g>
<!-- Node29 -->
<g id="Node000029" class="node">
<title>Node29</title>
<g id="a_Node000029"><a xlink:href="Manager_8h_source.html" target="_top" xlink:title=" ">
<polygon fill="white" stroke="#666666" points="635.75,-295.5 574.75,-295.5 574.75,-276.25 635.75,-276.25 635.75,-295.5"/>
<text text-anchor="middle" x="605.25" y="-282" font-family="Helvetica,sans-Serif" font-size="10.00">Manager.h</text>
</a>
</g>
</g>
<!-- Node1&#45;&gt;Node29 -->
<g id="edge48_Node000001_Node000029" class="edge">
<title>Node1&#45;&gt;Node29</title>
<g id="a_edge48_Node000001_Node000029"><a xlink:title=" ">
<path fill="none" stroke="#63b8ff" d="M580.2,-331.33C584.13,-324.36 589.76,-314.37 594.69,-305.62"/>
<polygon fill="#63b8ff" stroke="#63b8ff" points="597.59,-307.61 599.45,-297.18 591.49,-304.17 597.59,-307.61"/>
</a>
</g>
</g>
<!-- Node31 -->
<g id="Node000031" class="node">
<title>Node31</title>
<g id="a_Node000031"><a xlink:title=" ">
<polygon fill="#e0e0e0" stroke="#999999" points="903,-295.5 831.5,-295.5 831.5,-276.25 903,-276.25 903,-295.5"/>
<text text-anchor="middle" x="867.25" y="-282" font-family="Helvetica,sans-Serif" font-size="10.00">initializer_list</text>
</a>
</g>
</g>
<!-- Node1&#45;&gt;Node31 -->
<g id="edge56_Node000001_Node000031" class="edge">
<title>Node1&#45;&gt;Node31</title>
<g id="a_edge56_Node000001_Node000031"><a xlink:title=" ">
<path fill="none" stroke="#63b8ff" d="M625.11,-331.03C679.75,-321.07 766.7,-305.21 820.2,-295.46"/>
<polygon fill="#63b8ff" stroke="#63b8ff" points="820.71,-298.92 829.91,-293.68 819.45,-292.03 820.71,-298.92"/>
</a>
</g>
</g>
<!-- Node32 -->
<g id="Node000032" class="node">
<title>Node32</title>
<g id="a_Node000032"><a xlink:title=" ">
<polygon fill="#e0e0e0" stroke="#999999" points="957.75,-295.5 920.75,-295.5 920.75,-276.25 957.75,-276.25 957.75,-295.5"/>
<text text-anchor="middle" x="939.25" y="-282" font-family="Helvetica,sans-Serif" font-size="10.00">tuple</text>
</a>
</g>
</g>
<!-- Node1&#45;&gt;Node32 -->
<g id="edge57_Node000001_Node000032" class="edge">
<title>Node1&#45;&gt;Node32</title>
<g id="a_edge57_Node000001_Node000032"><a xlink:title=" ">
<path fill="none" stroke="#63b8ff" d="M639.51,-335.04C705.3,-329.06 810.57,-317.38 909.4,-295.81"/>
<polygon fill="#63b8ff" stroke="#63b8ff" points="910.01,-299.26 919.01,-293.67 908.49,-292.43 910.01,-299.26"/>
</a>
</g>
</g>
<!-- Node33 -->
<g id="Node000033" class="node">
<title>Node33</title>
<g id="a_Node000033"><a xlink:title=" ">
<polygon fill="#e0e0e0" stroke="#999999" points="1014.5,-295.5 976,-295.5 976,-276.25 1014.5,-276.25 1014.5,-295.5"/>
<text text-anchor="middle" x="995.25" y="-282" font-family="Helvetica,sans-Serif" font-size="10.00">utility</text>
</a>
</g>
</g>
<!-- Node1&#45;&gt;Node33 -->
<g id="edge58_Node000001_Node000033" class="edge">
<title>Node1&#45;&gt;Node33</title>
<g id="a_edge58_Node000001_Node000033"><a xlink:title=" ">
<path fill="none" stroke="#63b8ff" d="M639.31,-336.49C715.04,-331.38 844.94,-320.07 964.61,-295.7"/>
<polygon fill="#63b8ff" stroke="#63b8ff" points="965.23,-299.14 974.31,-293.68 963.8,-292.29 965.23,-299.14"/>
</a>
</g>
</g>
<!-- Node3 -->
<g id="Node000003" class="node">
<title>Node3</title>
<g id="a_Node000003"><a xlink:title=" ">
<polygon fill="#e0e0e0" stroke="#999999" points="220.62,-74.5 149.88,-74.5 149.88,-55.25 220.62,-55.25 220.62,-74.5"/>
<text text-anchor="middle" x="185.25" y="-61" font-family="Helvetica,sans-Serif" font-size="10.00">SDL3/SDL.h</text>
</a>
</g>
</g>
<!-- Node2&#45;&gt;Node3 -->
<g id="edge2_Node000002_Node000003" class="edge">
<title>Node2&#45;&gt;Node3</title>
<g id="a_edge2_Node000002_Node000003"><a xlink:title=" ">
<path fill="none" stroke="#63b8ff" d="M150.01,-165.32C154.56,-156.43 161.43,-142.39 166.25,-129.75 171.81,-115.17 176.79,-98.22 180.25,-85.45"/>
<polygon fill="#63b8ff" stroke="#63b8ff" points="183.54,-86.72 182.69,-76.16 176.77,-84.94 183.54,-86.72"/>
</a>
</g>
</g>
<!-- Node4 -->
<g id="Node000004" class="node">
<title>Node4</title>
<g id="a_Node000004"><a xlink:href="Component_8h_source.html" target="_top" xlink:title=" ">
<polygon fill="white" stroke="#666666" points="574.75,-74.5 501.75,-74.5 501.75,-55.25 574.75,-55.25 574.75,-74.5"/>
<text text-anchor="middle" x="538.25" y="-61" font-family="Helvetica,sans-Serif" font-size="10.00">Component.h</text>
</a>
</g>
</g>
<!-- Node2&#45;&gt;Node4 -->
<g id="edge3_Node000002_Node000004" class="edge">
<title>Node2&#45;&gt;Node4</title>
<g id="a_edge3_Node000002_Node000004"><a xlink:title=" ">
<path fill="none" stroke="#63b8ff" d="M166.34,-165.32C198.43,-151.82 261.65,-126.33 317.25,-110.5 375.95,-93.78 445.13,-80.88 490.25,-73.34"/>
<polygon fill="#63b8ff" stroke="#63b8ff" points="490.67,-76.82 499.97,-71.74 489.53,-69.91 490.67,-76.82"/>
</a>
</g>
</g>
<!-- Node2&#45;&gt;Node6 -->
<g id="edge5_Node000002_Node000006" class="edge">
<title>Node2&#45;&gt;Node6</title>
<g id="a_edge5_Node000002_Node000006"><a xlink:title=" ">
<path fill="none" stroke="#63b8ff" d="M141.95,-165.58C139.42,-158.84 135.82,-149.27 132.62,-140.74"/>
<polygon fill="#63b8ff" stroke="#63b8ff" points="135.95,-139.66 129.16,-131.53 129.4,-142.12 135.95,-139.66"/>
</a>
</g>
</g>
<!-- Node5 -->
<g id="Node000005" class="node">
<title>Node5</title>
<g id="a_Node000005"><a xlink:title=" ">
<polygon fill="#e0e0e0" stroke="#999999" points="764.88,-19.25 719.62,-19.25 719.62,0 764.88,0 764.88,-19.25"/>
<text text-anchor="middle" x="742.25" y="-5.75" font-family="Helvetica,sans-Serif" font-size="10.00">cstdint</text>
</a>
</g>
</g>
<!-- Node4&#45;&gt;Node5 -->
<g id="edge4_Node000004_Node000005" class="edge">
<title>Node4&#45;&gt;Node5</title>
<g id="a_edge4_Node000004_Node000005"><a xlink:title=" ">
<path fill="none" stroke="#63b8ff" d="M572.86,-54.84C610.66,-44.97 670.83,-29.27 708.36,-19.47"/>
<polygon fill="#63b8ff" stroke="#63b8ff" points="708.97,-22.93 717.76,-17.02 707.2,-16.16 708.97,-22.93"/>
</a>
</g>
</g>
<!-- Node6&#45;&gt;Node3 -->
<g id="edge6_Node000006_Node000003" class="edge">
<title>Node6&#45;&gt;Node3</title>
<g id="a_edge6_Node000006_Node000003"><a xlink:title=" ">
<path fill="none" stroke="#63b8ff" d="M135.43,-110.09C144.01,-102.47 156.52,-91.37 166.85,-82.2"/>
<polygon fill="#63b8ff" stroke="#63b8ff" points="168.93,-85.04 174.09,-75.78 164.29,-79.8 168.93,-85.04"/>
</a>
</g>
</g>
<!-- Node6&#45;&gt;Node7 -->
<g id="edge7_Node000006_Node000007" class="edge">
<title>Node6&#45;&gt;Node7</title>
<g id="a_edge7_Node000006_Node000007"><a xlink:title=" ">
<path fill="none" stroke="#63b8ff" d="M111.85,-110.09C100.16,-102.21 82.95,-90.61 69.09,-81.27"/>
<polygon fill="#63b8ff" stroke="#63b8ff" points="71.22,-78.49 60.97,-75.8 67.31,-84.29 71.22,-78.49"/>
</a>
</g>
</g>
<!-- Node9 -->
<g id="Node000009" class="node">
<title>Node9</title>
<g id="a_Node000009"><a xlink:title=" ">
<polygon fill="#e0e0e0" stroke="#999999" points="384.38,-74.5 336.12,-74.5 336.12,-55.25 384.38,-55.25 384.38,-74.5"/>
<text text-anchor="middle" x="360.25" y="-61" font-family="Helvetica,sans-Serif" font-size="10.00">cstddef</text>
</a>
</g>
</g>
<!-- Node8&#45;&gt;Node9 -->
<g id="edge9_Node000008_Node000009" class="edge">
<title>Node8&#45;&gt;Node9</title>
<g id="a_edge9_Node000008_Node000009"><a xlink:title=" ">
<path fill="none" stroke="#63b8ff" d="M360.25,-110.33C360.25,-103.82 360.25,-94.67 360.25,-86.37"/>
<polygon fill="#63b8ff" stroke="#63b8ff" points="363.75,-86.37 360.25,-76.37 356.75,-86.37 363.75,-86.37"/>
</a>
</g>
</g>
<!-- Node10&#45;&gt;Node2 -->
<g id="edge15_Node000010_Node000002" class="edge">
<title>Node10&#45;&gt;Node2</title>
<g id="a_edge15_Node000010_Node000002"><a xlink:title=" ">
<path fill="none" stroke="#63b8ff" d="M522.07,-226.41C461.17,-218.33 299.92,-196.91 209.33,-184.88"/>
<polygon fill="#63b8ff" stroke="#63b8ff" points="209.99,-181.44 199.61,-183.59 209.06,-188.38 209.99,-181.44"/>
</a>
</g>
</g>
<!-- Node10&#45;&gt;Node8 -->
<g id="edge19_Node000010_Node000008" class="edge">
<title>Node10&#45;&gt;Node8</title>
<g id="a_edge19_Node000010_Node000008"><a xlink:title=" ">
<path fill="none" stroke="#63b8ff" d="M522.27,-230.14C486.3,-229.57 418.41,-223.08 379.25,-185 367.56,-173.64 362.99,-155.44 361.23,-141.37"/>
<polygon fill="#63b8ff" stroke="#63b8ff" points="364.72,-141.11 360.42,-131.43 357.75,-141.68 364.72,-141.11"/>
</a>
</g>
</g>
<!-- Node11 -->
<g id="Node000011" class="node">
<title>Node11</title>
<g id="a_Node000011"><a xlink:title=" ">
<polygon fill="#e0e0e0" stroke="#999999" points="698.75,-185 661.75,-185 661.75,-165.75 698.75,-165.75 698.75,-185"/>
<text text-anchor="middle" x="680.25" y="-171.5" font-family="Helvetica,sans-Serif" font-size="10.00">array</text>
</a>
</g>
</g>
<!-- Node10&#45;&gt;Node11 -->
<g id="edge11_Node000010_Node000011" class="edge">
<title>Node10&#45;&gt;Node11</title>
<g id="a_edge11_Node000010_Node000011"><a xlink:title=" ">
<path fill="none" stroke="#63b8ff" d="M568.98,-220.59C591.52,-211.64 626.14,-197.88 650.78,-188.09"/>
<polygon fill="#63b8ff" stroke="#63b8ff" points="651.91,-191.4 659.91,-184.46 649.32,-184.9 651.91,-191.4"/>
</a>
</g>
</g>
<!-- Node12 -->
<g id="Node000012" class="node">
<title>Node12</title>
<g id="a_Node000012"><a xlink:title=" ">
<polygon fill="#e0e0e0" stroke="#999999" points="654.5,-129.75 604,-129.75 604,-110.5 654.5,-110.5 654.5,-129.75"/>
<text text-anchor="middle" x="629.25" y="-116.25" font-family="Helvetica,sans-Serif" font-size="10.00">memory</text>
</a>
</g>
</g>
<!-- Node10&#45;&gt;Node12 -->
<g id="edge12_Node000010_Node000012" class="edge">
<title>Node10&#45;&gt;Node12</title>
<g id="a_edge12_Node000010_Node000012"><a xlink:title=" ">
<path fill="none" stroke="#63b8ff" d="M556.65,-220.71C566.29,-212.14 580.68,-198.53 591.25,-185 602.31,-170.84 612.58,-153.19 619.65,-140.04"/>
<polygon fill="#63b8ff" stroke="#63b8ff" points="622.75,-141.66 624.27,-131.17 616.54,-138.42 622.75,-141.66"/>
</a>
</g>
</g>
<!-- Node10&#45;&gt;Node13 -->
<g id="edge13_Node000010_Node000013" class="edge">
<title>Node10&#45;&gt;Node13</title>
<g id="a_edge13_Node000010_Node000013"><a xlink:title=" ">
<path fill="none" stroke="#63b8ff" d="M522.19,-224.49C484.57,-216.41 409.58,-200.09 346.25,-185 345.43,-184.8 344.6,-184.6 343.76,-184.4"/>
<polygon fill="#63b8ff" stroke="#63b8ff" points="344.74,-181.04 334.19,-182.03 343.06,-187.83 344.74,-181.04"/>
</a>
</g>
</g>
<!-- Node10&#45;&gt;Node14 -->
<g id="edge14_Node000010_Node000014" class="edge">
<title>Node10&#45;&gt;Node14</title>
<g id="a_edge14_Node000010_Node000014"><a xlink:title=" ">
<path fill="none" stroke="#63b8ff" d="M570.43,-223.06C600.07,-214.98 652.11,-200.74 705.3,-185.81"/>
<polygon fill="#63b8ff" stroke="#63b8ff" points="706.17,-189.2 714.85,-183.13 704.27,-182.46 706.17,-189.2"/>
</a>
</g>
</g>
<!-- Node15 -->
<g id="Node000015" class="node">
<title>Node15</title>
<g id="a_Node000015"><a xlink:href="ECS_8h_source.html" target="_top" xlink:title=" ">
<polygon fill="white" stroke="#666666" points="566.75,-185 523.75,-185 523.75,-165.75 566.75,-165.75 566.75,-185"/>
<text text-anchor="middle" x="545.25" y="-171.5" font-family="Helvetica,sans-Serif" font-size="10.00">ECS.h</text>
</a>
</g>
</g>
<!-- Node10&#45;&gt;Node15 -->
<g id="edge16_Node000010_Node000015" class="edge">
<title>Node10&#45;&gt;Node15</title>
<g id="a_edge16_Node000010_Node000015"><a xlink:title=" ">
<path fill="none" stroke="#63b8ff" d="M546.08,-220.83C545.96,-214.32 545.79,-205.17 545.63,-196.87"/>
<polygon fill="#63b8ff" stroke="#63b8ff" points="549.13,-196.8 545.45,-186.87 542.14,-196.94 549.13,-196.8"/>
</a>
</g>
</g>
<!-- Node16 -->
<g id="Node000016" class="node">
<title>Node16</title>
<g id="a_Node000016"><a xlink:href="InputComponent_8h_source.html" target="_top" xlink:title=" ">
<polygon fill="white" stroke="#666666" points="585.62,-129.75 490.88,-129.75 490.88,-110.5 585.62,-110.5 585.62,-129.75"/>
<text text-anchor="middle" x="538.25" y="-116.25" font-family="Helvetica,sans-Serif" font-size="10.00">InputComponent.h</text>
</a>
</g>
</g>
<!-- Node10&#45;&gt;Node16 -->
<g id="edge20_Node000010_Node000016" class="edge">
<title>Node10&#45;&gt;Node16</title>
<g id="a_edge20_Node000010_Node000016"><a xlink:title=" ">
<path fill="none" stroke="#63b8ff" d="M555.39,-220.74C566.73,-208.59 583.7,-185.99 576.25,-165.75 572.41,-155.32 564.93,-145.66 557.61,-138.02"/>
<polygon fill="#63b8ff" stroke="#63b8ff" points="560.05,-135.51 550.41,-131.1 555.19,-140.55 560.05,-135.51"/>
</a>
</g>
</g>
<!-- Node18 -->
<g id="Node000018" class="node">
<title>Node18</title>
<g id="a_Node000018"><a xlink:href="TransformComponent_8h_source.html" target="_top" xlink:title=" ">
<polygon fill="white" stroke="#666666" points="505.88,-185 388.62,-185 388.62,-165.75 505.88,-165.75 505.88,-185"/>
<text text-anchor="middle" x="447.25" y="-171.5" font-family="Helvetica,sans-Serif" font-size="10.00">TransformComponent.h</text>
</a>
</g>
</g>
<!-- Node10&#45;&gt;Node18 -->
<g id="edge24_Node000010_Node000018" class="edge">
<title>Node10&#45;&gt;Node18</title>
<g id="a_edge24_Node000010_Node000018"><a xlink:title=" ">
<path fill="none" stroke="#63b8ff" d="M529.46,-220.59C514.24,-212.41 491.55,-200.21 473.87,-190.69"/>
<polygon fill="#63b8ff" stroke="#63b8ff" points="475.92,-187.82 465.46,-186.17 472.61,-193.99 475.92,-187.82"/>
</a>
</g>
</g>
<!-- Node10&#45;&gt;Node23 -->
<g id="edge34_Node000010_Node000023" class="edge">
<title>Node10&#45;&gt;Node23</title>
<g id="a_edge34_Node000010_Node000023"><a xlink:title=" ">
<path fill="none" stroke="#63b8ff" d="M570.34,-225.67C620.45,-217.43 737.27,-198.23 809.43,-186.37"/>
<polygon fill="#63b8ff" stroke="#63b8ff" points="809.81,-189.86 819.11,-184.78 808.68,-182.95 809.81,-189.86"/>
</a>
</g>
</g>
<!-- Node15&#45;&gt;Node4 -->
<g id="edge17_Node000015_Node000004" class="edge">
<title>Node15&#45;&gt;Node4</title>
<g id="a_edge17_Node000015_Node000004"><a xlink:title=" ">
<path fill="none" stroke="#63b8ff" d="M523.48,-165.46C508.9,-158.2 490.87,-146.42 482.25,-129.75 472.43,-110.76 491.68,-92.8 510.24,-80.79"/>
<polygon fill="#63b8ff" stroke="#63b8ff" points="511.93,-83.85 518.7,-75.7 508.33,-77.85 511.93,-83.85"/>
</a>
</g>
</g>
<!-- Node15&#45;&gt;Node8 -->
<g id="edge18_Node000015_Node000008" class="edge">
<title>Node15&#45;&gt;Node8</title>
<g id="a_edge18_Node000015_Node000008"><a xlink:title=" ">
<path fill="none" stroke="#63b8ff" d="M523.3,-168.06C493.6,-159.51 439.99,-144.08 402.38,-133.25"/>
<polygon fill="#63b8ff" stroke="#63b8ff" points="403.77,-130.01 393.2,-130.61 401.84,-136.74 403.77,-130.01"/>
</a>
</g>
</g>
<!-- Node16&#45;&gt;Node3 -->
<g id="edge21_Node000016_Node000003" class="edge">
<title>Node16&#45;&gt;Node3</title>
<g id="a_edge21_Node000016_Node000003"><a xlink:title=" ">
<path fill="none" stroke="#63b8ff" d="M490.64,-111.94C422.86,-101.72 299.32,-83.08 232.01,-72.93"/>
<polygon fill="#63b8ff" stroke="#63b8ff" points="232.82,-69.51 222.41,-71.48 231.78,-76.43 232.82,-69.51"/>
</a>
</g>
</g>
<!-- Node16&#45;&gt;Node4 -->
<g id="edge23_Node000016_Node000004" class="edge">
<title>Node16&#45;&gt;Node4</title>
<g id="a_edge23_Node000016_Node000004"><a xlink:title=" ">
<path fill="none" stroke="#63b8ff" d="M538.25,-110.33C538.25,-103.82 538.25,-94.67 538.25,-86.37"/>
<polygon fill="#63b8ff" stroke="#63b8ff" points="541.75,-86.37 538.25,-76.37 534.75,-86.37 541.75,-86.37"/>
</a>
</g>
</g>
<!-- Node17 -->
<g id="Node000017" class="node">
<title>Node17</title>
<g id="a_Node000017"><a xlink:title=" ">
<polygon fill="#e0e0e0" stroke="#999999" points="703.62,-74.5 668.88,-74.5 668.88,-55.25 703.62,-55.25 703.62,-74.5"/>
<text text-anchor="middle" x="686.25" y="-61" font-family="Helvetica,sans-Serif" font-size="10.00">map</text>
</a>
</g>
</g>
<!-- Node16&#45;&gt;Node17 -->
<g id="edge22_Node000016_Node000017" class="edge">
<title>Node16&#45;&gt;Node17</title>
<g id="a_edge22_Node000016_Node000017"><a xlink:title=" ">
<path fill="none" stroke="#63b8ff" d="M563.36,-110.09C589.48,-100.69 630.32,-86 657.66,-76.16"/>
<polygon fill="#63b8ff" stroke="#63b8ff" points="658.82,-79.46 667.05,-72.78 656.46,-72.88 658.82,-79.46"/>
</a>
</g>
</g>
<!-- Node18&#45;&gt;Node4 -->
<g id="edge25_Node000018_Node000004" class="edge">
<title>Node18&#45;&gt;Node4</title>
<g id="a_edge25_Node000018_Node000004"><a xlink:title=" ">
<path fill="none" stroke="#63b8ff" d="M449.55,-165.3C453.23,-152.11 461.48,-127.39 475.25,-110.5 484.97,-98.57 498.65,-88.36 510.78,-80.73"/>
<polygon fill="#63b8ff" stroke="#63b8ff" points="512.38,-83.85 519.18,-75.72 508.8,-77.84 512.38,-83.85"/>
</a>
</g>
</g>
<!-- Node18&#45;&gt;Node6 -->
<g id="edge26_Node000018_Node000006" class="edge">
<title>Node18&#45;&gt;Node6</title>
<g id="a_edge26_Node000018_Node000006"><a xlink:title=" ">
<path fill="none" stroke="#63b8ff" d="M392.26,-165.28C329.08,-154.83 226.68,-137.9 168.77,-128.32"/>
<polygon fill="#63b8ff" stroke="#63b8ff" points="169.39,-124.88 158.96,-126.7 168.25,-131.78 169.39,-124.88"/>
</a>
</g>
</g>
<!-- Node18&#45;&gt;Node8 -->
<g id="edge27_Node000018_Node000008" class="edge">
<title>Node18&#45;&gt;Node8</title>
<g id="a_edge27_Node000018_Node000008"><a xlink:title=" ">
<path fill="none" stroke="#63b8ff" d="M432.49,-165.34C419.37,-157.31 399.93,-145.41 384.52,-135.98"/>
<polygon fill="#63b8ff" stroke="#63b8ff" points="386.73,-133.23 376.37,-130.99 383.07,-139.2 386.73,-133.23"/>
</a>
</g>
</g>
<!-- Node19 -->
<g id="Node000019" class="node">
<title>Node19</title>
<g id="a_Node000019"><a xlink:href="DataComponent_8h_source.html" target="_top" xlink:title=" ">
<polygon fill="white" stroke="#666666" points="841.88,-129.75 748.62,-129.75 748.62,-110.5 841.88,-110.5 841.88,-129.75"/>
<text text-anchor="middle" x="795.25" y="-116.25" font-family="Helvetica,sans-Serif" font-size="10.00">DataComponent.h</text>
</a>
</g>
</g>
<!-- Node18&#45;&gt;Node19 -->
<g id="edge28_Node000018_Node000019" class="edge">
<title>Node18&#45;&gt;Node19</title>
<g id="a_edge28_Node000018_Node000019"><a xlink:title=" ">
<path fill="none" stroke="#63b8ff" d="M506.28,-165.34C570.68,-155.49 673.09,-139.82 737.12,-130.02"/>
<polygon fill="#63b8ff" stroke="#63b8ff" points="737.38,-133.52 746.73,-128.55 736.32,-126.6 737.38,-133.52"/>
</a>
</g>
</g>
<!-- Node19&#45;&gt;Node4 -->
<g id="edge33_Node000019_Node000004" class="edge">
<title>Node19&#45;&gt;Node4</title>
<g id="a_edge33_Node000019_Node000004"><a xlink:title=" ">
<path fill="none" stroke="#63b8ff" d="M751.36,-110.03C705.4,-100.51 633.45,-85.6 586.07,-75.78"/>
<polygon fill="#63b8ff" stroke="#63b8ff" points="586.87,-72.37 576.37,-73.77 585.45,-79.23 586.87,-72.37"/>
</a>
</g>
</g>
<!-- Node19&#45;&gt;Node17 -->
<g id="edge29_Node000019_Node000017" class="edge">
<title>Node19&#45;&gt;Node17</title>
<g id="a_edge29_Node000019_Node000017"><a xlink:title=" ">
<path fill="none" stroke="#63b8ff" d="M776.76,-110.09C759.64,-101.73 733.95,-89.18 714.3,-79.58"/>
<polygon fill="#63b8ff" stroke="#63b8ff" points="715.99,-76.51 705.47,-75.26 712.91,-82.8 715.99,-76.51"/>
</a>
</g>
</g>
<!-- Node20 -->
<g id="Node000020" class="node">
<title>Node20</title>
<g id="a_Node000020"><a xlink:title=" ">
<polygon fill="#e0e0e0" stroke="#999999" points="752.75,-74.5 721.75,-74.5 721.75,-55.25 752.75,-55.25 752.75,-74.5"/>
<text text-anchor="middle" x="737.25" y="-61" font-family="Helvetica,sans-Serif" font-size="10.00">any</text>
</a>
</g>
</g>
<!-- Node19&#45;&gt;Node20 -->
<g id="edge30_Node000019_Node000020" class="edge">
<title>Node19&#45;&gt;Node20</title>
<g id="a_edge30_Node000019_Node000020"><a xlink:title=" ">
<path fill="none" stroke="#63b8ff" d="M785.41,-110.09C777.2,-102.55 765.27,-91.6 755.34,-82.48"/>
<polygon fill="#63b8ff" stroke="#63b8ff" points="757.79,-79.98 748.06,-75.8 753.06,-85.14 757.79,-79.98"/>
</a>
</g>
</g>
<!-- Node21 -->
<g id="Node000021" class="node">
<title>Node21</title>
<g id="a_Node000021"><a xlink:title=" ">
<polygon fill="#e0e0e0" stroke="#999999" points="878.25,-74.5 838.25,-74.5 838.25,-55.25 878.25,-55.25 878.25,-74.5"/>
<text text-anchor="middle" x="858.25" y="-61" font-family="Helvetica,sans-Serif" font-size="10.00">string</text>
</a>
</g>
</g>
<!-- Node19&#45;&gt;Node21 -->
<g id="edge31_Node000019_Node000021" class="edge">
<title>Node19&#45;&gt;Node21</title>
<g id="a_edge31_Node000019_Node000021"><a xlink:title=" ">
<path fill="none" stroke="#63b8ff" d="M805.94,-110.09C814.95,-102.47 828.08,-91.37 838.93,-82.2"/>
<polygon fill="#63b8ff" stroke="#63b8ff" points="841.19,-84.88 846.56,-75.75 836.67,-79.53 841.19,-84.88"/>
</a>
</g>
</g>
<!-- Node22 -->
<g id="Node000022" class="node">
<title>Node22</title>
<g id="a_Node000022"><a xlink:title=" ">
<polygon fill="#e0e0e0" stroke="#999999" points="820.12,-74.5 770.38,-74.5 770.38,-55.25 820.12,-55.25 820.12,-74.5"/>
<text text-anchor="middle" x="795.25" y="-61" font-family="Helvetica,sans-Serif" font-size="10.00">optional</text>
</a>
</g>
</g>
<!-- Node19&#45;&gt;Node22 -->
<g id="edge32_Node000019_Node000022" class="edge">
<title>Node19&#45;&gt;Node22</title>
<g id="a_edge32_Node000019_Node000022"><a xlink:title=" ">
<path fill="none" stroke="#63b8ff" d="M795.25,-110.33C795.25,-103.82 795.25,-94.67 795.25,-86.37"/>
<polygon fill="#63b8ff" stroke="#63b8ff" points="798.75,-86.37 795.25,-76.37 791.75,-86.37 798.75,-86.37"/>
</a>
</g>
</g>
<!-- Node23&#45;&gt;Node4 -->
<g id="edge42_Node000023_Node000004" class="edge">
<title>Node23&#45;&gt;Node4</title>
<g id="a_edge42_Node000023_Node000004"><a xlink:title=" ">
<path fill="none" stroke="#63b8ff" d="M835.86,-165.26C804.3,-156.71 756.35,-143.25 715.25,-129.75 691.84,-122.06 686.41,-118.92 663.25,-110.5 633.39,-99.64 599.43,-87.54 574.46,-78.67"/>
<polygon fill="#63b8ff" stroke="#63b8ff" points="575.68,-75.4 565.08,-75.35 573.34,-81.99 575.68,-75.4"/>
</a>
</g>
</g>
<!-- Node23&#45;&gt;Node12 -->
<g id="edge37_Node000023_Node000012" class="edge">
<title>Node23&#45;&gt;Node12</title>
<g id="a_edge37_Node000023_Node000012"><a xlink:title=" ">
<path fill="none" stroke="#63b8ff" d="M829.24,-165.32C788.43,-156.3 724.01,-142.07 668.25,-129.75 667.44,-129.57 666.62,-129.39 665.79,-129.21"/>
<polygon fill="#63b8ff" stroke="#63b8ff" points="666.84,-125.85 656.32,-127.11 665.33,-132.69 666.84,-125.85"/>
</a>
</g>
</g>
<!-- Node23&#45;&gt;Node17 -->
<g id="edge35_Node000023_Node000017" class="edge">
<title>Node23&#45;&gt;Node17</title>
<g id="a_edge35_Node000023_Node000017"><a xlink:title=" ">
<path fill="none" stroke="#63b8ff" d="M824.36,-165.31C797.84,-158.53 764.77,-147.33 739.25,-129.75 721.85,-117.76 707,-98.55 697.48,-84.33"/>
<polygon fill="#63b8ff" stroke="#63b8ff" points="700.43,-82.45 692.1,-75.9 694.53,-86.21 700.43,-82.45"/>
</a>
</g>
</g>
<!-- Node23&#45;&gt;Node21 -->
<g id="edge38_Node000023_Node000021" class="edge">
<title>Node23&#45;&gt;Node21</title>
<g id="a_edge38_Node000023_Node000021"><a xlink:title=" ">
<path fill="none" stroke="#63b8ff" d="M869.27,-165.5C867.36,-148.25 863.11,-109.83 860.48,-86.06"/>
<polygon fill="#63b8ff" stroke="#63b8ff" points="863.99,-85.94 859.41,-76.38 857.03,-86.71 863.99,-85.94"/>
</a>
</g>
</g>
<!-- Node24 -->
<g id="Node000024" class="node">
<title>Node24</title>
<g id="a_Node000024"><a xlink:title=" ">
<polygon fill="#e0e0e0" stroke="#999999" points="1039.75,-129.75 936.75,-129.75 936.75,-110.5 1039.75,-110.5 1039.75,-129.75"/>
<text text-anchor="middle" x="988.25" y="-116.25" font-family="Helvetica,sans-Serif" font-size="10.00">SDL3/SDL_render.h</text>
</a>
</g>
</g>
<!-- Node23&#45;&gt;Node24 -->
<g id="edge36_Node000023_Node000024" class="edge">
<title>Node23&#45;&gt;Node24</title>
<g id="a_edge36_Node000023_Node000024"><a xlink:title=" ">
<path fill="none" stroke="#63b8ff" d="M890.27,-165.34C908.74,-157 936.46,-144.5 957.7,-134.91"/>
<polygon fill="#63b8ff" stroke="#63b8ff" points="959.08,-138.13 966.76,-130.83 956.2,-131.75 959.08,-138.13"/>
</a>
</g>
</g>
<!-- Node25 -->
<g id="Node000025" class="node">
<title>Node25</title>
<g id="a_Node000025"><a xlink:href="Textures_8h_source.html" target="_top" xlink:title=" ">
<polygon fill="white" stroke="#666666" points="1118.75,-129.75 1057.75,-129.75 1057.75,-110.5 1118.75,-110.5 1118.75,-129.75"/>
<text text-anchor="middle" x="1088.25" y="-116.25" font-family="Helvetica,sans-Serif" font-size="10.00">Textures.h</text>
</a>
</g>
</g>
<!-- Node23&#45;&gt;Node25 -->
<g id="edge39_Node000023_Node000025" class="edge">
<title>Node23&#45;&gt;Node25</title>
<g id="a_edge39_Node000023_Node000025"><a xlink:title=" ">
<path fill="none" stroke="#63b8ff" d="M907.23,-165.34C945.79,-155.92 1006.11,-141.19 1046.39,-131.35"/>
<polygon fill="#63b8ff" stroke="#63b8ff" points="1047.09,-134.78 1055.97,-129.01 1045.43,-127.98 1047.09,-134.78"/>
</a>
</g>
</g>
<!-- Node26 -->
<g id="Node000026" class="node">
<title>Node26</title>
<g id="a_Node000026"><a xlink:href="AnimationHandler_8h_source.html" target="_top" xlink:title=" ">
<polygon fill="white" stroke="#666666" points="996.62,-74.5 895.88,-74.5 895.88,-55.25 996.62,-55.25 996.62,-74.5"/>
<text text-anchor="middle" x="946.25" y="-61" font-family="Helvetica,sans-Serif" font-size="10.00">AnimationHandler.h</text>
</a>
</g>
</g>
<!-- Node23&#45;&gt;Node26 -->
<g id="edge40_Node000023_Node000026" class="edge">
<title>Node23&#45;&gt;Node26</title>
<g id="a_edge40_Node000023_Node000026"><a xlink:title=" ">
<path fill="none" stroke="#63b8ff" d="M876.47,-165.5C888.88,-147.77 916.96,-107.69 933.46,-84.13"/>
<polygon fill="#63b8ff" stroke="#63b8ff" points="936.21,-86.31 939.08,-76.12 930.47,-82.3 936.21,-86.31"/>
</a>
</g>
</g>
<!-- Node27 -->
<g id="Node000027" class="node">
<title>Node27</title>
<g id="a_Node000027"><a xlink:href="Direction_8h_source.html" target="_top" xlink:title=" ">
<polygon fill="white" stroke="#666666" points="1198.12,-129.75 1136.38,-129.75 1136.38,-110.5 1198.12,-110.5 1198.12,-129.75"/>
<text text-anchor="middle" x="1167.25" y="-116.25" font-family="Helvetica,sans-Serif" font-size="10.00">Direction.h</text>
</a>
</g>
</g>
<!-- Node23&#45;&gt;Node27 -->
<g id="edge43_Node000023_Node000027" class="edge">
<title>Node23&#45;&gt;Node27</title>
<g id="a_edge43_Node000023_Node000027"><a xlink:title=" ">
<path fill="none" stroke="#63b8ff" d="M919.84,-166.5C969.54,-158.45 1048.5,-145.23 1125.37,-130.25"/>
<polygon fill="#63b8ff" stroke="#63b8ff" points="1125.57,-133.78 1134.71,-128.42 1124.23,-126.91 1125.57,-133.78"/>
</a>
</g>
</g>
<!-- Node28 -->
<g id="Node000028" class="node">
<title>Node28</title>
<g id="a_Node000028"><a xlink:href="RenderObject_8h_source.html" target="_top" xlink:title=" ">
<polygon fill="white" stroke="#666666" points="1298.62,-129.75 1215.88,-129.75 1215.88,-110.5 1298.62,-110.5 1298.62,-129.75"/>
<text text-anchor="middle" x="1257.25" y="-116.25" font-family="Helvetica,sans-Serif" font-size="10.00">RenderObject.h</text>
</a>
</g>
</g>
<!-- Node23&#45;&gt;Node28 -->
<g id="edge44_Node000023_Node000028" class="edge">
<title>Node23&#45;&gt;Node28</title>
<g id="a_edge44_Node000023_Node000028"><a xlink:title=" ">
<path fill="none" stroke="#63b8ff" d="M919.73,-168.44C983.25,-160.68 1097.17,-146.31 1204.19,-130.17"/>
<polygon fill="#63b8ff" stroke="#63b8ff" points="1204.67,-133.64 1214.03,-128.67 1203.62,-126.72 1204.67,-133.64"/>
</a>
</g>
</g>
<!-- Node26&#45;&gt;Node5 -->
<g id="edge41_Node000026_Node000005" class="edge">
<title>Node26&#45;&gt;Node5</title>
<g id="a_edge41_Node000026_Node000005"><a xlink:title=" ">
<path fill="none" stroke="#63b8ff" d="M911.64,-54.84C873.84,-44.97 813.67,-29.27 776.14,-19.47"/>
<polygon fill="#63b8ff" stroke="#63b8ff" points="777.3,-16.16 766.74,-17.02 775.53,-22.93 777.3,-16.16"/>
</a>
</g>
</g>
<!-- Node29&#45;&gt;Node8 -->
<g id="edge53_Node000029_Node000008" class="edge">
<title>Node29&#45;&gt;Node8</title>
<g id="a_edge53_Node000029_Node000008"><a xlink:title=" ">
<path fill="none" stroke="#63b8ff" d="M574.36,-280C500.76,-267.69 318.53,-232.89 283.25,-185 267.92,-164.2 296.41,-146.01 322.96,-134.41"/>
<polygon fill="#63b8ff" stroke="#63b8ff" points="324.01,-137.77 331.93,-130.73 321.35,-131.29 324.01,-137.77"/>
</a>
</g>
</g>
<!-- Node29&#45;&gt;Node10 -->
<g id="edge54_Node000029_Node000010" class="edge">
<title>Node29&#45;&gt;Node10</title>
<g id="a_edge54_Node000029_Node000010"><a xlink:title=" ">
<path fill="none" stroke="#63b8ff" d="M595.24,-275.84C586.88,-268.3 574.75,-257.35 564.65,-248.23"/>
<polygon fill="#63b8ff" stroke="#63b8ff" points="567,-245.64 557.23,-241.54 562.31,-250.84 567,-245.64"/>
</a>
</g>
</g>
<!-- Node29&#45;&gt;Node11 -->
<g id="edge50_Node000029_Node000011" class="edge">
<title>Node29&#45;&gt;Node11</title>
<g id="a_edge50_Node000029_Node000011"><a xlink:title=" ">
<path fill="none" stroke="#63b8ff" d="M604.9,-275.85C604.81,-262.73 606.29,-238.1 617.25,-221 625.56,-208.04 639.09,-197.73 651.49,-190.3"/>
<polygon fill="#63b8ff" stroke="#63b8ff" points="653.13,-193.39 660.17,-185.47 649.73,-187.27 653.13,-193.39"/>
</a>
</g>
</g>
<!-- Node29&#45;&gt;Node12 -->
<g id="edge51_Node000029_Node000012" class="edge">
<title>Node29&#45;&gt;Node12</title>
<g id="a_edge51_Node000029_Node000012"><a xlink:title=" ">
<path fill="none" stroke="#63b8ff" d="M636.24,-277.64C677.05,-266.13 746.31,-239.18 769.25,-185 772.59,-177.12 774.3,-172.66 769.25,-165.75 767.65,-163.57 706.76,-144.7 665.81,-132.21"/>
<polygon fill="#63b8ff" stroke="#63b8ff" points="666.89,-128.88 656.31,-129.31 664.85,-135.57 666.89,-128.88"/>
</a>
</g>
</g>
<!-- Node29&#45;&gt;Node14 -->
<g id="edge52_Node000029_Node000014" class="edge">
<title>Node29&#45;&gt;Node14</title>
<g id="a_edge52_Node000029_Node000014"><a xlink:title=" ">
<path fill="none" stroke="#63b8ff" d="M628.26,-275.87C646.11,-268.15 670.85,-255.83 689.25,-240.25 704.72,-227.15 718.39,-208.4 727.33,-194.59"/>
<polygon fill="#63b8ff" stroke="#63b8ff" points="730.08,-196.8 732.4,-186.47 724.14,-193.1 730.08,-196.8"/>
</a>
</g>
</g>
<!-- Node30 -->
<g id="Node000030" class="node">
<title>Node30</title>
<g id="a_Node000030"><a xlink:title=" ">
<polygon fill="#e0e0e0" stroke="#999999" points="680,-240.25 626.5,-240.25 626.5,-221 680,-221 680,-240.25"/>
<text text-anchor="middle" x="653.25" y="-226.75" font-family="Helvetica,sans-Serif" font-size="10.00">iostream</text>
</a>
</g>
</g>
<!-- Node29&#45;&gt;Node30 -->
<g id="edge49_Node000029_Node000030" class="edge">
<title>Node29&#45;&gt;Node30</title>
<g id="a_edge49_Node000029_Node000030"><a xlink:title=" ">
<path fill="none" stroke="#63b8ff" d="M613.18,-276.08C619.81,-268.73 629.47,-258.01 637.64,-248.94"/>
<polygon fill="#63b8ff" stroke="#63b8ff" points="640.04,-251.5 644.14,-241.73 634.84,-246.82 640.04,-251.5"/>
</a>
</g>
</g>
</g>
</svg>

<g id="navigator" transform="translate(0 0)" fill="#404254">
  <rect fill="#f2f5e9" fill-opacity="0.5" stroke="#606060" stroke-width=".5" x="0" y="0" width="60" height="60"/>
  <use id="zoomplus" xlink:href="#zoomPlus" x="17" y="9" onmousedown="handleZoom(evt,'in')"/>
  <use id="zoomminus" xlink:href="#zoomMin" x="42" y="9" onmousedown="handleZoom(evt,'out')"/>
  <use id="reset" xlink:href="#resetDef" x="30" y="36" onmousedown="handleReset()"/>
   <use id="arrowup" xlink:href="#arrowUp" x="0" y="0" onmousedown="handlePan(0,-1)"/>
  <use id="arrowright" xlink:href="#arrowRight" x="0" y="0" onmousedown="handlePan(1,0)"/>
  <use id="arrowdown" xlink:href="#arrowDown" x="0" y="0" onmousedown="handlePan(0,1)"/>
  <use id="arrowleft" xlink:href="#arrowLeft" x="0" y="0" onmousedown="handlePan(-1,0)"/>
</g>
<svg viewBox="0 0 15 15" width="100%" height="30px" preserveAspectRatio="xMaxYMin meet">
 <g id="arrow_out" transform="scale(0.3 0.3)">
  <a xlink:href="CollisionHandler_8h__incl_org.svg" target="_base">
   <rect id="button" ry="5" rx="5" y="6" x="6" height="38" width="38"
        fill="#f2f5e9" fill-opacity="0.5" stroke="#606060" stroke-width="1.0"/>
   <path id="arrow"
     d="M 11.500037,31.436501 C 11.940474,20.09759 22.043105,11.32322 32.158766,21.979434 L 37.068811,17.246167 C 37.068811,17.246167 37.088388,32 37.088388,32 L 22.160133,31.978069 C 22.160133,31.978069 26.997745,27.140456 26.997745,27.140456 C 18.528582,18.264221 13.291696,25.230495 11.500037,31.436501 z"
     style="fill:#404040;"/>
  </a>
 </g>
</svg>

<style type='text/css'>
<![CDATA[
[data-mouse-over-selected='false'] { opacity: 0.7; }
[data-mouse-over-selected='true']  { opacity: 1.0; }
]]>
</style>
<script type="application/ecmascript"><![CDATA[
document.addEventListener('DOMContentLoaded', (event) => {
  highlightEdges();
  highlightAdjacentNodes();
});
]]></script>
</svg>
