<?xml version="1.0" encoding="UTF-8" standalone="no"?>
<!DOCTYPE svg PUBLIC "-//W3C//DTD SVG 1.1//EN"
 "http://www.w3.org/Graphics/SVG/1.1/DTD/svg11.dtd">
<!-- Generated by graphviz version 9.0.0 (20230911.1827)
 -->
<!-- Title: src/CollisionHandler.cpp Pages: 1 -->
<svg width="1127pt" height="359pt"
 viewBox="0.00 0.00 1127.38 358.75" xmlns="http://www.w3.org/2000/svg" xmlns:xlink="http://www.w3.org/1999/xlink">
<g id="graph0" class="graph" transform="scale(1 1) rotate(0) translate(4 354.75)">
<title>src/CollisionHandler.cpp</title>
<!-- Node1 -->
<g id="Node000001" class="node">
<title>Node1</title>
<g id="a_Node000001"><a xlink:title=" ">
<polygon fill="#999999" stroke="#666666" points="574.5,-350.75 453.5,-350.75 453.5,-331.5 574.5,-331.5 574.5,-350.75"/>
<text text-anchor="middle" x="514" y="-337.25" font-family="Helvetica,sans-Serif" font-size="10.00">src/CollisionHandler.cpp</text>
</a>
</g>
</g>
<!-- Node2 -->
<g id="Node000002" class="node">
<title>Node2</title>
<g id="a_Node000002"><a xlink:href="CollisionHandler_8h.html" target="_top" xlink:title=" ">
<polygon fill="white" stroke="#666666" points="491,-295.5 397,-295.5 397,-276.25 491,-276.25 491,-295.5"/>
<text text-anchor="middle" x="444" y="-282" font-family="Helvetica,sans-Serif" font-size="10.00">CollisionHandler.h</text>
</a>
</g>
</g>
<!-- Node1&#45;&gt;Node2 -->
<g id="edge1_Node000001_Node000002" class="edge">
<title>Node1&#45;&gt;Node2</title>
<g id="a_edge1_Node000001_Node000002"><a xlink:title=" ">
<path fill="none" stroke="#63b8ff" d="M502.13,-331.09C491.91,-323.32 476.93,-311.92 464.74,-302.65"/>
<polygon fill="#63b8ff" stroke="#63b8ff" points="466.98,-299.96 456.9,-296.69 462.74,-305.53 466.98,-299.96"/>
</a>
</g>
</g>
<!-- Node3 -->
<g id="Node000003" class="node">
<title>Node3</title>
<g id="a_Node000003"><a xlink:href="ColliderComponent_8h_source.html" target="_top" xlink:title=" ">
<polygon fill="white" stroke="#666666" points="272.62,-129.75 167.38,-129.75 167.38,-110.5 272.62,-110.5 272.62,-129.75"/>
<text text-anchor="middle" x="220" y="-116.25" font-family="Helvetica,sans-Serif" font-size="10.00">ColliderComponent.h</text>
</a>
</g>
</g>
<!-- Node1&#45;&gt;Node3 -->
<g id="edge42_Node000001_Node000003" class="edge">
<title>Node1&#45;&gt;Node3</title>
<g id="a_edge42_Node000001_Node000003"><a xlink:title=" ">
<path fill="none" stroke="#63b8ff" d="M459.37,-331.02C376.9,-316.02 226.91,-283.42 196,-240.25 176.71,-213.32 185.36,-197.73 194,-165.75 196.51,-156.47 201.48,-147.13 206.41,-139.41"/>
<polygon fill="#63b8ff" stroke="#63b8ff" points="209.21,-141.52 212.01,-131.3 203.45,-137.54 209.21,-141.52"/>
</a>
</g>
</g>
<!-- Node6 -->
<g id="Node000006" class="node">
<title>Node6</title>
<g id="a_Node000006"><a xlink:href="Vector2D_8h_source.html" target="_top" xlink:title=" ">
<polygon fill="white" stroke="#666666" points="171,-74.5 107,-74.5 107,-55.25 171,-55.25 171,-74.5"/>
<text text-anchor="middle" x="139" y="-61" font-family="Helvetica,sans-Serif" font-size="10.00">Vector2D.h</text>
</a>
</g>
</g>
<!-- Node1&#45;&gt;Node6 -->
<g id="edge46_Node000001_Node000006" class="edge">
<title>Node1&#45;&gt;Node6</title>
<g id="a_edge46_Node000001_Node000006"><a xlink:title=" ">
<path fill="none" stroke="#63b8ff" d="M453.25,-338.77C397.79,-335.52 314.68,-325.48 249,-295.5 168.12,-258.58 154.08,-217 137,-129.75 134.15,-115.21 134.82,-98.47 136.11,-85.77"/>
<polygon fill="#63b8ff" stroke="#63b8ff" points="139.54,-86.51 137.31,-76.16 132.6,-85.64 139.54,-86.51"/>
</a>
</g>
</g>
<!-- Node7 -->
<g id="Node000007" class="node">
<title>Node7</title>
<g id="a_Node000007"><a xlink:title=" ">
<polygon fill="#e0e0e0" stroke="#999999" points="95.38,-19.25 30.62,-19.25 30.62,0 95.38,0 95.38,-19.25"/>
<text text-anchor="middle" x="63" y="-5.75" font-family="Helvetica,sans-Serif" font-size="10.00">SDL_rect.h</text>
</a>
</g>
</g>
<!-- Node1&#45;&gt;Node7 -->
<g id="edge47_Node000001_Node000007" class="edge">
<title>Node1&#45;&gt;Node7</title>
<g id="a_edge47_Node000001_Node000007"><a xlink:title=" ">
<path fill="none" stroke="#63b8ff" d="M453.02,-339.94C316.87,-337.9 0,-323.28 0,-231.62 0,-231.62 0,-231.62 0,-119.12 0,-82.86 26.65,-47.87 45.28,-27.84"/>
<polygon fill="#63b8ff" stroke="#63b8ff" points="47.64,-30.43 52.1,-20.82 42.62,-25.55 47.64,-30.43"/>
</a>
</g>
</g>
<!-- Node8 -->
<g id="Node000008" class="node">
<title>Node8</title>
<g id="a_Node000008"><a xlink:href="Constants_8h_source.html" target="_top" xlink:title=" ">
<polygon fill="white" stroke="#666666" points="577.88,-74.5 510.12,-74.5 510.12,-55.25 577.88,-55.25 577.88,-74.5"/>
<text text-anchor="middle" x="544" y="-61" font-family="Helvetica,sans-Serif" font-size="10.00">Constants.h</text>
</a>
</g>
</g>
<!-- Node1&#45;&gt;Node8 -->
<g id="edge43_Node000001_Node000008" class="edge">
<title>Node1&#45;&gt;Node8</title>
<g id="a_edge43_Node000001_Node000008"><a xlink:title=" ">
<path fill="none" stroke="#63b8ff" d="M574.9,-338.94C703.49,-334.77 991,-316.02 991,-231.62 991,-231.62 991,-231.62 991,-174.38 991,-144.76 994.79,-129.42 972,-110.5 943.01,-86.44 693.95,-72.59 589.65,-67.8"/>
<polygon fill="#63b8ff" stroke="#63b8ff" points="589.91,-64.31 579.77,-67.35 589.6,-71.3 589.91,-64.31"/>
</a>
</g>
</g>
<!-- Node10 -->
<g id="Node000010" class="node">
<title>Node10</title>
<g id="a_Node000010"><a xlink:href="Entity_8h_source.html" target="_top" xlink:title=" ">
<polygon fill="white" stroke="#666666" points="523.75,-185 476.25,-185 476.25,-165.75 523.75,-165.75 523.75,-185"/>
<text text-anchor="middle" x="500" y="-171.5" font-family="Helvetica,sans-Serif" font-size="10.00">Entity.h</text>
</a>
</g>
</g>
<!-- Node1&#45;&gt;Node10 -->
<g id="edge44_Node000001_Node000010" class="edge">
<title>Node1&#45;&gt;Node10</title>
<g id="a_edge44_Node000001_Node000010"><a xlink:title=" ">
<path fill="none" stroke="#63b8ff" d="M519.84,-331.19C532.27,-310.98 558.93,-260.48 543,-221 538.57,-210.01 529.99,-200.21 521.65,-192.62"/>
<polygon fill="#63b8ff" stroke="#63b8ff" points="523.98,-190.01 514.07,-186.27 519.48,-195.37 523.98,-190.01"/>
</a>
</g>
</g>
<!-- Node12 -->
<g id="Node000012" class="node">
<title>Node12</title>
<g id="a_Node000012"><a xlink:title=" ">
<polygon fill="#e0e0e0" stroke="#999999" points="699.25,-129.75 648.75,-129.75 648.75,-110.5 699.25,-110.5 699.25,-129.75"/>
<text text-anchor="middle" x="674" y="-116.25" font-family="Helvetica,sans-Serif" font-size="10.00">memory</text>
</a>
</g>
</g>
<!-- Node1&#45;&gt;Node12 -->
<g id="edge50_Node000001_Node000012" class="edge">
<title>Node1&#45;&gt;Node12</title>
<g id="a_edge50_Node000001_Node000012"><a xlink:title=" ">
<path fill="none" stroke="#63b8ff" d="M529.15,-331.09C541.93,-322.94 560.15,-310.03 573,-295.5 616.95,-245.8 651.21,-174.04 666.02,-140.18"/>
<polygon fill="#63b8ff" stroke="#63b8ff" points="669.11,-141.85 669.83,-131.28 662.68,-139.09 669.11,-141.85"/>
</a>
</g>
</g>
<!-- Node13 -->
<g id="Node000013" class="node">
<title>Node13</title>
<g id="a_Node000013"><a xlink:title=" ">
<polygon fill="#e0e0e0" stroke="#999999" points="593,-129.75 553,-129.75 553,-110.5 593,-110.5 593,-129.75"/>
<text text-anchor="middle" x="573" y="-116.25" font-family="Helvetica,sans-Serif" font-size="10.00">bitset</text>
</a>
</g>
</g>
<!-- Node1&#45;&gt;Node13 -->
<g id="edge48_Node000001_Node000013" class="edge">
<title>Node1&#45;&gt;Node13</title>
<g id="a_edge48_Node000001_Node000013"><a xlink:title=" ">
<path fill="none" stroke="#63b8ff" d="M524.37,-331.24C533.47,-322.89 546.41,-309.61 554,-295.5 582,-243.47 589.5,-224.48 583,-165.75 582.09,-157.56 580.28,-148.68 578.44,-141.01"/>
<polygon fill="#63b8ff" stroke="#63b8ff" points="581.84,-140.19 575.95,-131.38 575.07,-141.94 581.84,-140.19"/>
</a>
</g>
</g>
<!-- Node22 -->
<g id="Node000022" class="node">
<title>Node22</title>
<g id="a_Node000022"><a xlink:href="Manager_8h_source.html" target="_top" xlink:title=" ">
<polygon fill="white" stroke="#666666" points="279.5,-240.25 218.5,-240.25 218.5,-221 279.5,-221 279.5,-240.25"/>
<text text-anchor="middle" x="249" y="-226.75" font-family="Helvetica,sans-Serif" font-size="10.00">Manager.h</text>
</a>
</g>
</g>
<!-- Node1&#45;&gt;Node22 -->
<g id="edge45_Node000001_Node000022" class="edge">
<title>Node1&#45;&gt;Node22</title>
<g id="a_edge45_Node000001_Node000022"><a xlink:title=" ">
<path fill="none" stroke="#63b8ff" d="M486.2,-331.08C460.49,-322.53 421.33,-309.03 388,-295.5 349.11,-279.72 305.27,-259.08 277.41,-245.6"/>
<polygon fill="#63b8ff" stroke="#63b8ff" points="279.09,-242.52 268.57,-241.29 276.03,-248.82 279.09,-242.52"/>
</a>
</g>
</g>
<!-- Node27 -->
<g id="Node000027" class="node">
<title>Node27</title>
<g id="a_Node000027"><a xlink:title=" ">
<polygon fill="#e0e0e0" stroke="#999999" points="1061.12,-295.5 1018.88,-295.5 1018.88,-276.25 1061.12,-276.25 1061.12,-295.5"/>
<text text-anchor="middle" x="1040" y="-282" font-family="Helvetica,sans-Serif" font-size="10.00">cstdio</text>
</a>
</g>
</g>
<!-- Node1&#45;&gt;Node27 -->
<g id="edge49_Node000001_Node000027" class="edge">
<title>Node1&#45;&gt;Node27</title>
<g id="a_edge49_Node000001_Node000027"><a xlink:title=" ">
<path fill="none" stroke="#63b8ff" d="M574.85,-337.55C668.01,-332.95 851.36,-321.26 1005,-295.5 1005.83,-295.36 1006.68,-295.21 1007.52,-295.05"/>
<polygon fill="#63b8ff" stroke="#63b8ff" points="1008.11,-298.51 1017.16,-293 1006.64,-291.66 1008.11,-298.51"/>
</a>
</g>
</g>
<!-- Node2&#45;&gt;Node3 -->
<g id="edge2_Node000002_Node000003" class="edge">
<title>Node2&#45;&gt;Node3</title>
<g id="a_edge2_Node000002_Node000003"><a xlink:title=" ">
<path fill="none" stroke="#63b8ff" d="M396.6,-282.68C335.26,-278.74 233.45,-268.08 210,-240.25 186.46,-212.31 200.02,-166.47 210.79,-140.55"/>
<polygon fill="#63b8ff" stroke="#63b8ff" points="213.92,-142.13 214.79,-131.57 207.53,-139.29 213.92,-142.13"/>
</a>
</g>
</g>
<!-- Node2&#45;&gt;Node6 -->
<g id="edge29_Node000002_Node000006" class="edge">
<title>Node2&#45;&gt;Node6</title>
<g id="a_edge29_Node000002_Node000006"><a xlink:title=" ">
<path fill="none" stroke="#63b8ff" d="M396.66,-281.99C333.3,-277.2 225.47,-265.52 196,-240.25 149.72,-200.56 140.78,-122.73 139.22,-85.98"/>
<polygon fill="#63b8ff" stroke="#63b8ff" points="142.72,-86.25 138.96,-76.35 135.73,-86.44 142.72,-86.25"/>
</a>
</g>
</g>
<!-- Node2&#45;&gt;Node7 -->
<g id="edge20_Node000002_Node000007" class="edge">
<title>Node2&#45;&gt;Node7</title>
<g id="a_edge20_Node000002_Node000007"><a xlink:title=" ">
<path fill="none" stroke="#63b8ff" d="M396.55,-282.18C328.94,-277.49 209.26,-265.78 175,-240.25 103.63,-187.07 75.33,-76.18 66.43,-30.72"/>
<polygon fill="#63b8ff" stroke="#63b8ff" points="69.9,-30.21 64.65,-21 63.01,-31.47 69.9,-30.21"/>
</a>
</g>
</g>
<!-- Node2&#45;&gt;Node8 -->
<g id="edge8_Node000002_Node000008" class="edge">
<title>Node2&#45;&gt;Node8</title>
<g id="a_edge8_Node000002_Node000008"><a xlink:title=" ">
<path fill="none" stroke="#63b8ff" d="M491.31,-276.59C515.18,-270.24 543.01,-259.21 562,-240.25 604.71,-197.62 628.65,-164.64 602,-110.5 595.84,-97.98 584.29,-87.99 573.11,-80.66"/>
<polygon fill="#63b8ff" stroke="#63b8ff" points="575.19,-77.83 564.82,-75.69 571.59,-83.84 575.19,-77.83"/>
</a>
</g>
</g>
<!-- Node2&#45;&gt;Node10 -->
<g id="edge10_Node000002_Node000010" class="edge">
<title>Node2&#45;&gt;Node10</title>
<g id="a_edge10_Node000002_Node000010"><a xlink:title=" ">
<path fill="none" stroke="#63b8ff" d="M478.69,-275.84C496.76,-269.17 517.28,-258.08 528,-240.25 536.93,-225.39 527.11,-207.16 516.71,-193.99"/>
<polygon fill="#63b8ff" stroke="#63b8ff" points="519.48,-191.83 510.3,-186.55 514.18,-196.41 519.48,-191.83"/>
</a>
</g>
</g>
<!-- Node2&#45;&gt;Node13 -->
<g id="edge37_Node000002_Node000013" class="edge">
<title>Node2&#45;&gt;Node13</title>
<g id="a_edge37_Node000002_Node000013"><a xlink:title=" ">
<path fill="none" stroke="#63b8ff" d="M483.85,-275.81C504.3,-269.21 527.99,-258.18 543,-240.25 566.77,-211.85 572.1,-167.16 573.06,-141.35"/>
<polygon fill="#63b8ff" stroke="#63b8ff" points="576.56,-141.63 573.22,-131.57 569.56,-141.51 576.56,-141.63"/>
</a>
</g>
</g>
<!-- Node14 -->
<g id="Node000014" class="node">
<title>Node14</title>
<g id="a_Node000014"><a xlink:title=" ">
<polygon fill="#e0e0e0" stroke="#999999" points="435.5,-129.75 392.5,-129.75 392.5,-110.5 435.5,-110.5 435.5,-129.75"/>
<text text-anchor="middle" x="414" y="-116.25" font-family="Helvetica,sans-Serif" font-size="10.00">vector</text>
</a>
</g>
</g>
<!-- Node2&#45;&gt;Node14 -->
<g id="edge41_Node000002_Node000014" class="edge">
<title>Node2&#45;&gt;Node14</title>
<g id="a_edge41_Node000002_Node000014"><a xlink:title=" ">
<path fill="none" stroke="#63b8ff" d="M396.75,-279.62C371.58,-274.15 342.66,-262.99 327,-240.25 302.79,-205.1 373.11,-189.29 377,-185 389.1,-171.64 399.07,-153.69 405.6,-140.21"/>
<polygon fill="#63b8ff" stroke="#63b8ff" points="408.6,-142.07 409.61,-131.52 402.24,-139.14 408.6,-142.07"/>
</a>
</g>
</g>
<!-- Node16 -->
<g id="Node000016" class="node">
<title>Node16</title>
<g id="a_Node000016"><a xlink:href="SpriteComponent_8h_source.html" target="_top" xlink:title=" ">
<polygon fill="white" stroke="#666666" points="901.25,-185 802.75,-185 802.75,-165.75 901.25,-165.75 901.25,-185"/>
<text text-anchor="middle" x="852" y="-171.5" font-family="Helvetica,sans-Serif" font-size="10.00">SpriteComponent.h</text>
</a>
</g>
</g>
<!-- Node2&#45;&gt;Node16 -->
<g id="edge21_Node000002_Node000016" class="edge">
<title>Node2&#45;&gt;Node16</title>
<g id="a_edge21_Node000002_Node000016"><a xlink:title=" ">
<path fill="none" stroke="#63b8ff" d="M491.39,-277.93C538.44,-270.52 612.38,-257.48 675,-240.25 726.59,-226.05 784.61,-203.88 819.72,-189.74"/>
<polygon fill="#63b8ff" stroke="#63b8ff" points="820.93,-193.03 828.88,-186.03 818.29,-186.55 820.93,-193.03"/>
</a>
</g>
</g>
<!-- Node2&#45;&gt;Node22 -->
<g id="edge30_Node000002_Node000022" class="edge">
<title>Node2&#45;&gt;Node22</title>
<g id="a_edge30_Node000002_Node000022"><a xlink:title=" ">
<path fill="none" stroke="#63b8ff" d="M410.92,-275.84C377.88,-266.82 326.97,-252.92 291.07,-243.11"/>
<polygon fill="#63b8ff" stroke="#63b8ff" points="292.01,-239.74 281.44,-240.48 290.17,-246.5 292.01,-239.74"/>
</a>
</g>
</g>
<!-- Node24 -->
<g id="Node000024" class="node">
<title>Node24</title>
<g id="a_Node000024"><a xlink:title=" ">
<polygon fill="#e0e0e0" stroke="#999999" points="407.75,-240.25 336.25,-240.25 336.25,-221 407.75,-221 407.75,-240.25"/>
<text text-anchor="middle" x="372" y="-226.75" font-family="Helvetica,sans-Serif" font-size="10.00">initializer_list</text>
</a>
</g>
</g>
<!-- Node2&#45;&gt;Node24 -->
<g id="edge38_Node000002_Node000024" class="edge">
<title>Node2&#45;&gt;Node24</title>
<g id="a_edge38_Node000002_Node000024"><a xlink:title=" ">
<path fill="none" stroke="#63b8ff" d="M431.79,-275.84C421.17,-267.99 405.56,-256.45 392.96,-247.12"/>
<polygon fill="#63b8ff" stroke="#63b8ff" points="395.37,-244.56 385.25,-241.42 391.21,-250.19 395.37,-244.56"/>
</a>
</g>
</g>
<!-- Node25 -->
<g id="Node000025" class="node">
<title>Node25</title>
<g id="a_Node000025"><a xlink:title=" ">
<polygon fill="#e0e0e0" stroke="#999999" points="462.5,-240.25 425.5,-240.25 425.5,-221 462.5,-221 462.5,-240.25"/>
<text text-anchor="middle" x="444" y="-226.75" font-family="Helvetica,sans-Serif" font-size="10.00">tuple</text>
</a>
</g>
</g>
<!-- Node2&#45;&gt;Node25 -->
<g id="edge39_Node000002_Node000025" class="edge">
<title>Node2&#45;&gt;Node25</title>
<g id="a_edge39_Node000002_Node000025"><a xlink:title=" ">
<path fill="none" stroke="#63b8ff" d="M444,-276.08C444,-269.57 444,-260.42 444,-252.12"/>
<polygon fill="#63b8ff" stroke="#63b8ff" points="447.5,-252.12 444,-242.12 440.5,-252.12 447.5,-252.12"/>
</a>
</g>
</g>
<!-- Node26 -->
<g id="Node000026" class="node">
<title>Node26</title>
<g id="a_Node000026"><a xlink:title=" ">
<polygon fill="#e0e0e0" stroke="#999999" points="519.25,-240.25 480.75,-240.25 480.75,-221 519.25,-221 519.25,-240.25"/>
<text text-anchor="middle" x="500" y="-226.75" font-family="Helvetica,sans-Serif" font-size="10.00">utility</text>
</a>
</g>
</g>
<!-- Node2&#45;&gt;Node26 -->
<g id="edge40_Node000002_Node000026" class="edge">
<title>Node2&#45;&gt;Node26</title>
<g id="a_edge40_Node000002_Node000026"><a xlink:title=" ">
<path fill="none" stroke="#63b8ff" d="M453.5,-275.84C461.43,-268.3 472.95,-257.35 482.54,-248.23"/>
<polygon fill="#63b8ff" stroke="#63b8ff" points="484.71,-250.99 489.54,-241.57 479.89,-245.92 484.71,-250.99"/>
</a>
</g>
</g>
<!-- Node4 -->
<g id="Node000004" class="node">
<title>Node4</title>
<g id="a_Node000004"><a xlink:title=" ">
<polygon fill="#e0e0e0" stroke="#999999" points="200.5,-19.25 157.5,-19.25 157.5,0 200.5,0 200.5,-19.25"/>
<text text-anchor="middle" x="179" y="-5.75" font-family="Helvetica,sans-Serif" font-size="10.00">SDL.h</text>
</a>
</g>
</g>
<!-- Node3&#45;&gt;Node4 -->
<g id="edge3_Node000003_Node000004" class="edge">
<title>Node3&#45;&gt;Node4</title>
<g id="a_edge3_Node000003_Node000004"><a xlink:title=" ">
<path fill="none" stroke="#63b8ff" d="M216.64,-110.25C210.07,-92.84 195.34,-53.87 186.38,-30.16"/>
<polygon fill="#63b8ff" stroke="#63b8ff" points="189.75,-29.16 182.94,-21.04 183.2,-31.63 189.75,-29.16"/>
</a>
</g>
</g>
<!-- Node5 -->
<g id="Node000005" class="node">
<title>Node5</title>
<g id="a_Node000005"><a xlink:href="Component_8h_source.html" target="_top" xlink:title=" ">
<polygon fill="white" stroke="#666666" points="492.5,-74.5 419.5,-74.5 419.5,-55.25 492.5,-55.25 492.5,-74.5"/>
<text text-anchor="middle" x="456" y="-61" font-family="Helvetica,sans-Serif" font-size="10.00">Component.h</text>
</a>
</g>
</g>
<!-- Node3&#45;&gt;Node5 -->
<g id="edge4_Node000003_Node000005" class="edge">
<title>Node3&#45;&gt;Node5</title>
<g id="a_edge4_Node000003_Node000005"><a xlink:title=" ">
<path fill="none" stroke="#63b8ff" d="M260.3,-110.03C301.27,-100.79 364.73,-86.47 408.21,-76.66"/>
<polygon fill="#63b8ff" stroke="#63b8ff" points="408.9,-80.09 417.88,-74.48 407.35,-73.26 408.9,-80.09"/>
</a>
</g>
</g>
<!-- Node3&#45;&gt;Node6 -->
<g id="edge5_Node000003_Node000006" class="edge">
<title>Node3&#45;&gt;Node6</title>
<g id="a_edge5_Node000003_Node000006"><a xlink:title=" ">
<path fill="none" stroke="#63b8ff" d="M206.26,-110.09C194.27,-102.21 176.63,-90.61 162.42,-81.27"/>
<polygon fill="#63b8ff" stroke="#63b8ff" points="164.35,-78.35 154.07,-75.78 160.51,-84.2 164.35,-78.35"/>
</a>
</g>
</g>
<!-- Node6&#45;&gt;Node4 -->
<g id="edge6_Node000006_Node000004" class="edge">
<title>Node6&#45;&gt;Node4</title>
<g id="a_edge6_Node000006_Node000004"><a xlink:title=" ">
<path fill="none" stroke="#63b8ff" d="M145.61,-55.08C150.96,-47.96 158.68,-37.68 165.35,-28.8"/>
<polygon fill="#63b8ff" stroke="#63b8ff" points="168.13,-30.92 171.34,-20.82 162.54,-26.71 168.13,-30.92"/>
</a>
</g>
</g>
<!-- Node6&#45;&gt;Node7 -->
<g id="edge7_Node000006_Node000007" class="edge">
<title>Node6&#45;&gt;Node7</title>
<g id="a_edge7_Node000006_Node000007"><a xlink:title=" ">
<path fill="none" stroke="#63b8ff" d="M126.11,-54.84C114.97,-47.04 98.63,-35.59 85.36,-26.29"/>
<polygon fill="#63b8ff" stroke="#63b8ff" points="87.39,-23.44 77.2,-20.57 83.38,-29.18 87.39,-23.44"/>
</a>
</g>
</g>
<!-- Node9 -->
<g id="Node000009" class="node">
<title>Node9</title>
<g id="a_Node000009"><a xlink:title=" ">
<polygon fill="#e0e0e0" stroke="#999999" points="568.12,-19.25 519.88,-19.25 519.88,0 568.12,0 568.12,-19.25"/>
<text text-anchor="middle" x="544" y="-5.75" font-family="Helvetica,sans-Serif" font-size="10.00">cstddef</text>
</a>
</g>
</g>
<!-- Node8&#45;&gt;Node9 -->
<g id="edge9_Node000008_Node000009" class="edge">
<title>Node8&#45;&gt;Node9</title>
<g id="a_edge9_Node000008_Node000009"><a xlink:title=" ">
<path fill="none" stroke="#63b8ff" d="M544,-55.08C544,-48.57 544,-39.42 544,-31.12"/>
<polygon fill="#63b8ff" stroke="#63b8ff" points="547.5,-31.12 544,-21.12 540.5,-31.12 547.5,-31.12"/>
</a>
</g>
</g>
<!-- Node10&#45;&gt;Node3 -->
<g id="edge15_Node000010_Node000003" class="edge">
<title>Node10&#45;&gt;Node3</title>
<g id="a_edge15_Node000010_Node000003"><a xlink:title=" ">
<path fill="none" stroke="#63b8ff" d="M476.13,-169.83C432.8,-161.6 340.06,-143.96 278.87,-132.32"/>
<polygon fill="#63b8ff" stroke="#63b8ff" points="279.8,-128.94 269.32,-130.51 278.49,-135.81 279.8,-128.94"/>
</a>
</g>
</g>
<!-- Node10&#45;&gt;Node8 -->
<g id="edge19_Node000010_Node000008" class="edge">
<title>Node10&#45;&gt;Node8</title>
<g id="a_edge19_Node000010_Node000008"><a xlink:title=" ">
<path fill="none" stroke="#63b8ff" d="M503.6,-165.5C510.66,-148.09 526.46,-109.12 536.08,-85.41"/>
<polygon fill="#63b8ff" stroke="#63b8ff" points="539.27,-86.86 539.78,-76.28 532.78,-84.23 539.27,-86.86"/>
</a>
</g>
</g>
<!-- Node11 -->
<g id="Node000011" class="node">
<title>Node11</title>
<g id="a_Node000011"><a xlink:title=" ">
<polygon fill="#e0e0e0" stroke="#999999" points="327.5,-129.75 290.5,-129.75 290.5,-110.5 327.5,-110.5 327.5,-129.75"/>
<text text-anchor="middle" x="309" y="-116.25" font-family="Helvetica,sans-Serif" font-size="10.00">array</text>
</a>
</g>
</g>
<!-- Node10&#45;&gt;Node11 -->
<g id="edge11_Node000010_Node000011" class="edge">
<title>Node10&#45;&gt;Node11</title>
<g id="a_edge11_Node000010_Node000011"><a xlink:title=" ">
<path fill="none" stroke="#63b8ff" d="M475.81,-167.63C440.88,-157.89 376.37,-139.91 338.63,-129.39"/>
<polygon fill="#63b8ff" stroke="#63b8ff" points="339.87,-126.1 329.29,-126.78 337.99,-132.84 339.87,-126.1"/>
</a>
</g>
</g>
<!-- Node10&#45;&gt;Node12 -->
<g id="edge12_Node000010_Node000012" class="edge">
<title>Node10&#45;&gt;Node12</title>
<g id="a_edge12_Node000010_Node000012"><a xlink:title=" ">
<path fill="none" stroke="#63b8ff" d="M524.19,-166.97C553.56,-157.98 603.36,-142.74 637.42,-132.32"/>
<polygon fill="#63b8ff" stroke="#63b8ff" points="638.33,-135.7 646.87,-129.43 636.28,-129.01 638.33,-135.7"/>
</a>
</g>
</g>
<!-- Node10&#45;&gt;Node13 -->
<g id="edge13_Node000010_Node000013" class="edge">
<title>Node10&#45;&gt;Node13</title>
<g id="a_edge13_Node000010_Node000013"><a xlink:title=" ">
<path fill="none" stroke="#63b8ff" d="M512.38,-165.34C523.15,-157.49 538.97,-145.95 551.75,-136.62"/>
<polygon fill="#63b8ff" stroke="#63b8ff" points="553.56,-139.64 559.58,-130.92 549.44,-133.98 553.56,-139.64"/>
</a>
</g>
</g>
<!-- Node10&#45;&gt;Node14 -->
<g id="edge14_Node000010_Node000014" class="edge">
<title>Node10&#45;&gt;Node14</title>
<g id="a_edge14_Node000010_Node000014"><a xlink:title=" ">
<path fill="none" stroke="#63b8ff" d="M485.41,-165.34C472.56,-157.39 453.59,-145.64 438.43,-136.25"/>
<polygon fill="#63b8ff" stroke="#63b8ff" points="440.29,-133.29 429.95,-131 436.61,-139.24 440.29,-133.29"/>
</a>
</g>
</g>
<!-- Node15 -->
<g id="Node000015" class="node">
<title>Node15</title>
<g id="a_Node000015"><a xlink:href="ECS_8h_source.html" target="_top" xlink:title=" ">
<polygon fill="white" stroke="#666666" points="496.5,-129.75 453.5,-129.75 453.5,-110.5 496.5,-110.5 496.5,-129.75"/>
<text text-anchor="middle" x="475" y="-116.25" font-family="Helvetica,sans-Serif" font-size="10.00">ECS.h</text>
</a>
</g>
</g>
<!-- Node10&#45;&gt;Node15 -->
<g id="edge16_Node000010_Node000015" class="edge">
<title>Node10&#45;&gt;Node15</title>
<g id="a_edge16_Node000010_Node000015"><a xlink:title=" ">
<path fill="none" stroke="#63b8ff" d="M495.87,-165.58C492.67,-158.76 488.11,-149.06 484.07,-140.45"/>
<polygon fill="#63b8ff" stroke="#63b8ff" points="487.28,-139.04 479.86,-131.48 480.94,-142.02 487.28,-139.04"/>
</a>
</g>
</g>
<!-- Node15&#45;&gt;Node5 -->
<g id="edge17_Node000015_Node000005" class="edge">
<title>Node15&#45;&gt;Node5</title>
<g id="a_edge17_Node000015_Node000005"><a xlink:title=" ">
<path fill="none" stroke="#63b8ff" d="M471.86,-110.33C469.46,-103.59 466.04,-94.02 463,-85.49"/>
<polygon fill="#63b8ff" stroke="#63b8ff" points="466.37,-84.53 459.71,-76.28 459.78,-86.88 466.37,-84.53"/>
</a>
</g>
</g>
<!-- Node15&#45;&gt;Node8 -->
<g id="edge18_Node000015_Node000008" class="edge">
<title>Node15&#45;&gt;Node8</title>
<g id="a_edge18_Node000015_Node000008"><a xlink:title=" ">
<path fill="none" stroke="#63b8ff" d="M486.7,-110.09C496.78,-102.32 511.54,-90.92 523.56,-81.65"/>
<polygon fill="#63b8ff" stroke="#63b8ff" points="525.49,-84.58 531.27,-75.7 521.21,-79.04 525.49,-84.58"/>
</a>
</g>
</g>
<!-- Node16&#45;&gt;Node5 -->
<g id="edge27_Node000016_Node000005" class="edge">
<title>Node16&#45;&gt;Node5</title>
<g id="a_edge27_Node000016_Node000005"><a xlink:title=" ">
<path fill="none" stroke="#63b8ff" d="M829.05,-165.26C807.44,-156.55 774.27,-142.84 746,-129.75 728.82,-121.79 725.97,-116.47 708,-110.5 622.75,-82.2 594.97,-90.57 503.94,-74.96"/>
<polygon fill="#63b8ff" stroke="#63b8ff" points="504.78,-71.55 494.32,-73.25 503.55,-78.44 504.78,-71.55"/>
</a>
</g>
</g>
<!-- Node16&#45;&gt;Node12 -->
<g id="edge24_Node000016_Node000012" class="edge">
<title>Node16&#45;&gt;Node12</title>
<g id="a_edge24_Node000016_Node000012"><a xlink:title=" ">
<path fill="none" stroke="#63b8ff" d="M821.8,-165.34C791.11,-156.16 743.51,-141.92 710.66,-132.09"/>
<polygon fill="#63b8ff" stroke="#63b8ff" points="711.75,-128.76 701.16,-129.25 709.74,-135.47 711.75,-128.76"/>
</a>
</g>
</g>
<!-- Node17 -->
<g id="Node000017" class="node">
<title>Node17</title>
<g id="a_Node000017"><a xlink:title=" ">
<polygon fill="#e0e0e0" stroke="#999999" points="869.38,-129.75 834.62,-129.75 834.62,-110.5 869.38,-110.5 869.38,-129.75"/>
<text text-anchor="middle" x="852" y="-116.25" font-family="Helvetica,sans-Serif" font-size="10.00">map</text>
</a>
</g>
</g>
<!-- Node16&#45;&gt;Node17 -->
<g id="edge22_Node000016_Node000017" class="edge">
<title>Node16&#45;&gt;Node17</title>
<g id="a_edge22_Node000016_Node000017"><a xlink:title=" ">
<path fill="none" stroke="#63b8ff" d="M852,-165.58C852,-159.07 852,-149.92 852,-141.62"/>
<polygon fill="#63b8ff" stroke="#63b8ff" points="855.5,-141.62 852,-131.62 848.5,-141.62 855.5,-141.62"/>
</a>
</g>
</g>
<!-- Node18 -->
<g id="Node000018" class="node">
<title>Node18</title>
<g id="a_Node000018"><a xlink:title=" ">
<polygon fill="#e0e0e0" stroke="#999999" points="962.62,-129.75 887.38,-129.75 887.38,-110.5 962.62,-110.5 962.62,-129.75"/>
<text text-anchor="middle" x="925" y="-116.25" font-family="Helvetica,sans-Serif" font-size="10.00">SDL_render.h</text>
</a>
</g>
</g>
<!-- Node16&#45;&gt;Node18 -->
<g id="edge23_Node000016_Node000018" class="edge">
<title>Node16&#45;&gt;Node18</title>
<g id="a_edge23_Node000016_Node000018"><a xlink:title=" ">
<path fill="none" stroke="#63b8ff" d="M864.38,-165.34C875.15,-157.49 890.97,-145.95 903.75,-136.62"/>
<polygon fill="#63b8ff" stroke="#63b8ff" points="905.56,-139.64 911.58,-130.92 901.44,-133.98 905.56,-139.64"/>
</a>
</g>
</g>
<!-- Node19 -->
<g id="Node000019" class="node">
<title>Node19</title>
<g id="a_Node000019"><a xlink:href="AnimationHandler_8h_source.html" target="_top" xlink:title=" ">
<polygon fill="white" stroke="#666666" points="1119.38,-129.75 1018.62,-129.75 1018.62,-110.5 1119.38,-110.5 1119.38,-129.75"/>
<text text-anchor="middle" x="1069" y="-116.25" font-family="Helvetica,sans-Serif" font-size="10.00">AnimationHandler.h</text>
</a>
</g>
</g>
<!-- Node16&#45;&gt;Node19 -->
<g id="edge25_Node000016_Node000019" class="edge">
<title>Node16&#45;&gt;Node19</title>
<g id="a_edge25_Node000016_Node000019"><a xlink:title=" ">
<path fill="none" stroke="#63b8ff" d="M888.81,-165.34C925.21,-156.41 981.08,-142.7 1020.96,-132.91"/>
<polygon fill="#63b8ff" stroke="#63b8ff" points="1021.66,-136.35 1030.54,-130.56 1019.99,-129.55 1021.66,-136.35"/>
</a>
</g>
</g>
<!-- Node21 -->
<g id="Node000021" class="node">
<title>Node21</title>
<g id="a_Node000021"><a xlink:href="Direction_8h_source.html" target="_top" xlink:title=" ">
<polygon fill="white" stroke="#666666" points="816.88,-129.75 755.12,-129.75 755.12,-110.5 816.88,-110.5 816.88,-129.75"/>
<text text-anchor="middle" x="786" y="-116.25" font-family="Helvetica,sans-Serif" font-size="10.00">Direction.h</text>
</a>
</g>
</g>
<!-- Node16&#45;&gt;Node21 -->
<g id="edge28_Node000016_Node000021" class="edge">
<title>Node16&#45;&gt;Node21</title>
<g id="a_edge28_Node000016_Node000021"><a xlink:title=" ">
<path fill="none" stroke="#63b8ff" d="M840.8,-165.34C831.26,-157.65 817.33,-146.4 805.89,-137.18"/>
<polygon fill="#63b8ff" stroke="#63b8ff" points="808.19,-134.53 798.21,-130.98 803.79,-139.98 808.19,-134.53"/>
</a>
</g>
</g>
<!-- Node20 -->
<g id="Node000020" class="node">
<title>Node20</title>
<g id="a_Node000020"><a xlink:title=" ">
<polygon fill="#e0e0e0" stroke="#999999" points="1091.62,-74.5 1046.38,-74.5 1046.38,-55.25 1091.62,-55.25 1091.62,-74.5"/>
<text text-anchor="middle" x="1069" y="-61" font-family="Helvetica,sans-Serif" font-size="10.00">cstdint</text>
</a>
</g>
</g>
<!-- Node19&#45;&gt;Node20 -->
<g id="edge26_Node000019_Node000020" class="edge">
<title>Node19&#45;&gt;Node20</title>
<g id="a_edge26_Node000019_Node000020"><a xlink:title=" ">
<path fill="none" stroke="#63b8ff" d="M1069,-110.33C1069,-103.82 1069,-94.67 1069,-86.37"/>
<polygon fill="#63b8ff" stroke="#63b8ff" points="1072.5,-86.37 1069,-76.37 1065.5,-86.37 1072.5,-86.37"/>
</a>
</g>
</g>
<!-- Node22&#45;&gt;Node8 -->
<g id="edge35_Node000022_Node000008" class="edge">
<title>Node22&#45;&gt;Node8</title>
<g id="a_edge35_Node000022_Node000008"><a xlink:title=" ">
<path fill="none" stroke="#63b8ff" d="M258.84,-220.84C289.31,-193.63 380.34,-112.49 384,-110.5 403.76,-99.77 458.84,-85.55 498.86,-76.07"/>
<polygon fill="#63b8ff" stroke="#63b8ff" points="499.55,-79.51 508.49,-73.82 497.95,-72.69 499.55,-79.51"/>
</a>
</g>
</g>
<!-- Node22&#45;&gt;Node10 -->
<g id="edge36_Node000022_Node000010" class="edge">
<title>Node22&#45;&gt;Node10</title>
<g id="a_edge36_Node000022_Node000010"><a xlink:title=" ">
<path fill="none" stroke="#63b8ff" d="M279.78,-223.1C326.68,-213.15 415.78,-194.24 465.05,-183.79"/>
<polygon fill="#63b8ff" stroke="#63b8ff" points="465.55,-187.26 474.61,-181.76 464.1,-180.41 465.55,-187.26"/>
</a>
</g>
</g>
<!-- Node22&#45;&gt;Node11 -->
<g id="edge32_Node000022_Node000011" class="edge">
<title>Node22&#45;&gt;Node11</title>
<g id="a_edge32_Node000022_Node000011"><a xlink:title=" ">
<path fill="none" stroke="#63b8ff" d="M256.2,-220.77C263.1,-212.02 273.55,-198.09 281,-185 289.16,-170.66 296.57,-153.49 301.71,-140.56"/>
<polygon fill="#63b8ff" stroke="#63b8ff" points="304.88,-142.09 305.21,-131.5 298.35,-139.57 304.88,-142.09"/>
</a>
</g>
</g>
<!-- Node22&#45;&gt;Node12 -->
<g id="edge33_Node000022_Node000012" class="edge">
<title>Node22&#45;&gt;Node12</title>
<g id="a_edge33_Node000022_Node000012"><a xlink:title=" ">
<path fill="none" stroke="#63b8ff" d="M279.8,-225.85C343.11,-217.92 485.9,-199.09 533,-185 574.82,-172.49 620.34,-150.14 648.02,-135.47"/>
<polygon fill="#63b8ff" stroke="#63b8ff" points="649.57,-138.61 656.72,-130.8 646.26,-132.45 649.57,-138.61"/>
</a>
</g>
</g>
<!-- Node22&#45;&gt;Node14 -->
<g id="edge34_Node000022_Node000014" class="edge">
<title>Node22&#45;&gt;Node14</title>
<g id="a_edge34_Node000022_Node000014"><a xlink:title=" ">
<path fill="none" stroke="#63b8ff" d="M277.64,-220.63C299.21,-213.08 328.91,-200.95 352,-185 370.8,-172.01 388.57,-152.71 400.22,-138.73"/>
<polygon fill="#63b8ff" stroke="#63b8ff" points="402.73,-141.2 406.3,-131.22 397.29,-136.79 402.73,-141.2"/>
</a>
</g>
</g>
<!-- Node23 -->
<g id="Node000023" class="node">
<title>Node23</title>
<g id="a_Node000023"><a xlink:title=" ">
<polygon fill="#e0e0e0" stroke="#999999" points="271.75,-185 218.25,-185 218.25,-165.75 271.75,-165.75 271.75,-185"/>
<text text-anchor="middle" x="245" y="-171.5" font-family="Helvetica,sans-Serif" font-size="10.00">iostream</text>
</a>
</g>
</g>
<!-- Node22&#45;&gt;Node23 -->
<g id="edge31_Node000022_Node000023" class="edge">
<title>Node22&#45;&gt;Node23</title>
<g id="a_edge31_Node000022_Node000023"><a xlink:title=" ">
<path fill="none" stroke="#63b8ff" d="M248.34,-220.83C247.84,-214.24 247.15,-204.96 246.52,-196.57"/>
<polygon fill="#63b8ff" stroke="#63b8ff" points="250.03,-196.58 245.79,-186.87 243.05,-197.1 250.03,-196.58"/>
</a>
</g>
</g>
</g>
</svg>
