<?xml version="1.0" encoding="UTF-8" standalone="no"?>
<!DOCTYPE svg PUBLIC "-//W3C//DTD SVG 1.1//EN"
 "http://www.w3.org/Graphics/SVG/1.1/DTD/svg11.dtd">
<!-- Generated by graphviz version 12.2.1 (20241206.2353)
 -->
<!-- Title: InputManager::InputAction Pages: 1 -->
<svg width="204pt" height="238pt"
 viewBox="0.00 0.00 204.25 238.00" xmlns="http://www.w3.org/2000/svg" xmlns:xlink="http://www.w3.org/1999/xlink">
<g id="graph0" class="graph" transform="scale(1 1) rotate(0) translate(4 234)">
<title>InputManager::InputAction</title>
<!-- Node1 -->
<g id="Node000001" class="node">
<title>Node1</title>
<g id="a_Node000001"><a xlink:title=" ">
<polygon fill="#999999" stroke="#666666" points="162.88,-19.25 33.62,-19.25 33.62,0 162.88,0 162.88,-19.25"/>
<text text-anchor="middle" x="98.25" y="-5.75" font-family="Helvetica,sans-Serif" font-size="10.00">InputManager::InputAction</text>
</a>
</g>
</g>
<!-- Node2 -->
<g id="Node000002" class="node">
<title>Node2</title>
<g id="a_Node000002"><a xlink:title=" ">
<polygon fill="white" stroke="#666666" points="81.25,-85.75 23.25,-85.75 23.25,-66.5 81.25,-66.5 81.25,-85.75"/>
<text text-anchor="middle" x="52.25" y="-72.25" font-family="Helvetica,sans-Serif" font-size="10.00">std::string</text>
</a>
</g>
</g>
<!-- Node2&#45;&gt;Node1 -->
<g id="edge1_Node000001_Node000002" class="edge">
<title>Node2&#45;&gt;Node1</title>
<g id="a_edge1_Node000001_Node000002"><a xlink:title=" ">
<path fill="none" stroke="#9a32cd" stroke-dasharray="5,2" d="M65.26,-56.88C73.98,-44.66 85.06,-29.11 91.91,-19.52"/>
<polygon fill="#9a32cd" stroke="#9a32cd" points="62.48,-54.75 59.52,-64.92 68.18,-58.81 62.48,-54.75"/>
</a>
</g>
<text text-anchor="middle" x="91.13" y="-39" font-family="Helvetica,sans-Serif" font-size="10.00" fill="grey"> name</text>
</g>
<!-- Node3 -->
<g id="Node000003" class="node">
<title>Node3</title>
<g id="a_Node000003"><a xlink:title=" ">
<polygon fill="white" stroke="#666666" points="92.5,-163.5 0,-163.5 0,-133 92.5,-133 92.5,-163.5"/>
<text text-anchor="start" x="8" y="-150" font-family="Helvetica,sans-Serif" font-size="10.00">std::basic_string&lt;</text>
<text text-anchor="middle" x="46.25" y="-138.75" font-family="Helvetica,sans-Serif" font-size="10.00"> Char &gt;</text>
</a>
</g>
</g>
<!-- Node3&#45;&gt;Node2 -->
<g id="edge2_Node000002_Node000003" class="edge">
<title>Node3&#45;&gt;Node2</title>
<g id="a_edge2_Node000002_Node000003"><a xlink:title=" ">
<path fill="none" stroke="#63b8ff" d="M48.45,-121.48C49.52,-108.98 50.74,-94.77 51.5,-85.88"/>
<polygon fill="#63b8ff" stroke="#63b8ff" points="44.99,-120.95 47.62,-131.21 51.96,-121.55 44.99,-120.95"/>
</a>
</g>
</g>
<!-- Node4 -->
<g id="Node000004" class="node">
<title>Node4</title>
<g id="a_Node000004"><a xlink:title=" ">
<polygon fill="white" stroke="#666666" points="196.25,-85.75 102.25,-85.75 102.25,-66.5 196.25,-66.5 196.25,-85.75"/>
<text text-anchor="middle" x="149.25" y="-72.25" font-family="Helvetica,sans-Serif" font-size="10.00">std::vector&lt; Key &gt;</text>
</a>
</g>
</g>
<!-- Node4&#45;&gt;Node1 -->
<g id="edge3_Node000001_Node000004" class="edge">
<title>Node4&#45;&gt;Node1</title>
<g id="a_edge3_Node000001_Node000004"><a xlink:title=" ">
<path fill="none" stroke="#9a32cd" stroke-dasharray="5,2" d="M135.11,-57.24C125.41,-44.97 112.94,-29.21 105.28,-19.52"/>
<polygon fill="#9a32cd" stroke="#9a32cd" points="132.27,-59.3 141.22,-64.97 137.76,-54.95 132.27,-59.3"/>
</a>
</g>
<text text-anchor="middle" x="145.93" y="-39" font-family="Helvetica,sans-Serif" font-size="10.00" fill="grey"> bindings</text>
</g>
<!-- Node5 -->
<g id="Node000005" class="node">
<title>Node5</title>
<g id="a_Node000005"><a xlink:title=" ">
<polygon fill="white" stroke="#666666" points="194,-157.88 110.5,-157.88 110.5,-138.62 194,-138.62 194,-157.88"/>
<text text-anchor="middle" x="152.25" y="-144.38" font-family="Helvetica,sans-Serif" font-size="10.00">std::vector&lt; T &gt;</text>
</a>
</g>
</g>
<!-- Node5&#45;&gt;Node4 -->
<g id="edge4_Node000004_Node000005" class="edge">
<title>Node5&#45;&gt;Node4</title>
<g id="a_edge4_Node000004_Node000005"><a xlink:title=" ">
<path fill="none" stroke="orange" stroke-dasharray="5,2" d="M151.38,-126.87C150.8,-113.39 150.07,-96.39 149.64,-86.16"/>
<polygon fill="orange" stroke="orange" points="147.88,-127.02 151.81,-136.86 154.87,-126.72 147.88,-127.02"/>
</a>
</g>
<text text-anchor="middle" x="168.46" y="-105.5" font-family="Helvetica,sans-Serif" font-size="10.00" fill="grey"> &lt; Key &gt;</text>
</g>
<!-- Node6 -->
<g id="Node000006" class="node">
<title>Node6</title>
<g id="a_Node000006"><a xlink:title=" ">
<polygon fill="white" stroke="#bfbfbf" points="166.65,-230 137.85,-230 137.85,-210.75 166.65,-210.75 166.65,-230"/>
<text text-anchor="middle" x="152.25" y="-216.5" font-family="Helvetica,sans-Serif" font-size="10.00">T</text>
</a>
</g>
</g>
<!-- Node6&#45;&gt;Node5 -->
<g id="edge5_Node000005_Node000006" class="edge">
<title>Node6&#45;&gt;Node5</title>
<g id="a_edge5_Node000005_Node000006"><a xlink:title=" ">
<path fill="none" stroke="#9a32cd" stroke-dasharray="5,2" d="M152.25,-198.99C152.25,-185.52 152.25,-168.51 152.25,-158.28"/>
<polygon fill="#9a32cd" stroke="#9a32cd" points="148.75,-198.98 152.25,-208.98 155.75,-198.98 148.75,-198.98"/>
</a>
</g>
<text text-anchor="middle" x="173.25" y="-183.25" font-family="Helvetica,sans-Serif" font-size="10.00" fill="grey"> elements</text>
</g>
</g>
</svg>
