<?xml version="1.0" encoding="UTF-8" standalone="no"?>
<!DOCTYPE svg PUBLIC "-//W3C//DTD SVG 1.1//EN"
 "http://www.w3.org/Graphics/SVG/1.1/DTD/svg11.dtd">
<!-- Generated by graphviz version 12.2.1 (20241206.2353)
 -->
<!-- Title: InteractionEventdataStruct Pages: 1 -->
<svg width="414pt" height="238pt"
 viewBox="0.00 0.00 413.75 238.00" xmlns="http://www.w3.org/2000/svg" xmlns:xlink="http://www.w3.org/1999/xlink">
<g id="graph0" class="graph" transform="scale(1 1) rotate(0) translate(4 234)">
<title>InteractionEventdataStruct</title>
<!-- Node1 -->
<g id="Node000001" class="node">
<title>Node1</title>
<g id="a_Node000001"><a xlink:title="Struct to hold data for interaction events. This struct is used to pass data to the interaction manag...">
<polygon fill="#999999" stroke="#666666" points="285.25,-19.25 153.75,-19.25 153.75,0 285.25,0 285.25,-19.25"/>
<text text-anchor="middle" x="219.5" y="-5.75" font-family="Helvetica,sans-Serif" font-size="10.00">InteractionEventdataStruct</text>
</a>
</g>
</g>
<!-- Node2 -->
<g id="Node000002" class="node">
<title>Node2</title>
<g id="a_Node000002"><a xlink:title=" ">
<polygon fill="white" stroke="#666666" points="208.38,-97 80.62,-97 80.62,-66.5 208.38,-66.5 208.38,-97"/>
<text text-anchor="start" x="88.62" y="-83.5" font-family="Helvetica,sans-Serif" font-size="10.00">std::weak_ptr&lt; Interaction</text>
<text text-anchor="middle" x="144.5" y="-72.25" font-family="Helvetica,sans-Serif" font-size="10.00">Listener &gt;</text>
</a>
</g>
</g>
<!-- Node2&#45;&gt;Node1 -->
<g id="edge1_Node000001_Node000002" class="edge">
<title>Node2&#45;&gt;Node1</title>
<g id="a_edge1_Node000001_Node000002"><a xlink:title=" ">
<path fill="none" stroke="#9a32cd" stroke-dasharray="5,2" d="M168.39,-58.41C182.56,-45.16 199.74,-29.1 210.13,-19.38"/>
<polygon fill="#9a32cd" stroke="#9a32cd" points="166.06,-55.8 161.15,-65.19 170.84,-60.91 166.06,-55.8"/>
</a>
</g>
<text text-anchor="middle" x="204.42" y="-39" font-family="Helvetica,sans-Serif" font-size="10.00" fill="grey"> target</text>
</g>
<!-- Node3 -->
<g id="Node000003" class="node">
<title>Node3</title>
<g id="a_Node000003"><a xlink:href="classInteractionListener.html" target="_top" xlink:title=" ">
<polygon fill="white" stroke="#bfbfbf" points="97,-163.5 0,-163.5 0,-144.25 97,-144.25 97,-163.5"/>
<text text-anchor="middle" x="48.5" y="-150" font-family="Helvetica,sans-Serif" font-size="10.00">InteractionListener</text>
</a>
</g>
</g>
<!-- Node3&#45;&gt;Node2 -->
<g id="edge2_Node000002_Node000003" class="edge">
<title>Node3&#45;&gt;Node2</title>
<g id="a_edge2_Node000002_Node000003"><a xlink:title=" ">
<path fill="none" stroke="#9a32cd" stroke-dasharray="5,2" d="M69.92,-137.23C86.21,-125.33 108.47,-109.07 124.42,-97.42"/>
<polygon fill="#9a32cd" stroke="#9a32cd" points="67.89,-134.38 61.88,-143.1 72.02,-140.03 67.89,-134.38"/>
</a>
</g>
<text text-anchor="middle" x="106.13" y="-116.75" font-family="Helvetica,sans-Serif" font-size="10.00" fill="grey"> ptr</text>
</g>
<!-- Node4 -->
<g id="Node000004" class="node">
<title>Node4</title>
<g id="a_Node000004"><a xlink:title=" ">
<polygon fill="white" stroke="#666666" points="211.62,-163.5 115.38,-163.5 115.38,-144.25 211.62,-144.25 211.62,-163.5"/>
<text text-anchor="middle" x="163.5" y="-150" font-family="Helvetica,sans-Serif" font-size="10.00">std::weak_ptr&lt; T &gt;</text>
</a>
</g>
</g>
<!-- Node4&#45;&gt;Node2 -->
<g id="edge3_Node000002_Node000004" class="edge">
<title>Node4&#45;&gt;Node2</title>
<g id="a_edge3_Node000002_Node000004"><a xlink:title=" ">
<path fill="none" stroke="orange" stroke-dasharray="5,2" d="M158.12,-133.03C155.05,-121.7 151.27,-107.75 148.47,-97.42"/>
<polygon fill="orange" stroke="orange" points="154.7,-133.8 160.7,-142.53 161.46,-131.97 154.7,-133.8"/>
</a>
</g>
<text text-anchor="middle" x="206.14" y="-116.75" font-family="Helvetica,sans-Serif" font-size="10.00" fill="grey"> &lt; InteractionListener &gt;</text>
</g>
<!-- Node5 -->
<g id="Node000005" class="node">
<title>Node5</title>
<g id="a_Node000005"><a xlink:title=" ">
<polygon fill="white" stroke="#bfbfbf" points="235.9,-230 207.1,-230 207.1,-210.75 235.9,-210.75 235.9,-230"/>
<text text-anchor="middle" x="221.5" y="-216.5" font-family="Helvetica,sans-Serif" font-size="10.00">T</text>
</a>
</g>
</g>
<!-- Node5&#45;&gt;Node4 -->
<g id="edge4_Node000004_Node000005" class="edge">
<title>Node5&#45;&gt;Node4</title>
<g id="a_edge4_Node000004_Node000005"><a xlink:title=" ">
<path fill="none" stroke="#9a32cd" stroke-dasharray="5,2" d="M205.75,-201.86C194.67,-189.53 180.3,-173.56 171.5,-163.77"/>
<polygon fill="#9a32cd" stroke="#9a32cd" points="203.13,-204.19 212.42,-209.28 208.34,-199.51 203.13,-204.19"/>
</a>
</g>
<text text-anchor="middle" x="202.72" y="-183.25" font-family="Helvetica,sans-Serif" font-size="10.00" fill="grey"> ptr</text>
</g>
<!-- Node8 -->
<g id="Node000008" class="node">
<title>Node8</title>
<g id="a_Node000008"><a xlink:title=" ">
<polygon fill="white" stroke="#666666" points="331.62,-163.5 229.38,-163.5 229.38,-144.25 331.62,-144.25 331.62,-163.5"/>
<text text-anchor="middle" x="280.5" y="-150" font-family="Helvetica,sans-Serif" font-size="10.00">std::shared_ptr&lt; T &gt;</text>
</a>
</g>
</g>
<!-- Node5&#45;&gt;Node8 -->
<g id="edge8_Node000008_Node000005" class="edge">
<title>Node5&#45;&gt;Node8</title>
<g id="a_edge8_Node000008_Node000005"><a xlink:title=" ">
<path fill="none" stroke="#9a32cd" stroke-dasharray="5,2" d="M237.19,-202.22C248.51,-189.85 263.33,-173.65 272.37,-163.77"/>
<polygon fill="#9a32cd" stroke="#9a32cd" points="234.89,-199.55 230.73,-209.29 240.06,-204.27 234.89,-199.55"/>
</a>
</g>
<text text-anchor="middle" x="261.28" y="-183.25" font-family="Helvetica,sans-Serif" font-size="10.00" fill="grey"> ptr</text>
</g>
<!-- Node6 -->
<g id="Node000006" class="node">
<title>Node6</title>
<g id="a_Node000006"><a xlink:title=" ">
<polygon fill="white" stroke="#666666" points="362.88,-91.38 226.12,-91.38 226.12,-72.12 362.88,-72.12 362.88,-91.38"/>
<text text-anchor="middle" x="294.5" y="-77.88" font-family="Helvetica,sans-Serif" font-size="10.00">std::shared_ptr&lt; Vector2D &gt;</text>
</a>
</g>
</g>
<!-- Node6&#45;&gt;Node1 -->
<g id="edge5_Node000001_Node000006" class="edge">
<title>Node6&#45;&gt;Node1</title>
<g id="a_edge5_Node000001_Node000006"><a xlink:title=" ">
<path fill="none" stroke="#9a32cd" stroke-dasharray="5,2" d="M276.61,-64.02C261.73,-50.11 241.12,-30.84 229.16,-19.66"/>
<polygon fill="#9a32cd" stroke="#9a32cd" points="274.2,-66.56 283.9,-70.83 278.98,-61.45 274.2,-66.56"/>
</a>
</g>
<text text-anchor="middle" x="301.25" y="-39" font-family="Helvetica,sans-Serif" font-size="10.00" fill="grey"> targetingReference</text>
</g>
<!-- Node7 -->
<g id="Node000007" class="node">
<title>Node7</title>
<g id="a_Node000007"><a xlink:href="classVector2D.html" target="_top" xlink:title=" ">
<polygon fill="white" stroke="#bfbfbf" points="405.75,-163.5 349.25,-163.5 349.25,-144.25 405.75,-144.25 405.75,-163.5"/>
<text text-anchor="middle" x="377.5" y="-150" font-family="Helvetica,sans-Serif" font-size="10.00">Vector2D</text>
</a>
</g>
</g>
<!-- Node7&#45;&gt;Node6 -->
<g id="edge6_Node000006_Node000007" class="edge">
<title>Node7&#45;&gt;Node6</title>
<g id="a_edge6_Node000006_Node000007"><a xlink:title=" ">
<path fill="none" stroke="#9a32cd" stroke-dasharray="5,2" d="M367.15,-134.29C362.88,-127.68 357.52,-120.52 351.5,-115 340.94,-105.32 326.97,-97.35 315.5,-91.76"/>
<polygon fill="#9a32cd" stroke="#9a32cd" points="363.98,-135.81 372.12,-142.6 369.99,-132.22 363.98,-135.81"/>
</a>
</g>
<text text-anchor="middle" x="368.28" y="-116.75" font-family="Helvetica,sans-Serif" font-size="10.00" fill="grey"> ptr</text>
</g>
<!-- Node8&#45;&gt;Node6 -->
<g id="edge7_Node000006_Node000008" class="edge">
<title>Node8&#45;&gt;Node6</title>
<g id="a_edge7_Node000006_Node000008"><a xlink:title=" ">
<path fill="none" stroke="orange" stroke-dasharray="5,2" d="M284.49,-132.91C287.19,-119.37 290.63,-102.12 292.7,-91.78"/>
<polygon fill="orange" stroke="orange" points="281.1,-132.02 282.57,-142.51 287.96,-133.39 281.1,-132.02"/>
</a>
</g>
<text text-anchor="middle" x="317.54" y="-116.75" font-family="Helvetica,sans-Serif" font-size="10.00" fill="grey"> &lt; Vector2D &gt;</text>
</g>
</g>
</svg>
