<?xml version="1.0" encoding="UTF-8" standalone="no"?>
<!DOCTYPE svg PUBLIC "-//W3C//DTD SVG 1.1//EN"
 "http://www.w3.org/Graphics/SVG/1.1/DTD/svg11.dtd">
<!-- Generated by graphviz version 11.0.0 (20240428.1522)
 -->
<!-- Title: src/TransformComponent.cpp Pages: 1 -->
<!--zoomable 359 -->

<svg id="main" version="1.1" xmlns="http://www.w3.org/2000/svg" xmlns:xlink="http://www.w3.org/1999/xlink" xml:space="preserve" onload="init(evt)">
<style type="text/css"><![CDATA[
.node, .edge {opacity: 0.7;}
.node.selected, .edge.selected {opacity: 1;}
.edge:hover path { stroke: red; }
.edge:hover polygon { stroke: red; fill: red; }
]]></style>

<defs>
  <circle id="rim" cx="0" cy="0" r="7"/>
  <circle id="rim2" cx="0" cy="0" r="3.5"/>
  <g id="zoomPlus">
    <use xlink:href="#rim" fill="#404040"><set attributeName="fill" to="#808080" begin="zoomplus.mouseover" end="zoomplus.mouseout"/></use>
    <path d="M-4,0h8M0,-4v8" fill="none" stroke="white" stroke-width="1.5" pointer-events="none"/>
  </g>
  <g id="zoomMin">
    <use xlink:href="#rim" fill="#404040"><set attributeName="fill" to="#808080" begin="zoomminus.mouseover" end="zoomminus.mouseout"/></use>
    <path d="M-4,0h8" fill="none" stroke="white" stroke-width="1.5" pointer-events="none"/>
  </g>
  <g id="arrowUp" transform="translate(30 24)">
    <use xlink:href="#rim"/>
    <path pointer-events="none" fill="none" stroke="white" stroke-width="1.5" d="M0,-3.0v7 M-2.5,-0.5L0,-3.0L2.5,-0.5"/>
  </g>
  <g id="arrowRight" transform="rotate(90) translate(36 -43)">
    <use xlink:href="#rim"/>
    <path pointer-events="none" fill="none" stroke="white" stroke-width="1.5" d="M0,-3.0v7 M-2.5,-0.5L0,-3.0L2.5,-0.5"/>
  </g>
  <g id="arrowDown" transform="rotate(180) translate(-30 -48)">
    <use xlink:href="#rim"/>
    <path pointer-events="none" fill="none" stroke="white" stroke-width="1.5" d="M0,-3.0v7 M-2.5,-0.5L0,-3.0L2.5,-0.5"/>
  </g>
  <g id="arrowLeft" transform="rotate(270) translate(-36 17)">
    <use xlink:href="#rim"/>
    <path pointer-events="none" fill="none" stroke="white" stroke-width="1.5" d="M0,-3.0v7 M-2.5,-0.5L0,-3.0L2.5,-0.5"/>
  </g>
  <g id="resetDef">
    <use xlink:href="#rim2" fill="#404040"><set attributeName="fill" to="#808080" begin="reset.mouseover" end="reset.mouseout"/></use>
  </g>
</defs>
<script type="application/ecmascript">
var viewWidth = 1424;
var viewHeight = 359;
var sectionId = 'dynsection-0';
</script>
<script type="application/ecmascript" xlink:href="svg.min.js"/>
<svg id="graph" class="graph">
<g id="viewport">
<title>src/TransformComponent.cpp</title>
<!-- Node1 -->
<g id="Node000001" class="node">
<title>Node1</title>
<g id="a_Node000001"><a xlink:title=" ">
<polygon fill="#999999" stroke="#666666" points="621.12,-350.75 476.88,-350.75 476.88,-331.5 621.12,-331.5 621.12,-350.75"/>
<text text-anchor="middle" x="549" y="-337.25" font-family="Helvetica,sans-Serif" font-size="10.00">src/TransformComponent.cpp</text>
</a>
</g>
</g>
<!-- Node2 -->
<g id="Node000002" class="node">
<title>Node2</title>
<g id="a_Node000002"><a xlink:href="TransformComponent_8h_source.html" target="_top" xlink:title=" ">
<polygon fill="white" stroke="#666666" points="383.62,-129.75 266.38,-129.75 266.38,-110.5 383.62,-110.5 383.62,-129.75"/>
<text text-anchor="middle" x="325" y="-116.25" font-family="Helvetica,sans-Serif" font-size="10.00">TransformComponent.h</text>
</a>
</g>
</g>
<!-- Node1&#45;&gt;Node2 -->
<g id="edge1_Node000001_Node000002" class="edge">
<title>Node1&#45;&gt;Node2</title>
<g id="a_edge1_Node000001_Node000002"><a xlink:title=" ">
<path fill="none" stroke="#63b8ff" d="M531.14,-331.02C515.93,-322.82 493.92,-309.88 477,-295.5 418.2,-245.54 362.05,-172.35 337.69,-138.94"/>
<polygon fill="#63b8ff" stroke="#63b8ff" points="340.75,-137.21 332.06,-131.15 335.07,-141.31 340.75,-137.21"/>
</a>
</g>
</g>
<!-- Node4 -->
<g id="Node000004" class="node">
<title>Node4</title>
<g id="a_Node000004"><a xlink:href="Vector2D_8h_source.html" target="_top" xlink:title=" ">
<polygon fill="white" stroke="#666666" points="114,-74.5 50,-74.5 50,-55.25 114,-55.25 114,-74.5"/>
<text text-anchor="middle" x="82" y="-61" font-family="Helvetica,sans-Serif" font-size="10.00">Vector2D.h</text>
</a>
</g>
</g>
<!-- Node1&#45;&gt;Node4 -->
<g id="edge56_Node000001_Node000004" class="edge">
<title>Node1&#45;&gt;Node4</title>
<g id="a_edge56_Node000001_Node000004"><a xlink:title=" ">
<path fill="none" stroke="#63b8ff" d="M476.38,-340.75C327.17,-340.07 0,-327.63 0,-231.62 0,-231.62 0,-231.62 0,-174.38 0,-134.77 35.2,-100.49 59.48,-81.55"/>
<polygon fill="#63b8ff" stroke="#63b8ff" points="61.33,-84.54 67.25,-75.75 57.14,-78.93 61.33,-84.54"/>
</a>
</g>
</g>
<!-- Node7 -->
<g id="Node000007" class="node">
<title>Node7</title>
<g id="a_Node000007"><a xlink:href="Constants_8h_source.html" target="_top" xlink:title=" ">
<polygon fill="white" stroke="#666666" points="642.88,-74.5 575.12,-74.5 575.12,-55.25 642.88,-55.25 642.88,-74.5"/>
<text text-anchor="middle" x="609" y="-61" font-family="Helvetica,sans-Serif" font-size="10.00">Constants.h</text>
</a>
</g>
</g>
<!-- Node1&#45;&gt;Node7 -->
<g id="edge47_Node000001_Node000007" class="edge">
<title>Node1&#45;&gt;Node7</title>
<g id="a_edge47_Node000001_Node000007"><a xlink:title=" ">
<path fill="none" stroke="#63b8ff" d="M621.49,-337.81C817.96,-330.58 1346,-304.37 1346,-231.62 1346,-231.62 1346,-231.62 1346,-174.38 1346,-144.76 1350.18,-128.94 1327,-110.5 1274.48,-68.73 804.05,-65.64 654.46,-65.73"/>
<polygon fill="#63b8ff" stroke="#63b8ff" points="654.53,-62.23 644.54,-65.74 654.54,-69.23 654.53,-62.23"/>
</a>
</g>
</g>
<!-- Node9 -->
<g id="Node000009" class="node">
<title>Node9</title>
<g id="a_Node000009"><a xlink:href="CollisionHandler_8h.html" target="_top" xlink:title=" ">
<polygon fill="white" stroke="#666666" points="596,-295.5 502,-295.5 502,-276.25 596,-276.25 596,-295.5"/>
<text text-anchor="middle" x="549" y="-282" font-family="Helvetica,sans-Serif" font-size="10.00">CollisionHandler.h</text>
</a>
</g>
</g>
<!-- Node1&#45;&gt;Node9 -->
<g id="edge8_Node000001_Node000009" class="edge">
<title>Node1&#45;&gt;Node9</title>
<g id="a_edge8_Node000001_Node000009"><a xlink:title=" ">
<path fill="none" stroke="#63b8ff" d="M549,-331.33C549,-324.82 549,-315.67 549,-307.37"/>
<polygon fill="#63b8ff" stroke="#63b8ff" points="552.5,-307.37 549,-297.37 545.5,-307.37 552.5,-307.37"/>
</a>
</g>
</g>
<!-- Node10 -->
<g id="Node000010" class="node">
<title>Node10</title>
<g id="a_Node000010"><a xlink:href="ColliderComponent_8h_source.html" target="_top" xlink:title=" ">
<polygon fill="white" stroke="#666666" points="209.62,-129.75 104.38,-129.75 104.38,-110.5 209.62,-110.5 209.62,-129.75"/>
<text text-anchor="middle" x="157" y="-116.25" font-family="Helvetica,sans-Serif" font-size="10.00">ColliderComponent.h</text>
</a>
</g>
</g>
<!-- Node1&#45;&gt;Node10 -->
<g id="edge46_Node000001_Node000010" class="edge">
<title>Node1&#45;&gt;Node10</title>
<g id="a_edge46_Node000001_Node000010"><a xlink:title=" ">
<path fill="none" stroke="#63b8ff" d="M476.62,-337.59C398.35,-331.17 274.17,-309.77 195,-240.25 172.98,-220.91 167.78,-212.96 159,-185 154.56,-170.87 154.21,-154.11 154.89,-141.3"/>
<polygon fill="#63b8ff" stroke="#63b8ff" points="158.36,-141.81 155.67,-131.56 151.38,-141.25 158.36,-141.81"/>
</a>
</g>
</g>
<!-- Node11 -->
<g id="Node000011" class="node">
<title>Node11</title>
<g id="a_Node000011"><a xlink:href="Entity_8h_source.html" target="_top" xlink:title=" ">
<polygon fill="white" stroke="#666666" points="471.75,-185 424.25,-185 424.25,-165.75 471.75,-165.75 471.75,-185"/>
<text text-anchor="middle" x="448" y="-171.5" font-family="Helvetica,sans-Serif" font-size="10.00">Entity.h</text>
</a>
</g>
</g>
<!-- Node1&#45;&gt;Node11 -->
<g id="edge48_Node000001_Node000011" class="edge">
<title>Node1&#45;&gt;Node11</title>
<g id="a_edge48_Node000001_Node000011"><a xlink:title=" ">
<path fill="none" stroke="#63b8ff" d="M533.54,-331.1C521.09,-323.13 503.91,-310.47 493,-295.5 470.51,-264.62 457.88,-221.15 452.04,-196.16"/>
<polygon fill="#63b8ff" stroke="#63b8ff" points="455.53,-195.72 449.98,-186.7 448.69,-197.22 455.53,-195.72"/>
</a>
</g>
</g>
<!-- Node24 -->
<g id="Node000024" class="node">
<title>Node24</title>
<g id="a_Node000024"><a xlink:title=" ">
<polygon fill="#e0e0e0" stroke="#999999" points="733.75,-185 680.25,-185 680.25,-165.75 733.75,-165.75 733.75,-185"/>
<text text-anchor="middle" x="707" y="-171.5" font-family="Helvetica,sans-Serif" font-size="10.00">iostream</text>
</a>
</g>
</g>
<!-- Node1&#45;&gt;Node24 -->
<g id="edge59_Node000001_Node000024" class="edge">
<title>Node1&#45;&gt;Node24</title>
<g id="a_edge59_Node000001_Node000024"><a xlink:title=" ">
<path fill="none" stroke="#63b8ff" d="M612.95,-331.05C703.62,-316.71 862.3,-285.7 896,-240.25 955.5,-160.01 1021.03,-249.1 744.94,-185.42"/>
<polygon fill="#63b8ff" stroke="#63b8ff" points="746.13,-182.1 735.6,-183.23 744.54,-188.92 746.13,-182.1"/>
</a>
</g>
</g>
<!-- Node25 -->
<g id="Node000025" class="node">
<title>Node25</title>
<g id="a_Node000025"><a xlink:title=" ">
<polygon fill="#e0e0e0" stroke="#999999" points="886.75,-240.25 815.25,-240.25 815.25,-221 886.75,-221 886.75,-240.25"/>
<text text-anchor="middle" x="851" y="-226.75" font-family="Helvetica,sans-Serif" font-size="10.00">initializer_list</text>
</a>
</g>
</g>
<!-- Node1&#45;&gt;Node25 -->
<g id="edge58_Node000001_Node000025" class="edge">
<title>Node1&#45;&gt;Node25</title>
<g id="a_edge58_Node000001_Node000025"><a xlink:title=" ">
<path fill="none" stroke="#63b8ff" d="M574.23,-331.06C627.74,-311.83 752.81,-266.9 814.82,-244.62"/>
<polygon fill="#63b8ff" stroke="#63b8ff" points="815.98,-247.93 824.21,-241.25 813.61,-241.34 815.98,-247.93"/>
</a>
</g>
</g>
<!-- Node28 -->
<g id="Node000028" class="node">
<title>Node28</title>
<g id="a_Node000028"><a xlink:href="Game_8h_source.html" target="_top" xlink:title=" ">
<polygon fill="white" stroke="#666666" points="291.88,-240.25 242.12,-240.25 242.12,-221 291.88,-221 291.88,-240.25"/>
<text text-anchor="middle" x="267" y="-226.75" font-family="Helvetica,sans-Serif" font-size="10.00">Game.h</text>
</a>
</g>
</g>
<!-- Node1&#45;&gt;Node28 -->
<g id="edge49_Node000001_Node000028" class="edge">
<title>Node1&#45;&gt;Node28</title>
<g id="a_edge49_Node000001_Node000028"><a xlink:title=" ">
<path fill="none" stroke="#63b8ff" d="M476.5,-332.91C435.96,-326.82 385.42,-315.68 344,-295.5 320.21,-283.91 297.46,-263.48 282.94,-248.85"/>
<polygon fill="#63b8ff" stroke="#63b8ff" points="285.53,-246.49 276.08,-241.71 280.48,-251.35 285.53,-246.49"/>
</a>
</g>
</g>
<!-- Node31 -->
<g id="Node000031" class="node">
<title>Node31</title>
<g id="a_Node000031"><a xlink:title=" ">
<polygon fill="#e0e0e0" stroke="#999999" points="1416.12,-295.5 1373.88,-295.5 1373.88,-276.25 1416.12,-276.25 1416.12,-295.5"/>
<text text-anchor="middle" x="1395" y="-282" font-family="Helvetica,sans-Serif" font-size="10.00">cstdio</text>
</a>
</g>
</g>
<!-- Node1&#45;&gt;Node31 -->
<g id="edge57_Node000001_Node000031" class="edge">
<title>Node1&#45;&gt;Node31</title>
<g id="a_edge57_Node000001_Node000031"><a xlink:title=" ">
<path fill="none" stroke="#63b8ff" d="M621.61,-340.65C764.05,-340.69 1089.79,-335.87 1360,-295.5 1360.84,-295.38 1361.68,-295.24 1362.53,-295.09"/>
<polygon fill="#63b8ff" stroke="#63b8ff" points="1363.08,-298.55 1372.17,-293.11 1361.67,-291.7 1363.08,-298.55"/>
</a>
</g>
</g>
<!-- Node32 -->
<g id="Node000032" class="node">
<title>Node32</title>
<g id="a_Node000032"><a xlink:href="SoundManager_8h_source.html" target="_top" xlink:title=" ">
<polygon fill="white" stroke="#666666" points="1031.38,-240.25 942.62,-240.25 942.62,-221 1031.38,-221 1031.38,-240.25"/>
<text text-anchor="middle" x="987" y="-226.75" font-family="Helvetica,sans-Serif" font-size="10.00">SoundManager.h</text>
</a>
</g>
</g>
<!-- Node1&#45;&gt;Node32 -->
<g id="edge60_Node000001_Node000032" class="edge">
<title>Node1&#45;&gt;Node32</title>
<g id="a_edge60_Node000001_Node000032"><a xlink:title=" ">
<path fill="none" stroke="#63b8ff" d="M621.5,-337.63C716.45,-333.34 876.95,-322.28 929,-295.5 949.13,-285.14 965.7,-264.75 975.91,-249.79"/>
<polygon fill="#63b8ff" stroke="#63b8ff" points="978.61,-252.05 981.1,-241.75 972.73,-248.25 978.61,-252.05"/>
</a>
</g>
</g>
<!-- Node3 -->
<g id="Node000003" class="node">
<title>Node3</title>
<g id="a_Node000003"><a xlink:href="Component_8h_source.html" target="_top" xlink:title=" ">
<polygon fill="white" stroke="#666666" points="420.5,-74.5 347.5,-74.5 347.5,-55.25 420.5,-55.25 420.5,-74.5"/>
<text text-anchor="middle" x="384" y="-61" font-family="Helvetica,sans-Serif" font-size="10.00">Component.h</text>
</a>
</g>
</g>
<!-- Node2&#45;&gt;Node3 -->
<g id="edge2_Node000002_Node000003" class="edge">
<title>Node2&#45;&gt;Node3</title>
<g id="a_edge2_Node000002_Node000003"><a xlink:title=" ">
<path fill="none" stroke="#63b8ff" d="M335.01,-110.09C343.37,-102.55 355.5,-91.6 365.6,-82.48"/>
<polygon fill="#63b8ff" stroke="#63b8ff" points="367.94,-85.09 373.02,-75.79 363.25,-79.89 367.94,-85.09"/>
</a>
</g>
</g>
<!-- Node2&#45;&gt;Node4 -->
<g id="edge3_Node000002_Node000004" class="edge">
<title>Node2&#45;&gt;Node4</title>
<g id="a_edge3_Node000002_Node000004"><a xlink:title=" ">
<path fill="none" stroke="#63b8ff" d="M283.5,-110.03C239.48,-100.39 170.25,-85.21 125.48,-75.4"/>
<polygon fill="#63b8ff" stroke="#63b8ff" points="126.38,-72.02 115.86,-73.3 124.88,-78.86 126.38,-72.02"/>
</a>
</g>
</g>
<!-- Node2&#45;&gt;Node7 -->
<g id="edge6_Node000002_Node000007" class="edge">
<title>Node2&#45;&gt;Node7</title>
<g id="a_edge6_Node000002_Node000007"><a xlink:title=" ">
<path fill="none" stroke="#63b8ff" d="M373.5,-110.03C426.82,-100.03 511.79,-84.1 563.77,-74.36"/>
<polygon fill="#63b8ff" stroke="#63b8ff" points="564.3,-77.82 573.48,-72.53 563.01,-70.94 564.3,-77.82"/>
</a>
</g>
</g>
<!-- Node5 -->
<g id="Node000005" class="node">
<title>Node5</title>
<g id="a_Node000005"><a xlink:title=" ">
<polygon fill="#e0e0e0" stroke="#999999" points="103.5,-19.25 60.5,-19.25 60.5,0 103.5,0 103.5,-19.25"/>
<text text-anchor="middle" x="82" y="-5.75" font-family="Helvetica,sans-Serif" font-size="10.00">SDL.h</text>
</a>
</g>
</g>
<!-- Node4&#45;&gt;Node5 -->
<g id="edge4_Node000004_Node000005" class="edge">
<title>Node4&#45;&gt;Node5</title>
<g id="a_edge4_Node000004_Node000005"><a xlink:title=" ">
<path fill="none" stroke="#63b8ff" d="M82,-55.08C82,-48.57 82,-39.42 82,-31.12"/>
<polygon fill="#63b8ff" stroke="#63b8ff" points="85.5,-31.12 82,-21.12 78.5,-31.12 85.5,-31.12"/>
</a>
</g>
</g>
<!-- Node6 -->
<g id="Node000006" class="node">
<title>Node6</title>
<g id="a_Node000006"><a xlink:title=" ">
<polygon fill="#e0e0e0" stroke="#999999" points="236.38,-19.25 171.62,-19.25 171.62,0 236.38,0 236.38,-19.25"/>
<text text-anchor="middle" x="204" y="-5.75" font-family="Helvetica,sans-Serif" font-size="10.00">SDL_rect.h</text>
</a>
</g>
</g>
<!-- Node4&#45;&gt;Node6 -->
<g id="edge5_Node000004_Node000006" class="edge">
<title>Node4&#45;&gt;Node6</title>
<g id="a_edge5_Node000004_Node000006"><a xlink:title=" ">
<path fill="none" stroke="#63b8ff" d="M102.7,-54.84C121.89,-46.47 150.71,-33.88 172.72,-24.28"/>
<polygon fill="#63b8ff" stroke="#63b8ff" points="174.05,-27.52 181.82,-20.31 171.25,-21.1 174.05,-27.52"/>
</a>
</g>
</g>
<!-- Node8 -->
<g id="Node000008" class="node">
<title>Node8</title>
<g id="a_Node000008"><a xlink:title=" ">
<polygon fill="#e0e0e0" stroke="#999999" points="633.12,-19.25 584.88,-19.25 584.88,0 633.12,0 633.12,-19.25"/>
<text text-anchor="middle" x="609" y="-5.75" font-family="Helvetica,sans-Serif" font-size="10.00">cstddef</text>
</a>
</g>
</g>
<!-- Node7&#45;&gt;Node8 -->
<g id="edge7_Node000007_Node000008" class="edge">
<title>Node7&#45;&gt;Node8</title>
<g id="a_edge7_Node000007_Node000008"><a xlink:title=" ">
<path fill="none" stroke="#63b8ff" d="M609,-55.08C609,-48.57 609,-39.42 609,-31.12"/>
<polygon fill="#63b8ff" stroke="#63b8ff" points="612.5,-31.12 609,-21.12 605.5,-31.12 612.5,-31.12"/>
</a>
</g>
</g>
<!-- Node9&#45;&gt;Node4 -->
<g id="edge33_Node000009_Node000004" class="edge">
<title>Node9&#45;&gt;Node4</title>
<g id="a_edge33_Node000009_Node000004"><a xlink:title=" ">
<path fill="none" stroke="#63b8ff" d="M501.77,-282.64C418.22,-278.09 248.13,-265.9 195,-240.25 131.74,-209.71 109.24,-194.5 82,-129.75 76.2,-115.96 76.51,-98.97 78.1,-85.98"/>
<polygon fill="#63b8ff" stroke="#63b8ff" points="81.5,-86.91 79.63,-76.48 74.59,-85.8 81.5,-86.91"/>
</a>
</g>
</g>
<!-- Node9&#45;&gt;Node6 -->
<g id="edge24_Node000009_Node000006" class="edge">
<title>Node9&#45;&gt;Node6</title>
<g id="a_edge24_Node000009_Node000006"><a xlink:title=" ">
<path fill="none" stroke="#63b8ff" d="M515.59,-275.76C455.57,-257.74 329.06,-212.01 257,-129.75 231.11,-100.19 215.96,-55.95 208.89,-30.52"/>
<polygon fill="#63b8ff" stroke="#63b8ff" points="212.36,-29.95 206.44,-21.16 205.59,-31.72 212.36,-29.95"/>
</a>
</g>
</g>
<!-- Node9&#45;&gt;Node7 -->
<g id="edge13_Node000009_Node000007" class="edge">
<title>Node9&#45;&gt;Node7</title>
<g id="a_edge13_Node000009_Node000007"><a xlink:title=" ">
<path fill="none" stroke="#63b8ff" d="M596.28,-277.07C633.49,-270.01 686.2,-257.99 730,-240.25 745.74,-233.87 748.11,-229.16 763,-221 793.68,-204.18 814.78,-214.86 833,-185 837.46,-177.7 837.66,-172.93 833,-165.75 793.59,-105.02 707.72,-80.91 654.49,-71.56"/>
<polygon fill="#63b8ff" stroke="#63b8ff" points="655.26,-68.13 644.82,-69.97 654.13,-75.04 655.26,-68.13"/>
</a>
</g>
</g>
<!-- Node9&#45;&gt;Node10 -->
<g id="edge9_Node000009_Node000010" class="edge">
<title>Node9&#45;&gt;Node10</title>
<g id="a_edge9_Node000009_Node000010"><a xlink:title=" ">
<path fill="none" stroke="#63b8ff" d="M501.53,-281.55C425.38,-275.66 279.75,-261.92 233,-240.25 199.51,-224.73 189.64,-216.86 171,-185 163.18,-171.63 159.72,-154.38 158.19,-141.17"/>
<polygon fill="#63b8ff" stroke="#63b8ff" points="161.71,-141.18 157.37,-131.52 154.73,-141.78 161.71,-141.18"/>
</a>
</g>
</g>
<!-- Node9&#45;&gt;Node11 -->
<g id="edge14_Node000009_Node000011" class="edge">
<title>Node9&#45;&gt;Node11</title>
<g id="a_edge14_Node000009_Node000011"><a xlink:title=" ">
<path fill="none" stroke="#63b8ff" d="M540.36,-276.06C531.62,-267.11 517.76,-252.82 506,-240.25 491.34,-224.58 474.93,-206.45 463.32,-193.52"/>
<polygon fill="#63b8ff" stroke="#63b8ff" points="466.09,-191.37 456.81,-186.26 460.88,-196.04 466.09,-191.37"/>
</a>
</g>
</g>
<!-- Node14 -->
<g id="Node000014" class="node">
<title>Node14</title>
<g id="a_Node000014"><a xlink:title=" ">
<polygon fill="#e0e0e0" stroke="#999999" points="442,-129.75 402,-129.75 402,-110.5 442,-110.5 442,-129.75"/>
<text text-anchor="middle" x="422" y="-116.25" font-family="Helvetica,sans-Serif" font-size="10.00">bitset</text>
</a>
</g>
</g>
<!-- Node9&#45;&gt;Node14 -->
<g id="edge41_Node000009_Node000014" class="edge">
<title>Node9&#45;&gt;Node14</title>
<g id="a_edge41_Node000009_Node000014"><a xlink:title=" ">
<path fill="none" stroke="#63b8ff" d="M525.76,-275.79C493.73,-261.82 437.43,-231.68 415,-185 408.34,-171.14 410.88,-153.69 414.65,-140.54"/>
<polygon fill="#63b8ff" stroke="#63b8ff" points="417.87,-141.91 417.74,-131.32 411.24,-139.69 417.87,-141.91"/>
</a>
</g>
</g>
<!-- Node15 -->
<g id="Node000015" class="node">
<title>Node15</title>
<g id="a_Node000015"><a xlink:title=" ">
<polygon fill="#e0e0e0" stroke="#999999" points="658.5,-129.75 615.5,-129.75 615.5,-110.5 658.5,-110.5 658.5,-129.75"/>
<text text-anchor="middle" x="637" y="-116.25" font-family="Helvetica,sans-Serif" font-size="10.00">vector</text>
</a>
</g>
</g>
<!-- Node9&#45;&gt;Node15 -->
<g id="edge45_Node000009_Node000015" class="edge">
<title>Node9&#45;&gt;Node15</title>
<g id="a_edge45_Node000009_Node000015"><a xlink:title=" ">
<path fill="none" stroke="#63b8ff" d="M545.09,-275.91C540.16,-263.28 533.12,-239.71 540,-221 553.57,-184.11 589.03,-153.79 613.1,-136.58"/>
<polygon fill="#63b8ff" stroke="#63b8ff" points="614.82,-139.64 621.07,-131.09 610.85,-133.88 614.82,-139.64"/>
</a>
</g>
</g>
<!-- Node17 -->
<g id="Node000017" class="node">
<title>Node17</title>
<g id="a_Node000017"><a xlink:href="SpriteComponent_8h_source.html" target="_top" xlink:title=" ">
<polygon fill="white" stroke="#666666" points="1166.25,-185 1067.75,-185 1067.75,-165.75 1166.25,-165.75 1166.25,-185"/>
<text text-anchor="middle" x="1117" y="-171.5" font-family="Helvetica,sans-Serif" font-size="10.00">SpriteComponent.h</text>
</a>
</g>
</g>
<!-- Node9&#45;&gt;Node17 -->
<g id="edge25_Node000009_Node000017" class="edge">
<title>Node9&#45;&gt;Node17</title>
<g id="a_edge25_Node000009_Node000017"><a xlink:title=" ">
<path fill="none" stroke="#63b8ff" d="M596.09,-278.05C639.96,-270.99 706.86,-258.44 763,-240.25 782.92,-233.8 785.89,-226.82 806,-221 851.6,-207.8 978.97,-191.92 1055.83,-183.11"/>
<polygon fill="#63b8ff" stroke="#63b8ff" points="1056.21,-186.59 1065.75,-181.98 1055.42,-179.63 1056.21,-186.59"/>
</a>
</g>
</g>
<!-- Node23 -->
<g id="Node000023" class="node">
<title>Node23</title>
<g id="a_Node000023"><a xlink:href="Manager_8h_source.html" target="_top" xlink:title=" ">
<polygon fill="white" stroke="#666666" points="609.5,-240.25 548.5,-240.25 548.5,-221 609.5,-221 609.5,-240.25"/>
<text text-anchor="middle" x="579" y="-226.75" font-family="Helvetica,sans-Serif" font-size="10.00">Manager.h</text>
</a>
</g>
</g>
<!-- Node9&#45;&gt;Node23 -->
<g id="edge34_Node000009_Node000023" class="edge">
<title>Node9&#45;&gt;Node23</title>
<g id="a_edge34_Node000009_Node000023"><a xlink:title=" ">
<path fill="none" stroke="#63b8ff" d="M553.95,-276.08C557.88,-269.11 563.51,-259.12 568.44,-250.37"/>
<polygon fill="#63b8ff" stroke="#63b8ff" points="571.34,-252.36 573.2,-241.93 565.24,-248.92 571.34,-252.36"/>
</a>
</g>
</g>
<!-- Node9&#45;&gt;Node25 -->
<g id="edge42_Node000009_Node000025" class="edge">
<title>Node9&#45;&gt;Node25</title>
<g id="a_edge42_Node000009_Node000025"><a xlink:title=" ">
<path fill="none" stroke="#63b8ff" d="M596.19,-276.55C652.84,-266.57 747.27,-249.92 803.88,-239.93"/>
<polygon fill="#63b8ff" stroke="#63b8ff" points="804.29,-243.42 813.53,-238.23 803.07,-236.52 804.29,-243.42"/>
</a>
</g>
</g>
<!-- Node26 -->
<g id="Node000026" class="node">
<title>Node26</title>
<g id="a_Node000026"><a xlink:title=" ">
<polygon fill="#e0e0e0" stroke="#999999" points="664.5,-240.25 627.5,-240.25 627.5,-221 664.5,-221 664.5,-240.25"/>
<text text-anchor="middle" x="646" y="-226.75" font-family="Helvetica,sans-Serif" font-size="10.00">tuple</text>
</a>
</g>
</g>
<!-- Node9&#45;&gt;Node26 -->
<g id="edge43_Node000009_Node000026" class="edge">
<title>Node9&#45;&gt;Node26</title>
<g id="a_edge43_Node000009_Node000026"><a xlink:title=" ">
<path fill="none" stroke="#63b8ff" d="M565.45,-275.84C580.23,-267.73 602.18,-255.68 619.43,-246.21"/>
<polygon fill="#63b8ff" stroke="#63b8ff" points="621.06,-249.31 628.14,-241.43 617.69,-243.18 621.06,-249.31"/>
</a>
</g>
</g>
<!-- Node27 -->
<g id="Node000027" class="node">
<title>Node27</title>
<g id="a_Node000027"><a xlink:title=" ">
<polygon fill="#e0e0e0" stroke="#999999" points="721.25,-240.25 682.75,-240.25 682.75,-221 721.25,-221 721.25,-240.25"/>
<text text-anchor="middle" x="702" y="-226.75" font-family="Helvetica,sans-Serif" font-size="10.00">utility</text>
</a>
</g>
</g>
<!-- Node9&#45;&gt;Node27 -->
<g id="edge44_Node000009_Node000027" class="edge">
<title>Node9&#45;&gt;Node27</title>
<g id="a_edge44_Node000009_Node000027"><a xlink:title=" ">
<path fill="none" stroke="#63b8ff" d="M574.95,-275.84C601.63,-266.56 643.15,-252.11 671.41,-242.27"/>
<polygon fill="#63b8ff" stroke="#63b8ff" points="672.53,-245.59 680.83,-238.99 670.23,-238.98 672.53,-245.59"/>
</a>
</g>
</g>
<!-- Node10&#45;&gt;Node3 -->
<g id="edge11_Node000010_Node000003" class="edge">
<title>Node10&#45;&gt;Node3</title>
<g id="a_edge11_Node000010_Node000003"><a xlink:title=" ">
<path fill="none" stroke="#63b8ff" d="M195.76,-110.03C234.62,-100.92 294.52,-86.87 336.28,-77.07"/>
<polygon fill="#63b8ff" stroke="#63b8ff" points="336.86,-80.53 345.8,-74.84 335.27,-73.71 336.86,-80.53"/>
</a>
</g>
</g>
<!-- Node10&#45;&gt;Node4 -->
<g id="edge12_Node000010_Node000004" class="edge">
<title>Node10&#45;&gt;Node4</title>
<g id="a_edge12_Node000010_Node000004"><a xlink:title=" ">
<path fill="none" stroke="#63b8ff" d="M144.28,-110.09C133.29,-102.29 117.16,-90.84 104.07,-81.54"/>
<polygon fill="#63b8ff" stroke="#63b8ff" points="106.2,-78.76 96.02,-75.83 102.15,-84.47 106.2,-78.76"/>
</a>
</g>
</g>
<!-- Node10&#45;&gt;Node5 -->
<g id="edge10_Node000010_Node000005" class="edge">
<title>Node10&#45;&gt;Node5</title>
<g id="a_edge10_Node000010_Node000005"><a xlink:title=" ">
<path fill="none" stroke="#63b8ff" d="M153.05,-110.03C147.31,-97.25 135.92,-73.5 123,-55.25 116.11,-45.52 107.28,-35.66 99.59,-27.69"/>
<polygon fill="#63b8ff" stroke="#63b8ff" points="102.14,-25.29 92.61,-20.67 97.18,-30.23 102.14,-25.29"/>
</a>
</g>
</g>
<!-- Node11&#45;&gt;Node7 -->
<g id="edge23_Node000011_Node000007" class="edge">
<title>Node11&#45;&gt;Node7</title>
<g id="a_edge23_Node000011_Node000007"><a xlink:title=" ">
<path fill="none" stroke="#63b8ff" d="M461.45,-165.31C489.1,-146.68 552.58,-103.9 586.56,-81"/>
<polygon fill="#63b8ff" stroke="#63b8ff" points="588.11,-84.17 594.45,-75.68 584.2,-78.37 588.11,-84.17"/>
</a>
</g>
</g>
<!-- Node11&#45;&gt;Node10 -->
<g id="edge19_Node000011_Node000010" class="edge">
<title>Node11&#45;&gt;Node10</title>
<g id="a_edge19_Node000011_Node000010"><a xlink:title=" ">
<path fill="none" stroke="#63b8ff" d="M424.19,-170.02C379.56,-161.85 282.08,-144.01 218.02,-132.29"/>
<polygon fill="#63b8ff" stroke="#63b8ff" points="218.82,-128.88 208.35,-130.52 217.56,-135.77 218.82,-128.88"/>
</a>
</g>
</g>
<!-- Node12 -->
<g id="Node000012" class="node">
<title>Node12</title>
<g id="a_Node000012"><a xlink:title=" ">
<polygon fill="#e0e0e0" stroke="#999999" points="597.5,-129.75 560.5,-129.75 560.5,-110.5 597.5,-110.5 597.5,-129.75"/>
<text text-anchor="middle" x="579" y="-116.25" font-family="Helvetica,sans-Serif" font-size="10.00">array</text>
</a>
</g>
</g>
<!-- Node11&#45;&gt;Node12 -->
<g id="edge15_Node000011_Node000012" class="edge">
<title>Node11&#45;&gt;Node12</title>
<g id="a_edge15_Node000011_Node000012"><a xlink:title=" ">
<path fill="none" stroke="#63b8ff" d="M470.22,-165.34C492.03,-156.48 525.41,-142.91 549.44,-133.14"/>
<polygon fill="#63b8ff" stroke="#63b8ff" points="550.73,-136.4 558.67,-129.39 548.09,-129.91 550.73,-136.4"/>
</a>
</g>
</g>
<!-- Node13 -->
<g id="Node000013" class="node">
<title>Node13</title>
<g id="a_Node000013"><a xlink:title=" ">
<polygon fill="#e0e0e0" stroke="#999999" points="878.25,-129.75 827.75,-129.75 827.75,-110.5 878.25,-110.5 878.25,-129.75"/>
<text text-anchor="middle" x="853" y="-116.25" font-family="Helvetica,sans-Serif" font-size="10.00">memory</text>
</a>
</g>
</g>
<!-- Node11&#45;&gt;Node13 -->
<g id="edge16_Node000011_Node000013" class="edge">
<title>Node11&#45;&gt;Node13</title>
<g id="a_edge16_Node000011_Node000013"><a xlink:title=" ">
<path fill="none" stroke="#63b8ff" d="M472.12,-171.2C540.29,-162.24 734.7,-136.68 816.27,-125.95"/>
<polygon fill="#63b8ff" stroke="#63b8ff" points="816.5,-129.45 825.95,-124.68 815.58,-122.51 816.5,-129.45"/>
</a>
</g>
</g>
<!-- Node11&#45;&gt;Node14 -->
<g id="edge17_Node000011_Node000014" class="edge">
<title>Node11&#45;&gt;Node14</title>
<g id="a_edge17_Node000011_Node000014"><a xlink:title=" ">
<path fill="none" stroke="#63b8ff" d="M443.71,-165.58C440.38,-158.76 435.64,-149.06 431.44,-140.45"/>
<polygon fill="#63b8ff" stroke="#63b8ff" points="434.58,-138.92 427.05,-131.47 428.29,-141.99 434.58,-138.92"/>
</a>
</g>
</g>
<!-- Node11&#45;&gt;Node15 -->
<g id="edge18_Node000011_Node000015" class="edge">
<title>Node11&#45;&gt;Node15</title>
<g id="a_edge18_Node000011_Node000015"><a xlink:title=" ">
<path fill="none" stroke="#63b8ff" d="M471.99,-167.69C501.12,-159.57 552.03,-145.33 604.25,-130.52"/>
<polygon fill="#63b8ff" stroke="#63b8ff" points="604.93,-133.97 613.59,-127.87 603.02,-127.23 604.93,-133.97"/>
</a>
</g>
</g>
<!-- Node16 -->
<g id="Node000016" class="node">
<title>Node16</title>
<g id="a_Node000016"><a xlink:href="ECS_8h_source.html" target="_top" xlink:title=" ">
<polygon fill="white" stroke="#666666" points="503.5,-129.75 460.5,-129.75 460.5,-110.5 503.5,-110.5 503.5,-129.75"/>
<text text-anchor="middle" x="482" y="-116.25" font-family="Helvetica,sans-Serif" font-size="10.00">ECS.h</text>
</a>
</g>
</g>
<!-- Node11&#45;&gt;Node16 -->
<g id="edge20_Node000011_Node000016" class="edge">
<title>Node11&#45;&gt;Node16</title>
<g id="a_edge20_Node000011_Node000016"><a xlink:title=" ">
<path fill="none" stroke="#63b8ff" d="M453.61,-165.58C458.12,-158.53 464.59,-148.4 470.21,-139.58"/>
<polygon fill="#63b8ff" stroke="#63b8ff" points="473.02,-141.7 475.45,-131.38 467.12,-137.93 473.02,-141.7"/>
</a>
</g>
</g>
<!-- Node16&#45;&gt;Node3 -->
<g id="edge21_Node000016_Node000003" class="edge">
<title>Node16&#45;&gt;Node3</title>
<g id="a_edge21_Node000016_Node000003"><a xlink:title=" ">
<path fill="none" stroke="#63b8ff" d="M465.38,-110.09C450.31,-101.91 427.86,-89.71 410.35,-80.19"/>
<polygon fill="#63b8ff" stroke="#63b8ff" points="412.49,-77.37 402.04,-75.68 409.15,-83.52 412.49,-77.37"/>
</a>
</g>
</g>
<!-- Node16&#45;&gt;Node7 -->
<g id="edge22_Node000016_Node000007" class="edge">
<title>Node16&#45;&gt;Node7</title>
<g id="a_edge22_Node000016_Node000007"><a xlink:title=" ">
<path fill="none" stroke="#63b8ff" d="M503.54,-110.09C523.61,-101.68 553.8,-89.02 576.75,-79.4"/>
<polygon fill="#63b8ff" stroke="#63b8ff" points="578.09,-82.63 585.95,-75.54 575.38,-76.18 578.09,-82.63"/>
</a>
</g>
</g>
<!-- Node17&#45;&gt;Node3 -->
<g id="edge31_Node000017_Node000003" class="edge">
<title>Node17&#45;&gt;Node3</title>
<g id="a_edge31_Node000017_Node000003"><a xlink:title=" ">
<path fill="none" stroke="#63b8ff" d="M1116.29,-165.58C1114.61,-151.33 1109.08,-123.51 1091,-110.5 1077.59,-100.85 588.61,-75.96 431.84,-68.21"/>
<polygon fill="#63b8ff" stroke="#63b8ff" points="432.38,-64.74 422.22,-67.74 432.04,-71.73 432.38,-64.74"/>
</a>
</g>
</g>
<!-- Node17&#45;&gt;Node13 -->
<g id="edge28_Node000017_Node000013" class="edge">
<title>Node17&#45;&gt;Node13</title>
<g id="a_edge28_Node000017_Node000013"><a xlink:title=" ">
<path fill="none" stroke="#63b8ff" d="M1067.48,-165.61C1023.25,-157.59 956.43,-145.01 889.72,-130.26"/>
<polygon fill="#63b8ff" stroke="#63b8ff" points="890.58,-126.87 880.06,-128.11 889.06,-133.7 890.58,-126.87"/>
</a>
</g>
</g>
<!-- Node18 -->
<g id="Node000018" class="node">
<title>Node18</title>
<g id="a_Node000018"><a xlink:title=" ">
<polygon fill="#e0e0e0" stroke="#999999" points="988.38,-129.75 953.62,-129.75 953.62,-110.5 988.38,-110.5 988.38,-129.75"/>
<text text-anchor="middle" x="971" y="-116.25" font-family="Helvetica,sans-Serif" font-size="10.00">map</text>
</a>
</g>
</g>
<!-- Node17&#45;&gt;Node18 -->
<g id="edge26_Node000017_Node000018" class="edge">
<title>Node17&#45;&gt;Node18</title>
<g id="a_edge26_Node000017_Node000018"><a xlink:title=" ">
<path fill="none" stroke="#63b8ff" d="M1092.23,-165.34C1066.46,-155.94 1026.18,-141.25 999.2,-131.41"/>
<polygon fill="#63b8ff" stroke="#63b8ff" points="1000.55,-128.18 989.96,-128.04 998.15,-134.75 1000.55,-128.18"/>
</a>
</g>
</g>
<!-- Node19 -->
<g id="Node000019" class="node">
<title>Node19</title>
<g id="a_Node000019"><a xlink:title=" ">
<polygon fill="#e0e0e0" stroke="#999999" points="1081.62,-129.75 1006.38,-129.75 1006.38,-110.5 1081.62,-110.5 1081.62,-129.75"/>
<text text-anchor="middle" x="1044" y="-116.25" font-family="Helvetica,sans-Serif" font-size="10.00">SDL_render.h</text>
</a>
</g>
</g>
<!-- Node17&#45;&gt;Node19 -->
<g id="edge27_Node000017_Node000019" class="edge">
<title>Node17&#45;&gt;Node19</title>
<g id="a_edge27_Node000017_Node000019"><a xlink:title=" ">
<path fill="none" stroke="#63b8ff" d="M1104.62,-165.34C1093.85,-157.49 1078.03,-145.95 1065.25,-136.62"/>
<polygon fill="#63b8ff" stroke="#63b8ff" points="1067.56,-133.98 1057.42,-130.92 1063.44,-139.64 1067.56,-133.98"/>
</a>
</g>
</g>
<!-- Node20 -->
<g id="Node000020" class="node">
<title>Node20</title>
<g id="a_Node000020"><a xlink:href="AnimationHandler_8h_source.html" target="_top" xlink:title=" ">
<polygon fill="white" stroke="#666666" points="1318.38,-129.75 1217.62,-129.75 1217.62,-110.5 1318.38,-110.5 1318.38,-129.75"/>
<text text-anchor="middle" x="1268" y="-116.25" font-family="Helvetica,sans-Serif" font-size="10.00">AnimationHandler.h</text>
</a>
</g>
</g>
<!-- Node17&#45;&gt;Node20 -->
<g id="edge29_Node000017_Node000020" class="edge">
<title>Node17&#45;&gt;Node20</title>
<g id="a_edge29_Node000017_Node000020"><a xlink:title=" ">
<path fill="none" stroke="#63b8ff" d="M1142.62,-165.34C1167.02,-156.74 1204.01,-143.69 1231.5,-134"/>
<polygon fill="#63b8ff" stroke="#63b8ff" points="1232.57,-137.33 1240.83,-130.71 1230.24,-130.73 1232.57,-137.33"/>
</a>
</g>
</g>
<!-- Node22 -->
<g id="Node000022" class="node">
<title>Node22</title>
<g id="a_Node000022"><a xlink:href="Direction_8h_source.html" target="_top" xlink:title=" ">
<polygon fill="white" stroke="#666666" points="1199.88,-129.75 1138.12,-129.75 1138.12,-110.5 1199.88,-110.5 1199.88,-129.75"/>
<text text-anchor="middle" x="1169" y="-116.25" font-family="Helvetica,sans-Serif" font-size="10.00">Direction.h</text>
</a>
</g>
</g>
<!-- Node17&#45;&gt;Node22 -->
<g id="edge32_Node000017_Node000022" class="edge">
<title>Node17&#45;&gt;Node22</title>
<g id="a_edge32_Node000017_Node000022"><a xlink:title=" ">
<path fill="none" stroke="#63b8ff" d="M1125.59,-165.58C1132.84,-158.15 1143.45,-147.29 1152.37,-138.16"/>
<polygon fill="#63b8ff" stroke="#63b8ff" points="1154.69,-140.79 1159.17,-131.19 1149.68,-135.9 1154.69,-140.79"/>
</a>
</g>
</g>
<!-- Node21 -->
<g id="Node000021" class="node">
<title>Node21</title>
<g id="a_Node000021"><a xlink:title=" ">
<polygon fill="#e0e0e0" stroke="#999999" points="1290.62,-74.5 1245.38,-74.5 1245.38,-55.25 1290.62,-55.25 1290.62,-74.5"/>
<text text-anchor="middle" x="1268" y="-61" font-family="Helvetica,sans-Serif" font-size="10.00">cstdint</text>
</a>
</g>
</g>
<!-- Node20&#45;&gt;Node21 -->
<g id="edge30_Node000020_Node000021" class="edge">
<title>Node20&#45;&gt;Node21</title>
<g id="a_edge30_Node000020_Node000021"><a xlink:title=" ">
<path fill="none" stroke="#63b8ff" d="M1268,-110.33C1268,-103.82 1268,-94.67 1268,-86.37"/>
<polygon fill="#63b8ff" stroke="#63b8ff" points="1271.5,-86.37 1268,-76.37 1264.5,-86.37 1271.5,-86.37"/>
</a>
</g>
</g>
<!-- Node23&#45;&gt;Node7 -->
<g id="edge39_Node000023_Node000007" class="edge">
<title>Node23&#45;&gt;Node7</title>
<g id="a_edge39_Node000023_Node000007"><a xlink:title=" ">
<path fill="none" stroke="#63b8ff" d="M586.35,-220.84C596.78,-208.42 616.55,-185.09 634,-165.75 648.74,-149.41 659.87,-150.2 668,-129.75 671.16,-121.8 671.81,-118.16 668,-110.5 661.76,-97.96 650.13,-88.01 638.84,-80.71"/>
<polygon fill="#63b8ff" stroke="#63b8ff" points="640.83,-77.82 630.44,-75.75 637.27,-83.85 640.83,-77.82"/>
</a>
</g>
</g>
<!-- Node23&#45;&gt;Node11 -->
<g id="edge40_Node000023_Node000011" class="edge">
<title>Node23&#45;&gt;Node11</title>
<g id="a_edge40_Node000023_Node000011"><a xlink:title=" ">
<path fill="none" stroke="#63b8ff" d="M556.78,-220.59C535.98,-212.14 504.65,-199.4 480.95,-189.77"/>
<polygon fill="#63b8ff" stroke="#63b8ff" points="482.32,-186.55 471.73,-186.02 479.68,-193.03 482.32,-186.55"/>
</a>
</g>
</g>
<!-- Node23&#45;&gt;Node12 -->
<g id="edge36_Node000023_Node000012" class="edge">
<title>Node23&#45;&gt;Node12</title>
<g id="a_edge36_Node000023_Node000012"><a xlink:title=" ">
<path fill="none" stroke="#63b8ff" d="M574.48,-220.68C570.29,-211.86 564.37,-197.88 562,-185 559.2,-169.79 564.06,-152.9 569.29,-140.3"/>
<polygon fill="#63b8ff" stroke="#63b8ff" points="572.34,-142.04 573.35,-131.49 565.99,-139.11 572.34,-142.04"/>
</a>
</g>
</g>
<!-- Node23&#45;&gt;Node13 -->
<g id="edge37_Node000023_Node000013" class="edge">
<title>Node23&#45;&gt;Node13</title>
<g id="a_edge37_Node000023_Node000013"><a xlink:title=" ">
<path fill="none" stroke="#63b8ff" d="M589.26,-220.57C605.49,-206.73 638.56,-180.38 671,-165.75 718.84,-144.18 778.65,-132.07 816.36,-126.07"/>
<polygon fill="#63b8ff" stroke="#63b8ff" points="816.46,-129.59 825.81,-124.63 815.4,-122.67 816.46,-129.59"/>
</a>
</g>
</g>
<!-- Node23&#45;&gt;Node15 -->
<g id="edge38_Node000023_Node000015" class="edge">
<title>Node23&#45;&gt;Node15</title>
<g id="a_edge38_Node000023_Node000015"><a xlink:title=" ">
<path fill="none" stroke="#63b8ff" d="M580.86,-220.51C583.72,-207.71 589.95,-183.94 600,-165.75 605.46,-155.87 613.23,-146.09 620.25,-138.21"/>
<polygon fill="#63b8ff" stroke="#63b8ff" points="622.66,-140.75 626.92,-131.05 617.54,-135.98 622.66,-140.75"/>
</a>
</g>
</g>
<!-- Node23&#45;&gt;Node24 -->
<g id="edge35_Node000023_Node000024" class="edge">
<title>Node23&#45;&gt;Node24</title>
<g id="a_edge35_Node000023_Node000024"><a xlink:title=" ">
<path fill="none" stroke="#63b8ff" d="M600.71,-220.59C621.03,-212.14 651.65,-199.4 674.81,-189.77"/>
<polygon fill="#63b8ff" stroke="#63b8ff" points="675.89,-193.11 683.78,-186.03 673.21,-186.64 675.89,-193.11"/>
</a>
</g>
</g>
<!-- Node28&#45;&gt;Node4 -->
<g id="edge54_Node000028_Node000004" class="edge">
<title>Node28&#45;&gt;Node4</title>
<g id="a_edge54_Node000028_Node000004"><a xlink:title=" ">
<path fill="none" stroke="#63b8ff" d="M241.67,-222.95C202.79,-211.25 129.27,-183.04 95,-129.75 86.65,-116.77 83.51,-99.48 82.39,-86.17"/>
<polygon fill="#63b8ff" stroke="#63b8ff" points="85.9,-86.22 81.92,-76.4 78.91,-86.56 85.9,-86.22"/>
</a>
</g>
</g>
<!-- Node28&#45;&gt;Node5 -->
<g id="edge50_Node000028_Node000005" class="edge">
<title>Node28&#45;&gt;Node5</title>
<g id="a_edge50_Node000028_Node000005"><a xlink:title=" ">
<path fill="none" stroke="#63b8ff" d="M241.68,-226.5C211.38,-221.74 160.2,-210.39 124,-185 73.71,-149.73 60.28,-132.82 41,-74.5 38.32,-66.38 37.89,-63.22 41,-55.25 45.16,-44.57 53.21,-34.89 61.08,-27.3"/>
<polygon fill="#63b8ff" stroke="#63b8ff" points="63.39,-29.94 68.55,-20.68 58.74,-24.7 63.39,-29.94"/>
</a>
</g>
</g>
<!-- Node28&#45;&gt;Node11 -->
<g id="edge55_Node000028_Node000011" class="edge">
<title>Node28&#45;&gt;Node11</title>
<g id="a_edge55_Node000028_Node000011"><a xlink:title=" ">
<path fill="none" stroke="#63b8ff" d="M292.17,-222.22C323.63,-212.96 377.66,-197.07 413.11,-186.64"/>
<polygon fill="#63b8ff" stroke="#63b8ff" points="413.85,-190.07 422.46,-183.89 411.88,-183.35 413.85,-190.07"/>
</a>
</g>
</g>
<!-- Node28&#45;&gt;Node15 -->
<g id="edge53_Node000028_Node000015" class="edge">
<title>Node28&#45;&gt;Node15</title>
<g id="a_edge53_Node000028_Node000015"><a xlink:title=" ">
<path fill="none" stroke="#63b8ff" d="M284.29,-220.65C311.44,-206.92 366.02,-180.71 415,-165.75 494.63,-141.43 520.41,-149.06 604.05,-130.24"/>
<polygon fill="#63b8ff" stroke="#63b8ff" points="604.68,-133.69 613.63,-128.02 603.1,-126.87 604.68,-133.69"/>
</a>
</g>
</g>
<!-- Node29 -->
<g id="Node000029" class="node">
<title>Node29</title>
<g id="a_Node000029"><a xlink:title=" ">
<polygon fill="#e0e0e0" stroke="#999999" points="254.25,-185 179.75,-185 179.75,-165.75 254.25,-165.75 254.25,-185"/>
<text text-anchor="middle" x="217" y="-171.5" font-family="Helvetica,sans-Serif" font-size="10.00">SDL_image.h</text>
</a>
</g>
</g>
<!-- Node28&#45;&gt;Node29 -->
<g id="edge51_Node000028_Node000029" class="edge">
<title>Node28&#45;&gt;Node29</title>
<g id="a_edge51_Node000028_Node000029"><a xlink:title=" ">
<path fill="none" stroke="#63b8ff" d="M258.74,-220.83C251.84,-213.48 241.78,-202.76 233.26,-193.69"/>
<polygon fill="#63b8ff" stroke="#63b8ff" points="235.87,-191.36 226.47,-186.46 230.77,-196.15 235.87,-191.36"/>
</a>
</g>
</g>
<!-- Node30 -->
<g id="Node000030" class="node">
<title>Node30</title>
<g id="a_Node000030"><a xlink:title=" ">
<polygon fill="#e0e0e0" stroke="#999999" points="823.75,-185 752.25,-185 752.25,-165.75 823.75,-165.75 823.75,-185"/>
<text text-anchor="middle" x="788" y="-171.5" font-family="Helvetica,sans-Serif" font-size="10.00">SDL_mixer.h</text>
</a>
</g>
</g>
<!-- Node28&#45;&gt;Node30 -->
<g id="edge52_Node000028_Node000030" class="edge">
<title>Node28&#45;&gt;Node30</title>
<g id="a_edge52_Node000028_Node000030"><a xlink:title=" ">
<path fill="none" stroke="#63b8ff" d="M292.13,-228.12C361.72,-223.78 562.98,-210 741.04,-185.14"/>
<polygon fill="#63b8ff" stroke="#63b8ff" points="741.28,-188.64 750.69,-183.77 740.3,-181.71 741.28,-188.64"/>
</a>
</g>
</g>
<!-- Node32&#45;&gt;Node15 -->
<g id="edge63_Node000032_Node000015" class="edge">
<title>Node32&#45;&gt;Node15</title>
<g id="a_edge63_Node000032_Node000015"><a xlink:title=" ">
<path fill="none" stroke="#63b8ff" d="M968.42,-220.71C939.85,-207.28 883.19,-181.75 833,-165.75 776.8,-147.84 709.38,-134.13 670.04,-126.88"/>
<polygon fill="#63b8ff" stroke="#63b8ff" points="670.74,-123.45 660.27,-125.11 669.49,-130.33 670.74,-123.45"/>
</a>
</g>
</g>
<!-- Node32&#45;&gt;Node18 -->
<g id="edge62_Node000032_Node000018" class="edge">
<title>Node32&#45;&gt;Node18</title>
<g id="a_edge62_Node000032_Node000018"><a xlink:title=" ">
<path fill="none" stroke="#63b8ff" d="M997.53,-220.72C1010.58,-208.55 1030.04,-185.93 1021,-165.75 1015.79,-154.12 1005.89,-144.28 996.27,-136.82"/>
<polygon fill="#63b8ff" stroke="#63b8ff" points="998.33,-133.99 988.15,-131.05 994.27,-139.7 998.33,-133.99"/>
</a>
</g>
</g>
<!-- Node32&#45;&gt;Node30 -->
<g id="edge61_Node000032_Node000030" class="edge">
<title>Node32&#45;&gt;Node30</title>
<g id="a_edge61_Node000032_Node000030"><a xlink:title=" ">
<path fill="none" stroke="#63b8ff" d="M953.24,-220.59C920.08,-211.72 869.28,-198.12 832.76,-188.35"/>
<polygon fill="#63b8ff" stroke="#63b8ff" points="833.95,-185.05 823.39,-185.84 832.14,-191.81 833.95,-185.05"/>
</a>
</g>
</g>
<!-- Node33 -->
<g id="Node000033" class="node">
<title>Node33</title>
<g id="a_Node000033"><a xlink:href="TextureManager_8h_source.html" target="_top" xlink:title=" ">
<polygon fill="white" stroke="#666666" points="1011.62,-185 918.38,-185 918.38,-165.75 1011.62,-165.75 1011.62,-185"/>
<text text-anchor="middle" x="965" y="-171.5" font-family="Helvetica,sans-Serif" font-size="10.00">TextureManager.h</text>
</a>
</g>
</g>
<!-- Node32&#45;&gt;Node33 -->
<g id="edge64_Node000032_Node000033" class="edge">
<title>Node32&#45;&gt;Node33</title>
<g id="a_edge64_Node000032_Node000033"><a xlink:title=" ">
<path fill="none" stroke="#63b8ff" d="M983.37,-220.83C980.58,-214.09 976.63,-204.52 973.1,-195.99"/>
<polygon fill="#63b8ff" stroke="#63b8ff" points="976.34,-194.66 969.29,-186.76 969.87,-197.34 976.34,-194.66"/>
</a>
</g>
</g>
<!-- Node33&#45;&gt;Node13 -->
<g id="edge67_Node000033_Node000013" class="edge">
<title>Node33&#45;&gt;Node13</title>
<g id="a_edge67_Node000033_Node000013"><a xlink:title=" ">
<path fill="none" stroke="#63b8ff" d="M946,-165.34C928.54,-157.04 902.4,-144.61 882.28,-135.04"/>
<polygon fill="#63b8ff" stroke="#63b8ff" points="883.99,-131.99 873.46,-130.85 880.99,-138.31 883.99,-131.99"/>
</a>
</g>
</g>
<!-- Node33&#45;&gt;Node15 -->
<g id="edge69_Node000033_Node000015" class="edge">
<title>Node33&#45;&gt;Node15</title>
<g id="a_edge69_Node000033_Node000015"><a xlink:title=" ">
<path fill="none" stroke="#63b8ff" d="M918.01,-166.75C850.72,-155.82 728.62,-136 670.06,-126.49"/>
<polygon fill="#63b8ff" stroke="#63b8ff" points="670.82,-123.07 660.39,-124.92 669.7,-129.98 670.82,-123.07"/>
</a>
</g>
</g>
<!-- Node33&#45;&gt;Node18 -->
<g id="edge66_Node000033_Node000018" class="edge">
<title>Node33&#45;&gt;Node18</title>
<g id="a_edge66_Node000033_Node000018"><a xlink:title=" ">
<path fill="none" stroke="#63b8ff" d="M965.99,-165.58C966.73,-158.99 967.78,-149.71 968.72,-141.32"/>
<polygon fill="#63b8ff" stroke="#63b8ff" points="972.18,-141.94 969.82,-131.61 965.22,-141.16 972.18,-141.94"/>
</a>
</g>
</g>
<!-- Node33&#45;&gt;Node19 -->
<g id="edge65_Node000033_Node000019" class="edge">
<title>Node33&#45;&gt;Node19</title>
<g id="a_edge65_Node000033_Node000019"><a xlink:title=" ">
<path fill="none" stroke="#63b8ff" d="M978.4,-165.34C990.09,-157.46 1007.3,-145.86 1021.16,-136.52"/>
<polygon fill="#63b8ff" stroke="#63b8ff" points="1022.94,-139.54 1029.28,-131.05 1019.03,-133.74 1022.94,-139.54"/>
</a>
</g>
</g>
<!-- Node34 -->
<g id="Node000034" class="node">
<title>Node34</title>
<g id="a_Node000034"><a xlink:title=" ">
<polygon fill="#e0e0e0" stroke="#999999" points="936,-129.75 896,-129.75 896,-110.5 936,-110.5 936,-129.75"/>
<text text-anchor="middle" x="916" y="-116.25" font-family="Helvetica,sans-Serif" font-size="10.00">string</text>
</a>
</g>
</g>
<!-- Node33&#45;&gt;Node34 -->
<g id="edge68_Node000033_Node000034" class="edge">
<title>Node33&#45;&gt;Node34</title>
<g id="a_edge68_Node000033_Node000034"><a xlink:title=" ">
<path fill="none" stroke="#63b8ff" d="M956.91,-165.58C950.14,-158.23 940.28,-147.51 931.94,-138.44"/>
<polygon fill="#63b8ff" stroke="#63b8ff" points="934.64,-136.21 925.29,-131.22 929.49,-140.95 934.64,-136.21"/>
</a>
</g>
</g>
</g>
</svg>

<g id="navigator" transform="translate(0 0)" fill="#404254">
  <rect fill="#f2f5e9" fill-opacity="0.5" stroke="#606060" stroke-width=".5" x="0" y="0" width="60" height="60"/>
  <use id="zoomplus" xlink:href="#zoomPlus" x="17" y="9" onmousedown="handleZoom(evt,'in')"/>
  <use id="zoomminus" xlink:href="#zoomMin" x="42" y="9" onmousedown="handleZoom(evt,'out')"/>
  <use id="reset" xlink:href="#resetDef" x="30" y="36" onmousedown="handleReset()"/>
   <use id="arrowup" xlink:href="#arrowUp" x="0" y="0" onmousedown="handlePan(0,-1)"/>
  <use id="arrowright" xlink:href="#arrowRight" x="0" y="0" onmousedown="handlePan(1,0)"/>
  <use id="arrowdown" xlink:href="#arrowDown" x="0" y="0" onmousedown="handlePan(0,1)"/>
  <use id="arrowleft" xlink:href="#arrowLeft" x="0" y="0" onmousedown="handlePan(-1,0)"/>
</g>
<svg viewBox="0 0 15 15" width="100%" height="30px" preserveAspectRatio="xMaxYMin meet">
 <g id="arrow_out" transform="scale(0.3 0.3)">
  <a xlink:href="TransformComponent_8cpp__incl_org.svg" target="_base">
   <rect id="button" ry="5" rx="5" y="6" x="6" height="38" width="38"
        fill="#f2f5e9" fill-opacity="0.5" stroke="#606060" stroke-width="1.0"/>
   <path id="arrow"
     d="M 11.500037,31.436501 C 11.940474,20.09759 22.043105,11.32322 32.158766,21.979434 L 37.068811,17.246167 C 37.068811,17.246167 37.088388,32 37.088388,32 L 22.160133,31.978069 C 22.160133,31.978069 26.997745,27.140456 26.997745,27.140456 C 18.528582,18.264221 13.291696,25.230495 11.500037,31.436501 z"
     style="fill:#404040;"/>
  </a>
 </g>
</svg>

<style type='text/css'>
<![CDATA[
[data-mouse-over-selected='false'] { opacity: 0.7; }
[data-mouse-over-selected='true']  { opacity: 1.0; }
]]>
</style>
<script type="application/ecmascript"><![CDATA[
document.addEventListener('DOMContentLoaded', (event) => {
  highlightEdges();
  highlightAdjacentNodes();
});
]]></script>
</svg>
