<?xml version="1.0" encoding="UTF-8" standalone="no"?>
<!DOCTYPE svg PUBLIC "-//W3C//DTD SVG 1.1//EN"
 "http://www.w3.org/Graphics/SVG/1.1/DTD/svg11.dtd">
<!-- Generated by graphviz version 9.0.0 (20230911.1827)
 -->
<!-- Title: src/TransformComponent.cpp Pages: 1 -->
<svg width="1424pt" height="359pt"
 viewBox="0.00 0.00 1424.12 358.75" xmlns="http://www.w3.org/2000/svg" xmlns:xlink="http://www.w3.org/1999/xlink">
<g id="graph0" class="graph" transform="scale(1 1) rotate(0) translate(4 354.75)">
<title>src/TransformComponent.cpp</title>
<!-- Node1 -->
<g id="Node000001" class="node">
<title>Node1</title>
<g id="a_Node000001"><a xlink:title=" ">
<polygon fill="#999999" stroke="#666666" points="622.12,-350.75 477.88,-350.75 477.88,-331.5 622.12,-331.5 622.12,-350.75"/>
<text text-anchor="middle" x="550" y="-337.25" font-family="Helvetica,sans-Serif" font-size="10.00">src/TransformComponent.cpp</text>
</a>
</g>
</g>
<!-- Node2 -->
<g id="Node000002" class="node">
<title>Node2</title>
<g id="a_Node000002"><a xlink:href="TransformComponent_8h_source.html" target="_top" xlink:title=" ">
<polygon fill="white" stroke="#666666" points="383.62,-129.75 266.38,-129.75 266.38,-110.5 383.62,-110.5 383.62,-129.75"/>
<text text-anchor="middle" x="325" y="-116.25" font-family="Helvetica,sans-Serif" font-size="10.00">TransformComponent.h</text>
</a>
</g>
</g>
<!-- Node1&#45;&gt;Node2 -->
<g id="edge1_Node000001_Node000002" class="edge">
<title>Node1&#45;&gt;Node2</title>
<g id="a_edge1_Node000001_Node000002"><a xlink:title=" ">
<path fill="none" stroke="#63b8ff" d="M532.15,-331C516.95,-322.8 494.95,-309.85 478,-295.5 418.95,-245.49 362.36,-172.33 337.79,-138.94"/>
<polygon fill="#63b8ff" stroke="#63b8ff" points="340.84,-137.17 332.12,-131.14 335.18,-141.29 340.84,-137.17"/>
</a>
</g>
</g>
<!-- Node4 -->
<g id="Node000004" class="node">
<title>Node4</title>
<g id="a_Node000004"><a xlink:href="Vector2D_8h_source.html" target="_top" xlink:title=" ">
<polygon fill="white" stroke="#666666" points="114,-74.5 50,-74.5 50,-55.25 114,-55.25 114,-74.5"/>
<text text-anchor="middle" x="82" y="-61" font-family="Helvetica,sans-Serif" font-size="10.00">Vector2D.h</text>
</a>
</g>
</g>
<!-- Node1&#45;&gt;Node4 -->
<g id="edge56_Node000001_Node000004" class="edge">
<title>Node1&#45;&gt;Node4</title>
<g id="a_edge56_Node000001_Node000004"><a xlink:title=" ">
<path fill="none" stroke="#63b8ff" d="M477.53,-340.78C328.18,-340.16 0,-327.86 0,-231.62 0,-231.62 0,-231.62 0,-174.38 0,-134.77 35.2,-100.49 59.48,-81.55"/>
<polygon fill="#63b8ff" stroke="#63b8ff" points="61.33,-84.54 67.25,-75.75 57.14,-78.93 61.33,-84.54"/>
</a>
</g>
</g>
<!-- Node7 -->
<g id="Node000007" class="node">
<title>Node7</title>
<g id="a_Node000007"><a xlink:href="Constants_8h_source.html" target="_top" xlink:title=" ">
<polygon fill="white" stroke="#666666" points="642.88,-74.5 575.12,-74.5 575.12,-55.25 642.88,-55.25 642.88,-74.5"/>
<text text-anchor="middle" x="609" y="-61" font-family="Helvetica,sans-Serif" font-size="10.00">Constants.h</text>
</a>
</g>
</g>
<!-- Node1&#45;&gt;Node7 -->
<g id="edge47_Node000001_Node000007" class="edge">
<title>Node1&#45;&gt;Node7</title>
<g id="a_edge47_Node000001_Node000007"><a xlink:title=" ">
<path fill="none" stroke="#63b8ff" d="M622.4,-337.8C818.62,-330.54 1346,-304.28 1346,-231.62 1346,-231.62 1346,-231.62 1346,-174.38 1346,-144.76 1350.18,-128.94 1327,-110.5 1274.48,-68.73 804.05,-65.64 654.46,-65.73"/>
<polygon fill="#63b8ff" stroke="#63b8ff" points="654.53,-62.23 644.54,-65.74 654.54,-69.23 654.53,-62.23"/>
</a>
</g>
</g>
<!-- Node9 -->
<g id="Node000009" class="node">
<title>Node9</title>
<g id="a_Node000009"><a xlink:href="CollisionHandler_8h.html" target="_top" xlink:title=" ">
<polygon fill="white" stroke="#666666" points="597,-295.5 503,-295.5 503,-276.25 597,-276.25 597,-295.5"/>
<text text-anchor="middle" x="550" y="-282" font-family="Helvetica,sans-Serif" font-size="10.00">CollisionHandler.h</text>
</a>
</g>
</g>
<!-- Node1&#45;&gt;Node9 -->
<g id="edge8_Node000001_Node000009" class="edge">
<title>Node1&#45;&gt;Node9</title>
<g id="a_edge8_Node000001_Node000009"><a xlink:title=" ">
<path fill="none" stroke="#63b8ff" d="M550,-331.33C550,-324.82 550,-315.67 550,-307.37"/>
<polygon fill="#63b8ff" stroke="#63b8ff" points="553.5,-307.37 550,-297.37 546.5,-307.37 553.5,-307.37"/>
</a>
</g>
</g>
<!-- Node10 -->
<g id="Node000010" class="node">
<title>Node10</title>
<g id="a_Node000010"><a xlink:href="ColliderComponent_8h_source.html" target="_top" xlink:title=" ">
<polygon fill="white" stroke="#666666" points="209.62,-129.75 104.38,-129.75 104.38,-110.5 209.62,-110.5 209.62,-129.75"/>
<text text-anchor="middle" x="157" y="-116.25" font-family="Helvetica,sans-Serif" font-size="10.00">ColliderComponent.h</text>
</a>
</g>
</g>
<!-- Node1&#45;&gt;Node10 -->
<g id="edge46_Node000001_Node000010" class="edge">
<title>Node1&#45;&gt;Node10</title>
<g id="a_edge46_Node000001_Node000010"><a xlink:title=" ">
<path fill="none" stroke="#63b8ff" d="M477.41,-337.66C398.91,-331.3 274.38,-309.95 195,-240.25 172.98,-220.91 167.78,-212.96 159,-185 154.56,-170.87 154.21,-154.11 154.89,-141.3"/>
<polygon fill="#63b8ff" stroke="#63b8ff" points="158.36,-141.81 155.67,-131.56 151.38,-141.25 158.36,-141.81"/>
</a>
</g>
</g>
<!-- Node11 -->
<g id="Node000011" class="node">
<title>Node11</title>
<g id="a_Node000011"><a xlink:href="Entity_8h_source.html" target="_top" xlink:title=" ">
<polygon fill="white" stroke="#666666" points="471.75,-185 424.25,-185 424.25,-165.75 471.75,-165.75 471.75,-185"/>
<text text-anchor="middle" x="448" y="-171.5" font-family="Helvetica,sans-Serif" font-size="10.00">Entity.h</text>
</a>
</g>
</g>
<!-- Node1&#45;&gt;Node11 -->
<g id="edge48_Node000001_Node000011" class="edge">
<title>Node1&#45;&gt;Node11</title>
<g id="a_edge48_Node000001_Node000011"><a xlink:title=" ">
<path fill="none" stroke="#63b8ff" d="M534.57,-331.08C522.13,-323.1 504.96,-310.43 494,-295.5 471.33,-264.62 458.31,-221.15 452.23,-196.16"/>
<polygon fill="#63b8ff" stroke="#63b8ff" points="455.71,-195.67 450.08,-186.7 448.89,-197.22 455.71,-195.67"/>
</a>
</g>
</g>
<!-- Node24 -->
<g id="Node000024" class="node">
<title>Node24</title>
<g id="a_Node000024"><a xlink:title=" ">
<polygon fill="#e0e0e0" stroke="#999999" points="733.75,-185 680.25,-185 680.25,-165.75 733.75,-165.75 733.75,-185"/>
<text text-anchor="middle" x="707" y="-171.5" font-family="Helvetica,sans-Serif" font-size="10.00">iostream</text>
</a>
</g>
</g>
<!-- Node1&#45;&gt;Node24 -->
<g id="edge59_Node000001_Node000024" class="edge">
<title>Node1&#45;&gt;Node24</title>
<g id="a_edge59_Node000001_Node000024"><a xlink:title=" ">
<path fill="none" stroke="#63b8ff" d="M613.95,-331.05C704.62,-316.71 863.3,-285.7 897,-240.25 956.81,-159.59 1025.25,-249.87 745.1,-185.45"/>
<polygon fill="#63b8ff" stroke="#63b8ff" points="746.13,-182.1 735.6,-183.23 744.54,-188.92 746.13,-182.1"/>
</a>
</g>
</g>
<!-- Node25 -->
<g id="Node000025" class="node">
<title>Node25</title>
<g id="a_Node000025"><a xlink:title=" ">
<polygon fill="#e0e0e0" stroke="#999999" points="887.75,-240.25 816.25,-240.25 816.25,-221 887.75,-221 887.75,-240.25"/>
<text text-anchor="middle" x="852" y="-226.75" font-family="Helvetica,sans-Serif" font-size="10.00">initializer_list</text>
</a>
</g>
</g>
<!-- Node1&#45;&gt;Node25 -->
<g id="edge58_Node000001_Node000025" class="edge">
<title>Node1&#45;&gt;Node25</title>
<g id="a_edge58_Node000001_Node000025"><a xlink:title=" ">
<path fill="none" stroke="#63b8ff" d="M575.23,-331.06C628.74,-311.83 753.81,-266.9 815.82,-244.62"/>
<polygon fill="#63b8ff" stroke="#63b8ff" points="816.98,-247.93 825.21,-241.25 814.61,-241.34 816.98,-247.93"/>
</a>
</g>
</g>
<!-- Node28 -->
<g id="Node000028" class="node">
<title>Node28</title>
<g id="a_Node000028"><a xlink:href="Game_8h_source.html" target="_top" xlink:title=" ">
<polygon fill="white" stroke="#666666" points="291.88,-240.25 242.12,-240.25 242.12,-221 291.88,-221 291.88,-240.25"/>
<text text-anchor="middle" x="267" y="-226.75" font-family="Helvetica,sans-Serif" font-size="10.00">Game.h</text>
</a>
</g>
</g>
<!-- Node1&#45;&gt;Node28 -->
<g id="edge49_Node000001_Node000028" class="edge">
<title>Node1&#45;&gt;Node28</title>
<g id="a_edge49_Node000001_Node000028"><a xlink:title=" ">
<path fill="none" stroke="#63b8ff" d="M477.63,-333.04C436.81,-326.98 385.79,-315.84 344,-295.5 320.2,-283.92 297.45,-263.49 282.94,-248.86"/>
<polygon fill="#63b8ff" stroke="#63b8ff" points="285.53,-246.5 276.08,-241.71 280.48,-251.35 285.53,-246.5"/>
</a>
</g>
</g>
<!-- Node31 -->
<g id="Node000031" class="node">
<title>Node31</title>
<g id="a_Node000031"><a xlink:title=" ">
<polygon fill="#e0e0e0" stroke="#999999" points="1416.12,-295.5 1373.88,-295.5 1373.88,-276.25 1416.12,-276.25 1416.12,-295.5"/>
<text text-anchor="middle" x="1395" y="-282" font-family="Helvetica,sans-Serif" font-size="10.00">cstdio</text>
</a>
</g>
</g>
<!-- Node1&#45;&gt;Node31 -->
<g id="edge57_Node000001_Node000031" class="edge">
<title>Node1&#45;&gt;Node31</title>
<g id="a_edge57_Node000001_Node000031"><a xlink:title=" ">
<path fill="none" stroke="#63b8ff" d="M622.52,-340.65C764.78,-340.67 1090.12,-335.83 1360,-295.5 1360.84,-295.38 1361.68,-295.24 1362.53,-295.09"/>
<polygon fill="#63b8ff" stroke="#63b8ff" points="1363.08,-298.55 1372.17,-293.11 1361.67,-291.7 1363.08,-298.55"/>
</a>
</g>
</g>
<!-- Node32 -->
<g id="Node000032" class="node">
<title>Node32</title>
<g id="a_Node000032"><a xlink:href="SoundManager_8h_source.html" target="_top" xlink:title=" ">
<polygon fill="white" stroke="#666666" points="1032.38,-240.25 943.62,-240.25 943.62,-221 1032.38,-221 1032.38,-240.25"/>
<text text-anchor="middle" x="988" y="-226.75" font-family="Helvetica,sans-Serif" font-size="10.00">SoundManager.h</text>
</a>
</g>
</g>
<!-- Node1&#45;&gt;Node32 -->
<g id="edge60_Node000001_Node000032" class="edge">
<title>Node1&#45;&gt;Node32</title>
<g id="a_edge60_Node000001_Node000032"><a xlink:title=" ">
<path fill="none" stroke="#63b8ff" d="M622.5,-337.63C717.45,-333.34 877.95,-322.28 930,-295.5 950.13,-285.14 966.7,-264.75 976.91,-249.79"/>
<polygon fill="#63b8ff" stroke="#63b8ff" points="979.61,-252.05 982.1,-241.75 973.73,-248.25 979.61,-252.05"/>
</a>
</g>
</g>
<!-- Node3 -->
<g id="Node000003" class="node">
<title>Node3</title>
<g id="a_Node000003"><a xlink:href="Component_8h_source.html" target="_top" xlink:title=" ">
<polygon fill="white" stroke="#666666" points="420.5,-74.5 347.5,-74.5 347.5,-55.25 420.5,-55.25 420.5,-74.5"/>
<text text-anchor="middle" x="384" y="-61" font-family="Helvetica,sans-Serif" font-size="10.00">Component.h</text>
</a>
</g>
</g>
<!-- Node2&#45;&gt;Node3 -->
<g id="edge2_Node000002_Node000003" class="edge">
<title>Node2&#45;&gt;Node3</title>
<g id="a_edge2_Node000002_Node000003"><a xlink:title=" ">
<path fill="none" stroke="#63b8ff" d="M335.01,-110.09C343.37,-102.55 355.5,-91.6 365.6,-82.48"/>
<polygon fill="#63b8ff" stroke="#63b8ff" points="367.94,-85.09 373.02,-75.79 363.25,-79.89 367.94,-85.09"/>
</a>
</g>
</g>
<!-- Node2&#45;&gt;Node4 -->
<g id="edge3_Node000002_Node000004" class="edge">
<title>Node2&#45;&gt;Node4</title>
<g id="a_edge3_Node000002_Node000004"><a xlink:title=" ">
<path fill="none" stroke="#63b8ff" d="M283.5,-110.03C239.48,-100.39 170.25,-85.21 125.48,-75.4"/>
<polygon fill="#63b8ff" stroke="#63b8ff" points="126.38,-72.02 115.86,-73.3 124.88,-78.86 126.38,-72.02"/>
</a>
</g>
</g>
<!-- Node2&#45;&gt;Node7 -->
<g id="edge6_Node000002_Node000007" class="edge">
<title>Node2&#45;&gt;Node7</title>
<g id="a_edge6_Node000002_Node000007"><a xlink:title=" ">
<path fill="none" stroke="#63b8ff" d="M373.5,-110.03C426.82,-100.03 511.79,-84.1 563.77,-74.36"/>
<polygon fill="#63b8ff" stroke="#63b8ff" points="564.3,-77.82 573.48,-72.53 563.01,-70.94 564.3,-77.82"/>
</a>
</g>
</g>
<!-- Node5 -->
<g id="Node000005" class="node">
<title>Node5</title>
<g id="a_Node000005"><a xlink:title=" ">
<polygon fill="#e0e0e0" stroke="#999999" points="103.5,-19.25 60.5,-19.25 60.5,0 103.5,0 103.5,-19.25"/>
<text text-anchor="middle" x="82" y="-5.75" font-family="Helvetica,sans-Serif" font-size="10.00">SDL.h</text>
</a>
</g>
</g>
<!-- Node4&#45;&gt;Node5 -->
<g id="edge4_Node000004_Node000005" class="edge">
<title>Node4&#45;&gt;Node5</title>
<g id="a_edge4_Node000004_Node000005"><a xlink:title=" ">
<path fill="none" stroke="#63b8ff" d="M82,-55.08C82,-48.57 82,-39.42 82,-31.12"/>
<polygon fill="#63b8ff" stroke="#63b8ff" points="85.5,-31.12 82,-21.12 78.5,-31.12 85.5,-31.12"/>
</a>
</g>
</g>
<!-- Node6 -->
<g id="Node000006" class="node">
<title>Node6</title>
<g id="a_Node000006"><a xlink:title=" ">
<polygon fill="#e0e0e0" stroke="#999999" points="236.38,-19.25 171.62,-19.25 171.62,0 236.38,0 236.38,-19.25"/>
<text text-anchor="middle" x="204" y="-5.75" font-family="Helvetica,sans-Serif" font-size="10.00">SDL_rect.h</text>
</a>
</g>
</g>
<!-- Node4&#45;&gt;Node6 -->
<g id="edge5_Node000004_Node000006" class="edge">
<title>Node4&#45;&gt;Node6</title>
<g id="a_edge5_Node000004_Node000006"><a xlink:title=" ">
<path fill="none" stroke="#63b8ff" d="M102.7,-54.84C121.89,-46.47 150.71,-33.88 172.72,-24.28"/>
<polygon fill="#63b8ff" stroke="#63b8ff" points="174.05,-27.52 181.82,-20.31 171.25,-21.1 174.05,-27.52"/>
</a>
</g>
</g>
<!-- Node8 -->
<g id="Node000008" class="node">
<title>Node8</title>
<g id="a_Node000008"><a xlink:title=" ">
<polygon fill="#e0e0e0" stroke="#999999" points="633.12,-19.25 584.88,-19.25 584.88,0 633.12,0 633.12,-19.25"/>
<text text-anchor="middle" x="609" y="-5.75" font-family="Helvetica,sans-Serif" font-size="10.00">cstddef</text>
</a>
</g>
</g>
<!-- Node7&#45;&gt;Node8 -->
<g id="edge7_Node000007_Node000008" class="edge">
<title>Node7&#45;&gt;Node8</title>
<g id="a_edge7_Node000007_Node000008"><a xlink:title=" ">
<path fill="none" stroke="#63b8ff" d="M609,-55.08C609,-48.57 609,-39.42 609,-31.12"/>
<polygon fill="#63b8ff" stroke="#63b8ff" points="612.5,-31.12 609,-21.12 605.5,-31.12 612.5,-31.12"/>
</a>
</g>
</g>
<!-- Node9&#45;&gt;Node4 -->
<g id="edge33_Node000009_Node000004" class="edge">
<title>Node9&#45;&gt;Node4</title>
<g id="a_edge33_Node000009_Node000004"><a xlink:title=" ">
<path fill="none" stroke="#63b8ff" d="M502.63,-282.68C418.82,-278.18 248.23,-266.08 195,-240.25 132.09,-209.72 110.48,-194.05 83,-129.75 77.12,-115.99 77.16,-99 78.51,-86"/>
<polygon fill="#63b8ff" stroke="#63b8ff" points="81.92,-86.88 79.85,-76.49 74.99,-85.91 81.92,-86.88"/>
</a>
</g>
</g>
<!-- Node9&#45;&gt;Node6 -->
<g id="edge24_Node000009_Node000006" class="edge">
<title>Node9&#45;&gt;Node6</title>
<g id="a_edge24_Node000009_Node000006"><a xlink:title=" ">
<path fill="none" stroke="#63b8ff" d="M516.46,-275.8C456.22,-257.85 329.25,-212.23 257,-129.75 231.11,-100.19 215.96,-55.95 208.89,-30.52"/>
<polygon fill="#63b8ff" stroke="#63b8ff" points="212.36,-29.95 206.44,-21.16 205.59,-31.72 212.36,-29.95"/>
</a>
</g>
</g>
<!-- Node9&#45;&gt;Node7 -->
<g id="edge13_Node000009_Node000007" class="edge">
<title>Node9&#45;&gt;Node7</title>
<g id="a_edge13_Node000009_Node000007"><a xlink:title=" ">
<path fill="none" stroke="#63b8ff" d="M597.28,-277.07C634.49,-270.01 687.2,-257.99 731,-240.25 746.74,-233.87 749.14,-229.21 764,-221 794.28,-204.28 815.07,-214.58 833,-185 837.44,-177.68 837.66,-172.93 833,-165.75 793.59,-105.02 707.72,-80.91 654.49,-71.56"/>
<polygon fill="#63b8ff" stroke="#63b8ff" points="655.26,-68.13 644.82,-69.97 654.13,-75.04 655.26,-68.13"/>
</a>
</g>
</g>
<!-- Node9&#45;&gt;Node10 -->
<g id="edge9_Node000009_Node000010" class="edge">
<title>Node9&#45;&gt;Node10</title>
<g id="a_edge9_Node000009_Node000010"><a xlink:title=" ">
<path fill="none" stroke="#63b8ff" d="M502.68,-281.59C426.38,-275.73 279.96,-262.01 233,-240.25 199.51,-224.73 189.64,-216.86 171,-185 163.18,-171.63 159.72,-154.38 158.19,-141.17"/>
<polygon fill="#63b8ff" stroke="#63b8ff" points="161.71,-141.18 157.37,-131.52 154.73,-141.78 161.71,-141.18"/>
</a>
</g>
</g>
<!-- Node9&#45;&gt;Node11 -->
<g id="edge14_Node000009_Node000011" class="edge">
<title>Node9&#45;&gt;Node11</title>
<g id="a_edge14_Node000009_Node000011"><a xlink:title=" ">
<path fill="none" stroke="#63b8ff" d="M541.38,-276.04C532.66,-267.07 518.81,-252.77 507,-240.25 492.16,-224.52 475.46,-206.4 463.62,-193.48"/>
<polygon fill="#63b8ff" stroke="#63b8ff" points="466.31,-191.24 456.98,-186.22 461.15,-195.96 466.31,-191.24"/>
</a>
</g>
</g>
<!-- Node14 -->
<g id="Node000014" class="node">
<title>Node14</title>
<g id="a_Node000014"><a xlink:title=" ">
<polygon fill="#e0e0e0" stroke="#999999" points="442,-129.75 402,-129.75 402,-110.5 442,-110.5 442,-129.75"/>
<text text-anchor="middle" x="422" y="-116.25" font-family="Helvetica,sans-Serif" font-size="10.00">bitset</text>
</a>
</g>
</g>
<!-- Node9&#45;&gt;Node14 -->
<g id="edge41_Node000009_Node000014" class="edge">
<title>Node9&#45;&gt;Node14</title>
<g id="a_edge41_Node000009_Node000014"><a xlink:title=" ">
<path fill="none" stroke="#63b8ff" d="M526.61,-275.83C494.38,-261.91 437.7,-231.83 415,-185 408.29,-171.17 410.84,-153.71 414.61,-140.55"/>
<polygon fill="#63b8ff" stroke="#63b8ff" points="417.85,-141.92 417.72,-131.33 411.21,-139.69 417.85,-141.92"/>
</a>
</g>
</g>
<!-- Node15 -->
<g id="Node000015" class="node">
<title>Node15</title>
<g id="a_Node000015"><a xlink:title=" ">
<polygon fill="#e0e0e0" stroke="#999999" points="658.5,-129.75 615.5,-129.75 615.5,-110.5 658.5,-110.5 658.5,-129.75"/>
<text text-anchor="middle" x="637" y="-116.25" font-family="Helvetica,sans-Serif" font-size="10.00">vector</text>
</a>
</g>
</g>
<!-- Node9&#45;&gt;Node15 -->
<g id="edge45_Node000009_Node000015" class="edge">
<title>Node9&#45;&gt;Node15</title>
<g id="a_edge45_Node000009_Node000015"><a xlink:title=" ">
<path fill="none" stroke="#63b8ff" d="M546.11,-275.92C541.22,-263.3 534.22,-239.75 541,-221 554.32,-184.19 589.5,-153.82 613.37,-136.57"/>
<polygon fill="#63b8ff" stroke="#63b8ff" points="615.35,-139.46 621.56,-130.87 611.36,-133.71 615.35,-139.46"/>
</a>
</g>
</g>
<!-- Node17 -->
<g id="Node000017" class="node">
<title>Node17</title>
<g id="a_Node000017"><a xlink:href="SpriteComponent_8h_source.html" target="_top" xlink:title=" ">
<polygon fill="white" stroke="#666666" points="1166.25,-185 1067.75,-185 1067.75,-165.75 1166.25,-165.75 1166.25,-185"/>
<text text-anchor="middle" x="1117" y="-171.5" font-family="Helvetica,sans-Serif" font-size="10.00">SpriteComponent.h</text>
</a>
</g>
</g>
<!-- Node9&#45;&gt;Node17 -->
<g id="edge25_Node000009_Node000017" class="edge">
<title>Node9&#45;&gt;Node17</title>
<g id="a_edge25_Node000009_Node000017"><a xlink:title=" ">
<path fill="none" stroke="#63b8ff" d="M597.09,-278.05C640.96,-270.99 707.86,-258.44 764,-240.25 783.92,-233.8 786.89,-226.83 807,-221 852.45,-207.83 979.41,-191.94 1056.03,-183.12"/>
<polygon fill="#63b8ff" stroke="#63b8ff" points="1056.37,-186.6 1065.91,-181.99 1055.57,-179.65 1056.37,-186.6"/>
</a>
</g>
</g>
<!-- Node23 -->
<g id="Node000023" class="node">
<title>Node23</title>
<g id="a_Node000023"><a xlink:href="Manager_8h_source.html" target="_top" xlink:title=" ">
<polygon fill="white" stroke="#666666" points="610.5,-240.25 549.5,-240.25 549.5,-221 610.5,-221 610.5,-240.25"/>
<text text-anchor="middle" x="580" y="-226.75" font-family="Helvetica,sans-Serif" font-size="10.00">Manager.h</text>
</a>
</g>
</g>
<!-- Node9&#45;&gt;Node23 -->
<g id="edge34_Node000009_Node000023" class="edge">
<title>Node9&#45;&gt;Node23</title>
<g id="a_edge34_Node000009_Node000023"><a xlink:title=" ">
<path fill="none" stroke="#63b8ff" d="M554.95,-276.08C558.88,-269.11 564.51,-259.12 569.44,-250.37"/>
<polygon fill="#63b8ff" stroke="#63b8ff" points="572.34,-252.36 574.2,-241.93 566.24,-248.92 572.34,-252.36"/>
</a>
</g>
</g>
<!-- Node9&#45;&gt;Node25 -->
<g id="edge42_Node000009_Node000025" class="edge">
<title>Node9&#45;&gt;Node25</title>
<g id="a_edge42_Node000009_Node000025"><a xlink:title=" ">
<path fill="none" stroke="#63b8ff" d="M597.19,-276.55C653.84,-266.57 748.27,-249.92 804.88,-239.93"/>
<polygon fill="#63b8ff" stroke="#63b8ff" points="805.29,-243.42 814.53,-238.23 804.07,-236.52 805.29,-243.42"/>
</a>
</g>
</g>
<!-- Node26 -->
<g id="Node000026" class="node">
<title>Node26</title>
<g id="a_Node000026"><a xlink:title=" ">
<polygon fill="#e0e0e0" stroke="#999999" points="665.5,-240.25 628.5,-240.25 628.5,-221 665.5,-221 665.5,-240.25"/>
<text text-anchor="middle" x="647" y="-226.75" font-family="Helvetica,sans-Serif" font-size="10.00">tuple</text>
</a>
</g>
</g>
<!-- Node9&#45;&gt;Node26 -->
<g id="edge43_Node000009_Node000026" class="edge">
<title>Node9&#45;&gt;Node26</title>
<g id="a_edge43_Node000009_Node000026"><a xlink:title=" ">
<path fill="none" stroke="#63b8ff" d="M566.45,-275.84C581.23,-267.73 603.18,-255.68 620.43,-246.21"/>
<polygon fill="#63b8ff" stroke="#63b8ff" points="622.06,-249.31 629.14,-241.43 618.69,-243.18 622.06,-249.31"/>
</a>
</g>
</g>
<!-- Node27 -->
<g id="Node000027" class="node">
<title>Node27</title>
<g id="a_Node000027"><a xlink:title=" ">
<polygon fill="#e0e0e0" stroke="#999999" points="722.25,-240.25 683.75,-240.25 683.75,-221 722.25,-221 722.25,-240.25"/>
<text text-anchor="middle" x="703" y="-226.75" font-family="Helvetica,sans-Serif" font-size="10.00">utility</text>
</a>
</g>
</g>
<!-- Node9&#45;&gt;Node27 -->
<g id="edge44_Node000009_Node000027" class="edge">
<title>Node9&#45;&gt;Node27</title>
<g id="a_edge44_Node000009_Node000027"><a xlink:title=" ">
<path fill="none" stroke="#63b8ff" d="M575.95,-275.84C602.63,-266.56 644.15,-252.11 672.41,-242.27"/>
<polygon fill="#63b8ff" stroke="#63b8ff" points="673.53,-245.59 681.83,-238.99 671.23,-238.98 673.53,-245.59"/>
</a>
</g>
</g>
<!-- Node10&#45;&gt;Node3 -->
<g id="edge11_Node000010_Node000003" class="edge">
<title>Node10&#45;&gt;Node3</title>
<g id="a_edge11_Node000010_Node000003"><a xlink:title=" ">
<path fill="none" stroke="#63b8ff" d="M195.76,-110.03C234.62,-100.92 294.52,-86.87 336.28,-77.07"/>
<polygon fill="#63b8ff" stroke="#63b8ff" points="336.86,-80.53 345.8,-74.84 335.27,-73.71 336.86,-80.53"/>
</a>
</g>
</g>
<!-- Node10&#45;&gt;Node4 -->
<g id="edge12_Node000010_Node000004" class="edge">
<title>Node10&#45;&gt;Node4</title>
<g id="a_edge12_Node000010_Node000004"><a xlink:title=" ">
<path fill="none" stroke="#63b8ff" d="M144.28,-110.09C133.29,-102.29 117.16,-90.84 104.07,-81.54"/>
<polygon fill="#63b8ff" stroke="#63b8ff" points="106.2,-78.76 96.02,-75.83 102.15,-84.47 106.2,-78.76"/>
</a>
</g>
</g>
<!-- Node10&#45;&gt;Node5 -->
<g id="edge10_Node000010_Node000005" class="edge">
<title>Node10&#45;&gt;Node5</title>
<g id="a_edge10_Node000010_Node000005"><a xlink:title=" ">
<path fill="none" stroke="#63b8ff" d="M153.05,-110.03C147.31,-97.25 135.92,-73.5 123,-55.25 116.11,-45.52 107.28,-35.66 99.59,-27.69"/>
<polygon fill="#63b8ff" stroke="#63b8ff" points="102.14,-25.29 92.61,-20.67 97.18,-30.23 102.14,-25.29"/>
</a>
</g>
</g>
<!-- Node11&#45;&gt;Node7 -->
<g id="edge23_Node000011_Node000007" class="edge">
<title>Node11&#45;&gt;Node7</title>
<g id="a_edge23_Node000011_Node000007"><a xlink:title=" ">
<path fill="none" stroke="#63b8ff" d="M461.45,-165.31C489.1,-146.68 552.58,-103.9 586.56,-81"/>
<polygon fill="#63b8ff" stroke="#63b8ff" points="588.11,-84.17 594.45,-75.68 584.2,-78.37 588.11,-84.17"/>
</a>
</g>
</g>
<!-- Node11&#45;&gt;Node10 -->
<g id="edge19_Node000011_Node000010" class="edge">
<title>Node11&#45;&gt;Node10</title>
<g id="a_edge19_Node000011_Node000010"><a xlink:title=" ">
<path fill="none" stroke="#63b8ff" d="M424.19,-170.02C379.56,-161.85 282.08,-144.01 218.02,-132.29"/>
<polygon fill="#63b8ff" stroke="#63b8ff" points="218.82,-128.88 208.35,-130.52 217.56,-135.77 218.82,-128.88"/>
</a>
</g>
</g>
<!-- Node12 -->
<g id="Node000012" class="node">
<title>Node12</title>
<g id="a_Node000012"><a xlink:title=" ">
<polygon fill="#e0e0e0" stroke="#999999" points="597.5,-129.75 560.5,-129.75 560.5,-110.5 597.5,-110.5 597.5,-129.75"/>
<text text-anchor="middle" x="579" y="-116.25" font-family="Helvetica,sans-Serif" font-size="10.00">array</text>
</a>
</g>
</g>
<!-- Node11&#45;&gt;Node12 -->
<g id="edge15_Node000011_Node000012" class="edge">
<title>Node11&#45;&gt;Node12</title>
<g id="a_edge15_Node000011_Node000012"><a xlink:title=" ">
<path fill="none" stroke="#63b8ff" d="M470.22,-165.34C492.03,-156.48 525.41,-142.91 549.44,-133.14"/>
<polygon fill="#63b8ff" stroke="#63b8ff" points="550.73,-136.4 558.67,-129.39 548.09,-129.91 550.73,-136.4"/>
</a>
</g>
</g>
<!-- Node13 -->
<g id="Node000013" class="node">
<title>Node13</title>
<g id="a_Node000013"><a xlink:title=" ">
<polygon fill="#e0e0e0" stroke="#999999" points="878.25,-129.75 827.75,-129.75 827.75,-110.5 878.25,-110.5 878.25,-129.75"/>
<text text-anchor="middle" x="853" y="-116.25" font-family="Helvetica,sans-Serif" font-size="10.00">memory</text>
</a>
</g>
</g>
<!-- Node11&#45;&gt;Node13 -->
<g id="edge16_Node000011_Node000013" class="edge">
<title>Node11&#45;&gt;Node13</title>
<g id="a_edge16_Node000011_Node000013"><a xlink:title=" ">
<path fill="none" stroke="#63b8ff" d="M472.12,-171.2C540.29,-162.24 734.7,-136.68 816.27,-125.95"/>
<polygon fill="#63b8ff" stroke="#63b8ff" points="816.5,-129.45 825.95,-124.68 815.58,-122.51 816.5,-129.45"/>
</a>
</g>
</g>
<!-- Node11&#45;&gt;Node14 -->
<g id="edge17_Node000011_Node000014" class="edge">
<title>Node11&#45;&gt;Node14</title>
<g id="a_edge17_Node000011_Node000014"><a xlink:title=" ">
<path fill="none" stroke="#63b8ff" d="M443.71,-165.58C440.38,-158.76 435.64,-149.06 431.44,-140.45"/>
<polygon fill="#63b8ff" stroke="#63b8ff" points="434.58,-138.92 427.05,-131.47 428.29,-141.99 434.58,-138.92"/>
</a>
</g>
</g>
<!-- Node11&#45;&gt;Node15 -->
<g id="edge18_Node000011_Node000015" class="edge">
<title>Node11&#45;&gt;Node15</title>
<g id="a_edge18_Node000011_Node000015"><a xlink:title=" ">
<path fill="none" stroke="#63b8ff" d="M471.99,-167.69C501.12,-159.57 552.03,-145.33 604.25,-130.52"/>
<polygon fill="#63b8ff" stroke="#63b8ff" points="604.93,-133.97 613.59,-127.87 603.02,-127.23 604.93,-133.97"/>
</a>
</g>
</g>
<!-- Node16 -->
<g id="Node000016" class="node">
<title>Node16</title>
<g id="a_Node000016"><a xlink:href="ECS_8h_source.html" target="_top" xlink:title=" ">
<polygon fill="white" stroke="#666666" points="503.5,-129.75 460.5,-129.75 460.5,-110.5 503.5,-110.5 503.5,-129.75"/>
<text text-anchor="middle" x="482" y="-116.25" font-family="Helvetica,sans-Serif" font-size="10.00">ECS.h</text>
</a>
</g>
</g>
<!-- Node11&#45;&gt;Node16 -->
<g id="edge20_Node000011_Node000016" class="edge">
<title>Node11&#45;&gt;Node16</title>
<g id="a_edge20_Node000011_Node000016"><a xlink:title=" ">
<path fill="none" stroke="#63b8ff" d="M453.61,-165.58C458.12,-158.53 464.59,-148.4 470.21,-139.58"/>
<polygon fill="#63b8ff" stroke="#63b8ff" points="473.02,-141.7 475.45,-131.38 467.12,-137.93 473.02,-141.7"/>
</a>
</g>
</g>
<!-- Node16&#45;&gt;Node3 -->
<g id="edge21_Node000016_Node000003" class="edge">
<title>Node16&#45;&gt;Node3</title>
<g id="a_edge21_Node000016_Node000003"><a xlink:title=" ">
<path fill="none" stroke="#63b8ff" d="M465.38,-110.09C450.31,-101.91 427.86,-89.71 410.35,-80.19"/>
<polygon fill="#63b8ff" stroke="#63b8ff" points="412.49,-77.37 402.04,-75.68 409.15,-83.52 412.49,-77.37"/>
</a>
</g>
</g>
<!-- Node16&#45;&gt;Node7 -->
<g id="edge22_Node000016_Node000007" class="edge">
<title>Node16&#45;&gt;Node7</title>
<g id="a_edge22_Node000016_Node000007"><a xlink:title=" ">
<path fill="none" stroke="#63b8ff" d="M503.54,-110.09C523.61,-101.68 553.8,-89.02 576.75,-79.4"/>
<polygon fill="#63b8ff" stroke="#63b8ff" points="578.09,-82.63 585.95,-75.54 575.38,-76.18 578.09,-82.63"/>
</a>
</g>
</g>
<!-- Node17&#45;&gt;Node3 -->
<g id="edge31_Node000017_Node000003" class="edge">
<title>Node17&#45;&gt;Node3</title>
<g id="a_edge31_Node000017_Node000003"><a xlink:title=" ">
<path fill="none" stroke="#63b8ff" d="M1116.29,-165.58C1114.61,-151.33 1109.08,-123.51 1091,-110.5 1077.59,-100.85 588.61,-75.96 431.84,-68.21"/>
<polygon fill="#63b8ff" stroke="#63b8ff" points="432.38,-64.74 422.22,-67.74 432.04,-71.73 432.38,-64.74"/>
</a>
</g>
</g>
<!-- Node17&#45;&gt;Node13 -->
<g id="edge28_Node000017_Node000013" class="edge">
<title>Node17&#45;&gt;Node13</title>
<g id="a_edge28_Node000017_Node000013"><a xlink:title=" ">
<path fill="none" stroke="#63b8ff" d="M1067.48,-165.61C1023.25,-157.59 956.43,-145.01 889.72,-130.26"/>
<polygon fill="#63b8ff" stroke="#63b8ff" points="890.58,-126.87 880.06,-128.11 889.06,-133.7 890.58,-126.87"/>
</a>
</g>
</g>
<!-- Node18 -->
<g id="Node000018" class="node">
<title>Node18</title>
<g id="a_Node000018"><a xlink:title=" ">
<polygon fill="#e0e0e0" stroke="#999999" points="988.38,-129.75 953.62,-129.75 953.62,-110.5 988.38,-110.5 988.38,-129.75"/>
<text text-anchor="middle" x="971" y="-116.25" font-family="Helvetica,sans-Serif" font-size="10.00">map</text>
</a>
</g>
</g>
<!-- Node17&#45;&gt;Node18 -->
<g id="edge26_Node000017_Node000018" class="edge">
<title>Node17&#45;&gt;Node18</title>
<g id="a_edge26_Node000017_Node000018"><a xlink:title=" ">
<path fill="none" stroke="#63b8ff" d="M1092.23,-165.34C1066.46,-155.94 1026.18,-141.25 999.2,-131.41"/>
<polygon fill="#63b8ff" stroke="#63b8ff" points="1000.55,-128.18 989.96,-128.04 998.15,-134.75 1000.55,-128.18"/>
</a>
</g>
</g>
<!-- Node19 -->
<g id="Node000019" class="node">
<title>Node19</title>
<g id="a_Node000019"><a xlink:title=" ">
<polygon fill="#e0e0e0" stroke="#999999" points="1081.62,-129.75 1006.38,-129.75 1006.38,-110.5 1081.62,-110.5 1081.62,-129.75"/>
<text text-anchor="middle" x="1044" y="-116.25" font-family="Helvetica,sans-Serif" font-size="10.00">SDL_render.h</text>
</a>
</g>
</g>
<!-- Node17&#45;&gt;Node19 -->
<g id="edge27_Node000017_Node000019" class="edge">
<title>Node17&#45;&gt;Node19</title>
<g id="a_edge27_Node000017_Node000019"><a xlink:title=" ">
<path fill="none" stroke="#63b8ff" d="M1104.62,-165.34C1093.85,-157.49 1078.03,-145.95 1065.25,-136.62"/>
<polygon fill="#63b8ff" stroke="#63b8ff" points="1067.56,-133.98 1057.42,-130.92 1063.44,-139.64 1067.56,-133.98"/>
</a>
</g>
</g>
<!-- Node20 -->
<g id="Node000020" class="node">
<title>Node20</title>
<g id="a_Node000020"><a xlink:href="AnimationHandler_8h_source.html" target="_top" xlink:title=" ">
<polygon fill="white" stroke="#666666" points="1318.38,-129.75 1217.62,-129.75 1217.62,-110.5 1318.38,-110.5 1318.38,-129.75"/>
<text text-anchor="middle" x="1268" y="-116.25" font-family="Helvetica,sans-Serif" font-size="10.00">AnimationHandler.h</text>
</a>
</g>
</g>
<!-- Node17&#45;&gt;Node20 -->
<g id="edge29_Node000017_Node000020" class="edge">
<title>Node17&#45;&gt;Node20</title>
<g id="a_edge29_Node000017_Node000020"><a xlink:title=" ">
<path fill="none" stroke="#63b8ff" d="M1142.62,-165.34C1167.02,-156.74 1204.01,-143.69 1231.5,-134"/>
<polygon fill="#63b8ff" stroke="#63b8ff" points="1232.57,-137.33 1240.83,-130.71 1230.24,-130.73 1232.57,-137.33"/>
</a>
</g>
</g>
<!-- Node22 -->
<g id="Node000022" class="node">
<title>Node22</title>
<g id="a_Node000022"><a xlink:href="Direction_8h_source.html" target="_top" xlink:title=" ">
<polygon fill="white" stroke="#666666" points="1199.88,-129.75 1138.12,-129.75 1138.12,-110.5 1199.88,-110.5 1199.88,-129.75"/>
<text text-anchor="middle" x="1169" y="-116.25" font-family="Helvetica,sans-Serif" font-size="10.00">Direction.h</text>
</a>
</g>
</g>
<!-- Node17&#45;&gt;Node22 -->
<g id="edge32_Node000017_Node000022" class="edge">
<title>Node17&#45;&gt;Node22</title>
<g id="a_edge32_Node000017_Node000022"><a xlink:title=" ">
<path fill="none" stroke="#63b8ff" d="M1125.59,-165.58C1132.84,-158.15 1143.45,-147.29 1152.37,-138.16"/>
<polygon fill="#63b8ff" stroke="#63b8ff" points="1154.69,-140.79 1159.17,-131.19 1149.68,-135.9 1154.69,-140.79"/>
</a>
</g>
</g>
<!-- Node21 -->
<g id="Node000021" class="node">
<title>Node21</title>
<g id="a_Node000021"><a xlink:title=" ">
<polygon fill="#e0e0e0" stroke="#999999" points="1290.62,-74.5 1245.38,-74.5 1245.38,-55.25 1290.62,-55.25 1290.62,-74.5"/>
<text text-anchor="middle" x="1268" y="-61" font-family="Helvetica,sans-Serif" font-size="10.00">cstdint</text>
</a>
</g>
</g>
<!-- Node20&#45;&gt;Node21 -->
<g id="edge30_Node000020_Node000021" class="edge">
<title>Node20&#45;&gt;Node21</title>
<g id="a_edge30_Node000020_Node000021"><a xlink:title=" ">
<path fill="none" stroke="#63b8ff" d="M1268,-110.33C1268,-103.82 1268,-94.67 1268,-86.37"/>
<polygon fill="#63b8ff" stroke="#63b8ff" points="1271.5,-86.37 1268,-76.37 1264.5,-86.37 1271.5,-86.37"/>
</a>
</g>
</g>
<!-- Node23&#45;&gt;Node7 -->
<g id="edge39_Node000023_Node000007" class="edge">
<title>Node23&#45;&gt;Node7</title>
<g id="a_edge39_Node000023_Node000007"><a xlink:title=" ">
<path fill="none" stroke="#63b8ff" d="M587.39,-220.87C597.87,-208.5 617.7,-185.22 635,-165.75 649.42,-149.52 660.13,-149.98 668,-129.75 671.1,-121.78 671.81,-118.16 668,-110.5 661.76,-97.96 650.13,-88.01 638.84,-80.71"/>
<polygon fill="#63b8ff" stroke="#63b8ff" points="640.83,-77.82 630.44,-75.75 637.27,-83.85 640.83,-77.82"/>
</a>
</g>
</g>
<!-- Node23&#45;&gt;Node11 -->
<g id="edge40_Node000023_Node000011" class="edge">
<title>Node23&#45;&gt;Node11</title>
<g id="a_edge40_Node000023_Node000011"><a xlink:title=" ">
<path fill="none" stroke="#63b8ff" d="M557.61,-220.59C536.56,-212.1 504.8,-199.29 480.88,-189.64"/>
<polygon fill="#63b8ff" stroke="#63b8ff" points="482.49,-186.51 471.91,-186.02 479.87,-193.01 482.49,-186.51"/>
</a>
</g>
</g>
<!-- Node23&#45;&gt;Node12 -->
<g id="edge36_Node000023_Node000012" class="edge">
<title>Node23&#45;&gt;Node12</title>
<g id="a_edge36_Node000023_Node000012"><a xlink:title=" ">
<path fill="none" stroke="#63b8ff" d="M575.21,-220.71C570.78,-211.92 564.51,-197.96 562,-185 559.05,-169.82 563.92,-152.92 569.19,-140.32"/>
<polygon fill="#63b8ff" stroke="#63b8ff" points="572.25,-142.05 573.29,-131.5 565.9,-139.09 572.25,-142.05"/>
</a>
</g>
</g>
<!-- Node23&#45;&gt;Node13 -->
<g id="edge37_Node000023_Node000013" class="edge">
<title>Node23&#45;&gt;Node13</title>
<g id="a_edge37_Node000023_Node000013"><a xlink:title=" ">
<path fill="none" stroke="#63b8ff" d="M590.13,-220.57C606.16,-206.72 638.84,-180.35 671,-165.75 718.78,-144.05 778.61,-131.98 816.33,-126.02"/>
<polygon fill="#63b8ff" stroke="#63b8ff" points="816.43,-129.54 825.8,-124.59 815.39,-122.62 816.43,-129.54"/>
</a>
</g>
</g>
<!-- Node23&#45;&gt;Node15 -->
<g id="edge38_Node000023_Node000015" class="edge">
<title>Node23&#45;&gt;Node15</title>
<g id="a_edge38_Node000023_Node000015"><a xlink:title=" ">
<path fill="none" stroke="#63b8ff" d="M581.69,-220.51C584.31,-207.71 590.12,-183.92 600,-165.75 605.32,-155.96 612.96,-146.3 619.91,-138.48"/>
<polygon fill="#63b8ff" stroke="#63b8ff" points="622.29,-141.06 626.55,-131.35 617.17,-136.28 622.29,-141.06"/>
</a>
</g>
</g>
<!-- Node23&#45;&gt;Node24 -->
<g id="edge35_Node000023_Node000024" class="edge">
<title>Node23&#45;&gt;Node24</title>
<g id="a_edge35_Node000023_Node000024"><a xlink:title=" ">
<path fill="none" stroke="#63b8ff" d="M601.54,-220.59C621.61,-212.18 651.8,-199.52 674.75,-189.9"/>
<polygon fill="#63b8ff" stroke="#63b8ff" points="676.09,-193.13 683.95,-186.04 673.38,-186.68 676.09,-193.13"/>
</a>
</g>
</g>
<!-- Node28&#45;&gt;Node4 -->
<g id="edge54_Node000028_Node000004" class="edge">
<title>Node28&#45;&gt;Node4</title>
<g id="a_edge54_Node000028_Node000004"><a xlink:title=" ">
<path fill="none" stroke="#63b8ff" d="M241.67,-222.95C202.79,-211.25 129.27,-183.04 95,-129.75 86.65,-116.77 83.51,-99.48 82.39,-86.17"/>
<polygon fill="#63b8ff" stroke="#63b8ff" points="85.9,-86.22 81.92,-76.4 78.91,-86.56 85.9,-86.22"/>
</a>
</g>
</g>
<!-- Node28&#45;&gt;Node5 -->
<g id="edge50_Node000028_Node000005" class="edge">
<title>Node28&#45;&gt;Node5</title>
<g id="a_edge50_Node000028_Node000005"><a xlink:title=" ">
<path fill="none" stroke="#63b8ff" d="M241.66,-226.53C211.33,-221.81 160.12,-210.49 124,-185 73.82,-149.59 60.44,-132.76 41,-74.5 38.29,-66.38 37.89,-63.22 41,-55.25 45.16,-44.57 53.21,-34.89 61.08,-27.3"/>
<polygon fill="#63b8ff" stroke="#63b8ff" points="63.39,-29.94 68.55,-20.68 58.74,-24.7 63.39,-29.94"/>
</a>
</g>
</g>
<!-- Node28&#45;&gt;Node11 -->
<g id="edge55_Node000028_Node000011" class="edge">
<title>Node28&#45;&gt;Node11</title>
<g id="a_edge55_Node000028_Node000011"><a xlink:title=" ">
<path fill="none" stroke="#63b8ff" d="M292.17,-222.22C323.63,-212.96 377.66,-197.07 413.11,-186.64"/>
<polygon fill="#63b8ff" stroke="#63b8ff" points="413.85,-190.07 422.46,-183.89 411.88,-183.35 413.85,-190.07"/>
</a>
</g>
</g>
<!-- Node28&#45;&gt;Node15 -->
<g id="edge53_Node000028_Node000015" class="edge">
<title>Node28&#45;&gt;Node15</title>
<g id="a_edge53_Node000028_Node000015"><a xlink:title=" ">
<path fill="none" stroke="#63b8ff" d="M284.29,-220.65C311.44,-206.92 366.02,-180.71 415,-165.75 494.63,-141.43 520.41,-149.06 604.05,-130.24"/>
<polygon fill="#63b8ff" stroke="#63b8ff" points="604.68,-133.69 613.63,-128.02 603.1,-126.87 604.68,-133.69"/>
</a>
</g>
</g>
<!-- Node29 -->
<g id="Node000029" class="node">
<title>Node29</title>
<g id="a_Node000029"><a xlink:title=" ">
<polygon fill="#e0e0e0" stroke="#999999" points="254.25,-185 179.75,-185 179.75,-165.75 254.25,-165.75 254.25,-185"/>
<text text-anchor="middle" x="217" y="-171.5" font-family="Helvetica,sans-Serif" font-size="10.00">SDL_image.h</text>
</a>
</g>
</g>
<!-- Node28&#45;&gt;Node29 -->
<g id="edge51_Node000028_Node000029" class="edge">
<title>Node28&#45;&gt;Node29</title>
<g id="a_edge51_Node000028_Node000029"><a xlink:title=" ">
<path fill="none" stroke="#63b8ff" d="M258.74,-220.83C251.84,-213.48 241.78,-202.76 233.26,-193.69"/>
<polygon fill="#63b8ff" stroke="#63b8ff" points="235.87,-191.36 226.47,-186.46 230.77,-196.15 235.87,-191.36"/>
</a>
</g>
</g>
<!-- Node30 -->
<g id="Node000030" class="node">
<title>Node30</title>
<g id="a_Node000030"><a xlink:title=" ">
<polygon fill="#e0e0e0" stroke="#999999" points="823.75,-185 752.25,-185 752.25,-165.75 823.75,-165.75 823.75,-185"/>
<text text-anchor="middle" x="788" y="-171.5" font-family="Helvetica,sans-Serif" font-size="10.00">SDL_mixer.h</text>
</a>
</g>
</g>
<!-- Node28&#45;&gt;Node30 -->
<g id="edge52_Node000028_Node000030" class="edge">
<title>Node28&#45;&gt;Node30</title>
<g id="a_edge52_Node000028_Node000030"><a xlink:title=" ">
<path fill="none" stroke="#63b8ff" d="M292.13,-228.12C361.72,-223.78 562.98,-210 741.04,-185.14"/>
<polygon fill="#63b8ff" stroke="#63b8ff" points="741.28,-188.64 750.69,-183.77 740.3,-181.71 741.28,-188.64"/>
</a>
</g>
</g>
<!-- Node32&#45;&gt;Node15 -->
<g id="edge63_Node000032_Node000015" class="edge">
<title>Node32&#45;&gt;Node15</title>
<g id="a_edge63_Node000032_Node000015"><a xlink:title=" ">
<path fill="none" stroke="#63b8ff" d="M969.29,-220.72C940.53,-207.3 883.49,-181.78 833,-165.75 776.78,-147.9 709.36,-134.17 670.04,-126.9"/>
<polygon fill="#63b8ff" stroke="#63b8ff" points="670.73,-123.47 660.27,-125.12 669.48,-130.36 670.73,-123.47"/>
</a>
</g>
</g>
<!-- Node32&#45;&gt;Node18 -->
<g id="edge62_Node000032_Node000018" class="edge">
<title>Node32&#45;&gt;Node18</title>
<g id="a_edge62_Node000032_Node000018"><a xlink:title=" ">
<path fill="none" stroke="#63b8ff" d="M998.28,-220.68C1011.01,-208.47 1029.98,-185.8 1021,-165.75 1015.79,-154.12 1005.89,-144.28 996.27,-136.82"/>
<polygon fill="#63b8ff" stroke="#63b8ff" points="998.33,-133.99 988.15,-131.05 994.27,-139.7 998.33,-133.99"/>
</a>
</g>
</g>
<!-- Node32&#45;&gt;Node30 -->
<g id="edge61_Node000032_Node000030" class="edge">
<title>Node32&#45;&gt;Node30</title>
<g id="a_edge61_Node000032_Node000030"><a xlink:title=" ">
<path fill="none" stroke="#63b8ff" d="M954.07,-220.59C920.74,-211.72 869.69,-198.12 832.99,-188.35"/>
<polygon fill="#63b8ff" stroke="#63b8ff" points="834.12,-185.03 823.56,-185.84 832.32,-191.8 834.12,-185.03"/>
</a>
</g>
</g>
<!-- Node33 -->
<g id="Node000033" class="node">
<title>Node33</title>
<g id="a_Node000033"><a xlink:href="TextureManager_8h_source.html" target="_top" xlink:title=" ">
<polygon fill="white" stroke="#666666" points="1011.62,-185 918.38,-185 918.38,-165.75 1011.62,-165.75 1011.62,-185"/>
<text text-anchor="middle" x="965" y="-171.5" font-family="Helvetica,sans-Serif" font-size="10.00">TextureManager.h</text>
</a>
</g>
</g>
<!-- Node32&#45;&gt;Node33 -->
<g id="edge64_Node000032_Node000033" class="edge">
<title>Node32&#45;&gt;Node33</title>
<g id="a_edge64_Node000032_Node000033"><a xlink:title=" ">
<path fill="none" stroke="#63b8ff" d="M984.2,-220.83C981.26,-214.01 977.06,-204.31 973.35,-195.7"/>
<polygon fill="#63b8ff" stroke="#63b8ff" points="976.66,-194.54 969.48,-186.75 970.23,-197.32 976.66,-194.54"/>
</a>
</g>
</g>
<!-- Node33&#45;&gt;Node13 -->
<g id="edge67_Node000033_Node000013" class="edge">
<title>Node33&#45;&gt;Node13</title>
<g id="a_edge67_Node000033_Node000013"><a xlink:title=" ">
<path fill="none" stroke="#63b8ff" d="M946,-165.34C928.54,-157.04 902.4,-144.61 882.28,-135.04"/>
<polygon fill="#63b8ff" stroke="#63b8ff" points="883.99,-131.99 873.46,-130.85 880.99,-138.31 883.99,-131.99"/>
</a>
</g>
</g>
<!-- Node33&#45;&gt;Node15 -->
<g id="edge69_Node000033_Node000015" class="edge">
<title>Node33&#45;&gt;Node15</title>
<g id="a_edge69_Node000033_Node000015"><a xlink:title=" ">
<path fill="none" stroke="#63b8ff" d="M918.01,-166.75C850.72,-155.82 728.62,-136 670.06,-126.49"/>
<polygon fill="#63b8ff" stroke="#63b8ff" points="670.82,-123.07 660.39,-124.92 669.7,-129.98 670.82,-123.07"/>
</a>
</g>
</g>
<!-- Node33&#45;&gt;Node18 -->
<g id="edge66_Node000033_Node000018" class="edge">
<title>Node33&#45;&gt;Node18</title>
<g id="a_edge66_Node000033_Node000018"><a xlink:title=" ">
<path fill="none" stroke="#63b8ff" d="M965.99,-165.58C966.73,-158.99 967.78,-149.71 968.72,-141.32"/>
<polygon fill="#63b8ff" stroke="#63b8ff" points="972.18,-141.94 969.82,-131.61 965.22,-141.16 972.18,-141.94"/>
</a>
</g>
</g>
<!-- Node33&#45;&gt;Node19 -->
<g id="edge65_Node000033_Node000019" class="edge">
<title>Node33&#45;&gt;Node19</title>
<g id="a_edge65_Node000033_Node000019"><a xlink:title=" ">
<path fill="none" stroke="#63b8ff" d="M978.4,-165.34C990.09,-157.46 1007.3,-145.86 1021.16,-136.52"/>
<polygon fill="#63b8ff" stroke="#63b8ff" points="1022.94,-139.54 1029.28,-131.05 1019.03,-133.74 1022.94,-139.54"/>
</a>
</g>
</g>
<!-- Node34 -->
<g id="Node000034" class="node">
<title>Node34</title>
<g id="a_Node000034"><a xlink:title=" ">
<polygon fill="#e0e0e0" stroke="#999999" points="936,-129.75 896,-129.75 896,-110.5 936,-110.5 936,-129.75"/>
<text text-anchor="middle" x="916" y="-116.25" font-family="Helvetica,sans-Serif" font-size="10.00">string</text>
</a>
</g>
</g>
<!-- Node33&#45;&gt;Node34 -->
<g id="edge68_Node000033_Node000034" class="edge">
<title>Node33&#45;&gt;Node34</title>
<g id="a_edge68_Node000033_Node000034"><a xlink:title=" ">
<path fill="none" stroke="#63b8ff" d="M956.91,-165.58C950.14,-158.23 940.28,-147.51 931.94,-138.44"/>
<polygon fill="#63b8ff" stroke="#63b8ff" points="934.64,-136.21 925.29,-131.22 929.49,-140.95 934.64,-136.21"/>
</a>
</g>
</g>
</g>
</svg>
