<?xml version="1.0" encoding="us-ascii" standalone="no"?><svg xmlns="http://www.w3.org/2000/svg" xmlns:xlink="http://www.w3.org/1999/xlink" contentStyleType="text/css" height="520px" preserveAspectRatio="none" style="width:1617px;height:520px;background:#FFFFFF;" version="1.1" viewBox="0 0 1617 520" width="1617px" zoomAndPan="magnify"><defs/><g><!--cluster C_0001387619747296316447--><g id="cluster_C_0001387619747296316447"><path d="M429.5,6.602 L450.5,6.602 A3.75,3.75 0 0 1 453,9.102 L460,31.6699 L1607.5,31.6699 A2.5,2.5 0 0 1 1610,34.1699 L1610,97.172 A2.5,2.5 0 0 1 1607.5,99.672 L429.5,99.672 A2.5,2.5 0 0 1 427,97.172 L427,9.102 A2.5,2.5 0 0 1 429.5,6.602 " fill="none" style="stroke:#000000;stroke-width:1.5;"/><line style="stroke:#000000;stroke-width:1.5;" x1="427" x2="460" y1="31.6699" y2="31.6699"/><text fill="#000000" font-family="sans-serif" font-size="14" font-weight="bold" lengthAdjust="spacing" textLength="20" x="431" y="23.5679">src</text></g><!--cluster C_0000989412417490706876--><g id="cluster_C_0000989412417490706876"><path d="M8.5,123.672 L59.5,123.672 A3.75,3.75 0 0 1 62,126.172 L69,148.7399 L1336.5,148.7399 A2.5,2.5 0 0 1 1339,151.2399 L1339,511.442 A2.5,2.5 0 0 1 1336.5,513.942 L8.5,513.942 A2.5,2.5 0 0 1 6,511.442 L6,126.172 A2.5,2.5 0 0 1 8.5,123.672 " fill="none" style="stroke:#000000;stroke-width:1.5;"/><line style="stroke:#000000;stroke-width:1.5;" x1="6" x2="69" y1="148.7399" y2="148.7399"/><text fill="#000000" font-family="sans-serif" font-size="14" font-weight="bold" lengthAdjust="spacing" textLength="50" x="10" y="140.6379">include</text></g><!--entity C_0001013051614648072850--><g id="elem_C_0001013051614648072850"><path d="M805,47.102 L805,81.1699 A2.5,2.5 0 0 0 807.5,83.6699 L890.5,83.6699 A2.5,2.5 0 0 0 893,81.1699 L893,54.602 L883,44.602 L807.5,44.602 A2.5,2.5 0 0 0 805,47.102 " fill="#F1F1F1" style="stroke:#181818;stroke-width:0.5;"/><path d="M883,44.602 L883,52.102 A2.5,2.5 0 0 0 885.5,54.602 L893,54.602 " fill="#F1F1F1" style="stroke:#181818;stroke-width:0.5;"/><text fill="#000000" font-family="sans-serif" font-size="14" lengthAdjust="spacing" textLength="68" x="815" y="69.5679">Game.cpp</text></g><!--entity C_0000939509346680814586--><g id="elem_C_0000939509346680814586"><path d="M1257,47.102 L1257,81.1699 A2.5,2.5 0 0 0 1259.5,83.6699 L1328.5,83.6699 A2.5,2.5 0 0 0 1331,81.1699 L1331,54.602 L1321,44.602 L1259.5,44.602 A2.5,2.5 0 0 0 1257,47.102 " fill="#F1F1F1" style="stroke:#181818;stroke-width:0.5;"/><path d="M1321,44.602 L1321,52.102 A2.5,2.5 0 0 0 1323.5,54.602 L1331,54.602 " fill="#F1F1F1" style="stroke:#181818;stroke-width:0.5;"/><text fill="#000000" font-family="sans-serif" font-size="14" lengthAdjust="spacing" textLength="54" x="1267" y="69.5679">ECS.cpp</text></g><!--entity C_0000006954628482743351--><g id="elem_C_0000006954628482743351"><path d="M609.5,47.102 L609.5,81.1699 A2.5,2.5 0 0 0 612,83.6699 L768,83.6699 A2.5,2.5 0 0 0 770.5,81.1699 L770.5,54.602 L760.5,44.602 L612,44.602 A2.5,2.5 0 0 0 609.5,47.102 " fill="#F1F1F1" style="stroke:#181818;stroke-width:0.5;"/><path d="M760.5,44.602 L760.5,52.102 A2.5,2.5 0 0 0 763,54.602 L770.5,54.602 " fill="#F1F1F1" style="stroke:#181818;stroke-width:0.5;"/><text fill="#000000" font-family="sans-serif" font-size="14" lengthAdjust="spacing" textLength="141" x="619.5" y="69.5679">TextureManager.cpp</text></g><!--entity C_0000078131345768268952--><g id="elem_C_0000078131345768268952"><path d="M1142.5,47.102 L1142.5,81.1699 A2.5,2.5 0 0 0 1145,83.6699 L1219,83.6699 A2.5,2.5 0 0 0 1221.5,81.1699 L1221.5,54.602 L1211.5,44.602 L1145,44.602 A2.5,2.5 0 0 0 1142.5,47.102 " fill="#F1F1F1" style="stroke:#181818;stroke-width:0.5;"/><path d="M1211.5,44.602 L1211.5,52.102 A2.5,2.5 0 0 0 1214,54.602 L1221.5,54.602 " fill="#F1F1F1" style="stroke:#181818;stroke-width:0.5;"/><text fill="#000000" font-family="sans-serif" font-size="14" lengthAdjust="spacing" textLength="59" x="1152.5" y="69.5679">Map.cpp</text></g><!--entity C_0000196084184371566309--><g id="elem_C_0000196084184371566309"><path d="M443,47.102 L443,81.1699 A2.5,2.5 0 0 0 445.5,83.6699 L572.5,83.6699 A2.5,2.5 0 0 0 575,81.1699 L575,54.602 L565,44.602 L445.5,44.602 A2.5,2.5 0 0 0 443,47.102 " fill="#F1F1F1" style="stroke:#181818;stroke-width:0.5;"/><path d="M565,44.602 L565,52.102 A2.5,2.5 0 0 0 567.5,54.602 L575,54.602 " fill="#F1F1F1" style="stroke:#181818;stroke-width:0.5;"/><text fill="#000000" font-family="sans-serif" font-size="14" lengthAdjust="spacing" textLength="112" x="453" y="69.5679">GameObject.cpp</text></g><!--entity C_0000191152136776005951--><g id="elem_C_0000191152136776005951"><path d="M928,47.102 L928,81.1699 A2.5,2.5 0 0 0 930.5,83.6699 L1105.5,83.6699 A2.5,2.5 0 0 0 1108,81.1699 L1108,54.602 L1098,44.602 L930.5,44.602 A2.5,2.5 0 0 0 928,47.102 " fill="#F1F1F1" style="stroke:#181818;stroke-width:0.5;"/><path d="M1098,44.602 L1098,52.102 A2.5,2.5 0 0 0 1100.5,54.602 L1108,54.602 " fill="#F1F1F1" style="stroke:#181818;stroke-width:0.5;"/><text fill="#000000" font-family="sans-serif" font-size="14" lengthAdjust="spacing" textLength="160" x="938" y="69.5679">KeyboardController.cpp</text></g><!--entity C_0001945318807727649881--><g id="elem_C_0001945318807727649881"><path d="M1366.5,47.102 L1366.5,81.1699 A2.5,2.5 0 0 0 1369,83.6699 L1447,83.6699 A2.5,2.5 0 0 0 1449.5,81.1699 L1449.5,54.602 L1439.5,44.602 L1369,44.602 A2.5,2.5 0 0 0 1366.5,47.102 " fill="#F1F1F1" style="stroke:#181818;stroke-width:0.5;"/><path d="M1439.5,44.602 L1439.5,52.102 A2.5,2.5 0 0 0 1442,54.602 L1449.5,54.602 " fill="#F1F1F1" style="stroke:#181818;stroke-width:0.5;"/><text fill="#000000" font-family="sans-serif" font-size="14" lengthAdjust="spacing" textLength="63" x="1376.5" y="69.5679">main.cpp</text></g><!--entity C_0000179489919747770163--><g id="elem_C_0000179489919747770163"><path d="M1484.5,47.102 L1484.5,81.1699 A2.5,2.5 0 0 0 1487,83.6699 L1591,83.6699 A2.5,2.5 0 0 0 1593.5,81.1699 L1593.5,54.602 L1583.5,44.602 L1487,44.602 A2.5,2.5 0 0 0 1484.5,47.102 " fill="#F1F1F1" style="stroke:#181818;stroke-width:0.5;"/><path d="M1583.5,44.602 L1583.5,52.102 A2.5,2.5 0 0 0 1586,54.602 L1593.5,54.602 " fill="#F1F1F1" style="stroke:#181818;stroke-width:0.5;"/><text fill="#000000" font-family="sans-serif" font-size="14" lengthAdjust="spacing" textLength="89" x="1494.5" y="69.5679">Vector2D.cpp</text></g><!--entity C_0001429964502128349037--><g id="elem_C_0001429964502128349037"><path d="M982,164.172 L982,198.2399 A2.5,2.5 0 0 0 984.5,200.7399 L1051.5,200.7399 A2.5,2.5 0 0 0 1054,198.2399 L1054,171.672 L1044,161.672 L984.5,161.672 A2.5,2.5 0 0 0 982,164.172 " fill="#F1F1F1" style="stroke:#181818;stroke-width:0.5;"/><path d="M1044,161.672 L1044,169.172 A2.5,2.5 0 0 0 1046.5,171.672 L1054,171.672 " fill="#F1F1F1" style="stroke:#181818;stroke-width:0.5;"/><text fill="#000000" font-family="sans-serif" font-size="14" lengthAdjust="spacing" textLength="52" x="992" y="186.6379">Game.h</text></g><!--entity C_0002299176299896435140--><g id="elem_C_0002299176299896435140"><path d="M664,164.172 L664,198.2399 A2.5,2.5 0 0 0 666.5,200.7399 L779.5,200.7399 A2.5,2.5 0 0 0 782,198.2399 L782,171.672 L772,161.672 L666.5,161.672 A2.5,2.5 0 0 0 664,164.172 " fill="#F1F1F1" style="stroke:#181818;stroke-width:0.5;"/><path d="M772,161.672 L772,169.172 A2.5,2.5 0 0 0 774.5,171.672 L782,171.672 " fill="#F1F1F1" style="stroke:#181818;stroke-width:0.5;"/><text fill="#000000" font-family="sans-serif" font-size="14" lengthAdjust="spacing" textLength="98" x="674" y="186.6379">Components.h</text></g><!--entity C_0001793349886563558814--><g id="elem_C_0001793349886563558814"><path d="M1099,362.302 L1099,396.3699 A2.5,2.5 0 0 0 1101.5,398.8699 L1154.5,398.8699 A2.5,2.5 0 0 0 1157,396.3699 L1157,369.802 L1147,359.802 L1101.5,359.802 A2.5,2.5 0 0 0 1099,362.302 " fill="#F1F1F1" style="stroke:#181818;stroke-width:0.5;"/><path d="M1147,359.802 L1147,367.302 A2.5,2.5 0 0 0 1149.5,369.802 L1157,369.802 " fill="#F1F1F1" style="stroke:#181818;stroke-width:0.5;"/><text fill="#000000" font-family="sans-serif" font-size="14" lengthAdjust="spacing" textLength="38" x="1109" y="384.7679">ECS.h</text></g><!--entity C_0001313910692060789115--><g id="elem_C_0001313910692060789115"><path d="M767.5,461.372 L767.5,495.4399 A2.5,2.5 0 0 0 770,497.9399 L876,497.9399 A2.5,2.5 0 0 0 878.5,495.4399 L878.5,468.872 L868.5,458.872 L770,458.872 A2.5,2.5 0 0 0 767.5,461.372 " fill="#F1F1F1" style="stroke:#181818;stroke-width:0.5;"/><path d="M868.5,458.872 L868.5,466.372 A2.5,2.5 0 0 0 871,468.872 L878.5,468.872 " fill="#F1F1F1" style="stroke:#181818;stroke-width:0.5;"/><text fill="#000000" font-family="sans-serif" font-size="14" lengthAdjust="spacing" textLength="91" x="777.5" y="483.8379">Component.h</text></g><!--entity C_0001885940953675355666--><g id="elem_C_0001885940953675355666"><path d="M1223,461.372 L1223,495.4399 A2.5,2.5 0 0 0 1225.5,497.9399 L1320.5,497.9399 A2.5,2.5 0 0 0 1323,495.4399 L1323,468.872 L1313,458.872 L1225.5,458.872 A2.5,2.5 0 0 0 1223,461.372 " fill="#F1F1F1" style="stroke:#181818;stroke-width:0.5;"/><path d="M1313,458.872 L1313,466.372 A2.5,2.5 0 0 0 1315.5,468.872 L1323,468.872 " fill="#F1F1F1" style="stroke:#181818;stroke-width:0.5;"/><text fill="#000000" font-family="sans-serif" font-size="14" lengthAdjust="spacing" textLength="80" x="1233" y="483.8379">Constants.h</text></g><!--entity C_0001478176557234770129--><g id="elem_C_0001478176557234770129"><path d="M1229,362.302 L1229,396.3699 A2.5,2.5 0 0 0 1231.5,398.8699 L1320.5,398.8699 A2.5,2.5 0 0 0 1323,396.3699 L1323,369.802 L1313,359.802 L1231.5,359.802 A2.5,2.5 0 0 0 1229,362.302 " fill="#F1F1F1" style="stroke:#181818;stroke-width:0.5;"/><path d="M1313,359.802 L1313,367.302 A2.5,2.5 0 0 0 1315.5,369.802 L1323,369.802 " fill="#F1F1F1" style="stroke:#181818;stroke-width:0.5;"/><text fill="#000000" font-family="sans-serif" font-size="14" lengthAdjust="spacing" textLength="74" x="1239" y="384.7679">Manager.h</text></g><!--entity C_0001233731245320012465--><g id="elem_C_0001233731245320012465"><path d="M1215.5,263.242 L1215.5,297.3099 A2.5,2.5 0 0 0 1218,299.8099 L1284,299.8099 A2.5,2.5 0 0 0 1286.5,297.3099 L1286.5,270.742 L1276.5,260.742 L1218,260.742 A2.5,2.5 0 0 0 1215.5,263.242 " fill="#F1F1F1" style="stroke:#181818;stroke-width:0.5;"/><path d="M1276.5,260.742 L1276.5,268.242 A2.5,2.5 0 0 0 1279,270.742 L1286.5,270.742 " fill="#F1F1F1" style="stroke:#181818;stroke-width:0.5;"/><text fill="#000000" font-family="sans-serif" font-size="14" lengthAdjust="spacing" textLength="51" x="1225.5" y="285.7079">Entity.h</text></g><!--entity C_0000771791855905334945--><g id="elem_C_0000771791855905334945"><path d="M763.5,263.242 L763.5,297.3099 A2.5,2.5 0 0 0 766,299.8099 L942,299.8099 A2.5,2.5 0 0 0 944.5,297.3099 L944.5,270.742 L934.5,260.742 L766,260.742 A2.5,2.5 0 0 0 763.5,263.242 " fill="#F1F1F1" style="stroke:#181818;stroke-width:0.5;"/><path d="M934.5,260.742 L934.5,268.242 A2.5,2.5 0 0 0 937,270.742 L944.5,270.742 " fill="#F1F1F1" style="stroke:#181818;stroke-width:0.5;"/><text fill="#000000" font-family="sans-serif" font-size="14" lengthAdjust="spacing" textLength="161" x="773.5" y="285.7079">TransformComponent.h</text></g><!--entity C_0001561123677079222676--><g id="elem_C_0001561123677079222676"><path d="M933.5,362.302 L933.5,396.3699 A2.5,2.5 0 0 0 936,398.8699 L1024,398.8699 A2.5,2.5 0 0 0 1026.5,396.3699 L1026.5,369.802 L1016.5,359.802 L936,359.802 A2.5,2.5 0 0 0 933.5,362.302 " fill="#F1F1F1" style="stroke:#181818;stroke-width:0.5;"/><path d="M1016.5,359.802 L1016.5,367.302 A2.5,2.5 0 0 0 1019,369.802 L1026.5,369.802 " fill="#F1F1F1" style="stroke:#181818;stroke-width:0.5;"/><text fill="#000000" font-family="sans-serif" font-size="14" lengthAdjust="spacing" textLength="73" x="943.5" y="384.7679">Vector2D.h</text></g><!--entity C_0001485950962359168124--><g id="elem_C_0001485950962359168124"><path d="M332.5,263.242 L332.5,297.3099 A2.5,2.5 0 0 0 335,299.8099 L481,299.8099 A2.5,2.5 0 0 0 483.5,297.3099 L483.5,270.742 L473.5,260.742 L335,260.742 A2.5,2.5 0 0 0 332.5,263.242 " fill="#F1F1F1" style="stroke:#181818;stroke-width:0.5;"/><path d="M473.5,260.742 L473.5,268.242 A2.5,2.5 0 0 0 476,270.742 L483.5,270.742 " fill="#F1F1F1" style="stroke:#181818;stroke-width:0.5;"/><text fill="#000000" font-family="sans-serif" font-size="14" lengthAdjust="spacing" textLength="131" x="342.5" y="285.7079">SpriteComponent.h</text></g><!--entity C_0000851131399919292903--><g id="elem_C_0000851131399919292903"><path d="M594,362.302 L594,396.3699 A2.5,2.5 0 0 0 596.5,398.8699 L747.5,398.8699 A2.5,2.5 0 0 0 750,396.3699 L750,369.802 L740,359.802 L596.5,359.802 A2.5,2.5 0 0 0 594,362.302 " fill="#F1F1F1" style="stroke:#181818;stroke-width:0.5;"/><path d="M740,359.802 L740,367.302 A2.5,2.5 0 0 0 742.5,369.802 L750,369.802 " fill="#F1F1F1" style="stroke:#181818;stroke-width:0.5;"/><text fill="#000000" font-family="sans-serif" font-size="14" lengthAdjust="spacing" textLength="136" x="604" y="384.7679">AnimationHandler.h</text></g><!--entity C_0000682790228189216264--><g id="elem_C_0000682790228189216264"><path d="M980,263.242 L980,297.3099 A2.5,2.5 0 0 0 982.5,299.8099 L1141.5,299.8099 A2.5,2.5 0 0 0 1144,297.3099 L1144,270.742 L1134,260.742 L982.5,260.742 A2.5,2.5 0 0 0 980,263.242 " fill="#F1F1F1" style="stroke:#181818;stroke-width:0.5;"/><path d="M1134,260.742 L1134,268.242 A2.5,2.5 0 0 0 1136.5,270.742 L1144,270.742 " fill="#F1F1F1" style="stroke:#181818;stroke-width:0.5;"/><text fill="#000000" font-family="sans-serif" font-size="14" lengthAdjust="spacing" textLength="144" x="990" y="285.7079">KeyboardController.h</text></g><!--entity C_0001713917564218839751--><g id="elem_C_0001713917564218839751"><path d="M22.5,362.302 L22.5,396.3699 A2.5,2.5 0 0 0 25,398.8699 L183,398.8699 A2.5,2.5 0 0 0 185.5,396.3699 L185.5,369.802 L175.5,359.802 L25,359.802 A2.5,2.5 0 0 0 22.5,362.302 " fill="#F1F1F1" style="stroke:#181818;stroke-width:0.5;"/><path d="M175.5,359.802 L175.5,367.302 A2.5,2.5 0 0 0 178,369.802 L185.5,369.802 " fill="#F1F1F1" style="stroke:#181818;stroke-width:0.5;"/><text fill="#000000" font-family="sans-serif" font-size="14" lengthAdjust="spacing" textLength="143" x="32.5" y="384.7679">ColliderComponent.h</text></g><!--entity C_0000573434380307021447--><g id="elem_C_0000573434380307021447"><path d="M125.5,263.242 L125.5,297.3099 A2.5,2.5 0 0 0 128,299.8099 L258,299.8099 A2.5,2.5 0 0 0 260.5,297.3099 L260.5,270.742 L250.5,260.742 L128,260.742 A2.5,2.5 0 0 0 125.5,263.242 " fill="#F1F1F1" style="stroke:#181818;stroke-width:0.5;"/><path d="M250.5,260.742 L250.5,268.242 A2.5,2.5 0 0 0 253,270.742 L260.5,270.742 " fill="#F1F1F1" style="stroke:#181818;stroke-width:0.5;"/><text fill="#000000" font-family="sans-serif" font-size="14" lengthAdjust="spacing" textLength="115" x="135.5" y="285.7079">TileComponent.h</text></g><!--entity C_0000635144929107397630--><g id="elem_C_0000635144929107397630"><path d="M221,362.302 L221,396.3699 A2.5,2.5 0 0 0 223.5,398.8699 L328.5,398.8699 A2.5,2.5 0 0 0 331,396.3699 L331,369.802 L321,359.802 L223.5,359.802 A2.5,2.5 0 0 0 221,362.302 " fill="#F1F1F1" style="stroke:#181818;stroke-width:0.5;"/><path d="M321,359.802 L321,367.302 A2.5,2.5 0 0 0 323.5,369.802 L331,369.802 " fill="#F1F1F1" style="stroke:#181818;stroke-width:0.5;"/><text fill="#000000" font-family="sans-serif" font-size="14" lengthAdjust="spacing" textLength="90" x="231" y="384.7679">TextureDict.h</text></g><!--entity C_0000937814363705873660--><g id="elem_C_0000937814363705873660"><path d="M555.5,263.242 L555.5,297.3099 A2.5,2.5 0 0 0 558,299.8099 L726,299.8099 A2.5,2.5 0 0 0 728.5,297.3099 L728.5,270.742 L718.5,260.742 L558,260.742 A2.5,2.5 0 0 0 555.5,263.242 " fill="#F1F1F1" style="stroke:#181818;stroke-width:0.5;"/><path d="M718.5,260.742 L718.5,268.242 A2.5,2.5 0 0 0 721,270.742 L728.5,270.742 " fill="#F1F1F1" style="stroke:#181818;stroke-width:0.5;"/><text fill="#000000" font-family="sans-serif" font-size="14" lengthAdjust="spacing" textLength="153" x="565.5" y="285.7079">ProjectileComponent.h</text></g><!--entity C_0001824995478737449985--><g id="elem_C_0001824995478737449985"><path d="M403.5,362.302 L403.5,396.3699 A2.5,2.5 0 0 0 406,398.8699 L556,398.8699 A2.5,2.5 0 0 0 558.5,396.3699 L558.5,369.802 L548.5,359.802 L406,359.802 A2.5,2.5 0 0 0 403.5,362.302 " fill="#F1F1F1" style="stroke:#181818;stroke-width:0.5;"/><path d="M548.5,359.802 L548.5,367.302 A2.5,2.5 0 0 0 551,369.802 L558.5,369.802 " fill="#F1F1F1" style="stroke:#181818;stroke-width:0.5;"/><text fill="#000000" font-family="sans-serif" font-size="14" lengthAdjust="spacing" textLength="135" x="413.5" y="384.7679">HealthComponent.h</text></g><!--entity C_0000974951588919912690--><g id="elem_C_0000974951588919912690"><path d="M817,164.172 L817,198.2399 A2.5,2.5 0 0 0 819.5,200.7399 L944.5,200.7399 A2.5,2.5 0 0 0 947,198.2399 L947,171.672 L937,161.672 L819.5,161.672 A2.5,2.5 0 0 0 817,164.172 " fill="#F1F1F1" style="stroke:#181818;stroke-width:0.5;"/><path d="M937,161.672 L937,169.172 A2.5,2.5 0 0 0 939.5,171.672 L947,171.672 " fill="#F1F1F1" style="stroke:#181818;stroke-width:0.5;"/><text fill="#000000" font-family="sans-serif" font-size="14" lengthAdjust="spacing" textLength="110" x="827" y="186.6379">AssetManager.h</text></g><!--entity C_0000733080747413073865--><g id="elem_C_0000733080747413073865"><path d="M1089.5,164.172 L1089.5,198.2399 A2.5,2.5 0 0 0 1092,200.7399 L1150,200.7399 A2.5,2.5 0 0 0 1152.5,198.2399 L1152.5,171.672 L1142.5,161.672 L1092,161.672 A2.5,2.5 0 0 0 1089.5,164.172 " fill="#F1F1F1" style="stroke:#181818;stroke-width:0.5;"/><path d="M1142.5,161.672 L1142.5,169.172 A2.5,2.5 0 0 0 1145,171.672 L1152.5,171.672 " fill="#F1F1F1" style="stroke:#181818;stroke-width:0.5;"/><text fill="#000000" font-family="sans-serif" font-size="14" lengthAdjust="spacing" textLength="43" x="1099.5" y="186.6379">Map.h</text></g><!--entity C_0000370535757143367557--><g id="elem_C_0000370535757143367557"><path d="M483.5,164.172 L483.5,198.2399 A2.5,2.5 0 0 0 486,200.7399 L626,200.7399 A2.5,2.5 0 0 0 628.5,198.2399 L628.5,171.672 L618.5,161.672 L486,161.672 A2.5,2.5 0 0 0 483.5,164.172 " fill="#F1F1F1" style="stroke:#181818;stroke-width:0.5;"/><path d="M618.5,161.672 L618.5,169.172 A2.5,2.5 0 0 0 621,171.672 L628.5,171.672 " fill="#F1F1F1" style="stroke:#181818;stroke-width:0.5;"/><text fill="#000000" font-family="sans-serif" font-size="14" lengthAdjust="spacing" textLength="125" x="493.5" y="186.6379">TextureManager.h</text></g><!--entity C_0000105423522823795264--><g id="elem_C_0000105423522823795264"><path d="M332,164.172 L332,198.2399 A2.5,2.5 0 0 0 334.5,200.7399 L445.5,200.7399 A2.5,2.5 0 0 0 448,198.2399 L448,171.672 L438,161.672 L334.5,161.672 A2.5,2.5 0 0 0 332,164.172 " fill="#F1F1F1" style="stroke:#181818;stroke-width:0.5;"/><path d="M438,161.672 L438,169.172 A2.5,2.5 0 0 0 440.5,171.672 L448,171.672 " fill="#F1F1F1" style="stroke:#181818;stroke-width:0.5;"/><text fill="#000000" font-family="sans-serif" font-size="14" lengthAdjust="spacing" textLength="96" x="342" y="186.6379">GameObject.h</text></g><!--link C_0001013051614648072850 to C_0001429964502128349037--><g id="link_C_0001013051614648072850_C_0001429964502128349037"><path d="M855,83.922 C855,99.622 855,118.942 855,118.942 C855,118.942 1012.86,118.942 1012.86,118.942 C1012.86,118.942 1012.86,137.262 1012.86,155.502 " fill="none" id="C_0001013051614648072850-to-C_0001429964502128349037" style="stroke:#181818;stroke-width:1.0;"/><polygon fill="#181818" points="1012.86,161.502,1016.86,152.502,1012.86,156.502,1008.86,152.502,1012.86,161.502" style="stroke:#181818;stroke-width:1.0;"/></g><!--link C_0001013051614648072850 to C_0002299176299896435140--><g id="link_C_0001013051614648072850_C_0002299176299896435140"><path d="M813,84.122 C813,117.732 813,181.942 813,181.942 C813,181.942 805.13,181.942 788.28,181.942 " fill="none" id="C_0001013051614648072850-to-C_0002299176299896435140" style="stroke:#181818;stroke-width:1.0;"/><polygon fill="#181818" points="782.28,181.942,791.28,185.942,787.28,181.942,791.28,177.942,782.28,181.942" style="stroke:#181818;stroke-width:1.0;"/></g><!--link C_0001013051614648072850 to C_0000974951588919912690--><g id="link_C_0001013051614648072850_C_0000974951588919912690"><path d="M836,83.992 C836,105.522 836,133.682 836,155.252 " fill="none" id="C_0001013051614648072850-to-C_0000974951588919912690" style="stroke:#181818;stroke-width:1.0;"/><polygon fill="#181818" points="836,161.252,840,152.252,836,156.252,832,152.252,836,161.252" style="stroke:#181818;stroke-width:1.0;"/></g><!--link C_0001013051614648072850 to C_0000733080747413073865--><g id="link_C_0001013051614648072850_C_0000733080747413073865"><path d="M874,84.092 C874,96.442 874,109.942 874,109.942 C874,109.942 1098.75,109.942 1098.75,109.942 C1098.75,109.942 1098.75,134.272 1098.75,155.352 " fill="none" id="C_0001013051614648072850-to-C_0000733080747413073865" style="stroke:#181818;stroke-width:1.0;"/><polygon fill="#181818" points="1098.75,161.352,1102.75,152.352,1098.75,156.352,1094.75,152.352,1098.75,161.352" style="stroke:#181818;stroke-width:1.0;"/></g><!--link C_0001013051614648072850 to C_0000370535757143367557--><g id="link_C_0001013051614648072850_C_0000370535757143367557"><path d="M809,84.142 C809,89.062 809,92.942 809,92.942 C809,92.942 622.17,92.942 622.17,92.942 C622.17,92.942 622.17,129.132 622.17,155.172 " fill="none" id="C_0001013051614648072850-to-C_0000370535757143367557" style="stroke:#181818;stroke-width:1.0;"/><polygon fill="#181818" points="622.17,161.172,626.17,152.172,622.17,156.172,618.17,152.172,622.17,161.172" style="stroke:#181818;stroke-width:1.0;"/></g><!--link C_0000939509346680814586 to C_0001793349886563558814--><g id="link_C_0000939509346680814586_C_0001793349886563558814"><path d="M1271.75,84.102 C1271.75,127.572 1271.75,226.942 1271.75,226.942 C1271.75,226.942 1148.25,226.942 1148.25,226.942 C1148.25,226.942 1148.25,312.112 1148.25,353.412 " fill="none" id="C_0000939509346680814586-to-C_0001793349886563558814" style="stroke:#181818;stroke-width:1.0;"/><polygon fill="#181818" points="1148.25,359.412,1152.25,350.412,1148.25,354.412,1144.25,350.412,1148.25,359.412" style="stroke:#181818;stroke-width:1.0;"/></g><!--link C_0000006954628482743351 to C_0000370535757143367557--><g id="link_C_0000006954628482743351_C_0000370535757143367557"><path d="M615.83,83.992 C615.83,105.522 615.83,133.682 615.83,155.252 " fill="none" id="C_0000006954628482743351-to-C_0000370535757143367557" style="stroke:#181818;stroke-width:1.0;"/><polygon fill="#181818" points="615.83,161.252,619.83,152.252,615.83,156.252,611.83,152.252,615.83,161.252" style="stroke:#181818;stroke-width:1.0;"/></g><!--link C_0000006954628482743351 to C_0001429964502128349037--><g id="link_C_0000006954628482743351_C_0001429964502128349037"><path d="M717.25,83.972 C717.25,102.702 717.25,127.942 717.25,127.942 C717.25,127.942 1002.57,127.942 1002.57,127.942 C1002.57,127.942 1002.57,140.232 1002.57,155.372 " fill="none" id="C_0000006954628482743351-to-C_0001429964502128349037" style="stroke:#181818;stroke-width:1.0;"/><polygon fill="#181818" points="1002.57,161.372,1006.57,152.372,1002.57,156.372,998.57,152.372,1002.57,161.372" style="stroke:#181818;stroke-width:1.0;"/></g><!--link C_0000078131345768268952 to C_0000733080747413073865--><g id="link_C_0000078131345768268952_C_0000733080747413073865"><path d="M1149.17,83.992 C1149.17,105.522 1149.17,133.682 1149.17,155.252 " fill="none" id="C_0000078131345768268952-to-C_0000733080747413073865" style="stroke:#181818;stroke-width:1.0;"/><polygon fill="#181818" points="1149.17,161.252,1153.17,152.252,1149.17,156.252,1145.17,152.252,1149.17,161.252" style="stroke:#181818;stroke-width:1.0;"/></g><!--link C_0000078131345768268952 to C_0001885940953675355666--><g id="link_C_0000078131345768268952_C_0001885940953675355666"><path d="M1186.25,84.062 C1186.25,165.142 1186.25,465.942 1186.25,465.942 C1186.25,465.942 1197.45,465.942 1216.54,465.942 " fill="none" id="C_0000078131345768268952-to-C_0001885940953675355666" style="stroke:#181818;stroke-width:1.0;"/><polygon fill="#181818" points="1222.54,465.942,1213.54,461.942,1217.54,465.942,1213.54,469.942,1222.54,465.942" style="stroke:#181818;stroke-width:1.0;"/></g><!--link C_0000078131345768268952 to C_0001429964502128349037--><g id="link_C_0000078131345768268952_C_0001429964502128349037"><path d="M1145.83,84.112 C1145.83,108.042 1145.83,144.942 1145.83,144.942 C1145.83,144.942 1033.43,144.942 1033.43,144.942 C1033.43,144.942 1033.43,146.912 1033.43,155.372 " fill="none" id="C_0000078131345768268952-to-C_0001429964502128349037" style="stroke:#181818;stroke-width:1.0;"/><polygon fill="#181818" points="1033.43,161.372,1037.43,152.372,1033.43,156.372,1029.43,152.372,1033.43,161.372" style="stroke:#181818;stroke-width:1.0;"/></g><!--link C_0000196084184371566309 to C_0000105423522823795264--><g id="link_C_0000196084184371566309_C_0000105423522823795264"><path d="M471.67,84.122 C471.67,117.732 471.67,181.942 471.67,181.942 C471.67,181.942 467.57,181.942 454.48,181.942 " fill="none" id="C_0000196084184371566309-to-C_0000105423522823795264" style="stroke:#181818;stroke-width:1.0;"/><polygon fill="#181818" points="448.48,181.942,457.48,185.942,453.48,181.942,457.48,177.942,448.48,181.942" style="stroke:#181818;stroke-width:1.0;"/></g><!--link C_0000196084184371566309 to C_0000370535757143367557--><g id="link_C_0000196084184371566309_C_0000370535757143367557"><path d="M514,83.992 C514,105.522 514,133.682 514,155.252 " fill="none" id="C_0000196084184371566309-to-C_0000370535757143367557" style="stroke:#181818;stroke-width:1.0;"/><polygon fill="#181818" points="514,161.252,518,152.252,514,156.252,510,152.252,514,161.252" style="stroke:#181818;stroke-width:1.0;"/></g><!--link C_0000196084184371566309 to C_0001429964502128349037--><g id="link_C_0000196084184371566309_C_0001429964502128349037"><path d="M544.5,84.142 C544.5,105.382 544.5,135.942 544.5,135.942 C544.5,135.942 992.29,135.942 992.29,135.942 C992.29,135.942 992.29,143.092 992.29,155.222 " fill="none" id="C_0000196084184371566309-to-C_0001429964502128349037" style="stroke:#181818;stroke-width:1.0;"/><polygon fill="#181818" points="992.29,161.222,996.29,152.222,992.29,156.222,988.29,152.222,992.29,161.222" style="stroke:#181818;stroke-width:1.0;"/></g><!--link C_0000191152136776005951 to C_0000682790228189216264--><g id="link_C_0000191152136776005951_C_0000682790228189216264"><path d="M1071.75,84.082 C1071.75,125.262 1071.75,213.242 1071.75,254.372 " fill="none" id="C_0000191152136776005951-to-C_0000682790228189216264" style="stroke:#181818;stroke-width:1.0;"/><polygon fill="#181818" points="1071.75,260.372,1075.75,251.372,1071.75,255.372,1067.75,251.372,1071.75,260.372" style="stroke:#181818;stroke-width:1.0;"/></g><!--link C_0000191152136776005951 to C_0001429964502128349037--><g id="link_C_0000191152136776005951_C_0001429964502128349037"><path d="M1023.14,83.992 C1023.14,105.522 1023.14,133.682 1023.14,155.252 " fill="none" id="C_0000191152136776005951-to-C_0001429964502128349037" style="stroke:#181818;stroke-width:1.0;"/><polygon fill="#181818" points="1023.14,161.252,1027.14,152.252,1023.14,156.252,1019.14,152.252,1023.14,161.252" style="stroke:#181818;stroke-width:1.0;"/></g><!--link C_0000191152136776005951 to C_0002299176299896435140--><g id="link_C_0000191152136776005951_C_0002299176299896435140"><path d="M934.33,83.922 C934.33,93.072 934.33,101.942 934.33,101.942 C934.33,101.942 776.25,101.942 776.25,101.942 C776.25,101.942 776.25,131.722 776.25,155.202 " fill="none" id="C_0000191152136776005951-to-C_0002299176299896435140" style="stroke:#181818;stroke-width:1.0;"/><polygon fill="#181818" points="776.25,161.202,780.25,152.202,776.25,156.202,772.25,152.202,776.25,161.202" style="stroke:#181818;stroke-width:1.0;"/></g><!--link C_0000191152136776005951 to C_0000974951588919912690--><g id="link_C_0000191152136776005951_C_0000974951588919912690"><path d="M940.67,83.992 C940.67,105.522 940.67,133.682 940.67,155.252 " fill="none" id="C_0000191152136776005951-to-C_0000974951588919912690" style="stroke:#181818;stroke-width:1.0;"/><polygon fill="#181818" points="940.67,161.252,944.67,152.252,940.67,156.252,936.67,152.252,940.67,161.252" style="stroke:#181818;stroke-width:1.0;"/></g><!--link C_0001945318807727649881 to C_0001429964502128349037--><g id="link_C_0001945318807727649881_C_0001429964502128349037"><path d="M1394.17,84.072 C1394.17,110.522 1394.17,153.942 1394.17,153.942 C1394.17,153.942 1043.71,153.942 1043.71,153.942 C1043.71,153.942 1043.71,151.162 1043.71,155.392 " fill="none" id="C_0001945318807727649881-to-C_0001429964502128349037" style="stroke:#181818;stroke-width:1.0;"/><polygon fill="#181818" points="1043.71,161.392,1047.71,152.392,1043.71,156.392,1039.71,152.392,1043.71,161.392" style="stroke:#181818;stroke-width:1.0;"/></g><!--link C_0001945318807727649881 to C_0001885940953675355666--><g id="link_C_0001945318807727649881_C_0001885940953675355666"><path d="M1421.83,84.142 C1421.83,167.002 1421.83,478.942 1421.83,478.942 C1421.83,478.942 1372.57,478.942 1329.39,478.942 " fill="none" id="C_0001945318807727649881-to-C_0001885940953675355666" style="stroke:#181818;stroke-width:1.0;"/><polygon fill="#181818" points="1323.39,478.942,1332.39,482.942,1328.39,478.942,1332.39,474.942,1323.39,478.942" style="stroke:#181818;stroke-width:1.0;"/></g><!--link C_0000179489919747770163 to C_0001561123677079222676--><g id="link_C_0000179489919747770163_C_0001561123677079222676"><path d="M1539,83.782 C1539,143.682 1539,319.942 1539,319.942 C1539,319.942 1011,319.942 1011,319.942 C1011,319.942 1011,336.282 1011,353.562 " fill="none" id="C_0000179489919747770163-to-C_0001561123677079222676" style="stroke:#181818;stroke-width:1.0;"/><polygon fill="#181818" points="1011,359.562,1015,350.562,1011,354.562,1007,350.562,1011,359.562" style="stroke:#181818;stroke-width:1.0;"/></g><!--link C_0002299176299896435140 to C_0001793349886563558814--><g id="link_C_0002299176299896435140_C_0001793349886563558814"><path d="M758.1,200.992 C758.1,243.542 758.1,339.942 758.1,339.942 C758.1,339.942 1121.5,339.942 1121.5,339.942 C1121.5,339.942 1121.5,343.792 1121.5,353.642 " fill="none" id="C_0002299176299896435140-to-C_0001793349886563558814" style="stroke:#181818;stroke-width:1.0;"/><polygon fill="#181818" points="1121.5,359.642,1125.5,350.642,1121.5,354.642,1117.5,350.642,1121.5,359.642" style="stroke:#181818;stroke-width:1.0;"/></g><!--link C_0002299176299896435140 to C_0001313910692060789115--><g id="link_C_0002299176299896435140_C_0001313910692060789115"><path d="M755.4,201.152 C755.4,265.742 755.4,464.942 755.4,464.942 C755.4,464.942 754.17,464.942 761.18,464.942 " fill="none" id="C_0002299176299896435140-to-C_0001313910692060789115" style="stroke:#181818;stroke-width:1.0;"/><polygon fill="#181818" points="767.18,464.942,758.18,460.942,762.18,464.942,758.18,468.942,767.18,464.942" style="stroke:#181818;stroke-width:1.0;"/></g><!--link C_0002299176299896435140 to C_0001478176557234770129--><g id="link_C_0002299176299896435140_C_0001478176557234770129"><path d="M760.8,200.952 C760.8,241.412 760.8,329.942 760.8,329.942 C760.8,329.942 1257.75,329.942 1257.75,329.942 C1257.75,329.942 1257.75,339.792 1257.75,353.532 " fill="none" id="C_0002299176299896435140-to-C_0001478176557234770129" style="stroke:#181818;stroke-width:1.0;"/><polygon fill="#181818" points="1257.75,359.532,1261.75,350.532,1257.75,354.532,1253.75,350.532,1257.75,359.532" style="stroke:#181818;stroke-width:1.0;"/></g><!--link C_0002299176299896435140 to C_0001233731245320012465--><g id="link_C_0002299176299896435140_C_0001233731245320012465"><path d="M777.38,200.862 C777.38,209.602 777.38,217.942 777.38,217.942 C777.38,217.942 1239.25,217.942 1239.25,217.942 C1239.25,217.942 1239.25,236.292 1239.25,254.552 " fill="none" id="C_0002299176299896435140-to-C_0001233731245320012465" style="stroke:#181818;stroke-width:1.0;"/><polygon fill="#181818" points="1239.25,260.552,1243.25,251.552,1239.25,255.552,1235.25,251.552,1239.25,260.552" style="stroke:#181818;stroke-width:1.0;"/></g><!--link C_0002299176299896435140 to C_0000771791855905334945--><g id="link_C_0002299176299896435140_C_0000771791855905334945"><path d="M768.12,200.772 C768.12,218.032 768.12,237.062 768.12,254.402 " fill="none" id="C_0002299176299896435140-to-C_0000771791855905334945" style="stroke:#181818;stroke-width:1.0;"/><polygon fill="#181818" points="768.12,260.402,772.12,251.402,768.12,255.402,764.12,251.402,768.12,260.402" style="stroke:#181818;stroke-width:1.0;"/></g><!--link C_0002299176299896435140 to C_0001485950962359168124--><g id="link_C_0002299176299896435140_C_0001485950962359168124"><path d="M689.8,201.052 C689.8,219.432 689.8,243.942 689.8,243.942 C689.8,243.942 459.83,243.942 459.83,243.942 C459.83,243.942 459.83,245.922 459.83,254.402 " fill="none" id="C_0002299176299896435140-to-C_0001485950962359168124" style="stroke:#181818;stroke-width:1.0;"/><polygon fill="#181818" points="459.83,260.402,463.83,251.402,459.83,255.402,455.83,251.402,459.83,260.402" style="stroke:#181818;stroke-width:1.0;"/></g><!--link C_0002299176299896435140 to C_0000682790228189216264--><g id="link_C_0002299176299896435140_C_0000682790228189216264"><path d="M772.75,200.962 C772.75,216.642 772.75,235.942 772.75,235.942 C772.75,235.942 1018,235.942 1018,235.942 C1018,235.942 1018,242.642 1018,254.442 " fill="none" id="C_0002299176299896435140-to-C_0000682790228189216264" style="stroke:#181818;stroke-width:1.0;"/><polygon fill="#181818" points="1018,260.442,1022,251.442,1018,255.442,1014,251.442,1018,260.442" style="stroke:#181818;stroke-width:1.0;"/></g><!--link C_0002299176299896435140 to C_0001713917564218839751--><g id="link_C_0002299176299896435140_C_0001713917564218839751"><path d="M739.25,201.042 C739.25,237.152 739.25,309.942 739.25,309.942 C739.25,309.942 155.5,309.942 155.5,309.942 C155.5,309.942 155.5,333.122 155.5,353.642 " fill="none" id="C_0002299176299896435140-to-C_0001713917564218839751" style="stroke:#181818;stroke-width:1.0;"/><polygon fill="#181818" points="155.5,359.642,159.5,350.642,155.5,354.642,151.5,350.642,155.5,359.642" style="stroke:#181818;stroke-width:1.0;"/></g><!--link C_0002299176299896435140 to C_0000573434380307021447--><g id="link_C_0002299176299896435140_C_0000573434380307021447"><path d="M676.9,201.162 C676.9,206.072 676.9,209.942 676.9,209.942 C676.9,209.942 193,209.942 193,209.942 C193,209.942 193,233.512 193,254.302 " fill="none" id="C_0002299176299896435140-to-C_0000573434380307021447" style="stroke:#181818;stroke-width:1.0;"/><polygon fill="#181818" points="193,260.302,197,251.302,193,255.302,189,251.302,193,260.302" style="stroke:#181818;stroke-width:1.0;"/></g><!--link C_0002299176299896435140 to C_0000937814363705873660--><g id="link_C_0002299176299896435140_C_0000937814363705873660"><path d="M715.6,200.772 C715.6,218.032 715.6,237.062 715.6,254.402 " fill="none" id="C_0002299176299896435140-to-C_0000937814363705873660" style="stroke:#181818;stroke-width:1.0;"/><polygon fill="#181818" points="715.6,260.402,719.6,251.402,715.6,255.402,711.6,251.402,715.6,260.402" style="stroke:#181818;stroke-width:1.0;"/></g><!--link C_0002299176299896435140 to C_0001824995478737449985--><g id="link_C_0002299176299896435140_C_0001824995478737449985"><path d="M702.7,201.192 C702.7,222.412 702.7,252.942 702.7,252.942 C702.7,252.942 519.5,252.942 519.5,252.942 C519.5,252.942 519.5,317.672 519.5,353.312 " fill="none" id="C_0002299176299896435140-to-C_0001824995478737449985" style="stroke:#181818;stroke-width:1.0;"/><polygon fill="#181818" points="519.5,359.312,523.5,350.312,519.5,354.312,515.5,350.312,519.5,359.312" style="stroke:#181818;stroke-width:1.0;"/></g><!--link C_0001793349886563558814 to C_0001313910692060789115--><g id="link_C_0001793349886563558814_C_0001313910692060789115"><path d="M1118.33,399.022 C1118.33,428.042 1118.33,478.942 1118.33,478.942 C1118.33,478.942 970.52,478.942 884.9,478.942 " fill="none" id="C_0001793349886563558814-to-C_0001313910692060789115" style="stroke:#181818;stroke-width:1.0;"/><polygon fill="#181818" points="878.9,478.942,887.9,482.942,883.9,478.942,887.9,474.942,878.9,478.942" style="stroke:#181818;stroke-width:1.0;"/></g><!--link C_0001793349886563558814 to C_0001885940953675355666--><g id="link_C_0001793349886563558814_C_0001885940953675355666"><path d="M1137.67,399.212 C1137.67,431.542 1137.67,491.942 1137.67,491.942 C1137.67,491.942 1178.13,491.942 1216.61,491.942 " fill="none" id="C_0001793349886563558814-to-C_0001885940953675355666" style="stroke:#181818;stroke-width:1.0;"/><polygon fill="#181818" points="1222.61,491.942,1213.61,487.942,1217.61,491.942,1213.61,495.942,1222.61,491.942" style="stroke:#181818;stroke-width:1.0;"/></g><!--link C_0001478176557234770129 to C_0001885940953675355666--><g id="link_C_0001478176557234770129_C_0001885940953675355666"><path d="M1276,398.912 C1276,416.172 1276,435.192 1276,452.532 " fill="none" id="C_0001478176557234770129-to-C_0001885940953675355666" style="stroke:#181818;stroke-width:1.0;"/><polygon fill="#181818" points="1276,458.532,1280,449.532,1276,453.532,1272,449.532,1276,458.532" style="stroke:#181818;stroke-width:1.0;"/></g><!--link C_0001233731245320012465 to C_0001793349886563558814--><g id="link_C_0001233731245320012465_C_0001793349886563558814"><path d="M1218,299.962 C1218,329.012 1218,379.942 1218,379.942 C1218,379.942 1189.72,379.942 1163.47,379.942 " fill="none" id="C_0001233731245320012465-to-C_0001793349886563558814" style="stroke:#181818;stroke-width:1.0;"/><polygon fill="#181818" points="1157.47,379.942,1166.47,383.942,1162.47,379.942,1166.47,375.942,1157.47,379.942" style="stroke:#181818;stroke-width:1.0;"/></g><!--link C_0001233731245320012465 to C_0001885940953675355666--><g id="link_C_0001233731245320012465_C_0001885940953675355666"><path d="M1220.5,300.272 C1220.5,351.772 1220.5,484.942 1220.5,484.942 C1220.5,484.942 1215.32,484.942 1216.76,484.942 " fill="none" id="C_0001233731245320012465-to-C_0001885940953675355666" style="stroke:#181818;stroke-width:1.0;"/><polygon fill="#181818" points="1222.76,484.942,1213.76,480.942,1217.76,484.942,1213.76,488.942,1222.76,484.942" style="stroke:#181818;stroke-width:1.0;"/></g><!--link C_0000771791855905334945 to C_0001313910692060789115--><g id="link_C_0000771791855905334945_C_0001313910692060789115"><path d="M823,299.992 C823,337.872 823,414.422 823,452.472 " fill="none" id="C_0000771791855905334945-to-C_0001313910692060789115" style="stroke:#181818;stroke-width:1.0;"/><polygon fill="#181818" points="823,458.472,827,449.472,823,453.472,819,449.472,823,458.472" style="stroke:#181818;stroke-width:1.0;"/></g><!--link C_0000771791855905334945 to C_0001561123677079222676--><g id="link_C_0000771791855905334945_C_0001561123677079222676"><path d="M939,299.842 C939,317.102 939,336.122 939,353.472 " fill="none" id="C_0000771791855905334945-to-C_0001561123677079222676" style="stroke:#181818;stroke-width:1.0;"/><polygon fill="#181818" points="939,359.472,943,350.472,939,354.472,935,350.472,939,359.472" style="stroke:#181818;stroke-width:1.0;"/></g><!--link C_0001485950962359168124 to C_0000851131399919292903--><g id="link_C_0001485950962359168124_C_0000851131399919292903"><path d="M443.5,300.052 C443.5,320.652 443.5,349.942 443.5,349.942 C443.5,349.942 661.25,349.942 661.25,349.942 C661.25,349.942 661.25,348.252 661.25,353.572 " fill="none" id="C_0001485950962359168124-to-C_0000851131399919292903" style="stroke:#181818;stroke-width:1.0;"/><polygon fill="#181818" points="661.25,359.572,665.25,350.572,661.25,354.572,657.25,350.572,661.25,359.572" style="stroke:#181818;stroke-width:1.0;"/></g><!--link C_0001485950962359168124 to C_0001313910692060789115--><g id="link_C_0001485950962359168124_C_0001313910692060789115"><path d="M368,299.972 C368,350.722 368,481.942 368,481.942 C368,481.942 639.71,481.942 761.21,481.942 " fill="none" id="C_0001485950962359168124-to-C_0001313910692060789115" style="stroke:#181818;stroke-width:1.0;"/><polygon fill="#181818" points="767.21,481.942,758.21,477.942,762.21,481.942,758.21,485.942,767.21,481.942" style="stroke:#181818;stroke-width:1.0;"/></g><!--link C_0000682790228189216264 to C_0001313910692060789115--><g id="link_C_0000682790228189216264_C_0001313910692060789115"><path d="M1062.75,300.062 C1062.75,349.032 1062.75,471.942 1062.75,471.942 C1062.75,471.942 955.75,471.942 884.91,471.942 " fill="none" id="C_0000682790228189216264-to-C_0001313910692060789115" style="stroke:#181818;stroke-width:1.0;"/><polygon fill="#181818" points="878.91,471.942,887.91,475.942,883.91,471.942,887.91,467.942,878.91,471.942" style="stroke:#181818;stroke-width:1.0;"/></g><!--link C_0000682790228189216264 to C_0001561123677079222676--><g id="link_C_0000682790228189216264_C_0001561123677079222676"><path d="M995.5,299.842 C995.5,317.102 995.5,336.122 995.5,353.472 " fill="none" id="C_0000682790228189216264-to-C_0001561123677079222676" style="stroke:#181818;stroke-width:1.0;"/><polygon fill="#181818" points="995.5,359.472,999.5,350.472,995.5,354.472,991.5,350.472,995.5,359.472" style="stroke:#181818;stroke-width:1.0;"/></g><!--link C_0001713917564218839751 to C_0001313910692060789115--><g id="link_C_0001713917564218839751_C_0001313910692060789115"><path d="M104,399.132 C104,431.672 104,492.942 104,492.942 C104,492.942 592.25,492.942 761.18,492.942 " fill="none" id="C_0001713917564218839751-to-C_0001313910692060789115" style="stroke:#181818;stroke-width:1.0;"/><polygon fill="#181818" points="767.18,492.942,758.18,488.942,762.18,492.942,758.18,496.942,767.18,492.942" style="stroke:#181818;stroke-width:1.0;"/></g><!--link C_0000573434380307021447 to C_0001313910692060789115--><g id="link_C_0000573434380307021447_C_0001313910692060789115"><path d="M203.25,300.092 C203.25,351.812 203.25,486.942 203.25,486.942 C203.25,486.942 608.84,486.942 761.18,486.942 " fill="none" id="C_0000573434380307021447-to-C_0001313910692060789115" style="stroke:#181818;stroke-width:1.0;"/><polygon fill="#181818" points="767.18,486.942,758.18,482.942,762.18,486.942,758.18,490.942,767.18,486.942" style="stroke:#181818;stroke-width:1.0;"/></g><!--link C_0000573434380307021447 to C_0000635144929107397630--><g id="link_C_0000573434380307021447_C_0000635144929107397630"><path d="M240.75,299.842 C240.75,317.102 240.75,336.122 240.75,353.472 " fill="none" id="C_0000573434380307021447-to-C_0000635144929107397630" style="stroke:#181818;stroke-width:1.0;"/><polygon fill="#181818" points="240.75,359.472,244.75,350.472,240.75,354.472,236.75,350.472,240.75,359.472" style="stroke:#181818;stroke-width:1.0;"/></g><!--link C_0000937814363705873660 to C_0001313910692060789115--><g id="link_C_0000937814363705873660_C_0001313910692060789115"><path d="M576.25,299.962 C576.25,348.672 576.25,470.942 576.25,470.942 C576.25,470.942 688.21,470.942 761.01,470.942 " fill="none" id="C_0000937814363705873660-to-C_0001313910692060789115" style="stroke:#181818;stroke-width:1.0;"/><polygon fill="#181818" points="767.01,470.942,758.01,466.942,762.01,470.942,758.01,474.942,767.01,470.942" style="stroke:#181818;stroke-width:1.0;"/></g><!--link C_0000937814363705873660 to C_0001561123677079222676--><g id="link_C_0000937814363705873660_C_0001561123677079222676"><path d="M728.95,280.942 C742.81,280.942 752.7,280.942 752.7,280.942 C752.7,280.942 752.7,379.942 752.7,379.942 C752.7,379.942 860.64,379.942 927.18,379.942 " fill="none" id="C_0000937814363705873660-to-C_0001561123677079222676" style="stroke:#181818;stroke-width:1.0;"/><polygon fill="#181818" points="933.18,379.942,924.18,375.942,928.18,379.942,924.18,383.942,933.18,379.942" style="stroke:#181818;stroke-width:1.0;"/></g><!--link C_0001824995478737449985 to C_0001313910692060789115--><g id="link_C_0001824995478737449985_C_0001313910692060789115"><path d="M481,399.352 C481,427.652 481,475.942 481,475.942 C481,475.942 664.38,475.942 761.29,475.942 " fill="none" id="C_0001824995478737449985-to-C_0001313910692060789115" style="stroke:#181818;stroke-width:1.0;"/><polygon fill="#181818" points="767.29,475.942,758.29,471.942,762.29,475.942,758.29,479.942,767.29,475.942" style="stroke:#181818;stroke-width:1.0;"/></g><!--SRC=[fLTHZzis37xFhp3kfI-xWoHIfFGoeBWMBR0UDg27lWvkekjvS-p0yMqx3Ftlewz9QiUI8wmmOC01Fv7y-95KzdzMpQxiocrHLqtedtUXQBl-iLqzjFKcTCNLlbjV5UM-kFrTAQN1CMdFoCOJQ4Bauj_LGrM7ukfTkGqtwzrkP2tsochIIEWK6sVLmVRjxSUfgVBWhRoGo2cdqJewcDw7V_gdBjoLJVabT6SefSXR9EFG6KO0gm-ekt9tRifEWmQqJCwGyzQCulxrynzXtPyXj2VbK3i4rfO8b3yWVWdFdzkoszosJT-rTJqBItkjhT50pAIKzQUmjcNLd77aqO9sGWyR9lJE7Mq_IKHjPzwSdyqUdVSlHM1Mcc3rzLIigbdNJvimvjLvr0OrerUiICetBTZZA1GqtXDQPRHn8FR01ylRThjhcz3q-x6z4NFD96ydCE4Un-KT7ymUO4YDB86raYAU7pmnbp9vBPKrYgHg0vSdysRVbsTX27dMe_9MwBPoF16THF1DCvCSHGPCrh817EWpnwA-RVggVvxO6W068S-26RwGZd7STsMpVsYxRJH-AQLah9srNjaXSRJd9HrxiQJ5aqX5iJV641_3_xZhgZx4AKB9MVg535YloKbm1z3hfjgMVTKsxyjcKq-JLyxg5t87-HXv5AGLFSP9nx2NUZljlD5aw7lzwheIvSM3vA6ER0cDr0WydzhWNjvnwYm3okCKY5gDblao7GDlglKKG8FkK7BHYiM5TEa1y5lN3ZsTzEH1b810mCew1g8Zy7qew_undf4pw6NWi01Ol7fthEph_Jxq4RqfQLDfVz6yKEwr8Qz64seY6W0bKm0PPMWokEzYcmx0CMQ87InRbaG6zLkUpxInlLOMHJ5II0Ci4r3g-7ML6jN5zVNFwS5m6HKR3vTHCS8oK17sCb0H_bBRQCH6P9gbjb6EhoLKald8EijWOn4LcwCPg6I4y_KvYZ2Yn0nKaiCbr5A4vsjwv2ioyowZ_f-lPASiHvZibFcL8gUN5r59RSol8oDKPBMb4ixehsLKvDAGWOfS1p9GaOl1PLJiMf0JuNpJP_XAgVS2y_E5dU4hihCpK97zcn5XP06dH9EXZMLKIlCHqUIWvgB9qFmoAjcLSwbbiB6CIlLoHA2ZAaTkd9THwGZdilvXL3AlUJFa-9etmu-YObVSL0lb-5f49TcODzwohzMhTw49NTc7JV5trJyMwxfilbm_RUkVYhz2jvT_A8MwmHkuxjPwzUh3XqztfzzVJ4zVccxK3Vq7]--></g></svg>