<?xml version="1.0" encoding="us-ascii" standalone="no"?><svg xmlns="http://www.w3.org/2000/svg" xmlns:xlink="http://www.w3.org/1999/xlink" contentStyleType="text/css" height="875px" preserveAspectRatio="none" style="width:1990px;height:875px;background:#FFFFFF;" version="1.1" viewBox="0 0 1990 875" width="1990px" zoomAndPan="magnify"><defs/><g><rect fill="#FFFFFF" height="754.4722" style="stroke:#181818;stroke-width:1.0;" width="10" x="190" y="72.7739"/><rect fill="#FFFFFF" height="647.3541" style="stroke:#181818;stroke-width:1.0;" width="10" x="324" y="157.892"/><rect fill="#FFFFFF" height="14" style="stroke:#181818;stroke-width:1.0;" width="10" x="419" y="189.598"/><rect fill="#FFFFFF" height="221.412" style="stroke:#181818;stroke-width:1.0;" width="10" x="685" y="235.304"/><rect fill="#FFFFFF" height="221.412" style="stroke:#181818;stroke-width:1.0;" width="10" x="685" y="515.1281"/><rect fill="#FFFFFF" height="30" style="stroke:#181818;stroke-width:1.0;" width="10" x="685" y="775.2461"/><rect fill="#FFFFFF" height="30" style="stroke:#181818;stroke-width:1.0;" width="10" x="906" y="267.01"/><rect fill="#FFFFFF" height="30" style="stroke:#181818;stroke-width:1.0;" width="10" x="906" y="412.716"/><rect fill="#FFFFFF" height="42" style="stroke:#181818;stroke-width:1.0;" width="10" x="1117.5" y="311.01"/><rect fill="#FFFFFF" height="14" style="stroke:#181818;stroke-width:1.0;" width="10" x="1117.5" y="367.01"/><rect fill="#FFFFFF" height="14" style="stroke:#181818;stroke-width:1.0;" width="10" x="1370.5" y="325.01"/><rect fill="#FFFFFF" height="14" style="stroke:#181818;stroke-width:1.0;" width="10" x="1370.5" y="604.8341"/><rect fill="#FFFFFF" height="30" style="stroke:#181818;stroke-width:1.0;" width="10" x="1552" y="546.8341"/><rect fill="#FFFFFF" height="30" style="stroke:#181818;stroke-width:1.0;" width="10" x="1552" y="692.5401"/><rect fill="#FFFFFF" height="42" style="stroke:#181818;stroke-width:1.0;" width="10" x="1791.5" y="590.8341"/><rect fill="#FFFFFF" height="14" style="stroke:#181818;stroke-width:1.0;" width="10" x="1791.5" y="646.8341"/><rect fill="none" height="732.4722" style="stroke:#000000;stroke-width:1.5;" width="1831" x="153" y="87.7739"/><rect fill="none" height="698.7662" style="stroke:#000000;stroke-width:1.5;" width="1811" x="163" y="114.4799"/><rect fill="none" height="272.8241" style="stroke:#000000;stroke-width:1.5;" width="1671.5" x="292.5" y="471.716"/><line style="stroke:#181818;stroke-width:0.5;stroke-dasharray:5.0,5.0;" x1="195" x2="195" y1="39.0679" y2="837.2461"/><line style="stroke:#181818;stroke-width:0.5;stroke-dasharray:5.0,5.0;" x1="328.5" x2="328.5" y1="39.0679" y2="837.2461"/><line style="stroke:#181818;stroke-width:0.5;stroke-dasharray:5.0,5.0;" x1="423.5" x2="423.5" y1="39.0679" y2="837.2461"/><line style="stroke:#181818;stroke-width:0.5;stroke-dasharray:5.0,5.0;" x1="690" x2="690" y1="39.0679" y2="837.2461"/><line style="stroke:#181818;stroke-width:0.5;stroke-dasharray:5.0,5.0;" x1="911" x2="911" y1="39.0679" y2="837.2461"/><line style="stroke:#181818;stroke-width:0.5;stroke-dasharray:5.0,5.0;" x1="1122" x2="1122" y1="39.0679" y2="837.2461"/><line style="stroke:#181818;stroke-width:0.5;stroke-dasharray:5.0,5.0;" x1="1375" x2="1375" y1="39.0679" y2="837.2461"/><line style="stroke:#181818;stroke-width:0.5;stroke-dasharray:5.0,5.0;" x1="1557" x2="1557" y1="39.0679" y2="837.2461"/><line style="stroke:#181818;stroke-width:0.5;stroke-dasharray:5.0,5.0;" x1="1796" x2="1796" y1="39.0679" y2="837.2461"/><rect fill="#E2E2F0" height="33.0679" rx="2.5" ry="2.5" style="stroke:#181818;stroke-width:0.5;" width="44" x="173" y="5"/><text fill="#000000" font-family="sans-serif" font-size="14" lengthAdjust="spacing" textLength="30" x="180" y="26.9659">Map</text><rect fill="#E2E2F0" height="33.0679" rx="2.5" ry="2.5" style="stroke:#181818;stroke-width:0.5;" width="44" x="173" y="836.2461"/><text fill="#000000" font-family="sans-serif" font-size="14" lengthAdjust="spacing" textLength="30" x="180" y="858.2121">Map</text><rect fill="#E2E2F0" height="33.0679" rx="2.5" ry="2.5" style="stroke:#181818;stroke-width:0.5;" width="53" x="302.5" y="5"/><text fill="#000000" font-family="sans-serif" font-size="14" lengthAdjust="spacing" textLength="39" x="309.5" y="26.9659">Game</text><rect fill="#E2E2F0" height="33.0679" rx="2.5" ry="2.5" style="stroke:#181818;stroke-width:0.5;" width="53" x="302.5" y="836.2461"/><text fill="#000000" font-family="sans-serif" font-size="14" lengthAdjust="spacing" textLength="39" x="309.5" y="858.2121">Game</text><rect fill="#E2E2F0" height="33.0679" rx="2.5" ry="2.5" style="stroke:#181818;stroke-width:0.5;" width="75" x="386.5" y="5"/><text fill="#000000" font-family="sans-serif" font-size="14" lengthAdjust="spacing" textLength="61" x="393.5" y="26.9659">Manager</text><rect fill="#E2E2F0" height="33.0679" rx="2.5" ry="2.5" style="stroke:#181818;stroke-width:0.5;" width="75" x="386.5" y="836.2461"/><text fill="#000000" font-family="sans-serif" font-size="14" lengthAdjust="spacing" textLength="61" x="393.5" y="858.2121">Manager</text><rect fill="#E2E2F0" height="33.0679" rx="2.5" ry="2.5" style="stroke:#181818;stroke-width:0.5;" width="52" x="664" y="5"/><text fill="#000000" font-family="sans-serif" font-size="14" lengthAdjust="spacing" textLength="38" x="671" y="26.9659">Entity</text><rect fill="#E2E2F0" height="33.0679" rx="2.5" ry="2.5" style="stroke:#181818;stroke-width:0.5;" width="52" x="664" y="836.2461"/><text fill="#000000" font-family="sans-serif" font-size="14" lengthAdjust="spacing" textLength="38" x="671" y="858.2121">Entity</text><rect fill="#E2E2F0" height="33.0679" rx="2.5" ry="2.5" style="stroke:#181818;stroke-width:0.5;" width="116" x="853" y="5"/><text fill="#000000" font-family="sans-serif" font-size="14" lengthAdjust="spacing" textLength="102" x="860" y="26.9659">TileComponent</text><rect fill="#E2E2F0" height="33.0679" rx="2.5" ry="2.5" style="stroke:#181818;stroke-width:0.5;" width="116" x="853" y="836.2461"/><text fill="#000000" font-family="sans-serif" font-size="14" lengthAdjust="spacing" textLength="102" x="860" y="858.2121">TileComponent</text><rect fill="#E2E2F0" height="33.0679" rx="2.5" ry="2.5" style="stroke:#181818;stroke-width:0.5;" width="287" x="979" y="5"/><text fill="#000000" font-family="sans-serif" font-size="14" lengthAdjust="spacing" textLength="273" x="986" y="26.9659">getComponentTypeID&lt;TileComponent&gt;()</text><rect fill="#E2E2F0" height="33.0679" rx="2.5" ry="2.5" style="stroke:#181818;stroke-width:0.5;" width="287" x="979" y="836.2461"/><text fill="#000000" font-family="sans-serif" font-size="14" lengthAdjust="spacing" textLength="273" x="986" y="858.2121">getComponentTypeID&lt;TileComponent&gt;()</text><rect fill="#E2E2F0" height="33.0679" rx="2.5" ry="2.5" style="stroke:#181818;stroke-width:0.5;" width="199" x="1276" y="5"/><text fill="#000000" font-family="sans-serif" font-size="14" lengthAdjust="spacing" textLength="185" x="1283" y="26.9659">getNewComponentTypeID()</text><rect fill="#E2E2F0" height="33.0679" rx="2.5" ry="2.5" style="stroke:#181818;stroke-width:0.5;" width="199" x="1276" y="836.2461"/><text fill="#000000" font-family="sans-serif" font-size="14" lengthAdjust="spacing" textLength="185" x="1283" y="858.2121">getNewComponentTypeID()</text><rect fill="#E2E2F0" height="33.0679" rx="2.5" ry="2.5" style="stroke:#181818;stroke-width:0.5;" width="144" x="1485" y="5"/><text fill="#000000" font-family="sans-serif" font-size="14" lengthAdjust="spacing" textLength="130" x="1492" y="26.9659">ColliderComponent</text><rect fill="#E2E2F0" height="33.0679" rx="2.5" ry="2.5" style="stroke:#181818;stroke-width:0.5;" width="144" x="1485" y="836.2461"/><text fill="#000000" font-family="sans-serif" font-size="14" lengthAdjust="spacing" textLength="130" x="1492" y="858.2121">ColliderComponent</text><rect fill="#E2E2F0" height="33.0679" rx="2.5" ry="2.5" style="stroke:#181818;stroke-width:0.5;" width="315" x="1639" y="5"/><text fill="#000000" font-family="sans-serif" font-size="14" lengthAdjust="spacing" textLength="301" x="1646" y="26.9659">getComponentTypeID&lt;ColliderComponent&gt;()</text><rect fill="#E2E2F0" height="33.0679" rx="2.5" ry="2.5" style="stroke:#181818;stroke-width:0.5;" width="315" x="1639" y="836.2461"/><text fill="#000000" font-family="sans-serif" font-size="14" lengthAdjust="spacing" textLength="301" x="1646" y="858.2121">getComponentTypeID&lt;ColliderComponent&gt;()</text><rect fill="#FFFFFF" height="754.4722" style="stroke:#181818;stroke-width:1.0;" width="10" x="190" y="72.7739"/><rect fill="#FFFFFF" height="647.3541" style="stroke:#181818;stroke-width:1.0;" width="10" x="324" y="157.892"/><rect fill="#FFFFFF" height="14" style="stroke:#181818;stroke-width:1.0;" width="10" x="419" y="189.598"/><rect fill="#FFFFFF" height="221.412" style="stroke:#181818;stroke-width:1.0;" width="10" x="685" y="235.304"/><rect fill="#FFFFFF" height="221.412" style="stroke:#181818;stroke-width:1.0;" width="10" x="685" y="515.1281"/><rect fill="#FFFFFF" height="30" style="stroke:#181818;stroke-width:1.0;" width="10" x="685" y="775.2461"/><rect fill="#FFFFFF" height="30" style="stroke:#181818;stroke-width:1.0;" width="10" x="906" y="267.01"/><rect fill="#FFFFFF" height="30" style="stroke:#181818;stroke-width:1.0;" width="10" x="906" y="412.716"/><rect fill="#FFFFFF" height="42" style="stroke:#181818;stroke-width:1.0;" width="10" x="1117.5" y="311.01"/><rect fill="#FFFFFF" height="14" style="stroke:#181818;stroke-width:1.0;" width="10" x="1117.5" y="367.01"/><rect fill="#FFFFFF" height="14" style="stroke:#181818;stroke-width:1.0;" width="10" x="1370.5" y="325.01"/><rect fill="#FFFFFF" height="14" style="stroke:#181818;stroke-width:1.0;" width="10" x="1370.5" y="604.8341"/><rect fill="#FFFFFF" height="30" style="stroke:#181818;stroke-width:1.0;" width="10" x="1552" y="546.8341"/><rect fill="#FFFFFF" height="30" style="stroke:#181818;stroke-width:1.0;" width="10" x="1552" y="692.5401"/><rect fill="#FFFFFF" height="42" style="stroke:#181818;stroke-width:1.0;" width="10" x="1791.5" y="590.8341"/><rect fill="#FFFFFF" height="14" style="stroke:#181818;stroke-width:1.0;" width="10" x="1791.5" y="646.8341"/><polygon fill="#181818" points="178,68.7739,188,72.7739,178,76.7739,182,72.7739" style="stroke:#181818;stroke-width:1.0;"/><line style="stroke:#181818;stroke-width:1.0;" x1="0" x2="184" y1="72.7739" y2="72.7739"/><text fill="#000000" font-family="sans-serif" font-size="13" lengthAdjust="spacing" textLength="171" x="7" y="66.9649">loadMap(const char *,int,int)</text><path d="M153,87.7739 L226,87.7739 L226,97.4799 L216,107.4799 L153,107.4799 L153,87.7739 " fill="#EEEEEE" style="stroke:#000000;stroke-width:1.5;"/><rect fill="none" height="732.4722" style="stroke:#000000;stroke-width:1.5;" width="1831" x="153" y="87.7739"/><text fill="#000000" font-family="sans-serif" font-size="13" font-weight="bold" lengthAdjust="spacing" textLength="28" x="168" y="102.6709">loop</text><path d="M163,114.4799 L236,114.4799 L236,124.186 L226,134.186 L163,134.186 L163,114.4799 " fill="#EEEEEE" style="stroke:#000000;stroke-width:1.5;"/><rect fill="none" height="698.7662" style="stroke:#000000;stroke-width:1.5;" width="1811" x="163" y="114.4799"/><text fill="#000000" font-family="sans-serif" font-size="13" font-weight="bold" lengthAdjust="spacing" textLength="28" x="178" y="129.377">loop</text><polygon fill="#181818" points="312,153.892,322,157.892,312,161.892,316,157.892" style="stroke:#181818;stroke-width:1.0;"/><line style="stroke:#181818;stroke-width:1.0;" x1="200" x2="318" y1="157.892" y2="157.892"/><text fill="#000000" font-family="sans-serif" font-size="13" lengthAdjust="spacing" text-decoration="underline" textLength="105" x="207" y="152.083">addTile(int,int,int)</text><polygon fill="#181818" points="407,185.598,417,189.598,407,193.598,411,189.598" style="stroke:#181818;stroke-width:1.0;"/><line style="stroke:#181818;stroke-width:1.0;" x1="334" x2="413" y1="189.598" y2="189.598"/><text fill="#000000" font-family="sans-serif" font-size="13" lengthAdjust="spacing" textLength="66" x="341" y="183.789">addEntity()</text><polygon fill="#181818" points="345,199.598,335,203.598,345,207.598,341,203.598" style="stroke:#181818;stroke-width:1.0;"/><line style="stroke:#181818;stroke-width:1.0;stroke-dasharray:2.0,2.0;" x1="339" x2="423" y1="203.598" y2="203.598"/><polygon fill="#181818" points="673,231.304,683,235.304,673,239.304,677,235.304" style="stroke:#181818;stroke-width:1.0;"/><line style="stroke:#181818;stroke-width:1.0;" x1="334" x2="679" y1="235.304" y2="235.304"/><text fill="#000000" font-family="sans-serif" font-size="13" lengthAdjust="spacing" textLength="332" x="341" y="229.495">addComponent(int &amp;,int &amp;,const int &amp;,const int &amp;,int &amp;)</text><polygon fill="#181818" points="894,263.01,904,267.01,894,271.01,898,267.01" style="stroke:#181818;stroke-width:1.0;"/><line style="stroke:#181818;stroke-width:1.0;" x1="695" x2="900" y1="267.01" y2="267.01"/><text fill="#000000" font-family="sans-serif" font-size="13" lengthAdjust="spacing" textLength="192" x="702" y="261.201">TileComponent(int,int,int,int,int)</text><polygon fill="#181818" points="1105.5,307.01,1115.5,311.01,1105.5,315.01,1109.5,311.01" style="stroke:#181818;stroke-width:1.0;"/><line style="stroke:#181818;stroke-width:1.0;" x1="695" x2="1111.5" y1="311.01" y2="311.01"/><polygon fill="#181818" points="1358.5,321.01,1368.5,325.01,1358.5,329.01,1362.5,325.01" style="stroke:#181818;stroke-width:1.0;"/><line style="stroke:#181818;stroke-width:1.0;" x1="1127.5" x2="1364.5" y1="325.01" y2="325.01"/><polygon fill="#181818" points="1138.5,335.01,1128.5,339.01,1138.5,343.01,1134.5,339.01" style="stroke:#181818;stroke-width:1.0;"/><line style="stroke:#181818;stroke-width:1.0;stroke-dasharray:2.0,2.0;" x1="1132.5" x2="1374.5" y1="339.01" y2="339.01"/><polygon fill="#181818" points="706,349.01,696,353.01,706,357.01,702,353.01" style="stroke:#181818;stroke-width:1.0;"/><line style="stroke:#181818;stroke-width:1.0;stroke-dasharray:2.0,2.0;" x1="700" x2="1121.5" y1="353.01" y2="353.01"/><polygon fill="#181818" points="1105.5,363.01,1115.5,367.01,1105.5,371.01,1109.5,367.01" style="stroke:#181818;stroke-width:1.0;"/><line style="stroke:#181818;stroke-width:1.0;" x1="695" x2="1111.5" y1="367.01" y2="367.01"/><polygon fill="#181818" points="706,377.01,696,381.01,706,385.01,702,381.01" style="stroke:#181818;stroke-width:1.0;"/><line style="stroke:#181818;stroke-width:1.0;stroke-dasharray:2.0,2.0;" x1="700" x2="1121.5" y1="381.01" y2="381.01"/><polygon fill="#181818" points="894,408.716,904,412.716,894,416.716,898,412.716" style="stroke:#181818;stroke-width:1.0;"/><line style="stroke:#181818;stroke-width:1.0;" x1="695" x2="900" y1="412.716" y2="412.716"/><text fill="#000000" font-family="sans-serif" font-size="13" lengthAdjust="spacing" textLength="27" x="702" y="406.907">init()</text><polygon fill="#181818" points="345,452.716,335,456.716,345,460.716,341,456.716" style="stroke:#181818;stroke-width:1.0;"/><line style="stroke:#181818;stroke-width:1.0;stroke-dasharray:2.0,2.0;" x1="339" x2="689" y1="456.716" y2="456.716"/><path d="M292.5,471.716 L355.5,471.716 L355.5,481.4221 L345.5,491.4221 L292.5,491.4221 L292.5,471.716 " fill="#EEEEEE" style="stroke:#000000;stroke-width:1.5;"/><rect fill="none" height="272.8241" style="stroke:#000000;stroke-width:1.5;" width="1671.5" x="292.5" y="471.716"/><text fill="#000000" font-family="sans-serif" font-size="13" font-weight="bold" lengthAdjust="spacing" textLength="18" x="307.5" y="486.6131">alt</text><polygon fill="#181818" points="673,511.1281,683,515.1281,673,519.1281,677,515.1281" style="stroke:#181818;stroke-width:1.0;"/><line style="stroke:#181818;stroke-width:1.0;" x1="334" x2="679" y1="515.1281" y2="515.1281"/><text fill="#000000" font-family="sans-serif" font-size="13" lengthAdjust="spacing" textLength="201" x="341" y="509.3191">addComponent(const char (&amp;)[6])</text><polygon fill="#181818" points="1540,542.8341,1550,546.8341,1540,550.8341,1544,546.8341" style="stroke:#181818;stroke-width:1.0;"/><line style="stroke:#181818;stroke-width:1.0;" x1="695" x2="1546" y1="546.8341" y2="546.8341"/><text fill="#000000" font-family="sans-serif" font-size="13" lengthAdjust="spacing" textLength="197" x="702" y="541.0251">ColliderComponent(const char *)</text><polygon fill="#181818" points="1779.5,586.8341,1789.5,590.8341,1779.5,594.8341,1783.5,590.8341" style="stroke:#181818;stroke-width:1.0;"/><line style="stroke:#181818;stroke-width:1.0;" x1="695" x2="1785.5" y1="590.8341" y2="590.8341"/><polygon fill="#181818" points="1391.5,600.8341,1381.5,604.8341,1391.5,608.8341,1387.5,604.8341" style="stroke:#181818;stroke-width:1.0;"/><line style="stroke:#181818;stroke-width:1.0;" x1="1385.5" x2="1790.5" y1="604.8341" y2="604.8341"/><polygon fill="#181818" points="1779.5,614.8341,1789.5,618.8341,1779.5,622.8341,1783.5,618.8341" style="stroke:#181818;stroke-width:1.0;"/><line style="stroke:#181818;stroke-width:1.0;stroke-dasharray:2.0,2.0;" x1="1375.5" x2="1785.5" y1="618.8341" y2="618.8341"/><polygon fill="#181818" points="706,628.8341,696,632.8341,706,636.8341,702,632.8341" style="stroke:#181818;stroke-width:1.0;"/><line style="stroke:#181818;stroke-width:1.0;stroke-dasharray:2.0,2.0;" x1="700" x2="1795.5" y1="632.8341" y2="632.8341"/><polygon fill="#181818" points="1779.5,642.8341,1789.5,646.8341,1779.5,650.8341,1783.5,646.8341" style="stroke:#181818;stroke-width:1.0;"/><line style="stroke:#181818;stroke-width:1.0;" x1="695" x2="1785.5" y1="646.8341" y2="646.8341"/><polygon fill="#181818" points="706,656.8341,696,660.8341,706,664.8341,702,660.8341" style="stroke:#181818;stroke-width:1.0;"/><line style="stroke:#181818;stroke-width:1.0;stroke-dasharray:2.0,2.0;" x1="700" x2="1795.5" y1="660.8341" y2="660.8341"/><polygon fill="#181818" points="1540,688.5401,1550,692.5401,1540,696.5401,1544,692.5401" style="stroke:#181818;stroke-width:1.0;"/><line style="stroke:#181818;stroke-width:1.0;" x1="695" x2="1546" y1="692.5401" y2="692.5401"/><text fill="#000000" font-family="sans-serif" font-size="13" lengthAdjust="spacing" textLength="27" x="702" y="686.7311">init()</text><polygon fill="#181818" points="345,732.5401,335,736.5401,345,740.5401,341,736.5401" style="stroke:#181818;stroke-width:1.0;"/><line style="stroke:#181818;stroke-width:1.0;stroke-dasharray:2.0,2.0;" x1="339" x2="689" y1="736.5401" y2="736.5401"/><polygon fill="#181818" points="673,771.2461,683,775.2461,673,779.2461,677,775.2461" style="stroke:#181818;stroke-width:1.0;"/><line style="stroke:#181818;stroke-width:1.0;" x1="334" x2="679" y1="775.2461" y2="775.2461"/><text fill="#000000" font-family="sans-serif" font-size="13" lengthAdjust="spacing" textLength="107" x="341" y="769.4371">addGroup(Group)</text><!--SRC=[pPTRQzim5CVV_Ib47rft944NwpP6Nx8H1ksUobxA228MYPWZ6qTjwRUVahHURCcvR6stW8NZw9pp-n-TSqnMFusjLAsMe31MkwTAWx9sYpBn3vsPcKfP1yvkL7K6r0gCfz1_EEIKCaWP8fbWai0ikHjUzVu8FeAYLBdtaSvAkt9Wjb0r-30mrgsloqJDd7bGJlUxBygosYujh8bQwjzS60aYl2tXWWj948GqwMLwuOqOUTxfLENvhIbq-Wov0PrEEwYnY9syMJNNzKxkCYOefWWA8haWcIGuwULeSXeQUKPF-CKwuvxI88DzGMAEXdioaUJwiEUMu2tHZbufa1GSGmHb1Xd3KXwXDpJQwXsNowgqshhriO3pmNRT5bLulrc3t4I0MWhMfzx4sH4Y2ATOPfHHGR0GWiEa5xOH4Xfv8Qq8kmNMsn6HsC79HFQqTCsrQuBU-ZR_-lbJ2-GglTnHIpF46KOO4Wc5P1adHwWDZRpQhfQ8voxdD_tOGMsn4OmGuf0GNpK4IygVIoeMls4BZI9ilPuZriCziiFJEObvJn-4dj_rfFubSxINZ3KkVQr-wMSuQKP6Cg0AzofZR-VzcPvVth4V9u-tSLaK9jTrPCHXl3R34ljYvHc5ZDF3nn8nyj11bDQRlmiT2zpDQcpFeVaMKBHd794PPe8Hd4d_CaD2e2EgC3IApP4-pn7hzvXG4PxZ9rIC-QHk_q_o_ERCyLQ8JgW_hVYtcr3QvdyneIPrUL-bc_MOYNGCK92EYB0rzFeA_4N-GYGN4srrxVVauD6u1PWLoiw7zyjY01vqlJAb1N2KZSYmdg7aulhw-qtpVBEr-ORO28xOBm00]--></g></svg>